<svg width="32" height="32" viewBox="0 0 32 32" fill="none" xmlns="http://www.w3.org/2000/svg">
<g clip-path="url(#clip0_2715_2325)">
<path d="M18.504 1.84718L17.6142 1.43226C15.3108 0.35819 12.5729 1.35471 11.4988 3.65806L2.43222 23.1015C1.35816 25.4048 2.35468 28.1427 4.65803 29.2168L5.54784 29.6317C7.85118 30.7058 10.5891 29.7093 11.6632 27.4059L20.7298 7.96252C21.8039 5.65918 20.8073 2.92125 18.504 1.84718Z" fill="#1C2024"/>
<path d="M24.8585 30.1937C27.7 30.1937 30.0036 27.8902 30.0036 25.0486C30.0036 22.2071 27.7 19.9035 24.8585 19.9035C22.0169 19.9035 19.7134 22.2071 19.7134 25.0486C19.7134 27.8902 22.0169 30.1937 24.8585 30.1937Z" fill="#1C2024"/>
</g>
<defs>
<clipPath id="clip0_2715_2325">
<rect width="32.0035" height="32" fill="white"/>
</clipPath>
</defs>
</svg>
