<svg width="1013" height="214" viewBox="0 0 1013 214" fill="none" xmlns="http://www.w3.org/2000/svg">
<path d="M208.798 170.913L250.605 20.8195H293.696L335.503 170.913H309.985L300.755 136.166H243.504L234.063 170.913H208.756H208.798ZM249.53 113.451H294.771L273.973 36.265H270.328L249.53 113.451Z" fill="url(#paint0_linear_462_21)"/>
<path d="M344.901 119.667V116.443C344.901 82.1381 366.984 61.9725 393.366 61.9725C413.531 61.9725 423.393 70.5487 428.324 78.7034H431.758V20.8195H455.338V170.913H432.18V156.542H428.745C423.393 165.329 413.51 173.905 393.366 173.905C367.195 173.905 344.901 153.972 344.901 119.646V119.667ZM432.18 119.035V116.885C432.18 94.8022 418.673 82.5806 400.235 82.5806C381.797 82.5806 368.501 94.8022 368.501 116.885V119.035C368.501 141.118 382.008 153.339 400.235 153.339C418.462 153.339 432.18 141.118 432.18 119.035Z" fill="url(#paint1_linear_462_21)"/>
<path d="M483.195 170.913V64.9857H506.142V77.2073H509.787C513.433 69.9165 522.009 63.2789 537.012 63.2789C552.015 63.2789 561.455 70.359 566.386 80.0099H570.031C574.751 70.5697 583.117 63.2789 600.059 63.2789C620.224 63.2789 635.649 76.1537 635.649 100.597V170.934H612.28V102.325C612.28 90.1032 604.989 83.0231 592.978 83.0231C579.471 83.0231 571.106 91.81 571.106 107.888V170.934H547.737V102.325C547.737 90.1032 540.447 83.0231 528.436 83.0231C514.929 83.0231 506.563 91.81 506.563 107.888V170.934H483.195V170.913Z" fill="url(#paint2_linear_462_21)"/>
<path d="M674.442 213.794V193.207H733.19C737.256 193.207 739.195 191.058 739.195 186.78V155.91H735.76C731.904 163.833 722.886 172.641 702.952 172.641C678.719 172.641 661.567 155.489 661.567 128.686V65.0068H684.935V126.768C684.935 144.574 694.165 152.707 710.032 152.707C727.606 152.707 738.984 140.696 738.984 118.613V65.0068H762.353V191.732C762.353 205.239 753.987 213.815 740.48 213.815H674.442V213.794Z" fill="url(#paint3_linear_462_21)"/>
<path d="M790.209 170.913V64.9857H813.157V77.418H816.802C820.026 68.6311 827.527 64.5432 838.464 64.5432H851.107V85.5517H837.81C823.44 85.5517 813.578 93.2639 813.578 109.131V170.892H790.209V170.913Z" fill="url(#paint4_linear_462_21)"/>
<path d="M862.317 140.254C862.317 118.592 879.469 107.445 902.838 107.445H934.361V101.018C934.361 89.429 927.281 81.2953 912.489 81.2953C897.696 81.2953 890.616 89.0076 888.256 99.9438L866.384 92.8637C871.525 76.1328 885.475 61.9937 912.699 61.9937C939.924 61.9937 957.076 76.5753 957.076 102.515V144.974C957.076 149.273 959.226 151.401 963.082 151.401H972.08V170.913H955.138C945.066 170.913 937.986 165.329 937.986 156.542V156.121H934.34C931.559 162.548 924.057 173.927 901.953 173.927C879.849 173.927 862.275 161.916 862.275 140.254H862.317ZM934.361 127.611V125.462H904.334C893.187 125.462 885.896 130.392 885.896 139.622C885.896 148.851 893.187 154.625 905.83 154.625C922.561 154.625 934.34 144.342 934.34 127.611H934.361Z" fill="url(#paint5_linear_462_21)"/>
<path d="M989.632 170.913V20.8195H1013V170.913H989.632Z" fill="url(#paint6_linear_462_21)"/>
<rect x="75.1841" width="59.6346" height="178.214" rx="28" transform="rotate(24.9531 75.1841 0)" fill="url(#paint7_linear_462_21)"/>
<circle cx="140.797" cy="146.384" r="31" fill="url(#paint8_linear_462_21)"/>
<defs>
<linearGradient id="paint0_linear_462_21" x1="269.864" y1="160.169" x2="269.864" y2="6.96118" gradientUnits="userSpaceOnUse">
<stop stop-color="#BCBCBC"/>
<stop offset="1" stop-color="white"/>
</linearGradient>
<linearGradient id="paint1_linear_462_21" x1="398.145" y1="162.947" x2="398.145" y2="6.6849" gradientUnits="userSpaceOnUse">
<stop stop-color="#BCBCBC"/>
<stop offset="1" stop-color="white"/>
</linearGradient>
<linearGradient id="paint2_linear_462_21" x1="556.696" y1="163.228" x2="556.696" y2="53.339" gradientUnits="userSpaceOnUse">
<stop stop-color="#BCBCBC"/>
<stop offset="1" stop-color="white"/>
</linearGradient>
<linearGradient id="paint3_linear_462_21" x1="710.158" y1="203.163" x2="710.158" y2="51.2672" gradientUnits="userSpaceOnUse">
<stop stop-color="#BCBCBC"/>
<stop offset="1" stop-color="white"/>
</linearGradient>
<linearGradient id="paint4_linear_462_21" x1="819.569" y1="163.299" x2="819.569" y2="54.722" gradientUnits="userSpaceOnUse">
<stop stop-color="#BCBCBC"/>
<stop offset="1" stop-color="white"/>
</linearGradient>
<linearGradient id="paint5_linear_462_21" x1="915.214" y1="165.914" x2="915.214" y2="51.6588" gradientUnits="userSpaceOnUse">
<stop stop-color="#BCBCBC"/>
<stop offset="1" stop-color="white"/>
</linearGradient>
<linearGradient id="paint6_linear_462_21" x1="1000.9" y1="160.169" x2="1000.9" y2="6.96118" gradientUnits="userSpaceOnUse">
<stop stop-color="#BCBCBC"/>
<stop offset="1" stop-color="white"/>
</linearGradient>
<linearGradient id="paint7_linear_462_21" x1="104.229" y1="157.281" x2="93.7609" y2="8.91004" gradientUnits="userSpaceOnUse">
<stop stop-color="#BCBCBC"/>
<stop offset="1" stop-color="white"/>
</linearGradient>
<linearGradient id="paint8_linear_462_21" x1="139.995" y1="170.102" x2="138.771" y2="118.256" gradientUnits="userSpaceOnUse">
<stop stop-color="#BCBCBC"/>
<stop offset="1" stop-color="white"/>
</linearGradient>
</defs>
</svg>
