<?xml version="1.0" standalone="no"?>
<!DOCTYPE svg PUBLIC "-//W3C//DTD SVG 20010904//EN"
 "http://www.w3.org/TR/2001/REC-SVG-20010904/DTD/svg10.dtd">
<svg version="1.0" xmlns="http://www.w3.org/2000/svg"
 width="400.000000pt" height="399.000000pt" viewBox="0 0 400.000000 399.000000"
 preserveAspectRatio="xMidYMid meet">

<g transform="translate(0.000000,399.000000) scale(0.100000,-0.100000)"
fill="#000000" stroke="none">
<path d="M3030 1975 c0 -498 0 -505 20 -505 20 0 20 7 20 505 0 498 0 505 -20
505 -20 0 -20 -7 -20 -505z"/>
<path d="M3550 2184 c0 -171 1 -185 18 -182 14 3 17 17 20 96 3 90 3 92 32
107 70 36 90 12 90 -111 0 -86 2 -95 18 -92 14 3 18 16 20 73 2 39 0 85 -3
103 -12 65 -64 89 -125 57 l-30 -16 0 76 c0 68 -2 75 -20 75 -19 0 -20 -7 -20
-186z"/>
<path d="M2101 2240 c-50 -12 -84 -42 -105 -92 -23 -57 -16 -107 22 -149 21
-23 47 -35 114 -53 48 -13 95 -29 103 -36 17 -14 20 -53 5 -80 -21 -39 -114
-51 -208 -26 l-52 13 0 -37 c0 -34 4 -39 32 -49 97 -34 226 -20 283 31 55 48
68 134 28 194 -16 25 -65 48 -146 68 -33 8 -67 22 -78 32 -19 17 -25 59 -11
80 23 35 93 43 180 20 l53 -13 -3 41 -3 41 -55 12 c-64 13 -112 14 -159 3z"/>
<path d="M3324 2231 c-64 -39 -72 -152 -14 -204 27 -24 38 -28 83 -25 37 2 53
7 55 18 2 12 -7 14 -42 12 -58 -5 -96 28 -96 82 0 73 45 115 109 101 24 -5 31
-3 31 8 0 32 -79 37 -126 8z"/>
<path d="M381 1984 c-56 -140 -101 -257 -101 -260 0 -2 21 -4 48 -4 l47 0 74
196 c42 110 77 190 81 182 4 -7 37 -95 75 -195 l68 -183 50 0 c35 0 48 4 44
13 -3 6 -49 123 -102 260 l-98 247 -43 0 -43 0 -100 -256z"/>
<path d="M880 1980 l0 -262 133 4 c144 5 193 20 235 73 46 58 32 149 -27 179
l-30 16 30 29 c24 25 29 38 29 79 0 35 -6 57 -21 76 -39 49 -73 60 -216 64
l-133 4 0 -262z m254 159 c56 -44 22 -103 -67 -114 -89 -11 -92 -10 -95 68
l-3 67 69 0 c55 0 75 -4 96 -21z m1 -203 c22 -9 37 -24 41 -40 16 -63 -32 -96
-141 -96 l-65 0 0 68 c0 38 3 72 7 75 12 13 123 7 158 -7z"/>
<path d="M1410 2047 c0 -180 1 -196 23 -237 27 -55 80 -87 158 -96 115 -13
213 41 238 133 6 21 11 118 11 216 l0 177 -45 0 -45 0 0 -157 c-1 -179 -8
-226 -43 -261 -32 -32 -101 -41 -145 -18 -56 29 -62 55 -62 256 l0 180 -45 0
-45 0 0 -193z"/>
<path d="M2490 1980 l0 -260 173 2 172 3 0 35 0 35 -127 3 -128 3 0 74 0 75
105 0 105 0 0 35 0 35 -105 0 -105 0 0 70 0 70 120 0 120 0 0 40 0 40 -165 0
-165 0 0 -260z"/>
</g>
</svg>
