<svg width="16" height="16" viewBox="0 0 16 16" fill="none" xmlns="http://www.w3.org/2000/svg">
<rect width="16" height="16" fill="white" fill-opacity="0.01"/>
<path fill-rule="evenodd" clip-rule="evenodd" d="M8.27126 1.94088C8.1039 1.84197 7.89599 1.84197 7.72862 1.94088L1.86195 5.40754C1.69957 5.50349 1.59994 5.67808 1.59994 5.8667C1.59994 6.05532 1.69957 6.22991 1.86195 6.32586L7.72862 9.79252C7.89599 9.89142 8.1039 9.89142 8.27126 9.79252L14.1379 6.32586C14.3004 6.22991 14.4 6.05532 14.4 5.8667C14.4 5.67808 14.3004 5.50349 14.1379 5.40754L8.27126 1.94088ZM7.99994 8.71388L3.18164 5.8667L7.99994 3.01952L12.8182 5.8667L7.99994 8.71388ZM2.40459 8.87421C2.15101 8.72436 1.82397 8.80846 1.67411 9.06205C1.52426 9.31563 1.60836 9.64268 1.86195 9.79252L7.72862 13.2592C7.89599 13.3581 8.1039 13.3581 8.27126 13.2592L14.1379 9.79252C14.3916 9.64268 14.4756 9.31563 14.3257 9.06205C14.1759 8.80846 13.8488 8.72436 13.5953 8.87421L7.99994 12.1805L2.40459 8.87421Z" fill="#000509" fill-opacity="0.891"/>
</svg>
