<svg width="16" height="16" viewBox="0 0 16 16" fill="none" xmlns="http://www.w3.org/2000/svg">
<mask id="mask0_540_5625" style="mask-type:luminance" maskUnits="userSpaceOnUse" x="0" y="0" width="16" height="16">
<path d="M0 0H16V16H0V0Z" fill="white"/>
</mask>
<g mask="url(#mask0_540_5625)">
<path fill-rule="evenodd" clip-rule="evenodd" d="M5.41641 1.92651C5.36992 1.9192 5.32267 1.91808 5.27588 1.92318C4.37519 2.02127 3.00709 2.50647 2.19935 2.94456C2.1437 2.97474 2.09386 3.01461 2.05218 3.06226C1.71503 3.44774 1.41042 4.07543 1.17205 4.66603C0.926763 5.27374 0.723623 5.91421 0.607797 6.37729C0.231107 7.88334 0.0243178 9.6915 -0.00237669 11.405C-0.00376762 11.4943 0.0172828 11.5825 0.0588436 11.6616C0.382758 12.2776 1.07643 12.8465 1.76862 13.2613C2.46893 13.6808 3.28698 14.0136 3.94902 14.0776C4.11512 14.0936 4.27916 14.031 4.39231 13.9083C4.55848 13.7281 4.83915 13.3098 5.0501 12.987C5.16243 12.8151 5.26634 12.6524 5.34207 12.5328C5.34725 12.5247 5.35228 12.5167 5.35719 12.5089C6.0744 12.6814 6.9499 12.8001 8.00031 12.8001C9.0496 12.8001 9.92436 12.6816 10.6411 12.5095C10.6459 12.517 10.6509 12.5248 10.6559 12.5328C10.7316 12.6524 10.8356 12.8151 10.9479 12.987C11.1588 13.3098 11.4395 13.7281 11.6056 13.9083C11.7188 14.031 11.8829 14.0936 12.0489 14.0776C12.711 14.0136 13.529 13.6808 14.2294 13.2613C14.9216 12.8465 15.6152 12.2776 15.9392 11.6616C15.9807 11.5825 16.0018 11.4943 16.0004 11.405C15.9736 9.6915 15.7669 7.88334 15.3902 6.37729C15.2743 5.91421 15.0712 5.27374 14.8259 4.66603C14.5876 4.07543 14.283 3.44774 13.9458 3.06226C13.9041 3.01461 13.8543 2.97474 13.7986 2.94456C12.9909 2.50647 11.6228 2.02127 10.7221 1.92318C10.6753 1.91808 10.6281 1.9192 10.5816 1.92651C10.3565 1.96187 10.1637 2.07762 10.0227 2.18412C9.87364 2.29675 9.73548 2.43515 9.61648 2.5748C9.44233 2.77918 9.27343 3.02899 9.16568 3.26581C8.80229 3.2243 8.41324 3.20002 8.00029 3.20002C7.58642 3.20002 7.19653 3.22441 6.83243 3.26608C6.72468 3.0292 6.55572 2.77926 6.3815 2.5748C6.2625 2.43515 6.12435 2.29675 5.97526 2.18412C5.83428 2.07762 5.64146 1.96187 5.41641 1.92651ZM11.6975 12.1821C11.7424 12.252 11.7908 12.3269 11.8408 12.4035C11.9796 12.6159 12.1165 12.819 12.2235 12.969C12.6415 12.8728 13.1714 12.6517 13.6811 12.3463C14.2568 12.0013 14.7107 11.6064 14.9311 11.2728C14.896 9.66926 14.6979 8.00542 14.3554 6.63611C14.2519 6.22229 14.0642 5.62869 13.8368 5.06526C13.6234 4.53673 13.3972 4.0911 13.2002 3.83461C12.5102 3.47786 11.4276 3.10135 10.7198 2.99808C10.7058 3.00656 10.6878 3.01853 10.6657 3.03523C10.5946 3.08894 10.512 3.16846 10.4284 3.26662C10.3729 3.33167 10.3237 3.39694 10.2813 3.45869C10.6734 3.55039 11.0195 3.6577 11.3159 3.76546C11.7069 3.90764 12.0117 4.0508 12.2219 4.16051C12.3272 4.21539 12.4088 4.26198 12.466 4.296C12.4945 4.31302 12.517 4.3269 12.5331 4.33712L12.5527 4.34964L12.5589 4.35371L12.5611 4.35518L12.5621 4.35577C12.5623 4.35589 12.5627 4.35626 12.2826 4.77652L12.5621 4.35577C12.8071 4.51915 12.8741 4.85079 12.7107 5.09586C12.5476 5.34047 12.2175 5.40692 11.9726 5.24472L11.9715 5.24401C11.9714 5.24391 11.9711 5.24378 12.267 4.80002L11.9715 5.24401L11.9635 5.23897C11.955 5.23356 11.9405 5.22453 11.9201 5.21238C11.8792 5.18807 11.8151 5.15132 11.7286 5.1062C11.5556 5.01592 11.2937 4.89241 10.9513 4.76792C10.2667 4.51895 9.26187 4.26669 8.00029 4.26669C6.73871 4.26669 5.73389 4.51895 5.04922 4.76792C4.70685 4.89241 4.44503 5.01592 4.27199 5.1062C4.18552 5.15132 4.12136 5.18807 4.08055 5.21238C4.06015 5.22453 4.0456 5.23356 4.03704 5.23897L4.02871 5.24429C4.02861 5.24436 4.0288 5.24423 4.02871 5.24429C3.78368 5.40717 3.45312 5.34075 3.28987 5.09586C3.12648 4.85079 3.1927 4.51965 3.43779 4.35627L3.73363 4.80002C3.43779 4.35627 3.4376 4.35639 3.43779 4.35627L3.43942 4.35518L3.44165 4.35371L3.44789 4.34964L3.46745 4.33712C3.48362 4.3269 3.50606 4.31302 3.53462 4.296C3.59173 4.26198 3.6734 4.21539 3.77859 4.16051C3.98889 4.0508 4.29373 3.90764 4.68469 3.76546C4.9805 3.6579 5.32588 3.55081 5.71706 3.45921C5.67461 3.39731 5.6252 3.33185 5.5696 3.26662C5.48597 3.16846 5.4034 3.08894 5.33229 3.03523C5.31018 3.01853 5.29215 3.00656 5.27819 2.99808C4.57042 3.10135 3.48778 3.47786 2.79781 3.83461C2.60077 4.0911 2.3745 4.53673 2.16118 5.06526C1.93378 5.62869 1.7461 6.22229 1.64259 6.63611C1.3001 8.00542 1.10199 9.66926 1.06695 11.2728C1.28727 11.6064 1.74115 12.0013 2.31684 12.3463C2.82659 12.6517 3.35647 12.8728 3.77446 12.969C3.88153 12.819 4.01838 12.6159 4.15715 12.4035C4.20742 12.3265 4.25604 12.2514 4.3011 12.1813C4.19958 12.1418 4.10322 12.1018 4.01191 12.0616C3.5848 11.8733 3.27094 11.6824 3.05868 11.5331C2.95261 11.4587 2.87206 11.3947 2.81552 11.3468C2.78726 11.3229 2.765 11.303 2.74856 11.2878C2.74035 11.2802 2.73358 11.2738 2.72825 11.2687L2.72133 11.262L2.71866 11.2594L2.71753 11.2583C2.71728 11.2581 2.71653 11.2573 3.09365 10.8801L2.71653 11.2573C2.50825 11.049 2.50825 10.7113 2.71653 10.503C2.92372 10.2958 3.25894 10.2948 3.46747 10.4998L3.4716 10.5036C3.4772 10.5088 3.48818 10.5187 3.5047 10.5327C3.53774 10.5607 3.59303 10.605 3.67195 10.6605C3.8297 10.7713 4.08249 10.927 4.44205 11.0855C5.15932 11.4015 6.31257 11.7335 8.00031 11.7335C9.68807 11.7335 10.8414 11.4015 11.5586 11.0855C11.9182 10.927 12.171 10.7713 12.3287 10.6605C12.4077 10.605 12.4629 10.5606 12.496 10.5327C12.5125 10.5187 12.5235 10.5088 12.529 10.5036L12.5332 10.4998C12.7417 10.2948 13.0769 10.2958 13.2841 10.503C13.4923 10.7113 13.4923 11.049 13.2841 11.2573L12.9123 10.8855C13.2841 11.2573 13.2845 11.2571 13.2841 11.2573L13.2831 11.2583L13.282 11.2594L13.2793 11.262L13.2724 11.2687C13.2671 11.2738 13.2603 11.2802 13.252 11.2878C13.2356 11.303 13.2134 11.3229 13.1851 11.3468C13.1286 11.3947 13.0481 11.4587 12.9419 11.5331C12.7297 11.6824 12.4159 11.8733 11.9888 12.0616C11.8968 12.1021 11.7998 12.1424 11.6975 12.1821ZM4.35282 7.47971C4.61269 7.19985 4.96537 7.04175 5.3337 7.04C5.70203 7.04175 6.05472 7.19985 6.3146 7.47971C6.57447 7.75959 6.72037 8.13841 6.72037 8.53334C6.72037 8.92825 6.57447 9.30707 6.3146 9.58695C6.05472 9.86681 5.70203 10.0249 5.3337 10.0267C4.96537 10.0249 4.61269 9.86681 4.35282 9.58695C4.09293 9.30707 3.94703 8.92825 3.94703 8.53334C3.94703 8.13841 4.09293 7.75959 4.35282 7.47971ZM10.6657 7.04C10.2974 7.04175 9.94472 7.19985 9.68484 7.47971C9.42496 7.75959 9.27907 8.13841 9.27907 8.53334C9.27907 8.92825 9.42496 9.30707 9.68484 9.58695C9.94472 9.86681 10.2974 10.0249 10.6657 10.0267C11.0341 10.0249 11.3867 9.86681 11.6466 9.58695C11.9065 9.30707 12.0525 8.92825 12.0525 8.53334C12.0525 8.13841 11.9065 7.75959 11.6466 7.47971C11.3867 7.19985 11.0341 7.04175 10.6657 7.04Z" fill="#1C2024"/>
</g>
</svg>
