<svg width="16" height="16" viewBox="0 0 16 16" fill="none" xmlns="http://www.w3.org/2000/svg">
<rect width="16" height="16" fill="white" fill-opacity="0.01"/>
<path fill-rule="evenodd" clip-rule="evenodd" d="M7.99928 0.266666C3.72944 0.266666 0.266663 3.72899 0.266663 8.00026C0.266663 11.4165 2.48229 14.3153 5.5553 15.3383C5.94222 15.4091 6.08322 15.1703 6.08322 14.9652C6.08322 14.7814 6.07657 14.2954 6.07277 13.6501C3.92171 14.1173 3.46786 12.6133 3.46786 12.6133C3.11607 11.7199 2.60905 11.482 2.60905 11.482C1.90691 11.0026 2.66223 11.0121 2.66223 11.0121C3.43843 11.0667 3.84671 11.8092 3.84671 11.8092C4.53651 12.9907 5.6569 12.6494 6.09747 12.4514C6.16773 11.952 6.36759 11.6111 6.58835 11.4179C4.8712 11.2223 3.06576 10.5591 3.06576 7.59578C3.06576 6.7512 3.36722 6.06141 3.86189 5.52067C3.78214 5.32508 3.51676 4.53889 3.93785 3.47404C3.93785 3.47404 4.58682 3.26609 6.06423 4.26638C6.68092 4.095 7.34272 4.00955 8.00023 4.00622C8.65728 4.00955 9.3186 4.095 9.93624 4.26638C11.4127 3.26609 12.0607 3.47404 12.0607 3.47404C12.4828 4.53889 12.2174 5.32508 12.1381 5.52067C12.6337 6.06141 12.9328 6.7512 12.9328 7.59578C12.9328 10.5667 11.1245 11.2205 9.40215 11.4117C9.6794 11.6506 9.92675 12.1225 9.92675 12.8441C9.92675 13.8775 9.91724 14.7117 9.91724 14.9652C9.91724 15.1722 10.0568 15.4129 10.449 15.3374C13.5196 14.3124 15.7333 11.416 15.7333 8.00026C15.7333 3.72899 12.2705 0.266666 7.99928 0.266666Z" fill="#1C2024"/>
</svg>
