<svg width="418" height="419" xmlns="http://www.w3.org/2000/svg" xmlns:xlink="http://www.w3.org/1999/xlink" xml:space="preserve" overflow="hidden"><defs><clipPath id="clip0"><rect x="384" y="424" width="418" height="419"/></clipPath><linearGradient x1="234.002" y1="188.613" x2="269.859" y2="297.007" gradientUnits="userSpaceOnUse" spreadMethod="pad" id="fill1"><stop offset="0" stop-color="#0052CC"/><stop offset="1" stop-color="#2684FF"/></linearGradient></defs><g clip-path="url(#clip0)" transform="translate(-384 -424)"><path d="M237.245 175.859 322.338 176.307C333.086 176.307 339.356 188.847 333.086 197.804L207.239 365.75C167.827 336.192 159.766 280.21 189.324 240.35L237.245 175.859Z" fill="url(#fill1)" transform="matrix(1 0 0 1.00239 384 424)"/><path d="M189.327 240.35 104.681 239.902C93.9328 239.902 87.663 227.362 93.933 218.853L218.438 52.25C257.849 81.8086 265.909 137.791 236.352 177.65L189.327 240.35Z" fill="#2684FF" transform="matrix(1 0 0 1.00239 384 424)"/></g></svg>