<svg width="35" height="25" viewBox="0 0 35 25" fill="none" xmlns="http://www.w3.org/2000/svg"><title>KandjiBeeLight</title><g clip-path="url(#clip0_322_2238)"><path d="M34.8784 1.8519C34.7227 1.28319 34.3603 0.790887 33.8602 0.468831C33.3602 0.146776 32.7575 0.017488 32.167 0.105611C32.0703 0.120087 31.9744 0.14011 31.8801 0.16558C27.588 1.32417 22.5689 7.67605 21.0248 9.73657V9.75336L20.8205 10.0316C20.7115 9.35048 20.3926 8.71897 19.907 8.22286C19.4215 7.72676 18.7929 7.39011 18.1067 7.25866L19.7214 6.69736C20.0592 6.58558 20.3455 6.35868 20.529 6.05741C20.7125 5.75614 20.7811 5.40022 20.7225 5.05354C20.6639 4.70686 20.482 4.39213 20.2094 4.16584C19.9368 3.93956 19.5913 3.81654 19.235 3.81887H15.6628C15.3044 3.81281 14.9558 3.93391 14.6803 4.16012C14.4049 4.38633 14.2209 4.7026 14.162 5.05135C14.1031 5.4001 14.1731 5.75812 14.3593 6.06023C14.5455 6.36234 14.8355 6.58844 15.1765 6.69736L16.779 7.25866C16.1185 7.38824 15.5119 7.70808 15.0358 8.17775C14.5597 8.64743 14.2354 9.24583 14.1041 9.89728L13.9898 9.74376L13.9776 9.72937C12.4334 7.67605 7.41434 1.32417 3.11989 0.16558C3.02563 0.139627 2.92979 0.119598 2.83295 0.105611C2.24248 0.017488 1.63978 0.146776 1.13974 0.468831C0.639697 0.790887 0.277277 1.28319 0.121561 1.8519C-0.0494526 2.57581 -0.0394379 3.3299 0.150742 4.04915C0.671134 6.27758 2.52169 8.87542 5.28657 10.3147H5.26955L6.52433 10.9359C6.2707 10.9928 6.02062 11.064 5.77535 11.1494C5.49603 11.2457 5.22653 11.3678 4.97045 11.514C4.67013 11.6892 4.44031 11.9612 4.3198 12.2842C4.19929 12.6072 4.19548 12.9613 4.30901 13.2867C4.34319 13.3789 4.3855 13.468 4.43546 13.553C4.90965 14.347 6.08905 14.9922 7.50189 15.1913C9.80474 15.5295 12.7277 14.7284 14.2013 11.5932C14.3581 12.0636 14.6184 12.494 14.9635 12.8535C15.3087 13.2131 15.7302 13.4929 16.1978 13.6729C14.7387 13.6489 13.0925 13.7928 12.5502 15.0306C12.3741 15.4741 12.2913 15.9482 12.307 16.4243H22.5665C22.5665 15.5415 22.372 14.6324 21.516 14.1527C20.66 13.6729 19.5706 13.6969 18.5614 13.7161C19.0797 13.5383 19.5468 13.2395 19.9227 12.8452C20.2987 12.4509 20.5725 11.9728 20.7208 11.4517C22.1799 14.7092 25.149 15.5439 27.4908 15.1985C28.9012 14.9898 30.083 14.3541 30.5548 13.5602C30.6563 13.3919 30.723 13.2054 30.751 13.0116C30.7791 12.8177 30.7679 12.6203 30.7182 12.4307C30.6684 12.2411 30.5811 12.0631 30.4612 11.907C30.3413 11.7509 30.1913 11.6198 30.0198 11.5212C29.7645 11.375 29.4959 11.2529 29.2173 11.1566C28.972 11.0712 28.722 11 28.4683 10.9431L29.7231 10.3219H29.7037C32.4685 8.88261 34.324 6.27998 34.8395 4.05154C35.0343 3.33246 35.0477 2.57725 34.8784 1.8519Z" fill="black"></path><path d="M12.4018 17.866C12.4832 18.63 12.6462 19.3834 12.8882 20.1136H21.9512C22.2073 19.3145 22.3832 18.4926 22.4765 17.6597H12.3751C12.3824 17.7292 12.4018 17.7988 12.4018 17.866Z" fill="black"></path><path d="M15.8889 24.0283C16.261 24.249 17.0489 24.748 17.5231 24.6448C19.4417 24.1987 20.6843 22.9201 21.4576 21.3394H13.3915C13.9548 22.447 14.8195 23.3781 15.8889 24.0283Z" fill="black"></path><path d="M19.3104 0.717225L18.1529 1.57118L17.4428 0L16.7328 1.57118L15.5753 0.717225V2.96005H19.3104V0.717225Z" fill="black"></path></g><defs><clipPath id="clip0_322_2238"><rect width="35" height="24.6591" fill="black"></rect></clipPath></defs></svg>