<svg width="24" height="24" viewBox="0 0 24 24" fill="none" xmlns="http://www.w3.org/2000/svg">
<path d="M21.4437 11.2506C21.4437 17.3453 13.9423 22.2506 12.3103 23.2506C12.2167 23.3075 12.1092 23.3375 11.9997 23.3375C11.8901 23.3375 11.7826 23.3075 11.689 23.2506C10.057 22.2546 2.55566 17.3493 2.55566 11.2506V3.91729C2.55635 3.76354 2.61737 3.6162 2.72559 3.50698C2.83381 3.39776 2.98059 3.33539 3.13433 3.33329C8.97033 3.18129 7.62633 0.666626 11.9997 0.666626C16.373 0.666626 15.029 3.18129 20.865 3.33329C21.0181 3.33537 21.1642 3.39719 21.2723 3.50555C21.3805 3.61391 21.4419 3.76023 21.4437 3.91329V11.2506Z" fill="#76BC2D"/>
<path d="M20.6663 11.3132C20.6663 16.9012 13.7863 21.4012 12.2903 22.3132C12.2043 22.3655 12.1056 22.3932 12.005 22.3932C11.9044 22.3932 11.8057 22.3655 11.7197 22.3132C10.2183 21.4012 3.33301 16.9012 3.33301 11.3132V4.5879C3.33301 4.44645 3.3892 4.3108 3.48922 4.21078C3.58924 4.11076 3.72489 4.05457 3.86634 4.05457C9.22101 3.91323 7.98901 1.60657 11.9997 1.60657C16.0103 1.60657 14.7783 3.91323 20.133 4.0559C20.2745 4.0559 20.4101 4.11209 20.5101 4.21211C20.6102 4.31213 20.6663 4.44779 20.6663 4.58923V11.3132Z" fill="url(#paint0_linear_2002_22195)"/>
<path d="M15.8034 10.2133H15.2594V8.32401C15.264 7.431 14.9306 6.56931 14.3261 5.91201C14.0315 5.58929 13.6728 5.33152 13.273 5.15515C12.8732 4.97878 12.441 4.8877 12.0041 4.8877C11.5671 4.8877 11.1349 4.97878 10.7351 5.15515C10.3353 5.33152 9.97668 5.58929 9.68208 5.91201C9.07251 6.56563 8.73824 7.42899 8.74874 8.32268V10.2133H8.19541C8.08171 10.214 7.97273 10.2589 7.89159 10.3386C7.81045 10.4182 7.76351 10.5263 7.76074 10.64V15.5493C7.76385 15.6629 7.81088 15.7708 7.89196 15.8504C7.97303 15.93 8.08181 15.975 8.19541 15.976H15.8034C15.917 15.975 16.0258 15.93 16.1069 15.8504C16.1879 15.7708 16.235 15.6629 16.2381 15.5493V10.64C16.2353 10.5263 16.1884 10.4182 16.1072 10.3386C16.0261 10.2589 15.9171 10.214 15.8034 10.2133ZM13.7381 10.2133H10.2661V8.29201C10.2709 7.7979 10.4668 7.32484 10.8127 6.97201C10.9628 6.80441 11.1465 6.67034 11.3519 6.57855C11.5573 6.48676 11.7798 6.43932 12.0047 6.43932C12.2297 6.43932 12.4522 6.48676 12.6575 6.57855C12.8629 6.67034 13.0467 6.80441 13.1967 6.97201C13.2726 7.05457 13.3409 7.14382 13.4007 7.23868C13.6163 7.54891 13.736 7.91567 13.7447 8.29335L13.7381 10.2133Z" fill="white"/>
<path opacity="0.15" d="M8.19736 10.2106H15.804C15.907 10.212 16.0062 10.2498 16.084 10.3172L7.91736 15.8666C7.86944 15.8278 7.83072 15.7788 7.80398 15.7233C7.77723 15.6677 7.76314 15.6069 7.7627 15.5452V10.6386C7.76512 10.5247 7.81191 10.4162 7.89309 10.3363C7.97427 10.2563 8.08343 10.2112 8.19736 10.2106Z" fill="#B3B3B3"/>
<path opacity="0.09" d="M15.8037 10.2106H8.19566C8.09314 10.2124 7.9945 10.2501 7.91699 10.3172L16.0823 15.8666C16.1304 15.8278 16.1693 15.7789 16.1963 15.7234C16.2233 15.6678 16.2376 15.607 16.2383 15.5452V10.6386C16.2356 10.5248 16.1887 10.4165 16.1076 10.3366C16.0265 10.2568 15.9175 10.2116 15.8037 10.2106Z" fill="#A3A3A3"/>
<defs>
<linearGradient id="paint0_linear_2002_22195" x1="11.9997" y1="22.3932" x2="11.9997" y2="1.60657" gradientUnits="userSpaceOnUse">
<stop stop-color="#5E9624"/>
<stop offset="0.321" stop-color="#639D26"/>
<stop offset="0.794" stop-color="#6FB12A"/>
<stop offset="0.999" stop-color="#76BC2D"/>
</linearGradient>
</defs>
</svg>
