<svg width="32" height="34" viewBox="0 0 32 34" fill="none" xmlns="http://www.w3.org/2000/svg">
<path fill-rule="evenodd" clip-rule="evenodd" d="M16.0019 34C16.0019 34 2.36475 24.9898 2.36475 14.6333C2.36475 7.1048 8.46955 1 16.0019 1C23.5343 1 29.6352 7.1048 29.6352 14.6333C29.6352 24.9898 16.0019 34 16.0019 34ZM16.0019 4.03693C10.1486 4.03693 5.40554 8.77995 5.40554 14.6333C5.40554 20.4866 10.1486 25.2297 16.0019 25.2297C21.8553 25.2297 26.5983 20.4866 26.5983 14.6333C26.5983 8.77995 21.8553 4.03693 16.0019 4.03693ZM13.6443 17.6407L18.1784 13.1066C17.8419 12.4025 17.9657 11.532 18.5498 10.9479C19.2926 10.2051 20.4958 10.2051 21.2347 10.9479C21.9775 11.6868 21.9775 12.8899 21.2347 13.6327C20.6505 14.2169 19.7801 14.3368 19.076 14.0003C18.7229 14.3563 16.4377 16.6399 15.2343 17.8424C14.8948 18.1816 14.6415 18.4348 14.5419 18.5344C13.3039 19.7685 11.3038 19.7685 10.0658 18.5344C8.83167 17.2964 8.83167 15.2963 10.0658 14.0622L11.6326 12.4953L11.4082 15.4007C11.2996 15.2921 11.2101 15.2033 11.1405 15.1341C11.039 15.0334 10.9794 14.9742 10.9633 14.9558C10.2205 15.6948 10.2205 16.8979 10.9633 17.6407C11.7022 18.3796 12.9054 18.3796 13.6443 17.6407ZM19.4474 11.8415C19.1998 12.0891 19.1998 12.4876 19.4474 12.7352C19.6911 12.9828 20.0935 12.9828 20.3411 12.7352C20.5886 12.4876 20.5886 12.0891 20.3411 11.8415C20.0935 11.5939 19.6911 11.5939 19.4474 11.8415Z" fill="#488EFF"/>
</svg>
