<svg xmlns="http://www.w3.org/2000/svg" width="20" height="20" fill="none" viewBox="0 0 20 20">
<path fill="#96C7F2" fill-rule="evenodd" d="M6.8 5.5a1.3 1.3 0 1 1-2.6 0 1.3 1.3 0 0 1 2.6 0m-.7 2.428a2.501 2.501 0 1 0-1.2 0v4.145a2.5 2.5 0 1 0 1.2 0zm.7 6.572a1.3 1.3 0 1 1-2.6 0 1.3 1.3 0 0 1 2.6 0m7.7 1.3a1.3 1.3 0 1 0 0-2.6 1.3 1.3 0 0 0 0 2.6m0 1.2a2.5 2.5 0 0 0 .6-4.927V9.8a6.16 6.16 0 0 0-1.803-4.352l-1.615-1.616 1.505.392H14.5v-1.2h-4.475V7.5h1.2V6.314l-.393-1.633 1.617 1.616c.929.93 1.451 2.19 1.451 3.504v2.271A2.501 2.501 0 0 0 14.5 17" clip-rule="evenodd">
</path>
</svg>