<?xml version="1.0" standalone="no"?>
<!DOCTYPE svg PUBLIC "-//W3C//DTD SVG 20010904//EN"
 "http://www.w3.org/TR/2001/REC-SVG-20010904/DTD/svg10.dtd">
<svg version="1.0" xmlns="http://www.w3.org/2000/svg"
 width="700.000000pt" height="389.000000pt" viewBox="0 0 700.000000 389.000000"
 preserveAspectRatio="xMidYMid meet">

<g transform="translate(0.000000,389.000000) scale(0.100000,-0.100000)"
fill="#000000" stroke="none">
<path d="M4195 2719 c-73 -13 -115 -39 -196 -119 -130 -130 -123 -96 -127
-619 -3 -509 -2 -515 75 -601 59 -66 103 -82 244 -88 101 -4 117 -2 133 14 17
16 19 16 28 1 8 -14 27 -17 124 -17 107 0 116 1 121 20 7 25 23 26 30 1 5 -19
19 -20 369 -20 200 -1 400 -6 445 -12 73 -9 84 -8 101 8 19 17 20 17 36 -5 20
-26 76 -39 96 -23 10 9 16 8 26 -4 7 -9 29 -15 52 -15 35 0 38 2 28 19 -5 11
-10 22 -10 24 0 3 73 7 163 9 177 4 200 10 265 72 75 70 93 138 93 356 -1 156
1 169 17 164 16 -5 16 -5 0 9 -24 19 -24 73 1 86 23 13 37 91 22 120 -8 14 -7
22 5 32 13 11 15 28 12 90 -4 61 -11 87 -35 130 -16 30 -33 68 -37 84 -13 53
-73 132 -122 161 -60 35 -140 42 -167 13 -10 -10 -13 -19 -7 -19 5 0 10 -8 10
-19 0 -14 10 -20 48 -25 56 -7 109 -37 122 -69 5 -12 18 -35 29 -52 12 -16 21
-42 21 -57 0 -14 8 -40 18 -58 16 -29 16 -31 0 -41 -17 -9 -18 -38 -18 -372 0
-329 -2 -366 -19 -402 -23 -51 -81 -102 -123 -110 -44 -8 -841 1 -895 10 -29
5 -43 4 -43 -4 0 -7 -27 -11 -76 -11 -69 0 -75 2 -69 19 5 16 -2 19 -57 25
-35 3 -75 9 -91 12 -22 5 -26 3 -21 -10 3 -9 1 -16 -5 -16 -6 0 -11 6 -11 14
0 21 -7 24 -88 31 l-72 8 3 -39 2 -39 -110 -3 c-71 -2 -112 -7 -118 -15 -7 -9
-10 -9 -14 1 -3 9 -44 12 -153 12 -159 0 -189 6 -233 48 -41 39 -78 112 -41
81 13 -11 19 -10 37 0 19 12 24 11 47 -16 36 -43 54 -49 153 -57 48 -4 122
-14 163 -22 42 -7 94 -14 116 -14 38 0 40 2 34 24 -3 14 -2 28 4 31 5 3 10 11
10 17 0 7 -19 9 -56 5 -37 -4 -67 -1 -87 8 -18 7 -75 18 -127 25 -105 13 -135
29 -108 56 19 19 38 11 38 -17 0 -17 8 -19 90 -19 87 0 90 1 90 23 0 40 -12
67 -29 67 -31 0 -41 22 -41 88 0 57 2 63 18 57 117 -50 222 -8 273 107 43 100
28 255 -33 329 -47 58 -138 74 -217 39 -54 -25 -61 -25 -61 0 0 23 -28 26 -76
10 -16 -5 -48 -14 -71 -20 -43 -11 -43 -11 -43 -55 0 -45 0 -45 35 -45 l35 0
0 -219 c0 -263 -3 -280 -41 -288 -26 -5 -29 -10 -29 -44 0 -52 -20 -51 -75 4
-50 49 -70 108 -60 174 4 29 2 49 -6 59 -8 9 -10 43 -7 104 4 90 12 116 27 91
14 -22 21 14 25 130 3 57 7 112 10 122 3 9 8 24 11 33 3 9 -4 27 -15 41 -11
14 -20 34 -20 45 0 15 -3 17 -19 9 -14 -8 -22 -7 -31 4 -17 20 4 45 36 45 15
0 24 -6 24 -15 0 -8 9 -15 20 -15 23 0 24 3 8 31 -11 17 -10 23 0 26 6 3 10 8
8 12 -3 4 6 20 18 36 22 27 28 29 114 33 78 4 91 7 95 23 7 26 37 25 37 -1 0
-13 7 -20 19 -20 14 0 18 5 14 20 -9 33 26 38 52 8 l22 -26 344 -3 c189 -1
349 -6 354 -9 25 -17 77 -19 92 -5 22 23 74 19 80 -5 6 -23 39 -26 66 -5 16
11 25 11 58 0 22 -8 47 -21 55 -30 24 -23 42 -18 49 15 4 16 11 32 16 36 17
10 77 -19 83 -40 5 -19 6 -19 26 -1 18 16 23 17 46 5 20 -11 29 -12 45 -2 12
8 19 9 19 1 0 -5 5 -7 10 -4 8 5 7 11 -1 21 -16 19 -10 23 34 26 24 2 37 9 41
21 2 9 11 17 20 17 14 0 15 -4 6 -20 -10 -19 -8 -20 43 -20 46 0 56 3 60 19 3
12 -4 28 -17 40 -25 24 -46 27 -64 9 -8 -8 -15 -8 -24 0 -9 7 -166 11 -501 13
-268 1 -490 6 -493 11 -3 4 -14 4 -24 -2 -27 -15 -70 -12 -76 4 -4 9 -27 17
-60 22 -48 6 -58 4 -78 -15 -12 -11 -31 -21 -42 -21 -11 0 -26 -6 -32 -12 -10
-10 -15 -10 -20 -1 -4 6 -23 13 -42 15 -30 3 -36 7 -40 33 -5 26 -10 30 -33
27 -15 -1 -27 2 -27 8 0 5 -9 10 -20 10 -13 0 -18 -5 -14 -15 4 -8 16 -15 28
-15 31 0 37 -9 25 -32 -7 -13 -16 -17 -27 -12 -9 3 -32 6 -49 5 -32 -2 -33 0
-33 38 0 35 -3 39 -27 43 -16 2 -46 0 -68 -3z m1055 -135 c0 -8 -4 -12 -10 -9
-5 3 -10 10 -10 16 0 5 5 9 10 9 6 0 10 -7 10 -16z m320 -10 c0 -8 -5 -12 -10
-9 -6 4 -8 11 -5 16 9 14 15 11 15 -7z m365 6 c3 -6 -1 -13 -10 -16 -19 -8
-30 0 -20 15 8 14 22 14 30 1z m-1695 -360 c0 -13 -19 -22 -30 -15 -14 9 0 34
16 28 8 -3 14 -9 14 -13z m2068 -63 c4 -21 -27 -35 -38 -17 -12 19 0 42 19 38
9 -2 17 -11 19 -21z m-1886 -18 c28 -15 48 -70 48 -134 0 -65 -19 -116 -51
-139 -33 -22 -56 -20 -84 9 -23 23 -25 31 -25 130 l0 105 33 20 c37 23 50 24
79 9z m-142 -664 c0 -14 -6 -25 -13 -25 -21 0 -27 11 -16 31 14 27 29 23 29
-6z m613 -61 c11 -11 -5 -34 -24 -34 -18 0 -26 20 -12 33 8 9 28 9 36 1z"/>
<path d="M5841 2500 c-13 -11 -31 -20 -41 -20 -23 0 -33 -27 -14 -34 9 -3 28
-6 42 -6 15 0 32 -4 37 -8 13 -10 19 -52 7 -52 -6 0 -20 -21 -32 -46 -14 -28
-37 -54 -61 -70 -36 -22 -39 -28 -39 -68 0 -43 1 -45 33 -48 l32 -3 5 -135 c5
-126 6 -135 25 -135 26 0 32 -35 9 -52 -18 -13 -18 -15 6 -33 14 -11 40 -25
58 -31 39 -13 143 -8 185 9 24 10 27 16 27 61 l0 49 -41 -15 c-24 -8 -55 -11
-71 -8 -53 12 -58 25 -58 160 0 78 4 126 11 130 6 4 39 7 75 6 l64 -1 0 35 c0
18 -5 37 -10 40 -6 4 -8 11 -5 16 4 5 -23 9 -64 9 l-71 0 0 91 0 92 33 -6 c17
-4 43 -9 56 -13 18 -5 22 -4 19 7 -3 8 -14 13 -24 12 -10 -2 -28 1 -39 6 -11
5 -28 12 -38 15 -24 8 -11 29 13 23 11 -3 21 1 24 9 5 13 -6 16 -99 29 -20 3
-38 -2 -54 -15z m87 -481 c-2 -6 -8 -10 -13 -10 -5 0 -11 4 -13 10 -2 6 4 11
13 11 9 0 15 -5 13 -11z m172 -208 c0 -6 -4 -13 -10 -16 -5 -3 -10 1 -10 9 0
9 5 16 10 16 6 0 10 -4 10 -9z"/>
<path d="M6050 2475 c0 -27 43 -40 61 -19 6 8 16 11 23 7 8 -4 8 -3 0 6 -6 7
-28 16 -48 21 -33 7 -36 6 -36 -15z"/>
<path d="M1373 2467 l-83 -21 0 -48 c0 -47 1 -48 30 -48 l30 0 -2 -247 -3
-248 -27 -3 c-26 -3 -28 -6 -28 -53 l0 -50 133 3 132 3 3 47 c3 42 1 47 -20
50 -22 3 -23 6 -26 131 l-3 128 35 14 c44 19 80 19 95 1 8 -9 11 -56 9 -142
-3 -125 -4 -129 -25 -132 -20 -3 -23 -9 -23 -53 l0 -49 135 0 135 0 0 50 c0
48 -1 50 -29 50 -17 0 -31 6 -35 16 -3 9 -6 78 -6 155 0 151 -7 180 -55 217
-51 40 -115 36 -227 -13 -17 -7 -18 3 -18 129 0 158 11 148 -127 113z"/>
<path d="M977 2413 c-4 -3 -7 -13 -7 -22 0 -34 -44 -103 -81 -127 -37 -23 -39
-27 -39 -74 l0 -50 35 0 35 0 0 -141 c0 -167 10 -198 74 -232 51 -27 153 -29
209 -4 36 15 37 18 37 68 0 45 -2 50 -17 44 -10 -4 -39 -10 -64 -12 -38 -4
-50 -2 -68 16 -20 20 -21 30 -19 144 l3 122 73 3 73 3 -3 52 -3 52 -72 3 -73
3 0 79 0 80 -43 0 c-24 0 -47 -3 -50 -7z"/>
<path d="M3524 2393 c-13 -55 -45 -103 -85 -130 -38 -25 -40 -28 -37 -72 3
-44 5 -46 36 -49 l32 -3 0 -141 c0 -164 9 -192 73 -229 51 -29 151 -32 210 -6
36 15 37 18 37 68 0 45 -2 50 -17 43 -35 -15 -107 -16 -128 0 -18 13 -20 26
-20 143 l0 128 73 3 72 3 0 54 0 55 -75 0 -75 0 0 80 0 80 -45 0 c-40 0 -45
-3 -51 -27z"/>
<path d="M6125 2410 c-3 -5 -1 -10 4 -10 6 0 11 5 11 10 0 6 -2 10 -4 10 -3 0
-8 -4 -11 -10z"/>
<path d="M2075 2263 c-11 -2 -50 -13 -87 -24 l-68 -20 0 -44 c0 -42 1 -44 33
-47 l32 -3 3 -115 c4 -146 0 -160 -38 -160 -29 0 -30 -1 -30 -50 l0 -50 145 0
145 0 0 49 c0 49 -1 50 -32 53 l-33 3 -3 114 c-2 69 1 118 8 126 7 9 29 11 73
8 73 -6 86 3 94 66 5 35 2 44 -26 72 -27 26 -37 30 -63 25 -17 -3 -46 -17 -64
-31 -41 -32 -44 -31 -44 5 0 30 -5 32 -45 23z"/>
<path d="M2510 2255 c-60 -19 -123 -74 -151 -133 -28 -57 -31 -166 -7 -223 58
-133 215 -195 343 -135 47 22 125 87 125 105 0 4 -13 20 -29 35 l-29 28 -52
-36 c-65 -45 -114 -48 -159 -11 -30 26 -57 87 -46 105 4 6 67 10 162 10 l155
0 -6 48 c-11 79 -54 153 -107 185 -57 34 -134 43 -199 22z m125 -110 c45 -44
34 -55 -50 -55 -47 0 -75 4 -75 11 0 19 58 69 80 69 11 0 32 -11 45 -25z"/>
<path d="M3055 2263 c-86 -19 -149 -63 -160 -112 -21 -94 91 -128 135 -40 25
48 55 64 93 50 24 -9 27 -16 27 -55 0 -46 -10 -56 -55 -56 -44 0 -156 -41
-187 -69 -27 -24 -32 -36 -36 -87 -4 -54 -1 -63 24 -93 31 -37 79 -61 121 -61
15 0 58 13 94 29 l66 28 26 -23 c30 -26 98 -39 142 -26 27 8 30 13 33 55 3 46
2 47 -26 47 -16 0 -34 6 -40 13 -6 7 -12 78 -14 164 l-3 152 -30 31 c-43 45
-138 69 -210 53z m95 -339 c0 -42 -2 -46 -36 -60 -41 -17 -69 -11 -84 17 -16
29 3 55 52 72 65 23 68 22 68 -29z"/>
<path d="M4855 2248 c-110 -40 -160 -118 -160 -254 0 -72 3 -85 30 -129 60
-97 169 -140 288 -116 144 30 220 163 187 324 -11 53 -20 69 -61 110 -46 45
-70 59 -123 73 -19 4 -23 1 -22 -17 1 -29 -27 -47 -48 -30 -9 8 -16 22 -16 32
0 22 -27 24 -75 7z m129 -100 c38 -17 57 -53 63 -117 10 -108 -31 -181 -102
-181 -56 0 -95 61 -95 148 0 75 17 120 53 142 37 23 47 24 81 8z m181 -148 c3
-5 -1 -10 -9 -10 -8 0 -18 5 -21 10 -3 6 1 10 9 10 8 0 18 -4 21 -10z"/>
<path d="M5365 2244 c-75 -39 -107 -103 -86 -173 15 -50 46 -73 174 -126 110
-45 132 -64 105 -91 -36 -36 -128 -6 -187 62 l-32 36 -40 -17 c-21 -10 -39
-21 -39 -24 0 -3 10 -34 21 -68 22 -60 23 -61 44 -47 21 14 26 13 60 -11 77
-51 162 -56 239 -12 65 36 88 93 71 172 -10 41 -50 70 -168 122 -56 24 -108
50 -116 58 -22 22 3 45 51 45 32 0 47 -8 87 -45 l48 -45 37 15 c41 17 44 32
22 105 -14 47 -38 61 -72 42 -12 -7 -28 -5 -50 4 -44 19 -132 18 -169 -2z"/>
<path d="M6191 1336 c-30 -31 -42 -50 -37 -61 5 -15 9 -15 23 -4 21 18 73 89
73 101 0 17 -17 7 -59 -36z"/>
<path d="M5910 1230 c0 -5 7 -10 16 -10 8 0 12 5 9 10 -3 6 -10 10 -16 10 -5
0 -9 -4 -9 -10z"/>
</g>
</svg>
