<svg width="820" height="480" viewBox="0 0 820 480" fill="none" xmlns="http://www.w3.org/2000/svg">
<rect width="820" height="480" fill="url(#paint0_linear_1282_18428)"/>
<path d="M351.663 248.332C351.663 205.933 375.852 169.697 409.997 155.15C444.141 169.697 468.33 205.933 468.33 248.332C468.33 255.191 467.697 261.887 466.492 268.356L482.662 283.627C484.037 284.927 484.365 286.991 483.458 288.652L462.663 326.777C461.561 328.797 459.03 329.542 457.01 328.44C456.661 328.25 456.34 328.01 456.059 327.728L437.437 309.107C435.874 307.544 433.755 306.666 431.545 306.666H388.448C386.238 306.666 384.118 307.544 382.556 309.107L363.934 327.728C362.307 329.356 359.669 329.356 358.041 327.728C357.76 327.447 357.52 327.127 357.33 326.777L336.534 288.652C335.628 286.991 335.955 284.927 337.331 283.627L353.501 268.356C352.296 261.887 351.663 255.191 351.663 248.332ZM363.962 304.131L370.771 297.322C375.459 292.633 381.818 289.999 388.448 289.999H431.545C438.175 289.999 444.534 292.633 449.222 297.322L456.031 304.131L464.213 289.129L455.048 280.473C450.931 276.584 449.07 270.871 450.107 265.303C451.138 259.768 451.663 254.092 451.663 248.332C451.663 216.086 435.037 187.497 409.997 173.669C384.955 187.497 368.33 216.086 368.33 248.332C368.33 254.092 368.855 259.768 369.886 265.303C370.923 270.871 369.062 276.584 364.945 280.473L355.779 289.129L363.962 304.131ZM409.997 248.332C400.792 248.332 393.33 240.871 393.33 231.666C393.33 222.461 400.792 214.999 409.997 214.999C419.201 214.999 426.663 222.461 426.663 231.666C426.663 240.871 419.201 248.332 409.997 248.332Z" fill="white"/>
<defs>
<linearGradient id="paint0_linear_1282_18428" x1="565.5" y1="-63" x2="351" y2="480" gradientUnits="userSpaceOnUse">
<stop stop-color="#E2E2F9"/>
<stop offset="1" stop-color="#004CA4"/>
</linearGradient>
</defs>
</svg>
