<svg width="2053" height="278" viewBox="0 0 2053 278" fill="none" xmlns="http://www.w3.org/2000/svg">
<rect width="2053" height="278" rx="10" fill="#22272D"/>
<path d="M218.798 203.006L260.605 52.9118H303.696L345.503 203.006H319.985L310.755 168.258H253.504L244.063 203.006H218.756H218.798ZM259.53 145.543H304.771L283.973 68.3574H280.328L259.53 145.543Z" fill="url(#paint0_linear_420_47)"/>
<path d="M354.901 151.759V148.535C354.901 114.23 376.984 94.0649 403.366 94.0649C423.531 94.0649 433.393 102.641 438.324 110.796H441.758V52.9118H465.338V203.006H442.18V188.635H438.745C433.393 197.422 423.51 205.998 403.366 205.998C377.195 205.998 354.901 186.064 354.901 151.738V151.759ZM442.18 151.127V148.978C442.18 126.895 428.673 114.673 410.235 114.673C391.797 114.673 378.501 126.895 378.501 148.978V151.127C378.501 173.21 392.008 185.432 410.235 185.432C428.462 185.432 442.18 173.21 442.18 151.127Z" fill="url(#paint1_linear_420_47)"/>
<path d="M493.195 203.006V97.0781H516.142V109.3H519.787C523.433 102.009 532.009 95.3713 547.012 95.3713C562.015 95.3713 571.455 102.451 576.386 112.102H580.031C584.751 102.662 593.117 95.3713 610.059 95.3713C630.224 95.3713 645.649 108.246 645.649 132.689V203.027H622.28V134.417C622.28 122.196 614.989 115.115 602.978 115.115C589.471 115.115 581.106 123.902 581.106 139.98V203.027H557.737V134.417C557.737 122.196 550.447 115.115 538.436 115.115C524.929 115.115 516.563 123.902 516.563 139.98V203.027H493.195V203.006Z" fill="url(#paint2_linear_420_47)"/>
<path d="M684.442 245.887V225.299H743.19C747.256 225.299 749.195 223.15 749.195 218.873V188.003H745.76C741.904 195.926 732.886 204.733 712.952 204.733C688.719 204.733 671.567 187.581 671.567 160.778V97.0992H694.935V158.86C694.935 176.666 704.165 184.8 720.032 184.8C737.606 184.8 748.984 172.789 748.984 150.706V97.0992H772.353V223.824C772.353 237.331 763.987 245.908 750.48 245.908H684.442V245.887Z" fill="url(#paint3_linear_420_47)"/>
<path d="M800.209 203.006V97.0781H823.157V109.51H826.802C830.026 100.724 837.527 96.6356 848.464 96.6356H861.107V117.644H847.81C833.44 117.644 823.578 125.356 823.578 141.223V202.984H800.209V203.006Z" fill="url(#paint4_linear_420_47)"/>
<path d="M872.317 172.346C872.317 150.685 889.469 139.538 912.838 139.538H944.361V133.111C944.361 121.521 937.281 113.388 922.489 113.388C907.696 113.388 900.616 121.1 898.256 132.036L876.384 124.956C881.525 108.225 895.475 94.086 922.699 94.086C949.924 94.086 967.076 108.668 967.076 134.607V177.066C967.076 181.365 969.226 183.493 973.082 183.493H982.08V203.006H965.138C955.066 203.006 947.986 197.422 947.986 188.635V188.213H944.34C941.559 194.64 934.057 206.019 911.953 206.019C889.849 206.019 872.275 194.008 872.275 172.346H872.317ZM944.361 159.703V157.554H914.334C903.187 157.554 895.896 162.485 895.896 171.714C895.896 180.944 903.187 186.717 915.83 186.717C932.561 186.717 944.34 176.434 944.34 159.703H944.361Z" fill="url(#paint5_linear_420_47)"/>
<path d="M999.632 203.006V52.9118H1023V203.006H999.632Z" fill="url(#paint6_linear_420_47)"/>
<rect x="85.1841" y="32.0924" width="59.6346" height="178.214" rx="28" transform="rotate(24.9531 85.1841 32.0924)" fill="url(#paint7_linear_420_47)"/>
<circle cx="150.797" cy="178.476" r="31" fill="url(#paint8_linear_420_47)"/>
<path d="M1259.55 59.1L1260.1 59.2V117H1251.55V51H1263.6L1297.85 108.75L1297.3 108.85V51H1305.85V117H1293.7L1259.55 59.1ZM1324.47 98.25C1324.51 100.717 1325.04 102.967 1326.07 105C1327.11 107.033 1328.64 108.65 1330.67 109.85C1332.74 111.05 1335.27 111.65 1338.27 111.65C1340.81 111.65 1342.96 111.283 1344.72 110.55C1346.52 109.783 1347.99 108.883 1349.12 107.85C1350.26 106.783 1351.07 105.833 1351.57 105L1355.82 110.25C1354.72 111.85 1353.37 113.25 1351.77 114.45C1350.21 115.65 1348.29 116.567 1346.02 117.2C1343.76 117.867 1340.99 118.2 1337.72 118.2C1333.32 118.2 1329.51 117.267 1326.27 115.4C1323.07 113.5 1320.61 110.883 1318.87 107.55C1317.14 104.183 1316.27 100.333 1316.27 96C1316.27 92 1317.09 88.4 1318.72 85.2C1320.36 81.9667 1322.72 79.4167 1325.82 77.55C1328.96 75.6833 1332.72 74.75 1337.12 74.75C1341.16 74.75 1344.66 75.6 1347.62 77.3C1350.62 78.9667 1352.94 81.3333 1354.57 84.4C1356.24 87.4667 1357.07 91.1333 1357.07 95.4C1357.07 95.6667 1357.06 96.15 1357.02 96.85C1356.99 97.5167 1356.96 97.9833 1356.92 98.25H1324.47ZM1348.77 91.7C1348.74 90.3333 1348.34 88.8333 1347.57 87.2C1346.84 85.5667 1345.64 84.1667 1343.97 83C1342.31 81.8333 1340.06 81.25 1337.22 81.25C1334.29 81.25 1331.92 81.8167 1330.12 82.95C1328.36 84.0833 1327.06 85.4667 1326.22 87.1C1325.39 88.7 1324.91 90.2333 1324.77 91.7H1348.77ZM1388.78 95.3L1406.58 117H1396.58L1383.43 100.65L1370.33 117H1360.88L1378.63 95.8L1362.68 75.95H1372.73L1383.88 90.2L1395.23 75.95H1404.53L1388.78 95.3ZM1411.52 75.95H1419.57V59.1H1428.22V75.95H1438.77V83.4H1428.22V103.7C1428.22 106.1 1428.64 107.867 1429.47 109C1430.34 110.133 1431.49 110.7 1432.92 110.7C1434.19 110.7 1435.17 110.467 1435.87 110C1436.57 109.533 1436.99 109.217 1437.12 109.05L1440.57 115.45C1440.37 115.617 1439.84 115.933 1438.97 116.4C1438.1 116.867 1436.99 117.283 1435.62 117.65C1434.25 118.017 1432.65 118.2 1430.82 118.2C1427.62 118.2 1424.94 117.233 1422.77 115.3C1420.64 113.333 1419.57 110.233 1419.57 106V83.4H1411.52V75.95ZM1448.33 98V90.45H1474.08V98H1448.33ZM1506.1 138.95C1502.87 138.95 1499.94 138.617 1497.3 137.95C1494.7 137.283 1492.42 136.333 1490.45 135.1C1488.52 133.9 1486.97 132.483 1485.8 130.85L1491.5 125.4C1492.14 126.267 1492.99 127.183 1494.05 128.15C1495.15 129.15 1496.64 130 1498.5 130.7C1500.37 131.4 1502.8 131.75 1505.8 131.75C1508.74 131.75 1511.22 131.117 1513.25 129.85C1515.29 128.617 1516.84 126.933 1517.9 124.8C1518.97 122.667 1519.5 120.267 1519.5 117.6V116.25H1528V118.15C1528 122.683 1527.02 126.483 1525.05 129.55C1523.12 132.65 1520.5 134.983 1517.2 136.55C1513.9 138.15 1510.2 138.95 1506.1 138.95ZM1519.5 117V109C1519.24 109.833 1518.45 110.983 1517.15 112.45C1515.89 113.917 1514.14 115.25 1511.9 116.45C1509.7 117.617 1507.1 118.2 1504.1 118.2C1500.3 118.2 1496.85 117.3 1493.75 115.5C1490.69 113.7 1488.24 111.183 1486.4 107.95C1484.6 104.683 1483.7 100.867 1483.7 96.5C1483.7 92.1333 1484.6 88.3333 1486.4 85.1C1488.24 81.8333 1490.69 79.3 1493.75 77.5C1496.85 75.6667 1500.3 74.75 1504.1 74.75C1507.07 74.75 1509.64 75.2833 1511.8 76.35C1514 77.4167 1515.75 78.65 1517.05 80.05C1518.39 81.45 1519.17 82.65 1519.4 83.65V75.95H1528V117H1519.5ZM1492.3 96.5C1492.3 99.4667 1492.95 102.033 1494.25 104.2C1495.55 106.367 1497.24 108.05 1499.3 109.25C1501.4 110.417 1503.64 111 1506 111C1508.54 111 1510.8 110.4 1512.8 109.2C1514.8 108 1516.39 106.317 1517.55 104.15C1518.72 101.95 1519.3 99.4 1519.3 96.5C1519.3 93.6 1518.72 91.0667 1517.55 88.9C1516.39 86.7 1514.8 85 1512.8 83.8C1510.8 82.5667 1508.54 81.95 1506 81.95C1503.64 81.95 1501.4 82.55 1499.3 83.75C1497.24 84.95 1495.55 86.6333 1494.25 88.8C1492.95 90.9667 1492.3 93.5333 1492.3 96.5ZM1545.47 98.25C1545.5 100.717 1546.04 102.967 1547.07 105C1548.1 107.033 1549.64 108.65 1551.67 109.85C1553.74 111.05 1556.27 111.65 1559.27 111.65C1561.8 111.65 1563.95 111.283 1565.72 110.55C1567.52 109.783 1568.99 108.883 1570.12 107.85C1571.25 106.783 1572.07 105.833 1572.57 105L1576.82 110.25C1575.72 111.85 1574.37 113.25 1572.77 114.45C1571.2 115.65 1569.29 116.567 1567.02 117.2C1564.75 117.867 1561.99 118.2 1558.72 118.2C1554.32 118.2 1550.5 117.267 1547.27 115.4C1544.07 113.5 1541.6 110.883 1539.87 107.55C1538.14 104.183 1537.27 100.333 1537.27 96C1537.27 92 1538.09 88.4 1539.72 85.2C1541.35 81.9667 1543.72 79.4167 1546.82 77.55C1549.95 75.6833 1553.72 74.75 1558.12 74.75C1562.15 74.75 1565.65 75.6 1568.62 77.3C1571.62 78.9667 1573.94 81.3333 1575.57 84.4C1577.24 87.4667 1578.07 91.1333 1578.07 95.4C1578.07 95.6667 1578.05 96.15 1578.02 96.85C1577.99 97.5167 1577.95 97.9833 1577.92 98.25H1545.47ZM1569.77 91.7C1569.74 90.3333 1569.34 88.8333 1568.57 87.2C1567.84 85.5667 1566.64 84.1667 1564.97 83C1563.3 81.8333 1561.05 81.25 1558.22 81.25C1555.29 81.25 1552.92 81.8167 1551.12 82.95C1549.35 84.0833 1548.05 85.4667 1547.22 87.1C1546.39 88.7 1545.9 90.2333 1545.77 91.7H1569.77ZM1610.63 74.75C1613.33 74.75 1615.94 75.3167 1618.48 76.45C1621.04 77.5833 1623.14 79.3833 1624.78 81.85C1626.44 84.2833 1627.28 87.4667 1627.28 91.4V117H1618.48V93.1C1618.48 89.0333 1617.53 86.0833 1615.63 84.25C1613.73 82.3833 1611.28 81.45 1608.28 81.45C1606.31 81.45 1604.41 82.0167 1602.58 83.15C1600.78 84.25 1599.29 85.7833 1598.13 87.75C1596.96 89.6833 1596.38 91.8833 1596.38 94.35V117H1587.68V75.95H1596.38V83.25C1596.68 82.1167 1597.49 80.8833 1598.83 79.55C1600.16 78.2167 1601.86 77.0833 1603.93 76.15C1605.99 75.2167 1608.23 74.75 1610.63 74.75Z" fill="white"/>
<path d="M1291.65 179.75H1260V209H1251.55V143H1260V172.05H1291.65V143H1300.1V209H1291.65V179.75ZM1330.31 201.05L1344.16 167.95H1352.86L1325.16 229.8H1316.36L1325.66 209L1308.76 167.95H1317.61L1330.31 201.05ZM1368.25 229.8H1359.6V167.95H1368.4V175.65C1368.7 174.617 1369.54 173.4 1370.9 172C1372.27 170.6 1374.1 169.383 1376.4 168.35C1378.74 167.283 1381.4 166.75 1384.4 166.75C1388.2 166.75 1391.57 167.667 1394.5 169.5C1397.47 171.3 1399.79 173.833 1401.45 177.1C1403.15 180.333 1404 184.133 1404 188.5C1404 192.867 1403.14 196.683 1401.4 199.95C1399.67 203.183 1397.3 205.7 1394.3 207.5C1391.34 209.3 1387.94 210.2 1384.1 210.2C1381 210.2 1378.29 209.617 1375.95 208.45C1373.65 207.283 1371.84 205.967 1370.5 204.5C1369.2 203.033 1368.45 201.867 1368.25 201V229.8ZM1395.4 188.5C1395.4 185.533 1394.79 182.967 1393.55 180.8C1392.35 178.633 1390.75 176.95 1388.75 175.75C1386.75 174.55 1384.59 173.95 1382.25 173.95C1379.69 173.95 1377.35 174.567 1375.25 175.8C1373.15 177 1371.49 178.7 1370.25 180.9C1369.02 183.067 1368.4 185.6 1368.4 188.5C1368.4 191.4 1369.02 193.95 1370.25 196.15C1371.49 198.317 1373.15 200 1375.25 201.2C1377.35 202.4 1379.69 203 1382.25 203C1384.59 203 1386.75 202.417 1388.75 201.25C1390.75 200.05 1392.35 198.367 1393.55 196.2C1394.79 194.033 1395.4 191.467 1395.4 188.5ZM1418.52 190.25C1418.55 192.717 1419.08 194.967 1420.12 197C1421.15 199.033 1422.68 200.65 1424.72 201.85C1426.78 203.05 1429.32 203.65 1432.32 203.65C1434.85 203.65 1437 203.283 1438.77 202.55C1440.57 201.783 1442.03 200.883 1443.17 199.85C1444.3 198.783 1445.12 197.833 1445.62 197L1449.87 202.25C1448.77 203.85 1447.42 205.25 1445.82 206.45C1444.25 207.65 1442.33 208.567 1440.07 209.2C1437.8 209.867 1435.03 210.2 1431.77 210.2C1427.37 210.2 1423.55 209.267 1420.32 207.4C1417.12 205.5 1414.65 202.883 1412.92 199.55C1411.18 196.183 1410.32 192.333 1410.32 188C1410.32 184 1411.13 180.4 1412.77 177.2C1414.4 173.967 1416.77 171.417 1419.87 169.55C1423 167.683 1426.77 166.75 1431.17 166.75C1435.2 166.75 1438.7 167.6 1441.67 169.3C1444.67 170.967 1446.98 173.333 1448.62 176.4C1450.28 179.467 1451.12 183.133 1451.12 187.4C1451.12 187.667 1451.1 188.15 1451.07 188.85C1451.03 189.517 1451 189.983 1450.97 190.25H1418.52ZM1442.82 183.7C1442.78 182.333 1442.38 180.833 1441.62 179.2C1440.88 177.567 1439.68 176.167 1438.02 175C1436.35 173.833 1434.1 173.25 1431.27 173.25C1428.33 173.25 1425.97 173.817 1424.17 174.95C1422.4 176.083 1421.1 177.467 1420.27 179.1C1419.43 180.7 1418.95 182.233 1418.82 183.7H1442.82ZM1469.27 209H1460.62V167.95H1469.27V175.05H1469.02C1469.19 174.183 1469.81 173.1 1470.87 171.8C1471.94 170.5 1473.41 169.333 1475.27 168.3C1477.14 167.267 1479.37 166.75 1481.97 166.75C1483.87 166.75 1485.54 167.017 1486.97 167.55C1488.44 168.05 1489.47 168.55 1490.07 169.05L1486.52 176.25C1486.06 175.783 1485.24 175.317 1484.07 174.85C1482.91 174.35 1481.46 174.1 1479.72 174.1C1477.52 174.1 1475.64 174.783 1474.07 176.15C1472.51 177.517 1471.31 179.167 1470.47 181.1C1469.67 183 1469.27 184.767 1469.27 186.4V209ZM1527.81 209V201C1527.54 201.833 1526.76 202.983 1525.46 204.45C1524.19 205.917 1522.44 207.25 1520.21 208.45C1518.01 209.617 1515.41 210.2 1512.41 210.2C1508.61 210.2 1505.16 209.3 1502.06 207.5C1498.99 205.7 1496.54 203.183 1494.71 199.95C1492.91 196.683 1492.01 192.867 1492.01 188.5C1492.01 184.133 1492.91 180.333 1494.71 177.1C1496.54 173.833 1498.99 171.3 1502.06 169.5C1505.16 167.667 1508.61 166.75 1512.41 166.75C1515.37 166.75 1517.94 167.283 1520.11 168.35C1522.31 169.417 1524.06 170.65 1525.36 172.05C1526.69 173.45 1527.47 174.65 1527.71 175.65V167.95H1536.31V209H1527.81ZM1500.61 188.5C1500.61 191.467 1501.26 194.033 1502.56 196.2C1503.86 198.367 1505.54 200.05 1507.61 201.25C1509.71 202.417 1511.94 203 1514.31 203C1516.84 203 1519.11 202.4 1521.11 201.2C1523.11 200 1524.69 198.317 1525.86 196.15C1527.02 193.95 1527.61 191.4 1527.61 188.5C1527.61 185.6 1527.02 183.067 1525.86 180.9C1524.69 178.7 1523.11 177 1521.11 175.8C1519.11 174.567 1516.84 173.95 1514.31 173.95C1511.94 173.95 1509.71 174.55 1507.61 175.75C1505.54 176.95 1503.86 178.633 1502.56 180.8C1501.26 182.967 1500.61 185.533 1500.61 188.5ZM1556.08 188.65C1556.08 192.95 1557 196.383 1558.83 198.95C1560.7 201.483 1563.55 202.75 1567.38 202.75C1571.25 202.75 1574.1 201.483 1575.93 198.95C1577.76 196.383 1578.68 192.95 1578.68 188.65V167.95H1587.28V189.85C1587.28 193.85 1586.5 197.383 1584.93 200.45C1583.4 203.517 1581.15 205.917 1578.18 207.65C1575.25 209.35 1571.65 210.2 1567.38 210.2C1563.15 210.2 1559.55 209.35 1556.58 207.65C1553.65 205.917 1551.4 203.517 1549.83 200.45C1548.3 197.383 1547.53 193.85 1547.53 189.85V167.95H1556.08V188.65ZM1595.21 167.95H1603.26V151.1H1611.91V167.95H1622.46V175.4H1611.91V195.7C1611.91 198.1 1612.33 199.867 1613.16 201C1614.03 202.133 1615.18 202.7 1616.61 202.7C1617.88 202.7 1618.86 202.467 1619.56 202C1620.26 201.533 1620.68 201.217 1620.81 201.05L1624.26 207.45C1624.06 207.617 1623.53 207.933 1622.66 208.4C1621.8 208.867 1620.68 209.283 1619.31 209.65C1617.95 210.017 1616.35 210.2 1614.51 210.2C1611.31 210.2 1608.63 209.233 1606.46 207.3C1604.33 205.333 1603.26 202.233 1603.26 198V175.4H1595.21V167.95ZM1650.82 210.2C1646.58 210.2 1642.82 209.25 1639.52 207.35C1636.25 205.45 1633.68 202.883 1631.82 199.65C1629.95 196.383 1629.02 192.7 1629.02 188.6C1629.02 184.5 1629.95 180.8 1631.82 177.5C1633.68 174.2 1636.25 171.583 1639.52 169.65C1642.82 167.717 1646.58 166.75 1650.82 166.75C1655.02 166.75 1658.73 167.717 1661.97 169.65C1665.23 171.583 1667.78 174.2 1669.62 177.5C1671.45 180.8 1672.37 184.5 1672.37 188.6C1672.37 192.7 1671.45 196.383 1669.62 199.65C1667.78 202.883 1665.23 205.45 1661.97 207.35C1658.73 209.25 1655.02 210.2 1650.82 210.2ZM1650.82 202.75C1653.48 202.75 1655.8 202.133 1657.77 200.9C1659.77 199.667 1661.32 197.983 1662.42 195.85C1663.52 193.683 1664.07 191.25 1664.07 188.55C1664.07 185.85 1663.52 183.417 1662.42 181.25C1661.32 179.083 1659.77 177.367 1657.77 176.1C1655.8 174.833 1653.48 174.2 1650.82 174.2C1648.12 174.2 1645.77 174.833 1643.77 176.1C1641.77 177.367 1640.2 179.083 1639.07 181.25C1637.97 183.417 1637.42 185.85 1637.42 188.55C1637.42 191.25 1637.97 193.683 1639.07 195.85C1640.2 197.983 1641.77 199.667 1643.77 200.9C1645.77 202.133 1648.12 202.75 1650.82 202.75ZM1731.26 166.75C1734.3 166.75 1736.9 167.417 1739.06 168.75C1741.23 170.05 1742.88 172.05 1744.01 174.75C1745.18 177.45 1745.76 180.9 1745.76 185.1V209H1737.16V186.85C1737.16 182.417 1736.55 179.083 1735.31 176.85C1734.08 174.617 1731.83 173.5 1728.56 173.5C1726.83 173.5 1725.16 173.983 1723.56 174.95C1722 175.883 1720.7 177.333 1719.66 179.3C1718.66 181.267 1718.16 183.783 1718.16 186.85V209H1710.06V186.85C1710.06 182.417 1709.3 179.083 1707.76 176.85C1706.23 174.617 1704.08 173.5 1701.31 173.5C1699.55 173.5 1697.88 173.967 1696.31 174.9C1694.78 175.8 1693.53 177.233 1692.56 179.2C1691.6 181.167 1691.11 183.717 1691.11 186.85V209H1682.46V167.95H1691.11V174.25C1691.48 173.217 1692.26 172.117 1693.46 170.95C1694.7 169.783 1696.26 168.8 1698.16 168C1700.1 167.167 1702.25 166.75 1704.61 166.75C1707.08 166.75 1709.15 167.25 1710.81 168.25C1712.48 169.25 1713.8 170.483 1714.76 171.95C1715.73 173.383 1716.4 174.767 1716.76 176.1C1717.23 174.667 1718.13 173.233 1719.46 171.8C1720.8 170.333 1722.48 169.133 1724.51 168.2C1726.55 167.233 1728.8 166.75 1731.26 166.75ZM1790.79 209V201C1790.53 201.833 1789.74 202.983 1788.44 204.45C1787.18 205.917 1785.43 207.25 1783.19 208.45C1780.99 209.617 1778.39 210.2 1775.39 210.2C1771.59 210.2 1768.14 209.3 1765.04 207.5C1761.98 205.7 1759.53 203.183 1757.69 199.95C1755.89 196.683 1754.99 192.867 1754.99 188.5C1754.99 184.133 1755.89 180.333 1757.69 177.1C1759.53 173.833 1761.98 171.3 1765.04 169.5C1768.14 167.667 1771.59 166.75 1775.39 166.75C1778.36 166.75 1780.93 167.283 1783.09 168.35C1785.29 169.417 1787.04 170.65 1788.34 172.05C1789.68 173.45 1790.46 174.65 1790.69 175.65V167.95H1799.29V209H1790.79ZM1763.59 188.5C1763.59 191.467 1764.24 194.033 1765.54 196.2C1766.84 198.367 1768.53 200.05 1770.59 201.25C1772.69 202.417 1774.93 203 1777.29 203C1779.83 203 1782.09 202.4 1784.09 201.2C1786.09 200 1787.68 198.317 1788.84 196.15C1790.01 193.95 1790.59 191.4 1790.59 188.5C1790.59 185.6 1790.01 183.067 1788.84 180.9C1787.68 178.7 1786.09 177 1784.09 175.8C1782.09 174.567 1779.83 173.95 1777.29 173.95C1774.93 173.95 1772.69 174.55 1770.59 175.75C1768.53 176.95 1766.84 178.633 1765.54 180.8C1764.24 182.967 1763.59 185.533 1763.59 188.5ZM1807.42 167.95H1815.47V151.1H1824.12V167.95H1834.67V175.4H1824.12V195.7C1824.12 198.1 1824.54 199.867 1825.37 201C1826.24 202.133 1827.39 202.7 1828.82 202.7C1830.09 202.7 1831.07 202.467 1831.77 202C1832.47 201.533 1832.89 201.217 1833.02 201.05L1836.47 207.45C1836.27 207.617 1835.74 207.933 1834.87 208.4C1834 208.867 1832.89 209.283 1831.52 209.65C1830.15 210.017 1828.55 210.2 1826.72 210.2C1823.52 210.2 1820.84 209.233 1818.67 207.3C1816.54 205.333 1815.47 202.233 1815.47 198V175.4H1807.42V167.95ZM1844.97 209V167.95H1853.67V209H1844.97ZM1849.42 153.9C1847.86 153.9 1846.51 153.35 1845.37 152.25C1844.27 151.117 1843.72 149.767 1843.72 148.2C1843.72 146.633 1844.27 145.283 1845.37 144.15C1846.51 143.017 1847.86 142.45 1849.42 142.45C1850.46 142.45 1851.41 142.717 1852.27 143.25C1853.17 143.783 1853.89 144.483 1854.42 145.35C1854.96 146.183 1855.22 147.133 1855.22 148.2C1855.22 149.767 1854.66 151.117 1853.52 152.25C1852.39 153.35 1851.02 153.9 1849.42 153.9ZM1885.97 210.2C1881.74 210.2 1877.97 209.25 1874.67 207.35C1871.41 205.45 1868.84 202.883 1866.97 199.65C1865.11 196.383 1864.17 192.7 1864.17 188.6C1864.17 184.5 1865.11 180.8 1866.97 177.5C1868.84 174.2 1871.41 171.583 1874.67 169.65C1877.97 167.717 1881.74 166.75 1885.97 166.75C1890.17 166.75 1893.89 167.717 1897.12 169.65C1900.39 171.583 1902.94 174.2 1904.77 177.5C1906.61 180.8 1907.52 184.5 1907.52 188.6C1907.52 192.7 1906.61 196.383 1904.77 199.65C1902.94 202.883 1900.39 205.45 1897.12 207.35C1893.89 209.25 1890.17 210.2 1885.97 210.2ZM1885.97 202.75C1888.64 202.75 1890.96 202.133 1892.92 200.9C1894.92 199.667 1896.47 197.983 1897.57 195.85C1898.67 193.683 1899.22 191.25 1899.22 188.55C1899.22 185.85 1898.67 183.417 1897.57 181.25C1896.47 179.083 1894.92 177.367 1892.92 176.1C1890.96 174.833 1888.64 174.2 1885.97 174.2C1883.27 174.2 1880.92 174.833 1878.92 176.1C1876.92 177.367 1875.36 179.083 1874.22 181.25C1873.12 183.417 1872.57 185.85 1872.57 188.55C1872.57 191.25 1873.12 193.683 1874.22 195.85C1875.36 197.983 1876.92 199.667 1878.92 200.9C1880.92 202.133 1883.27 202.75 1885.97 202.75ZM1940.12 166.75C1942.82 166.75 1945.44 167.317 1947.97 168.45C1950.54 169.583 1952.64 171.383 1954.27 173.85C1955.94 176.283 1956.77 179.467 1956.77 183.4V209H1947.97V185.1C1947.97 181.033 1947.02 178.083 1945.12 176.25C1943.22 174.383 1940.77 173.45 1937.77 173.45C1935.8 173.45 1933.9 174.017 1932.07 175.15C1930.27 176.25 1928.79 177.783 1927.62 179.75C1926.45 181.683 1925.87 183.883 1925.87 186.35V209H1917.17V167.95H1925.87V175.25C1926.17 174.117 1926.99 172.883 1928.32 171.55C1929.65 170.217 1931.35 169.083 1933.42 168.15C1935.49 167.217 1937.72 166.75 1940.12 166.75Z" fill="url(#paint9_linear_420_47)"/>
<path d="M1684.46 49.8C1688.26 49.8 1691.52 50.2333 1694.26 51.1C1697.02 51.9667 1699.19 52.8833 1700.76 53.85C1702.36 54.8167 1703.31 55.45 1703.61 55.75L1699.21 62.8C1698.71 62.3667 1697.82 61.75 1696.56 60.95C1695.29 60.1167 1693.71 59.3833 1691.81 58.75C1689.91 58.0833 1687.74 57.75 1685.31 57.75C1681.54 57.75 1678.56 58.5167 1676.36 60.05C1674.19 61.55 1673.11 63.6833 1673.11 66.45C1673.11 68.3167 1673.67 69.9667 1674.81 71.4C1675.97 72.8 1677.61 74.0833 1679.71 75.25C1681.81 76.4167 1684.26 77.6167 1687.06 78.85C1689.36 79.8167 1691.61 80.9167 1693.81 82.15C1696.04 83.3833 1698.06 84.8333 1699.86 86.5C1701.69 88.1667 1703.14 90.1 1704.21 92.3C1705.31 94.5 1705.86 97.0333 1705.86 99.9C1705.86 102.733 1705.27 105.283 1704.11 107.55C1702.97 109.817 1701.36 111.75 1699.26 113.35C1697.19 114.917 1694.77 116.117 1692.01 116.95C1689.24 117.783 1686.26 118.2 1683.06 118.2C1679.02 118.2 1675.37 117.7 1672.11 116.7C1668.87 115.7 1666.26 114.65 1664.26 113.55C1662.29 112.45 1661.16 111.767 1660.86 111.5L1665.51 104.15C1665.91 104.483 1666.64 104.983 1667.71 105.65C1668.77 106.283 1670.09 106.95 1671.66 107.65C1673.22 108.35 1674.99 108.95 1676.96 109.45C1678.92 109.917 1681.02 110.15 1683.26 110.15C1687.72 110.15 1691.11 109.15 1693.41 107.15C1695.71 105.15 1696.86 102.583 1696.86 99.45C1696.86 97.05 1696.12 94.9833 1694.66 93.25C1693.19 91.5167 1691.24 89.9667 1688.81 88.6C1686.37 87.2333 1683.69 85.9167 1680.76 84.65C1677.76 83.2833 1675.01 81.7833 1672.51 80.15C1670.01 78.5167 1667.99 76.5667 1666.46 74.3C1664.96 72 1664.21 69.2333 1664.21 66C1664.21 62.8 1665.11 59.9833 1666.91 57.55C1668.74 55.1167 1671.19 53.2167 1674.26 51.85C1677.36 50.4833 1680.76 49.8 1684.46 49.8ZM1721.94 98.25C1721.97 100.717 1722.5 102.967 1723.54 105C1724.57 107.033 1726.1 108.65 1728.14 109.85C1730.2 111.05 1732.74 111.65 1735.74 111.65C1738.27 111.65 1740.42 111.283 1742.19 110.55C1743.99 109.783 1745.45 108.883 1746.59 107.85C1747.72 106.783 1748.54 105.833 1749.04 105L1753.29 110.25C1752.19 111.85 1750.84 113.25 1749.24 114.45C1747.67 115.65 1745.75 116.567 1743.49 117.2C1741.22 117.867 1738.45 118.2 1735.19 118.2C1730.79 118.2 1726.97 117.267 1723.74 115.4C1720.54 113.5 1718.07 110.883 1716.34 107.55C1714.6 104.183 1713.74 100.333 1713.74 96C1713.74 92 1714.55 88.4 1716.19 85.2C1717.82 81.9667 1720.19 79.4167 1723.29 77.55C1726.42 75.6833 1730.19 74.75 1734.59 74.75C1738.62 74.75 1742.12 75.6 1745.09 77.3C1748.09 78.9667 1750.4 81.3333 1752.04 84.4C1753.7 87.4667 1754.54 91.1333 1754.54 95.4C1754.54 95.6667 1754.52 96.15 1754.49 96.85C1754.45 97.5167 1754.42 97.9833 1754.39 98.25H1721.94ZM1746.24 91.7C1746.2 90.3333 1745.8 88.8333 1745.04 87.2C1744.3 85.5667 1743.1 84.1667 1741.44 83C1739.77 81.8333 1737.52 81.25 1734.69 81.25C1731.75 81.25 1729.39 81.8167 1727.59 82.95C1725.82 84.0833 1724.52 85.4667 1723.69 87.1C1722.85 88.7 1722.37 90.2333 1722.24 91.7H1746.24ZM1783.49 111C1786.09 111 1788.19 110.583 1789.79 109.75C1791.39 108.917 1792.39 108.317 1792.79 107.95L1797.04 114.2C1796.71 114.5 1795.91 114.983 1794.64 115.65C1793.41 116.283 1791.81 116.867 1789.84 117.4C1787.91 117.933 1785.71 118.2 1783.24 118.2C1779.48 118.2 1775.98 117.367 1772.74 115.7C1769.51 114 1766.89 111.533 1764.89 108.3C1762.93 105.067 1761.94 101.117 1761.94 96.45C1761.94 91.75 1762.93 87.8 1764.89 84.6C1766.89 81.3667 1769.51 78.9167 1772.74 77.25C1775.98 75.5833 1779.48 74.75 1783.24 74.75C1785.68 74.75 1787.84 75.05 1789.74 75.65C1791.64 76.2167 1793.21 76.85 1794.44 77.55C1795.68 78.25 1796.49 78.7833 1796.89 79.15L1792.59 85.4C1792.33 85.1333 1791.81 84.7333 1791.04 84.2C1790.31 83.6333 1789.31 83.1167 1788.04 82.65C1786.78 82.1833 1785.26 81.95 1783.49 81.95C1781.36 81.95 1779.28 82.5333 1777.24 83.7C1775.24 84.8333 1773.59 86.4833 1772.29 88.65C1770.99 90.8167 1770.34 93.4167 1770.34 96.45C1770.34 99.4833 1770.99 102.1 1772.29 104.3C1773.59 106.467 1775.24 108.133 1777.24 109.3C1779.28 110.433 1781.36 111 1783.49 111ZM1813.8 96.65C1813.8 100.95 1814.72 104.383 1816.55 106.95C1818.42 109.483 1821.27 110.75 1825.1 110.75C1828.97 110.75 1831.82 109.483 1833.65 106.95C1835.48 104.383 1836.4 100.95 1836.4 96.65V75.95H1845V97.85C1845 101.85 1844.22 105.383 1842.65 108.45C1841.12 111.517 1838.87 113.917 1835.9 115.65C1832.97 117.35 1829.37 118.2 1825.1 118.2C1820.87 118.2 1817.27 117.35 1814.3 115.65C1811.37 113.917 1809.12 111.517 1807.55 108.45C1806.02 105.383 1805.25 101.85 1805.25 97.85V75.95H1813.8V96.65ZM1865.37 117H1856.72V75.95H1865.37V83.05H1865.12C1865.29 82.1833 1865.9 81.1 1866.97 79.8C1868.04 78.5 1869.5 77.3333 1871.37 76.3C1873.24 75.2667 1875.47 74.75 1878.07 74.75C1879.97 74.75 1881.64 75.0167 1883.07 75.55C1884.54 76.05 1885.57 76.55 1886.17 77.05L1882.62 84.25C1882.15 83.7833 1881.34 83.3167 1880.17 82.85C1879 82.35 1877.55 82.1 1875.82 82.1C1873.62 82.1 1871.74 82.7833 1870.17 84.15C1868.6 85.5167 1867.4 87.1667 1866.57 89.1C1865.77 91 1865.37 92.7667 1865.37 94.4V117ZM1892.73 117V75.95H1901.43V117H1892.73ZM1897.18 61.9C1895.61 61.9 1894.26 61.35 1893.13 60.25C1892.03 59.1167 1891.48 57.7667 1891.48 56.2C1891.48 54.6333 1892.03 53.2833 1893.13 52.15C1894.26 51.0167 1895.61 50.45 1897.18 50.45C1898.21 50.45 1899.16 50.7167 1900.03 51.25C1900.93 51.7833 1901.65 52.4833 1902.18 53.35C1902.71 54.1833 1902.98 55.1333 1902.98 56.2C1902.98 57.7667 1902.41 59.1167 1901.28 60.25C1900.15 61.35 1898.78 61.9 1897.18 61.9ZM1911.23 75.95H1919.28V59.1H1927.93V75.95H1938.48V83.4H1927.93V103.7C1927.93 106.1 1928.35 107.867 1929.18 109C1930.05 110.133 1931.2 110.7 1932.63 110.7C1933.9 110.7 1934.88 110.467 1935.58 110C1936.28 109.533 1936.7 109.217 1936.83 109.05L1940.28 115.45C1940.08 115.617 1939.55 115.933 1938.68 116.4C1937.81 116.867 1936.7 117.283 1935.33 117.65C1933.96 118.017 1932.36 118.2 1930.53 118.2C1927.33 118.2 1924.65 117.233 1922.48 115.3C1920.35 113.333 1919.28 110.233 1919.28 106V83.4H1911.23V75.95ZM1964.89 109.05L1978.74 75.95H1987.44L1959.74 137.8H1950.94L1960.24 117L1943.34 75.95H1952.19L1964.89 109.05Z" fill="url(#paint10_linear_420_47)"/>
<defs>
<linearGradient id="paint0_linear_420_47" x1="279.864" y1="192.261" x2="279.864" y2="39.0536" gradientUnits="userSpaceOnUse">
<stop stop-color="#BCBCBC"/>
<stop offset="1" stop-color="white"/>
</linearGradient>
<linearGradient id="paint1_linear_420_47" x1="408.145" y1="195.039" x2="408.145" y2="38.7773" gradientUnits="userSpaceOnUse">
<stop stop-color="#BCBCBC"/>
<stop offset="1" stop-color="white"/>
</linearGradient>
<linearGradient id="paint2_linear_420_47" x1="566.696" y1="195.32" x2="566.696" y2="85.4314" gradientUnits="userSpaceOnUse">
<stop stop-color="#BCBCBC"/>
<stop offset="1" stop-color="white"/>
</linearGradient>
<linearGradient id="paint3_linear_420_47" x1="720.158" y1="235.255" x2="720.158" y2="83.3596" gradientUnits="userSpaceOnUse">
<stop stop-color="#BCBCBC"/>
<stop offset="1" stop-color="white"/>
</linearGradient>
<linearGradient id="paint4_linear_420_47" x1="829.569" y1="195.391" x2="829.569" y2="86.8144" gradientUnits="userSpaceOnUse">
<stop stop-color="#BCBCBC"/>
<stop offset="1" stop-color="white"/>
</linearGradient>
<linearGradient id="paint5_linear_420_47" x1="925.214" y1="198.006" x2="925.214" y2="83.7512" gradientUnits="userSpaceOnUse">
<stop stop-color="#BCBCBC"/>
<stop offset="1" stop-color="white"/>
</linearGradient>
<linearGradient id="paint6_linear_420_47" x1="1010.9" y1="192.261" x2="1010.9" y2="39.0536" gradientUnits="userSpaceOnUse">
<stop stop-color="#BCBCBC"/>
<stop offset="1" stop-color="white"/>
</linearGradient>
<linearGradient id="paint7_linear_420_47" x1="114.229" y1="189.374" x2="103.761" y2="41.0024" gradientUnits="userSpaceOnUse">
<stop stop-color="#BCBCBC"/>
<stop offset="1" stop-color="white"/>
</linearGradient>
<linearGradient id="paint8_linear_420_47" x1="149.995" y1="202.194" x2="148.771" y2="150.348" gradientUnits="userSpaceOnUse">
<stop stop-color="#BCBCBC"/>
<stop offset="1" stop-color="white"/>
</linearGradient>
<linearGradient id="paint9_linear_420_47" x1="1631.5" y1="209" x2="1631.5" y2="139" gradientUnits="userSpaceOnUse">
<stop stop-color="#FCFCFC"/>
<stop offset="1" stop-color="#FCFCFC"/>
</linearGradient>
<linearGradient id="paint10_linear_420_47" x1="1844.14" y1="117" x2="1844.14" y2="47" gradientUnits="userSpaceOnUse">
<stop stop-color="#FCFCFC"/>
<stop offset="1" stop-color="#FCFCFC"/>
</linearGradient>
</defs>
</svg>
