<svg width="2579" height="635" viewBox="0 0 2579 635" fill="none" xmlns="http://www.w3.org/2000/svg">
<mask id="path-1-inside-1_1415_18549" fill="white">
<path d="M0 10C0 4.47715 4.47715 0 10 0H2569C2574.52 0 2579 4.47715 2579 10V625C2579 630.523 2574.52 635 2569 635H9.99997C4.47712 635 0 630.523 0 625V10Z"/>
</mask>
<path d="M0 10C0 4.47715 4.47715 0 10 0H2569C2574.52 0 2579 4.47715 2579 10V625C2579 630.523 2574.52 635 2569 635H9.99997C4.47712 635 0 630.523 0 625V10Z" fill="url(#paint0_linear_1415_18549)"/>
<path d="M0 10C0 -1.04569 8.95431 -10 20 -10H2559C2570.05 -10 2579 -1.04569 2579 10C2579 10 2574.52 10 2569 10H10C4.47715 10 0 10 0 10ZM2579 625C2579 636.046 2570.05 645 2559 645H20C8.95431 645 0 636.046 0 625C0 625 4.47715 625 10 625H2569C2574.52 625 2579 625 2579 625ZM0 635V0V635ZM2579 0V635V0Z" fill="#B1B1FF" mask="url(#path-1-inside-1_1415_18549)"/>
<path d="M328.298 381.505L370.104 231.412H413.196L455.002 381.505H429.484L420.255 346.758H363.003L353.563 381.505H328.256H328.298ZM369.03 324.043H414.271L393.473 246.857H389.827L369.03 324.043Z" fill="url(#paint1_linear_1415_18549)"/>
<path d="M464.4 330.259V327.035C464.4 292.73 486.484 272.565 512.865 272.565C533.031 272.565 542.893 281.141 547.823 289.296H551.258V231.412H574.837V381.505H551.679V367.134H548.245C542.893 375.921 533.01 384.498 512.865 384.498C486.694 384.498 464.4 364.564 464.4 330.238V330.259ZM551.679 329.627V327.478C551.679 305.394 538.172 293.173 519.735 293.173C501.297 293.173 488.001 305.394 488.001 327.478V329.627C488.001 351.71 501.508 363.932 519.735 363.932C537.962 363.932 551.679 351.71 551.679 329.627Z" fill="url(#paint2_linear_1415_18549)"/>
<path d="M602.694 381.505V275.578H625.641V287.799H629.287C632.932 280.509 641.508 273.871 656.511 273.871C671.515 273.871 680.955 280.951 685.885 290.602H689.531C694.251 281.162 702.616 273.871 719.558 273.871C739.724 273.871 755.148 286.746 755.148 311.189V381.526H731.78V312.917C731.78 300.695 724.489 293.615 712.478 293.615C698.971 293.615 690.605 302.402 690.605 318.48V381.526H667.237V312.917C667.237 300.695 659.946 293.615 647.935 293.615C634.428 293.615 626.063 302.402 626.063 318.48V381.526H602.694V381.505Z" fill="url(#paint3_linear_1415_18549)"/>
<path d="M793.941 424.386V403.799H852.689C856.756 403.799 858.695 401.65 858.695 397.373V366.502H855.26C851.404 374.425 842.385 383.233 822.451 383.233C798.219 383.233 781.066 366.081 781.066 339.278V275.599H804.435V337.36C804.435 355.166 813.664 363.3 829.531 363.3C847.105 363.3 858.484 351.289 858.484 329.206V275.599H881.852V402.324C881.852 415.831 873.487 424.408 859.98 424.408H793.941V424.386Z" fill="url(#paint4_linear_1415_18549)"/>
<path d="M909.709 381.505V275.578H932.656V288.01H936.301C939.525 279.223 947.027 275.135 957.963 275.135H970.606V296.144H957.31C942.939 296.144 933.077 303.856 933.077 319.723V381.484H909.709V381.505Z" fill="url(#paint5_linear_1415_18549)"/>
<path d="M981.817 350.846C981.817 329.185 998.969 318.038 1022.34 318.038H1053.86V311.611C1053.86 300.021 1046.78 291.888 1031.99 291.888C1017.2 291.888 1010.12 299.6 1007.76 310.536L985.883 303.456C991.025 286.725 1004.97 272.586 1032.2 272.586C1059.42 272.586 1076.58 287.168 1076.58 313.107V355.566C1076.58 359.865 1078.73 361.993 1082.58 361.993H1091.58V381.506H1074.64C1064.57 381.506 1057.49 375.922 1057.49 367.135V366.713H1053.84C1051.06 373.14 1043.56 384.519 1021.45 384.519C999.348 384.519 981.774 372.508 981.774 350.846H981.817ZM1053.86 338.203V336.054H1023.83C1012.69 336.054 1005.4 340.985 1005.4 350.214C1005.4 359.443 1012.69 365.217 1025.33 365.217C1042.06 365.217 1053.84 354.934 1053.84 338.203H1053.86Z" fill="url(#paint6_linear_1415_18549)"/>
<path d="M1109.13 381.505V231.412H1132.5V381.505H1109.13Z" fill="url(#paint7_linear_1415_18549)"/>
<rect x="194.684" y="210.592" width="59.6346" height="178.214" rx="28" transform="rotate(24.9531 194.684 210.592)" fill="url(#paint8_linear_1415_18549)"/>
<circle cx="260.297" cy="356.976" r="31" fill="url(#paint9_linear_1415_18549)"/>
<path d="M1589.05 242.25C1593.15 242.25 1596.7 241.683 1599.7 240.55C1602.73 239.417 1604.88 238.317 1606.15 237.25L1609.9 244.6C1608.4 245.933 1605.78 247.283 1602.05 248.65C1598.35 250.017 1593.9 250.7 1588.7 250.7C1583.83 250.7 1579.32 249.833 1575.15 248.1C1570.98 246.367 1567.33 243.95 1564.2 240.85C1561.1 237.75 1558.67 234.133 1556.9 230C1555.17 225.867 1554.3 221.4 1554.3 216.6C1554.3 211.8 1555.17 207.317 1556.9 203.15C1558.63 198.983 1561.05 195.35 1564.15 192.25C1567.28 189.117 1570.93 186.683 1575.1 184.95C1579.3 183.183 1583.83 182.3 1588.7 182.3C1593.9 182.3 1598.35 182.983 1602.05 184.35C1605.78 185.717 1608.4 187.067 1609.9 188.4L1606.15 195.75C1604.88 194.65 1602.73 193.55 1599.7 192.45C1596.7 191.317 1593.15 190.75 1589.05 190.75C1585.32 190.75 1581.9 191.383 1578.8 192.65C1575.7 193.917 1573 195.717 1570.7 198.05C1568.43 200.35 1566.67 203.067 1565.4 206.2C1564.17 209.333 1563.55 212.75 1563.55 216.45C1563.55 220.183 1564.17 223.633 1565.4 226.8C1566.67 229.933 1568.43 232.667 1570.7 235C1573 237.3 1575.7 239.083 1578.8 240.35C1581.9 241.617 1585.32 242.25 1589.05 242.25ZM1638.93 250.7C1634.7 250.7 1630.93 249.75 1627.63 247.85C1624.37 245.95 1621.8 243.383 1619.93 240.15C1618.07 236.883 1617.13 233.2 1617.13 229.1C1617.13 225 1618.07 221.3 1619.93 218C1621.8 214.7 1624.37 212.083 1627.63 210.15C1630.93 208.217 1634.7 207.25 1638.93 207.25C1643.13 207.25 1646.85 208.217 1650.08 210.15C1653.35 212.083 1655.9 214.7 1657.73 218C1659.57 221.3 1660.48 225 1660.48 229.1C1660.48 233.2 1659.57 236.883 1657.73 240.15C1655.9 243.383 1653.35 245.95 1650.08 247.85C1646.85 249.75 1643.13 250.7 1638.93 250.7ZM1638.93 243.25C1641.6 243.25 1643.92 242.633 1645.88 241.4C1647.88 240.167 1649.43 238.483 1650.53 236.35C1651.63 234.183 1652.18 231.75 1652.18 229.05C1652.18 226.35 1651.63 223.917 1650.53 221.75C1649.43 219.583 1647.88 217.867 1645.88 216.6C1643.92 215.333 1641.6 214.7 1638.93 214.7C1636.23 214.7 1633.88 215.333 1631.88 216.6C1629.88 217.867 1628.32 219.583 1627.18 221.75C1626.08 223.917 1625.53 226.35 1625.53 229.05C1625.53 231.75 1626.08 234.183 1627.18 236.35C1628.32 238.483 1629.88 240.167 1631.88 241.4C1633.88 242.633 1636.23 243.25 1638.93 243.25ZM1693.08 207.25C1695.78 207.25 1698.4 207.817 1700.93 208.95C1703.5 210.083 1705.6 211.883 1707.23 214.35C1708.9 216.783 1709.73 219.967 1709.73 223.9V249.5H1700.93V225.6C1700.93 221.533 1699.98 218.583 1698.08 216.75C1696.18 214.883 1693.73 213.95 1690.73 213.95C1688.76 213.95 1686.86 214.517 1685.03 215.65C1683.23 216.75 1681.75 218.283 1680.58 220.25C1679.41 222.183 1678.83 224.383 1678.83 226.85V249.5H1670.13V208.45H1678.83V215.75C1679.13 214.617 1679.95 213.383 1681.28 212.05C1682.61 210.717 1684.31 209.583 1686.38 208.65C1688.45 207.717 1690.68 207.25 1693.08 207.25ZM1717.61 208.45H1725.66V191.6H1734.31V208.45H1744.86V215.9H1734.31V236.2C1734.31 238.6 1734.72 240.367 1735.56 241.5C1736.42 242.633 1737.57 243.2 1739.01 243.2C1740.27 243.2 1741.26 242.967 1741.96 242.5C1742.66 242.033 1743.07 241.717 1743.21 241.55L1746.66 247.95C1746.46 248.117 1745.92 248.433 1745.06 248.9C1744.19 249.367 1743.07 249.783 1741.71 250.15C1740.34 250.517 1738.74 250.7 1736.91 250.7C1733.71 250.7 1731.02 249.733 1728.86 247.8C1726.72 245.833 1725.66 242.733 1725.66 238.5V215.9H1717.61V208.45ZM1755.16 249.5V208.45H1763.86V249.5H1755.16ZM1759.61 194.4C1758.04 194.4 1756.69 193.85 1755.56 192.75C1754.46 191.617 1753.91 190.267 1753.91 188.7C1753.91 187.133 1754.46 185.783 1755.56 184.65C1756.69 183.517 1758.04 182.95 1759.61 182.95C1760.64 182.95 1761.59 183.217 1762.46 183.75C1763.36 184.283 1764.08 184.983 1764.61 185.85C1765.14 186.683 1765.41 187.633 1765.41 188.7C1765.41 190.267 1764.84 191.617 1763.71 192.75C1762.58 193.85 1761.21 194.4 1759.61 194.4ZM1800.11 207.25C1802.81 207.25 1805.43 207.817 1807.96 208.95C1810.53 210.083 1812.63 211.883 1814.26 214.35C1815.93 216.783 1816.76 219.967 1816.76 223.9V249.5H1807.96V225.6C1807.96 221.533 1807.01 218.583 1805.11 216.75C1803.21 214.883 1800.76 213.95 1797.76 213.95C1795.79 213.95 1793.89 214.517 1792.06 215.65C1790.26 216.75 1788.78 218.283 1787.61 220.25C1786.44 222.183 1785.86 224.383 1785.86 226.85V249.5H1777.16V208.45H1785.86V215.75C1786.16 214.617 1786.98 213.383 1788.31 212.05C1789.64 210.717 1791.34 209.583 1793.41 208.65C1795.48 207.717 1797.71 207.25 1800.11 207.25ZM1836.29 229.15C1836.29 233.45 1837.2 236.883 1839.04 239.45C1840.9 241.983 1843.75 243.25 1847.59 243.25C1851.45 243.25 1854.3 241.983 1856.14 239.45C1857.97 236.883 1858.89 233.45 1858.89 229.15V208.45H1867.49V230.35C1867.49 234.35 1866.7 237.883 1865.14 240.95C1863.6 244.017 1861.35 246.417 1858.39 248.15C1855.45 249.85 1851.85 250.7 1847.59 250.7C1843.35 250.7 1839.75 249.85 1836.79 248.15C1833.85 246.417 1831.6 244.017 1830.04 240.95C1828.5 237.883 1827.74 234.35 1827.74 230.35V208.45H1836.29V229.15ZM1898.31 250.7C1894.08 250.7 1890.31 249.75 1887.01 247.85C1883.74 245.95 1881.18 243.383 1879.31 240.15C1877.44 236.883 1876.51 233.2 1876.51 229.1C1876.51 225 1877.44 221.3 1879.31 218C1881.18 214.7 1883.74 212.083 1887.01 210.15C1890.31 208.217 1894.08 207.25 1898.31 207.25C1902.51 207.25 1906.23 208.217 1909.46 210.15C1912.73 212.083 1915.28 214.7 1917.11 218C1918.94 221.3 1919.86 225 1919.86 229.1C1919.86 233.2 1918.94 236.883 1917.11 240.15C1915.28 243.383 1912.73 245.95 1909.46 247.85C1906.23 249.75 1902.51 250.7 1898.31 250.7ZM1898.31 243.25C1900.98 243.25 1903.29 242.633 1905.26 241.4C1907.26 240.167 1908.81 238.483 1909.91 236.35C1911.01 234.183 1911.56 231.75 1911.56 229.05C1911.56 226.35 1911.01 223.917 1909.91 221.75C1908.81 219.583 1907.26 217.867 1905.26 216.6C1903.29 215.333 1900.98 214.7 1898.31 214.7C1895.61 214.7 1893.26 215.333 1891.26 216.6C1889.26 217.867 1887.69 219.583 1886.56 221.75C1885.46 223.917 1884.91 226.35 1884.91 229.05C1884.91 231.75 1885.46 234.183 1886.56 236.35C1887.69 238.483 1889.26 240.167 1891.26 241.4C1893.26 242.633 1895.61 243.25 1898.31 243.25ZM1937.65 229.15C1937.65 233.45 1938.57 236.883 1940.4 239.45C1942.27 241.983 1945.12 243.25 1948.95 243.25C1952.82 243.25 1955.67 241.983 1957.5 239.45C1959.34 236.883 1960.25 233.45 1960.25 229.15V208.45H1968.85V230.35C1968.85 234.35 1968.07 237.883 1966.5 240.95C1964.97 244.017 1962.72 246.417 1959.75 248.15C1956.82 249.85 1953.22 250.7 1948.95 250.7C1944.72 250.7 1941.12 249.85 1938.15 248.15C1935.22 246.417 1932.97 244.017 1931.4 240.95C1929.87 237.883 1929.1 234.35 1929.1 230.35V208.45H1937.65V229.15ZM1995.78 207.25C1997.92 207.25 1999.9 207.467 2001.73 207.9C2003.6 208.333 2005.2 208.85 2006.53 209.45C2007.9 210.05 2008.87 210.583 2009.43 211.05L2005.98 216.55C2005.32 215.95 2004.12 215.283 2002.38 214.55C2000.65 213.783 1998.72 213.4 1996.58 213.4C1994.25 213.4 1992.27 213.867 1990.63 214.8C1989 215.7 1988.18 217.017 1988.18 218.75C1988.18 220.483 1989.02 221.867 1990.68 222.9C1992.38 223.9 1994.65 224.733 1997.48 225.4C1999.75 225.933 2001.87 226.65 2003.83 227.55C2005.83 228.45 2007.45 229.7 2008.68 231.3C2009.92 232.867 2010.53 234.967 2010.53 237.6C2010.53 240 2010.03 242.05 2009.03 243.75C2008.03 245.417 2006.68 246.767 2004.98 247.8C2003.28 248.8 2001.38 249.533 1999.28 250C1997.18 250.467 1995.05 250.7 1992.88 250.7C1990.35 250.7 1988.07 250.433 1986.03 249.9C1984 249.4 1982.28 248.8 1980.88 248.1C1979.52 247.367 1978.52 246.733 1977.88 246.2L1981.33 240C1982.2 240.833 1983.62 241.717 1985.58 242.65C1987.58 243.583 1989.85 244.05 1992.38 244.05C1995.18 244.05 1997.45 243.467 1999.18 242.3C2000.92 241.1 2001.78 239.55 2001.78 237.65C2001.78 236.217 2001.37 235.067 2000.53 234.2C1999.7 233.333 1998.58 232.633 1997.18 232.1C1995.78 231.567 1994.25 231.1 1992.58 230.7C1990.98 230.333 1989.42 229.85 1987.88 229.25C1986.38 228.65 1985 227.883 1983.73 226.95C1982.5 225.983 1981.52 224.817 1980.78 223.45C1980.05 222.05 1979.68 220.417 1979.68 218.55C1979.68 216.183 1980.43 214.167 1981.93 212.5C1983.43 210.8 1985.4 209.5 1987.83 208.6C1990.27 207.7 1992.92 207.25 1995.78 207.25ZM2060.92 207.25C2063.05 207.25 2065.04 207.467 2066.87 207.9C2068.74 208.333 2070.34 208.85 2071.67 209.45C2073.04 210.05 2074 210.583 2074.57 211.05L2071.12 216.55C2070.45 215.95 2069.25 215.283 2067.52 214.55C2065.79 213.783 2063.85 213.4 2061.72 213.4C2059.39 213.4 2057.4 213.867 2055.77 214.8C2054.14 215.7 2053.32 217.017 2053.32 218.75C2053.32 220.483 2054.15 221.867 2055.82 222.9C2057.52 223.9 2059.79 224.733 2062.62 225.4C2064.89 225.933 2067 226.65 2068.97 227.55C2070.97 228.45 2072.59 229.7 2073.82 231.3C2075.05 232.867 2075.67 234.967 2075.67 237.6C2075.67 240 2075.17 242.05 2074.17 243.75C2073.17 245.417 2071.82 246.767 2070.12 247.8C2068.42 248.8 2066.52 249.533 2064.42 250C2062.32 250.467 2060.19 250.7 2058.02 250.7C2055.49 250.7 2053.2 250.433 2051.17 249.9C2049.14 249.4 2047.42 248.8 2046.02 248.1C2044.65 247.367 2043.65 246.733 2043.02 246.2L2046.47 240C2047.34 240.833 2048.75 241.717 2050.72 242.65C2052.72 243.583 2054.99 244.05 2057.52 244.05C2060.32 244.05 2062.59 243.467 2064.32 242.3C2066.05 241.1 2066.92 239.55 2066.92 237.65C2066.92 236.217 2066.5 235.067 2065.67 234.2C2064.84 233.333 2063.72 232.633 2062.32 232.1C2060.92 231.567 2059.39 231.1 2057.72 230.7C2056.12 230.333 2054.55 229.85 2053.02 229.25C2051.52 228.65 2050.14 227.883 2048.87 226.95C2047.64 225.983 2046.65 224.817 2045.92 223.45C2045.19 222.05 2044.82 220.417 2044.82 218.55C2044.82 216.183 2045.57 214.167 2047.07 212.5C2048.57 210.8 2050.54 209.5 2052.97 208.6C2055.4 207.7 2058.05 207.25 2060.92 207.25ZM2091.2 230.75C2091.24 233.217 2091.77 235.467 2092.8 237.5C2093.84 239.533 2095.37 241.15 2097.4 242.35C2099.47 243.55 2102 244.15 2105 244.15C2107.54 244.15 2109.69 243.783 2111.45 243.05C2113.25 242.283 2114.72 241.383 2115.85 240.35C2116.99 239.283 2117.8 238.333 2118.3 237.5L2122.55 242.75C2121.45 244.35 2120.1 245.75 2118.5 246.95C2116.94 248.15 2115.02 249.067 2112.75 249.7C2110.49 250.367 2107.72 250.7 2104.45 250.7C2100.05 250.7 2096.24 249.767 2093 247.9C2089.8 246 2087.34 243.383 2085.6 240.05C2083.87 236.683 2083 232.833 2083 228.5C2083 224.5 2083.82 220.9 2085.45 217.7C2087.09 214.467 2089.45 211.917 2092.55 210.05C2095.69 208.183 2099.45 207.25 2103.85 207.25C2107.89 207.25 2111.39 208.1 2114.35 209.8C2117.35 211.467 2119.67 213.833 2121.3 216.9C2122.97 219.967 2123.8 223.633 2123.8 227.9C2123.8 228.167 2123.79 228.65 2123.75 229.35C2123.72 230.017 2123.69 230.483 2123.65 230.75H2091.2ZM2115.5 224.2C2115.47 222.833 2115.07 221.333 2114.3 219.7C2113.57 218.067 2112.37 216.667 2110.7 215.5C2109.04 214.333 2106.79 213.75 2103.95 213.75C2101.02 213.75 2098.65 214.317 2096.85 215.45C2095.09 216.583 2093.79 217.967 2092.95 219.6C2092.12 221.2 2091.64 222.733 2091.5 224.2H2115.5ZM2152.76 243.5C2155.36 243.5 2157.46 243.083 2159.06 242.25C2160.66 241.417 2161.66 240.817 2162.06 240.45L2166.31 246.7C2165.98 247 2165.18 247.483 2163.91 248.15C2162.68 248.783 2161.08 249.367 2159.11 249.9C2157.18 250.433 2154.98 250.7 2152.51 250.7C2148.74 250.7 2145.24 249.867 2142.01 248.2C2138.78 246.5 2136.16 244.033 2134.16 240.8C2132.19 237.567 2131.21 233.617 2131.21 228.95C2131.21 224.25 2132.19 220.3 2134.16 217.1C2136.16 213.867 2138.78 211.417 2142.01 209.75C2145.24 208.083 2148.74 207.25 2152.51 207.25C2154.94 207.25 2157.11 207.55 2159.01 208.15C2160.91 208.717 2162.48 209.35 2163.71 210.05C2164.94 210.75 2165.76 211.283 2166.16 211.65L2161.86 217.9C2161.59 217.633 2161.08 217.233 2160.31 216.7C2159.58 216.133 2158.58 215.617 2157.31 215.15C2156.04 214.683 2154.53 214.45 2152.76 214.45C2150.63 214.45 2148.54 215.033 2146.51 216.2C2144.51 217.333 2142.86 218.983 2141.56 221.15C2140.26 223.317 2139.61 225.917 2139.61 228.95C2139.61 231.983 2140.26 234.6 2141.56 236.8C2142.86 238.967 2144.51 240.633 2146.51 241.8C2148.54 242.933 2150.63 243.5 2152.76 243.5ZM2183.06 229.15C2183.06 233.45 2183.98 236.883 2185.81 239.45C2187.68 241.983 2190.53 243.25 2194.36 243.25C2198.23 243.25 2201.08 241.983 2202.91 239.45C2204.75 236.883 2205.66 233.45 2205.66 229.15V208.45H2214.26V230.35C2214.26 234.35 2213.48 237.883 2211.91 240.95C2210.38 244.017 2208.13 246.417 2205.16 248.15C2202.23 249.85 2198.63 250.7 2194.36 250.7C2190.13 250.7 2186.53 249.85 2183.56 248.15C2180.63 246.417 2178.38 244.017 2176.81 240.95C2175.28 237.883 2174.51 234.35 2174.51 230.35V208.45H2183.06V229.15ZM2234.64 249.5H2225.99V208.45H2234.64V215.55H2234.39C2234.55 214.683 2235.17 213.6 2236.24 212.3C2237.3 211 2238.77 209.833 2240.64 208.8C2242.5 207.767 2244.74 207.25 2247.34 207.25C2249.24 207.25 2250.9 207.517 2252.34 208.05C2253.8 208.55 2254.84 209.05 2255.44 209.55L2251.89 216.75C2251.42 216.283 2250.6 215.817 2249.44 215.35C2248.27 214.85 2246.82 214.6 2245.09 214.6C2242.89 214.6 2241 215.283 2239.44 216.65C2237.87 218.017 2236.67 219.667 2235.84 221.6C2235.04 223.5 2234.64 225.267 2234.64 226.9V249.5ZM2262 249.5V208.45H2270.7V249.5H2262ZM2266.45 194.4C2264.88 194.4 2263.53 193.85 2262.4 192.75C2261.3 191.617 2260.75 190.267 2260.75 188.7C2260.75 187.133 2261.3 185.783 2262.4 184.65C2263.53 183.517 2264.88 182.95 2266.45 182.95C2267.48 182.95 2268.43 183.217 2269.3 183.75C2270.2 184.283 2270.91 184.983 2271.45 185.85C2271.98 186.683 2272.25 187.633 2272.25 188.7C2272.25 190.267 2271.68 191.617 2270.55 192.75C2269.41 193.85 2268.05 194.4 2266.45 194.4ZM2280.5 208.45H2288.55V191.6H2297.2V208.45H2307.75V215.9H2297.2V236.2C2297.2 238.6 2297.61 240.367 2298.45 241.5C2299.31 242.633 2300.46 243.2 2301.9 243.2C2303.16 243.2 2304.15 242.967 2304.85 242.5C2305.55 242.033 2305.96 241.717 2306.1 241.55L2309.55 247.95C2309.35 248.117 2308.81 248.433 2307.95 248.9C2307.08 249.367 2305.96 249.783 2304.6 250.15C2303.23 250.517 2301.63 250.7 2299.8 250.7C2296.6 250.7 2293.91 249.733 2291.75 247.8C2289.61 245.833 2288.55 242.733 2288.55 238.5V215.9H2280.5V208.45ZM2334.15 241.55L2348 208.45H2356.7L2329 270.3H2320.2L2329.5 249.5L2312.6 208.45H2321.45L2334.15 241.55ZM1576.1 335.5C1578.7 335.5 1580.8 335.083 1582.4 334.25C1584 333.417 1585 332.817 1585.4 332.45L1589.65 338.7C1589.32 339 1588.52 339.483 1587.25 340.15C1586.02 340.783 1584.42 341.367 1582.45 341.9C1580.52 342.433 1578.32 342.7 1575.85 342.7C1572.08 342.7 1568.58 341.867 1565.35 340.2C1562.12 338.5 1559.5 336.033 1557.5 332.8C1555.53 329.567 1554.55 325.617 1554.55 320.95C1554.55 316.25 1555.53 312.3 1557.5 309.1C1559.5 305.867 1562.12 303.417 1565.35 301.75C1568.58 300.083 1572.08 299.25 1575.85 299.25C1578.28 299.25 1580.45 299.55 1582.35 300.15C1584.25 300.717 1585.82 301.35 1587.05 302.05C1588.28 302.75 1589.1 303.283 1589.5 303.65L1585.2 309.9C1584.93 309.633 1584.42 309.233 1583.65 308.7C1582.92 308.133 1581.92 307.617 1580.65 307.15C1579.38 306.683 1577.87 306.45 1576.1 306.45C1573.97 306.45 1571.88 307.033 1569.85 308.2C1567.85 309.333 1566.2 310.983 1564.9 313.15C1563.6 315.317 1562.95 317.917 1562.95 320.95C1562.95 323.983 1563.6 326.6 1564.9 328.8C1566.2 330.967 1567.85 332.633 1569.85 333.8C1571.88 334.933 1573.97 335.5 1576.1 335.5ZM1617.25 342.7C1613.02 342.7 1609.25 341.75 1605.95 339.85C1602.69 337.95 1600.12 335.383 1598.25 332.15C1596.39 328.883 1595.45 325.2 1595.45 321.1C1595.45 317 1596.39 313.3 1598.25 310C1600.12 306.7 1602.69 304.083 1605.95 302.15C1609.25 300.217 1613.02 299.25 1617.25 299.25C1621.45 299.25 1625.17 300.217 1628.4 302.15C1631.67 304.083 1634.22 306.7 1636.05 310C1637.89 313.3 1638.8 317 1638.8 321.1C1638.8 325.2 1637.89 328.883 1636.05 332.15C1634.22 335.383 1631.67 337.95 1628.4 339.85C1625.17 341.75 1621.45 342.7 1617.25 342.7ZM1617.25 335.25C1619.92 335.25 1622.24 334.633 1624.2 333.4C1626.2 332.167 1627.75 330.483 1628.85 328.35C1629.95 326.183 1630.5 323.75 1630.5 321.05C1630.5 318.35 1629.95 315.917 1628.85 313.75C1627.75 311.583 1626.2 309.867 1624.2 308.6C1622.24 307.333 1619.92 306.7 1617.25 306.7C1614.55 306.7 1612.2 307.333 1610.2 308.6C1608.2 309.867 1606.64 311.583 1605.5 313.75C1604.4 315.917 1603.85 318.35 1603.85 321.05C1603.85 323.75 1604.4 326.183 1605.5 328.35C1606.64 330.483 1608.2 332.167 1610.2 333.4C1612.2 334.633 1614.55 335.25 1617.25 335.25ZM1671.4 299.25C1674.1 299.25 1676.72 299.817 1679.25 300.95C1681.82 302.083 1683.92 303.883 1685.55 306.35C1687.22 308.783 1688.05 311.967 1688.05 315.9V341.5H1679.25V317.6C1679.25 313.533 1678.3 310.583 1676.4 308.75C1674.5 306.883 1672.05 305.95 1669.05 305.95C1667.08 305.95 1665.18 306.517 1663.35 307.65C1661.55 308.75 1660.07 310.283 1658.9 312.25C1657.73 314.183 1657.15 316.383 1657.15 318.85V341.5H1648.45V300.45H1657.15V307.75C1657.45 306.617 1658.27 305.383 1659.6 304.05C1660.93 302.717 1662.63 301.583 1664.7 300.65C1666.77 299.717 1669 299.25 1671.4 299.25ZM1695.93 300.45H1703.98V283.6H1712.63V300.45H1723.18V307.9H1712.63V328.2C1712.63 330.6 1713.04 332.367 1713.88 333.5C1714.74 334.633 1715.89 335.2 1717.33 335.2C1718.59 335.2 1719.58 334.967 1720.28 334.5C1720.98 334.033 1721.39 333.717 1721.53 333.55L1724.98 339.95C1724.78 340.117 1724.24 340.433 1723.38 340.9C1722.51 341.367 1721.39 341.783 1720.03 342.15C1718.66 342.517 1717.06 342.7 1715.23 342.7C1712.03 342.7 1709.34 341.733 1707.18 339.8C1705.04 337.833 1703.98 334.733 1703.98 330.5V307.9H1695.93V300.45ZM1741.08 341.5H1732.43V300.45H1741.08V307.55H1740.83C1741 306.683 1741.61 305.6 1742.68 304.3C1743.75 303 1745.21 301.833 1747.08 300.8C1748.95 299.767 1751.18 299.25 1753.78 299.25C1755.68 299.25 1757.35 299.517 1758.78 300.05C1760.25 300.55 1761.28 301.05 1761.88 301.55L1758.33 308.75C1757.86 308.283 1757.05 307.817 1755.88 307.35C1754.71 306.85 1753.26 306.6 1751.53 306.6C1749.33 306.6 1747.45 307.283 1745.88 308.65C1744.31 310.017 1743.11 311.667 1742.28 313.6C1741.48 315.5 1741.08 317.267 1741.08 318.9V341.5ZM1785.61 342.7C1781.38 342.7 1777.61 341.75 1774.31 339.85C1771.05 337.95 1768.48 335.383 1766.61 332.15C1764.75 328.883 1763.81 325.2 1763.81 321.1C1763.81 317 1764.75 313.3 1766.61 310C1768.48 306.7 1771.05 304.083 1774.31 302.15C1777.61 300.217 1781.38 299.25 1785.61 299.25C1789.81 299.25 1793.53 300.217 1796.76 302.15C1800.03 304.083 1802.58 306.7 1804.41 310C1806.25 313.3 1807.16 317 1807.16 321.1C1807.16 325.2 1806.25 328.883 1804.41 332.15C1802.58 335.383 1800.03 337.95 1796.76 339.85C1793.53 341.75 1789.81 342.7 1785.61 342.7ZM1785.61 335.25C1788.28 335.25 1790.6 334.633 1792.56 333.4C1794.56 332.167 1796.11 330.483 1797.21 328.35C1798.31 326.183 1798.86 323.75 1798.86 321.05C1798.86 318.35 1798.31 315.917 1797.21 313.75C1796.11 311.583 1794.56 309.867 1792.56 308.6C1790.6 307.333 1788.28 306.7 1785.61 306.7C1782.91 306.7 1780.56 307.333 1778.56 308.6C1776.56 309.867 1775 311.583 1773.86 313.75C1772.76 315.917 1772.21 318.35 1772.21 321.05C1772.21 323.75 1772.76 326.183 1773.86 328.35C1775 330.483 1776.56 332.167 1778.56 333.4C1780.56 334.633 1782.91 335.25 1785.61 335.25ZM1825.86 341.5H1817.11V272.7H1825.86V341.5ZM1912.54 299.25C1915.58 299.25 1918.18 299.917 1920.34 301.25C1922.51 302.55 1924.16 304.55 1925.29 307.25C1926.46 309.95 1927.04 313.4 1927.04 317.6V341.5H1918.44V319.35C1918.44 314.917 1917.83 311.583 1916.59 309.35C1915.36 307.117 1913.11 306 1909.84 306C1908.11 306 1906.44 306.483 1904.84 307.45C1903.28 308.383 1901.98 309.833 1900.94 311.8C1899.94 313.767 1899.44 316.283 1899.44 319.35V341.5H1891.34V319.35C1891.34 314.917 1890.58 311.583 1889.04 309.35C1887.51 307.117 1885.36 306 1882.59 306C1880.83 306 1879.16 306.467 1877.59 307.4C1876.06 308.3 1874.81 309.733 1873.84 311.7C1872.88 313.667 1872.39 316.217 1872.39 319.35V341.5H1863.74V300.45H1872.39V306.75C1872.76 305.717 1873.54 304.617 1874.74 303.45C1875.98 302.283 1877.54 301.3 1879.44 300.5C1881.38 299.667 1883.53 299.25 1885.89 299.25C1888.36 299.25 1890.43 299.75 1892.09 300.75C1893.76 301.75 1895.08 302.983 1896.04 304.45C1897.01 305.883 1897.68 307.267 1898.04 308.6C1898.51 307.167 1899.41 305.733 1900.74 304.3C1902.08 302.833 1903.76 301.633 1905.79 300.7C1907.83 299.733 1910.08 299.25 1912.54 299.25ZM1958.07 342.7C1953.84 342.7 1950.07 341.75 1946.77 339.85C1943.51 337.95 1940.94 335.383 1939.07 332.15C1937.21 328.883 1936.27 325.2 1936.27 321.1C1936.27 317 1937.21 313.3 1939.07 310C1940.94 306.7 1943.51 304.083 1946.77 302.15C1950.07 300.217 1953.84 299.25 1958.07 299.25C1962.27 299.25 1965.99 300.217 1969.22 302.15C1972.49 304.083 1975.04 306.7 1976.87 310C1978.71 313.3 1979.62 317 1979.62 321.1C1979.62 325.2 1978.71 328.883 1976.87 332.15C1975.04 335.383 1972.49 337.95 1969.22 339.85C1965.99 341.75 1962.27 342.7 1958.07 342.7ZM1958.07 335.25C1960.74 335.25 1963.06 334.633 1965.02 333.4C1967.02 332.167 1968.57 330.483 1969.67 328.35C1970.77 326.183 1971.32 323.75 1971.32 321.05C1971.32 318.35 1970.77 315.917 1969.67 313.75C1968.57 311.583 1967.02 309.867 1965.02 308.6C1963.06 307.333 1960.74 306.7 1958.07 306.7C1955.37 306.7 1953.02 307.333 1951.02 308.6C1949.02 309.867 1947.46 311.583 1946.32 313.75C1945.22 315.917 1944.67 318.35 1944.67 321.05C1944.67 323.75 1945.22 326.183 1946.32 328.35C1947.46 330.483 1949.02 332.167 1951.02 333.4C1953.02 334.633 1955.37 335.25 1958.07 335.25ZM2012.22 299.25C2014.92 299.25 2017.54 299.817 2020.07 300.95C2022.64 302.083 2024.74 303.883 2026.37 306.35C2028.04 308.783 2028.87 311.967 2028.87 315.9V341.5H2020.07V317.6C2020.07 313.533 2019.12 310.583 2017.22 308.75C2015.32 306.883 2012.87 305.95 2009.87 305.95C2007.9 305.95 2006 306.517 2004.17 307.65C2002.37 308.75 2000.89 310.283 1999.72 312.25C1998.55 314.183 1997.97 316.383 1997.97 318.85V341.5H1989.27V300.45H1997.97V307.75C1998.27 306.617 1999.09 305.383 2000.42 304.05C2001.75 302.717 2003.45 301.583 2005.52 300.65C2007.59 299.717 2009.82 299.25 2012.22 299.25ZM2041.2 341.5V300.45H2049.9V341.5H2041.2ZM2045.65 286.4C2044.08 286.4 2042.73 285.85 2041.6 284.75C2040.5 283.617 2039.95 282.267 2039.95 280.7C2039.95 279.133 2040.5 277.783 2041.6 276.65C2042.73 275.517 2044.08 274.95 2045.65 274.95C2046.68 274.95 2047.63 275.217 2048.5 275.75C2049.4 276.283 2050.11 276.983 2050.65 277.85C2051.18 278.683 2051.45 279.633 2051.45 280.7C2051.45 282.267 2050.88 283.617 2049.75 284.75C2048.61 285.85 2047.25 286.4 2045.65 286.4ZM2059.7 300.45H2067.75V283.6H2076.4V300.45H2086.95V307.9H2076.4V328.2C2076.4 330.6 2076.81 332.367 2077.65 333.5C2078.51 334.633 2079.66 335.2 2081.1 335.2C2082.36 335.2 2083.35 334.967 2084.05 334.5C2084.75 334.033 2085.16 333.717 2085.3 333.55L2088.75 339.95C2088.55 340.117 2088.01 340.433 2087.15 340.9C2086.28 341.367 2085.16 341.783 2083.8 342.15C2082.43 342.517 2080.83 342.7 2079 342.7C2075.8 342.7 2073.11 341.733 2070.95 339.8C2068.81 337.833 2067.75 334.733 2067.75 330.5V307.9H2059.7V300.45ZM2115.3 342.7C2111.07 342.7 2107.3 341.75 2104 339.85C2100.73 337.95 2098.17 335.383 2096.3 332.15C2094.43 328.883 2093.5 325.2 2093.5 321.1C2093.5 317 2094.43 313.3 2096.3 310C2098.17 306.7 2100.73 304.083 2104 302.15C2107.3 300.217 2111.07 299.25 2115.3 299.25C2119.5 299.25 2123.22 300.217 2126.45 302.15C2129.72 304.083 2132.27 306.7 2134.1 310C2135.93 313.3 2136.85 317 2136.85 321.1C2136.85 325.2 2135.93 328.883 2134.1 332.15C2132.27 335.383 2129.72 337.95 2126.45 339.85C2123.22 341.75 2119.5 342.7 2115.3 342.7ZM2115.3 335.25C2117.97 335.25 2120.28 334.633 2122.25 333.4C2124.25 332.167 2125.8 330.483 2126.9 328.35C2128 326.183 2128.55 323.75 2128.55 321.05C2128.55 318.35 2128 315.917 2126.9 313.75C2125.8 311.583 2124.25 309.867 2122.25 308.6C2120.28 307.333 2117.97 306.7 2115.3 306.7C2112.6 306.7 2110.25 307.333 2108.25 308.6C2106.25 309.867 2104.68 311.583 2103.55 313.75C2102.45 315.917 2101.9 318.35 2101.9 321.05C2101.9 323.75 2102.45 326.183 2103.55 328.35C2104.68 330.483 2106.25 332.167 2108.25 333.4C2110.25 334.633 2112.6 335.25 2115.3 335.25ZM2155.05 341.5H2146.4V300.45H2155.05V307.55H2154.8C2154.96 306.683 2155.58 305.6 2156.65 304.3C2157.71 303 2159.18 301.833 2161.05 300.8C2162.91 299.767 2165.15 299.25 2167.75 299.25C2169.65 299.25 2171.31 299.517 2172.75 300.05C2174.21 300.55 2175.25 301.05 2175.85 301.55L2172.3 308.75C2171.83 308.283 2171.01 307.817 2169.85 307.35C2168.68 306.85 2167.23 306.6 2165.5 306.6C2163.3 306.6 2161.41 307.283 2159.85 308.65C2158.28 310.017 2157.08 311.667 2156.25 313.6C2155.45 315.5 2155.05 317.267 2155.05 318.9V341.5ZM2182.41 341.5V300.45H2191.11V341.5H2182.41ZM2186.86 286.4C2185.29 286.4 2183.94 285.85 2182.81 284.75C2181.71 283.617 2181.16 282.267 2181.16 280.7C2181.16 279.133 2181.71 277.783 2182.81 276.65C2183.94 275.517 2185.29 274.95 2186.86 274.95C2187.89 274.95 2188.84 275.217 2189.71 275.75C2190.61 276.283 2191.32 276.983 2191.86 277.85C2192.39 278.683 2192.66 279.633 2192.66 280.7C2192.66 282.267 2192.09 283.617 2190.96 284.75C2189.82 285.85 2188.46 286.4 2186.86 286.4ZM2227.36 299.25C2230.06 299.25 2232.67 299.817 2235.21 300.95C2237.77 302.083 2239.87 303.883 2241.51 306.35C2243.17 308.783 2244.01 311.967 2244.01 315.9V341.5H2235.21V317.6C2235.21 313.533 2234.26 310.583 2232.36 308.75C2230.46 306.883 2228.01 305.95 2225.01 305.95C2223.04 305.95 2221.14 306.517 2219.31 307.65C2217.51 308.75 2216.02 310.283 2214.86 312.25C2213.69 314.183 2213.11 316.383 2213.11 318.85V341.5H2204.41V300.45H2213.11V307.75C2213.41 306.617 2214.22 305.383 2215.56 304.05C2216.89 302.717 2218.59 301.583 2220.66 300.65C2222.72 299.717 2224.96 299.25 2227.36 299.25ZM2274.98 363.45C2271.75 363.45 2268.82 363.117 2266.18 362.45C2263.58 361.783 2261.3 360.833 2259.33 359.6C2257.4 358.4 2255.85 356.983 2254.68 355.35L2260.38 349.9C2261.02 350.767 2261.87 351.683 2262.93 352.65C2264.03 353.65 2265.52 354.5 2267.38 355.2C2269.25 355.9 2271.68 356.25 2274.68 356.25C2277.62 356.25 2280.1 355.617 2282.13 354.35C2284.17 353.117 2285.72 351.433 2286.78 349.3C2287.85 347.167 2288.38 344.767 2288.38 342.1V340.75H2296.88V342.65C2296.88 347.183 2295.9 350.983 2293.93 354.05C2292 357.15 2289.38 359.483 2286.08 361.05C2282.78 362.65 2279.08 363.45 2274.98 363.45ZM2288.38 341.5V333.5C2288.12 334.333 2287.33 335.483 2286.03 336.95C2284.77 338.417 2283.02 339.75 2280.78 340.95C2278.58 342.117 2275.98 342.7 2272.98 342.7C2269.18 342.7 2265.73 341.8 2262.63 340C2259.57 338.2 2257.12 335.683 2255.28 332.45C2253.48 329.183 2252.58 325.367 2252.58 321C2252.58 316.633 2253.48 312.833 2255.28 309.6C2257.12 306.333 2259.57 303.8 2262.63 302C2265.73 300.167 2269.18 299.25 2272.98 299.25C2275.95 299.25 2278.52 299.783 2280.68 300.85C2282.88 301.917 2284.63 303.15 2285.93 304.55C2287.27 305.95 2288.05 307.15 2288.28 308.15V300.45H2296.88V341.5H2288.38ZM2261.18 321C2261.18 323.967 2261.83 326.533 2263.13 328.7C2264.43 330.867 2266.12 332.55 2268.18 333.75C2270.28 334.917 2272.52 335.5 2274.88 335.5C2277.42 335.5 2279.68 334.9 2281.68 333.7C2283.68 332.5 2285.27 330.817 2286.43 328.65C2287.6 326.45 2288.18 323.9 2288.18 321C2288.18 318.1 2287.6 315.567 2286.43 313.4C2285.27 311.2 2283.68 309.5 2281.68 308.3C2279.68 307.067 2277.42 306.45 2274.88 306.45C2272.52 306.45 2270.28 307.05 2268.18 308.25C2266.12 309.45 2264.43 311.133 2263.13 313.3C2261.83 315.467 2261.18 318.033 2261.18 321ZM2329.95 300.45H2338.35V288.8C2338.35 284.633 2339.07 281.283 2340.5 278.75C2341.97 276.217 2343.82 274.383 2346.05 273.25C2348.32 272.083 2350.63 271.5 2353 271.5C2355.87 271.5 2358.07 271.9 2359.6 272.7C2361.17 273.5 2362.1 274.033 2362.4 274.3L2358.9 280.95C2358.73 280.75 2358.22 280.383 2357.35 279.85C2356.48 279.317 2355.3 279.05 2353.8 279.05C2352.7 279.05 2351.63 279.317 2350.6 279.85C2349.57 280.383 2348.7 281.417 2348 282.95C2347.3 284.483 2346.95 286.767 2346.95 289.8V300.45H2358.65V307.9H2346.95V341.5H2338.35V307.9H2329.95V300.45ZM2385.52 342.7C2381.28 342.7 2377.52 341.75 2374.22 339.85C2370.95 337.95 2368.38 335.383 2366.52 332.15C2364.65 328.883 2363.72 325.2 2363.72 321.1C2363.72 317 2364.65 313.3 2366.52 310C2368.38 306.7 2370.95 304.083 2374.22 302.15C2377.52 300.217 2381.28 299.25 2385.52 299.25C2389.72 299.25 2393.43 300.217 2396.67 302.15C2399.93 304.083 2402.48 306.7 2404.32 310C2406.15 313.3 2407.07 317 2407.07 321.1C2407.07 325.2 2406.15 328.883 2404.32 332.15C2402.48 335.383 2399.93 337.95 2396.67 339.85C2393.43 341.75 2389.72 342.7 2385.52 342.7ZM2385.52 335.25C2388.18 335.25 2390.5 334.633 2392.47 333.4C2394.47 332.167 2396.02 330.483 2397.12 328.35C2398.22 326.183 2398.77 323.75 2398.77 321.05C2398.77 318.35 2398.22 315.917 2397.12 313.75C2396.02 311.583 2394.47 309.867 2392.47 308.6C2390.5 307.333 2388.18 306.7 2385.52 306.7C2382.82 306.7 2380.47 307.333 2378.47 308.6C2376.47 309.867 2374.9 311.583 2373.77 313.75C2372.67 315.917 2372.12 318.35 2372.12 321.05C2372.12 323.75 2372.67 326.183 2373.77 328.35C2374.9 330.483 2376.47 332.167 2378.47 333.4C2380.47 334.633 2382.82 335.25 2385.52 335.25ZM2425.26 341.5H2416.61V300.45H2425.26V307.55H2425.01C2425.18 306.683 2425.79 305.6 2426.86 304.3C2427.93 303 2429.39 301.833 2431.26 300.8C2433.13 299.767 2435.36 299.25 2437.96 299.25C2439.86 299.25 2441.53 299.517 2442.96 300.05C2444.43 300.55 2445.46 301.05 2446.06 301.55L2442.51 308.75C2442.04 308.283 2441.23 307.817 2440.06 307.35C2438.89 306.85 2437.44 306.6 2435.71 306.6C2433.51 306.6 2431.63 307.283 2430.06 308.65C2428.49 310.017 2427.29 311.667 2426.46 313.6C2425.66 315.5 2425.26 317.267 2425.26 318.9V341.5Z" fill="white"/>
<path d="M1589.75 433.5V425.5C1589.48 426.333 1588.7 427.483 1587.4 428.95C1586.13 430.417 1584.38 431.75 1582.15 432.95C1579.95 434.117 1577.35 434.7 1574.35 434.7C1570.55 434.7 1567.1 433.8 1564 432C1560.93 430.2 1558.48 427.683 1556.65 424.45C1554.85 421.183 1553.95 417.367 1553.95 413C1553.95 408.633 1554.85 404.833 1556.65 401.6C1558.48 398.333 1560.93 395.8 1564 394C1567.1 392.167 1570.55 391.25 1574.35 391.25C1577.32 391.25 1579.88 391.783 1582.05 392.85C1584.25 393.917 1586 395.15 1587.3 396.55C1588.63 397.95 1589.42 399.15 1589.65 400.15V392.45H1598.25V433.5H1589.75ZM1562.55 413C1562.55 415.967 1563.2 418.533 1564.5 420.7C1565.8 422.867 1567.48 424.55 1569.55 425.75C1571.65 426.917 1573.88 427.5 1576.25 427.5C1578.78 427.5 1581.05 426.9 1583.05 425.7C1585.05 424.5 1586.63 422.817 1587.8 420.65C1588.97 418.45 1589.55 415.9 1589.55 413C1589.55 410.1 1588.97 407.567 1587.8 405.4C1586.63 403.2 1585.05 401.5 1583.05 400.3C1581.05 399.067 1578.78 398.45 1576.25 398.45C1573.88 398.45 1571.65 399.05 1569.55 400.25C1567.48 401.45 1565.8 403.133 1564.5 405.3C1563.2 407.467 1562.55 410.033 1562.55 413ZM1632.83 391.25C1635.53 391.25 1638.14 391.817 1640.68 392.95C1643.24 394.083 1645.34 395.883 1646.98 398.35C1648.64 400.783 1649.48 403.967 1649.48 407.9V433.5H1640.68V409.6C1640.68 405.533 1639.73 402.583 1637.83 400.75C1635.93 398.883 1633.48 397.95 1630.48 397.95C1628.51 397.95 1626.61 398.517 1624.78 399.65C1622.98 400.75 1621.49 402.283 1620.33 404.25C1619.16 406.183 1618.58 408.383 1618.58 410.85V433.5H1609.88V392.45H1618.58V399.75C1618.88 398.617 1619.69 397.383 1621.03 396.05C1622.36 394.717 1624.06 393.583 1626.13 392.65C1628.19 391.717 1630.43 391.25 1632.83 391.25ZM1677.9 425.55L1691.75 392.45H1700.45L1672.75 454.3H1663.95L1673.25 433.5L1656.35 392.45H1665.2L1677.9 425.55ZM1751.3 427.5C1753.9 427.5 1756 427.083 1757.6 426.25C1759.2 425.417 1760.2 424.817 1760.6 424.45L1764.85 430.7C1764.51 431 1763.71 431.483 1762.45 432.15C1761.21 432.783 1759.61 433.367 1757.65 433.9C1755.71 434.433 1753.51 434.7 1751.05 434.7C1747.28 434.7 1743.78 433.867 1740.55 432.2C1737.31 430.5 1734.7 428.033 1732.7 424.8C1730.73 421.567 1729.75 417.617 1729.75 412.95C1729.75 408.25 1730.73 404.3 1732.7 401.1C1734.7 397.867 1737.31 395.417 1740.55 393.75C1743.78 392.083 1747.28 391.25 1751.05 391.25C1753.48 391.25 1755.65 391.55 1757.55 392.15C1759.45 392.717 1761.01 393.35 1762.25 394.05C1763.48 394.75 1764.3 395.283 1764.7 395.65L1760.4 401.9C1760.13 401.633 1759.61 401.233 1758.85 400.7C1758.11 400.133 1757.11 399.617 1755.85 399.15C1754.58 398.683 1753.06 398.45 1751.3 398.45C1749.16 398.45 1747.08 399.033 1745.05 400.2C1743.05 401.333 1741.4 402.983 1740.1 405.15C1738.8 407.317 1738.15 409.917 1738.15 412.95C1738.15 415.983 1738.8 418.6 1740.1 420.8C1741.4 422.967 1743.05 424.633 1745.05 425.8C1747.08 426.933 1749.16 427.5 1751.3 427.5ZM1781.6 413.15C1781.6 417.45 1782.52 420.883 1784.35 423.45C1786.22 425.983 1789.07 427.25 1792.9 427.25C1796.77 427.25 1799.62 425.983 1801.45 423.45C1803.28 420.883 1804.2 417.45 1804.2 413.15V392.45H1812.8V414.35C1812.8 418.35 1812.02 421.883 1810.45 424.95C1808.92 428.017 1806.67 430.417 1803.7 432.15C1800.77 433.85 1797.17 434.7 1792.9 434.7C1788.67 434.7 1785.07 433.85 1782.1 432.15C1779.17 430.417 1776.92 428.017 1775.35 424.95C1773.82 421.883 1773.05 418.35 1773.05 414.35V392.45H1781.6V413.15ZM1839.73 391.25C1841.86 391.25 1843.84 391.467 1845.68 391.9C1847.54 392.333 1849.14 392.85 1850.48 393.45C1851.84 394.05 1852.81 394.583 1853.38 395.05L1849.93 400.55C1849.26 399.95 1848.06 399.283 1846.33 398.55C1844.59 397.783 1842.66 397.4 1840.53 397.4C1838.19 397.4 1836.21 397.867 1834.58 398.8C1832.94 399.7 1832.13 401.017 1832.13 402.75C1832.13 404.483 1832.96 405.867 1834.63 406.9C1836.33 407.9 1838.59 408.733 1841.43 409.4C1843.69 409.933 1845.81 410.65 1847.78 411.55C1849.78 412.45 1851.39 413.7 1852.63 415.3C1853.86 416.867 1854.48 418.967 1854.48 421.6C1854.48 424 1853.98 426.05 1852.98 427.75C1851.98 429.417 1850.63 430.767 1848.93 431.8C1847.23 432.8 1845.33 433.533 1843.23 434C1841.13 434.467 1838.99 434.7 1836.83 434.7C1834.29 434.7 1832.01 434.433 1829.98 433.9C1827.94 433.4 1826.23 432.8 1824.83 432.1C1823.46 431.367 1822.46 430.733 1821.83 430.2L1825.28 424C1826.14 424.833 1827.56 425.717 1829.53 426.65C1831.53 427.583 1833.79 428.05 1836.33 428.05C1839.13 428.05 1841.39 427.467 1843.13 426.3C1844.86 425.1 1845.73 423.55 1845.73 421.65C1845.73 420.217 1845.31 419.067 1844.48 418.2C1843.64 417.333 1842.53 416.633 1841.13 416.1C1839.73 415.567 1838.19 415.1 1836.53 414.7C1834.93 414.333 1833.36 413.85 1831.83 413.25C1830.33 412.65 1828.94 411.883 1827.68 410.95C1826.44 409.983 1825.46 408.817 1824.73 407.45C1823.99 406.05 1823.63 404.417 1823.63 402.55C1823.63 400.183 1824.38 398.167 1825.88 396.5C1827.38 394.8 1829.34 393.5 1831.78 392.6C1834.21 391.7 1836.86 391.25 1839.73 391.25ZM1860.38 392.45H1868.43V375.6H1877.08V392.45H1887.63V399.9H1877.08V420.2C1877.08 422.6 1877.5 424.367 1878.33 425.5C1879.2 426.633 1880.35 427.2 1881.78 427.2C1883.05 427.2 1884.03 426.967 1884.73 426.5C1885.43 426.033 1885.85 425.717 1885.98 425.55L1889.43 431.95C1889.23 432.117 1888.7 432.433 1887.83 432.9C1886.96 433.367 1885.85 433.783 1884.48 434.15C1883.11 434.517 1881.51 434.7 1879.68 434.7C1876.48 434.7 1873.8 433.733 1871.63 431.8C1869.5 429.833 1868.43 426.733 1868.43 422.5V399.9H1860.38V392.45ZM1915.98 434.7C1911.75 434.7 1907.98 433.75 1904.68 431.85C1901.42 429.95 1898.85 427.383 1896.98 424.15C1895.12 420.883 1894.18 417.2 1894.18 413.1C1894.18 409 1895.12 405.3 1896.98 402C1898.85 398.7 1901.42 396.083 1904.68 394.15C1907.98 392.217 1911.75 391.25 1915.98 391.25C1920.18 391.25 1923.9 392.217 1927.13 394.15C1930.4 396.083 1932.95 398.7 1934.78 402C1936.62 405.3 1937.53 409 1937.53 413.1C1937.53 417.2 1936.62 420.883 1934.78 424.15C1932.95 427.383 1930.4 429.95 1927.13 431.85C1923.9 433.75 1920.18 434.7 1915.98 434.7ZM1915.98 427.25C1918.65 427.25 1920.97 426.633 1922.93 425.4C1924.93 424.167 1926.48 422.483 1927.58 420.35C1928.68 418.183 1929.23 415.75 1929.23 413.05C1929.23 410.35 1928.68 407.917 1927.58 405.75C1926.48 403.583 1924.93 401.867 1922.93 400.6C1920.97 399.333 1918.65 398.7 1915.98 398.7C1913.28 398.7 1910.93 399.333 1908.93 400.6C1906.93 401.867 1905.37 403.583 1904.23 405.75C1903.13 407.917 1902.58 410.35 1902.58 413.05C1902.58 415.75 1903.13 418.183 1904.23 420.35C1905.37 422.483 1906.93 424.167 1908.93 425.4C1910.93 426.633 1913.28 427.25 1915.98 427.25ZM1996.43 391.25C1999.46 391.25 2002.06 391.917 2004.23 393.25C2006.4 394.55 2008.05 396.55 2009.18 399.25C2010.35 401.95 2010.93 405.4 2010.93 409.6V433.5H2002.33V411.35C2002.33 406.917 2001.71 403.583 2000.48 401.35C1999.25 399.117 1997 398 1993.73 398C1992 398 1990.33 398.483 1988.73 399.45C1987.16 400.383 1985.86 401.833 1984.83 403.8C1983.83 405.767 1983.33 408.283 1983.33 411.35V433.5H1975.23V411.35C1975.23 406.917 1974.46 403.583 1972.93 401.35C1971.4 399.117 1969.25 398 1966.48 398C1964.71 398 1963.05 398.467 1961.48 399.4C1959.95 400.3 1958.7 401.733 1957.73 403.7C1956.76 405.667 1956.28 408.217 1956.28 411.35V433.5H1947.63V392.45H1956.28V398.75C1956.65 397.717 1957.43 396.617 1958.63 395.45C1959.86 394.283 1961.43 393.3 1963.33 392.5C1965.26 391.667 1967.41 391.25 1969.78 391.25C1972.25 391.25 1974.31 391.75 1975.98 392.75C1977.65 393.75 1978.96 394.983 1979.93 396.45C1980.9 397.883 1981.56 399.267 1981.93 400.6C1982.4 399.167 1983.3 397.733 1984.63 396.3C1985.96 394.833 1987.65 393.633 1989.68 392.7C1991.71 391.733 1993.96 391.25 1996.43 391.25ZM2067.21 427.5C2069.81 427.5 2071.91 427.083 2073.51 426.25C2075.11 425.417 2076.11 424.817 2076.51 424.45L2080.76 430.7C2080.43 431 2079.63 431.483 2078.36 432.15C2077.13 432.783 2075.53 433.367 2073.56 433.9C2071.63 434.433 2069.43 434.7 2066.96 434.7C2063.2 434.7 2059.7 433.867 2056.46 432.2C2053.23 430.5 2050.61 428.033 2048.61 424.8C2046.65 421.567 2045.66 417.617 2045.66 412.95C2045.66 408.25 2046.65 404.3 2048.61 401.1C2050.61 397.867 2053.23 395.417 2056.46 393.75C2059.7 392.083 2063.2 391.25 2066.96 391.25C2069.4 391.25 2071.56 391.55 2073.46 392.15C2075.36 392.717 2076.93 393.35 2078.16 394.05C2079.4 394.75 2080.21 395.283 2080.61 395.65L2076.31 401.9C2076.05 401.633 2075.53 401.233 2074.76 400.7C2074.03 400.133 2073.03 399.617 2071.76 399.15C2070.5 398.683 2068.98 398.45 2067.21 398.45C2065.08 398.45 2063 399.033 2060.96 400.2C2058.96 401.333 2057.31 402.983 2056.01 405.15C2054.71 407.317 2054.06 409.917 2054.06 412.95C2054.06 415.983 2054.71 418.6 2056.01 420.8C2057.31 422.967 2058.96 424.633 2060.96 425.8C2063 426.933 2065.08 427.5 2067.21 427.5ZM2108.37 434.7C2104.13 434.7 2100.37 433.75 2097.07 431.85C2093.8 429.95 2091.23 427.383 2089.37 424.15C2087.5 420.883 2086.57 417.2 2086.57 413.1C2086.57 409 2087.5 405.3 2089.37 402C2091.23 398.7 2093.8 396.083 2097.07 394.15C2100.37 392.217 2104.13 391.25 2108.37 391.25C2112.57 391.25 2116.28 392.217 2119.52 394.15C2122.78 396.083 2125.33 398.7 2127.17 402C2129 405.3 2129.92 409 2129.92 413.1C2129.92 417.2 2129 420.883 2127.17 424.15C2125.33 427.383 2122.78 429.95 2119.52 431.85C2116.28 433.75 2112.57 434.7 2108.37 434.7ZM2108.37 427.25C2111.03 427.25 2113.35 426.633 2115.32 425.4C2117.32 424.167 2118.87 422.483 2119.97 420.35C2121.07 418.183 2121.62 415.75 2121.62 413.05C2121.62 410.35 2121.07 407.917 2119.97 405.75C2118.87 403.583 2117.32 401.867 2115.32 400.6C2113.35 399.333 2111.03 398.7 2108.37 398.7C2105.67 398.7 2103.32 399.333 2101.32 400.6C2099.32 401.867 2097.75 403.583 2096.62 405.75C2095.52 407.917 2094.97 410.35 2094.97 413.05C2094.97 415.75 2095.52 418.183 2096.62 420.35C2097.75 422.483 2099.32 424.167 2101.32 425.4C2103.32 426.633 2105.67 427.25 2108.37 427.25ZM2162.51 391.25C2165.21 391.25 2167.83 391.817 2170.36 392.95C2172.93 394.083 2175.03 395.883 2176.66 398.35C2178.33 400.783 2179.16 403.967 2179.16 407.9V433.5H2170.36V409.6C2170.36 405.533 2169.41 402.583 2167.51 400.75C2165.61 398.883 2163.16 397.95 2160.16 397.95C2158.2 397.95 2156.3 398.517 2154.46 399.65C2152.66 400.75 2151.18 402.283 2150.01 404.25C2148.85 406.183 2148.26 408.383 2148.26 410.85V433.5H2139.56V392.45H2148.26V399.75C2148.56 398.617 2149.38 397.383 2150.71 396.05C2152.05 394.717 2153.75 393.583 2155.81 392.65C2157.88 391.717 2160.11 391.25 2162.51 391.25ZM2187.04 392.45H2195.09V375.6H2203.74V392.45H2214.29V399.9H2203.74V420.2C2203.74 422.6 2204.16 424.367 2204.99 425.5C2205.86 426.633 2207.01 427.2 2208.44 427.2C2209.71 427.2 2210.69 426.967 2211.39 426.5C2212.09 426.033 2212.51 425.717 2212.64 425.55L2216.09 431.95C2215.89 432.117 2215.36 432.433 2214.49 432.9C2213.62 433.367 2212.51 433.783 2211.14 434.15C2209.77 434.517 2208.17 434.7 2206.34 434.7C2203.14 434.7 2200.46 433.733 2198.29 431.8C2196.16 429.833 2195.09 426.733 2195.09 422.5V399.9H2187.04V392.45ZM2232.19 433.5H2223.54V392.45H2232.19V399.55H2231.94C2232.11 398.683 2232.73 397.6 2233.79 396.3C2234.86 395 2236.33 393.833 2238.19 392.8C2240.06 391.767 2242.29 391.25 2244.89 391.25C2246.79 391.25 2248.46 391.517 2249.89 392.05C2251.36 392.55 2252.39 393.05 2252.99 393.55L2249.44 400.75C2248.98 400.283 2248.16 399.817 2246.99 399.35C2245.83 398.85 2244.38 398.6 2242.64 398.6C2240.44 398.6 2238.56 399.283 2236.99 400.65C2235.43 402.017 2234.23 403.667 2233.39 405.6C2232.59 407.5 2232.19 409.267 2232.19 410.9V433.5ZM2276.73 434.7C2272.49 434.7 2268.73 433.75 2265.43 431.85C2262.16 429.95 2259.59 427.383 2257.73 424.15C2255.86 420.883 2254.93 417.2 2254.93 413.1C2254.93 409 2255.86 405.3 2257.73 402C2259.59 398.7 2262.16 396.083 2265.43 394.15C2268.73 392.217 2272.49 391.25 2276.73 391.25C2280.93 391.25 2284.64 392.217 2287.88 394.15C2291.14 396.083 2293.69 398.7 2295.53 402C2297.36 405.3 2298.28 409 2298.28 413.1C2298.28 417.2 2297.36 420.883 2295.53 424.15C2293.69 427.383 2291.14 429.95 2287.88 431.85C2284.64 433.75 2280.93 434.7 2276.73 434.7ZM2276.73 427.25C2279.39 427.25 2281.71 426.633 2283.68 425.4C2285.68 424.167 2287.23 422.483 2288.33 420.35C2289.43 418.183 2289.98 415.75 2289.98 413.05C2289.98 410.35 2289.43 407.917 2288.33 405.75C2287.23 403.583 2285.68 401.867 2283.68 400.6C2281.71 399.333 2279.39 398.7 2276.73 398.7C2274.03 398.7 2271.68 399.333 2269.68 400.6C2267.68 401.867 2266.11 403.583 2264.98 405.75C2263.88 407.917 2263.33 410.35 2263.33 413.05C2263.33 415.75 2263.88 418.183 2264.98 420.35C2266.11 422.483 2267.68 424.167 2269.68 425.4C2271.68 426.633 2274.03 427.25 2276.73 427.25ZM2316.97 433.5H2308.22V364.7H2316.97V433.5Z" fill="#B1B1FF"/>
<defs>
<linearGradient id="paint0_linear_1415_18549" x1="373.5" y1="-63.5" x2="2545" y2="760" gradientUnits="userSpaceOnUse">
<stop stop-color="#07090A"/>
<stop offset="1" stop-color="#2B3167" stop-opacity="0.6"/>
</linearGradient>
<linearGradient id="paint1_linear_1415_18549" x1="389.363" y1="370.761" x2="389.363" y2="217.553" gradientUnits="userSpaceOnUse">
<stop stop-color="#BCBCBC"/>
<stop offset="1" stop-color="white"/>
</linearGradient>
<linearGradient id="paint2_linear_1415_18549" x1="517.644" y1="373.539" x2="517.644" y2="217.277" gradientUnits="userSpaceOnUse">
<stop stop-color="#BCBCBC"/>
<stop offset="1" stop-color="white"/>
</linearGradient>
<linearGradient id="paint3_linear_1415_18549" x1="676.196" y1="373.82" x2="676.196" y2="263.931" gradientUnits="userSpaceOnUse">
<stop stop-color="#BCBCBC"/>
<stop offset="1" stop-color="white"/>
</linearGradient>
<linearGradient id="paint4_linear_1415_18549" x1="829.658" y1="413.755" x2="829.658" y2="261.86" gradientUnits="userSpaceOnUse">
<stop stop-color="#BCBCBC"/>
<stop offset="1" stop-color="white"/>
</linearGradient>
<linearGradient id="paint5_linear_1415_18549" x1="939.069" y1="373.891" x2="939.069" y2="265.314" gradientUnits="userSpaceOnUse">
<stop stop-color="#BCBCBC"/>
<stop offset="1" stop-color="white"/>
</linearGradient>
<linearGradient id="paint6_linear_1415_18549" x1="1034.71" y1="376.506" x2="1034.71" y2="262.251" gradientUnits="userSpaceOnUse">
<stop stop-color="#BCBCBC"/>
<stop offset="1" stop-color="white"/>
</linearGradient>
<linearGradient id="paint7_linear_1415_18549" x1="1120.4" y1="370.761" x2="1120.4" y2="217.553" gradientUnits="userSpaceOnUse">
<stop stop-color="#BCBCBC"/>
<stop offset="1" stop-color="white"/>
</linearGradient>
<linearGradient id="paint8_linear_1415_18549" x1="223.729" y1="367.874" x2="213.26" y2="219.502" gradientUnits="userSpaceOnUse">
<stop stop-color="#BCBCBC"/>
<stop offset="1" stop-color="white"/>
</linearGradient>
<linearGradient id="paint9_linear_1415_18549" x1="259.494" y1="380.694" x2="258.27" y2="328.848" gradientUnits="userSpaceOnUse">
<stop stop-color="#BCBCBC"/>
<stop offset="1" stop-color="white"/>
</linearGradient>
</defs>
</svg>
