<svg width="2075" height="296" viewBox="0 0 2075 296" fill="none" xmlns="http://www.w3.org/2000/svg">
<rect width="2074.8" height="296" rx="10" fill="#22272D"/>
<rect x="85.1841" y="33.5581" width="59.6346" height="178.214" rx="28" transform="rotate(24.9531 85.1841 33.5581)" fill="url(#paint0_linear_402_8681)"/>
<circle cx="150.797" cy="179.942" r="31" fill="url(#paint1_linear_402_8681)"/>
<path d="M280.997 51.0419H302.357L360.917 209.442H338.957L325.277 171.282H258.077L244.157 209.442H222.197L280.997 51.0419ZM264.677 152.802H318.797L291.917 76.2419H291.557L264.677 152.802ZM420.681 212.322C411.641 212.322 403.521 210.162 396.321 205.842C389.201 201.522 383.561 195.482 379.401 187.722C375.321 179.882 373.281 170.722 373.281 160.242C373.281 149.762 375.321 140.642 379.401 132.882C383.561 125.042 389.201 118.962 396.321 114.642C403.521 110.242 411.641 108.042 420.681 108.042C427.961 108.042 434.361 109.322 439.881 111.882C445.401 114.362 449.801 117.282 453.081 120.642C456.361 124.002 458.241 126.922 458.721 129.402V44.3219H479.721V209.442H459.081V190.242C458.201 192.962 456.001 196.042 452.481 199.482C449.041 202.922 444.601 205.922 439.161 208.482C433.721 211.042 427.561 212.322 420.681 212.322ZM425.481 195.042C431.561 195.042 437.121 193.602 442.161 190.722C447.201 187.842 451.201 183.802 454.161 178.602C457.201 173.322 458.721 167.202 458.721 160.242C458.721 153.282 457.201 147.202 454.161 142.002C451.201 136.722 447.201 132.642 442.161 129.762C437.121 126.802 431.561 125.322 425.481 125.322C419.881 125.322 414.681 126.762 409.881 129.642C405.081 132.522 401.201 136.562 398.241 141.762C395.361 146.962 393.921 153.122 393.921 160.242C393.921 167.362 395.361 173.522 398.241 178.722C401.201 183.922 405.081 187.962 409.881 190.842C414.681 193.642 419.881 195.042 425.481 195.042ZM621.301 108.042C628.581 108.042 634.821 109.642 640.021 112.842C645.221 115.962 649.181 120.762 651.901 127.242C654.701 133.722 656.101 142.002 656.101 152.082V209.442H635.461V156.282C635.461 145.642 633.981 137.642 631.021 132.282C628.061 126.922 622.661 124.242 614.821 124.242C610.661 124.242 606.661 125.402 602.821 127.722C599.061 129.962 595.941 133.442 593.461 138.162C591.061 142.882 589.861 148.922 589.861 156.282V209.442H570.421V156.282C570.421 145.642 568.581 137.642 564.901 132.282C561.221 126.922 556.061 124.242 549.421 124.242C545.181 124.242 541.181 125.362 537.421 127.602C533.741 129.762 530.741 133.202 528.421 137.922C526.101 142.642 524.941 148.762 524.941 156.282V209.442H504.181V110.922H524.941V126.042C525.821 123.562 527.701 120.922 530.581 118.122C533.541 115.322 537.301 112.962 541.861 111.042C546.501 109.042 551.661 108.042 557.341 108.042C563.261 108.042 568.221 109.242 572.221 111.642C576.221 114.042 579.381 117.002 581.701 120.522C584.021 123.962 585.621 127.282 586.501 130.482C587.621 127.042 589.781 123.602 592.981 120.162C596.181 116.642 600.221 113.762 605.101 111.522C609.981 109.202 615.381 108.042 621.301 108.042ZM725.896 190.362L759.136 110.922H780.016L713.536 259.362H692.416L714.736 209.442L674.176 110.922H695.416L725.896 190.362ZM816.355 209.442H795.595V110.922H816.355V127.962H815.755C816.155 125.882 817.635 123.282 820.195 120.162C822.755 117.042 826.275 114.242 830.755 111.762C835.235 109.282 840.595 108.042 846.835 108.042C851.395 108.042 855.395 108.682 858.835 109.962C862.355 111.162 864.835 112.362 866.275 113.562L857.755 130.842C856.635 129.722 854.675 128.602 851.875 127.482C849.075 126.282 845.595 125.682 841.435 125.682C836.155 125.682 831.635 127.322 827.875 130.602C824.115 133.882 821.235 137.842 819.235 142.482C817.315 147.042 816.355 151.282 816.355 155.202V209.442ZM956.832 209.442V190.242C956.192 192.242 954.312 195.002 951.192 198.522C948.152 202.042 943.952 205.242 938.592 208.122C933.312 210.922 927.072 212.322 919.872 212.322C910.752 212.322 902.472 210.162 895.032 205.842C887.672 201.522 881.792 195.482 877.392 187.722C873.072 179.882 870.912 170.722 870.912 160.242C870.912 149.762 873.072 140.642 877.392 132.882C881.792 125.042 887.672 118.962 895.032 114.642C902.472 110.242 910.752 108.042 919.872 108.042C926.992 108.042 933.152 109.322 938.352 111.882C943.632 114.442 947.832 117.402 950.952 120.762C954.152 124.122 956.032 127.002 956.592 129.402V110.922H977.232V209.442H956.832ZM891.552 160.242C891.552 167.362 893.112 173.522 896.232 178.722C899.352 183.922 903.392 187.962 908.352 190.842C913.392 193.642 918.752 195.042 924.432 195.042C930.512 195.042 935.952 193.602 940.752 190.722C945.552 187.842 949.352 183.802 952.152 178.602C954.952 173.322 956.352 167.202 956.352 160.242C956.352 153.282 954.952 147.202 952.152 142.002C949.352 136.722 945.552 132.642 940.752 129.762C935.952 126.802 930.512 125.322 924.432 125.322C918.752 125.322 913.392 126.762 908.352 129.642C903.392 132.522 899.352 136.562 896.232 141.762C893.112 146.962 891.552 153.122 891.552 160.242ZM1026.85 209.442H1005.85V44.3219H1026.85V209.442Z" fill="url(#paint2_linear_402_8681)"/>
<path d="M1281.35 22.1L1281.9 22.2V80H1273.35V14H1285.4L1319.65 71.75L1319.1 71.85V14H1327.65V80H1315.5L1281.35 22.1ZM1346.27 61.25C1346.3 63.7167 1346.84 65.9667 1347.87 68C1348.9 70.0333 1350.44 71.65 1352.47 72.85C1354.54 74.05 1357.07 74.65 1360.07 74.65C1362.6 74.65 1364.75 74.2833 1366.52 73.55C1368.32 72.7833 1369.79 71.8833 1370.92 70.85C1372.05 69.7833 1372.87 68.8333 1373.37 68L1377.62 73.25C1376.52 74.85 1375.17 76.25 1373.57 77.45C1372 78.65 1370.09 79.5667 1367.82 80.2C1365.55 80.8667 1362.79 81.2 1359.52 81.2C1355.12 81.2 1351.3 80.2667 1348.07 78.4C1344.87 76.5 1342.4 73.8833 1340.67 70.55C1338.94 67.1833 1338.07 63.3333 1338.07 59C1338.07 55 1338.89 51.4 1340.52 48.2C1342.15 44.9667 1344.52 42.4167 1347.62 40.55C1350.75 38.6833 1354.52 37.75 1358.92 37.75C1362.95 37.75 1366.45 38.6 1369.42 40.3C1372.42 41.9667 1374.74 44.3333 1376.37 47.4C1378.04 50.4667 1378.87 54.1333 1378.87 58.4C1378.87 58.6667 1378.85 59.15 1378.82 59.85C1378.79 60.5167 1378.75 60.9833 1378.72 61.25H1346.27ZM1370.57 54.7C1370.54 53.3333 1370.14 51.8333 1369.37 50.2C1368.64 48.5667 1367.44 47.1667 1365.77 46C1364.1 44.8333 1361.85 44.25 1359.02 44.25C1356.09 44.25 1353.72 44.8167 1351.92 45.95C1350.15 47.0833 1348.85 48.4667 1348.02 50.1C1347.19 51.7 1346.7 53.2333 1346.57 54.7H1370.57ZM1410.58 58.3L1428.38 80H1418.38L1405.23 63.65L1392.13 80H1382.68L1400.43 58.8L1384.48 38.95H1394.53L1405.68 53.2L1417.03 38.95H1426.33L1410.58 58.3ZM1433.32 38.95H1441.37V22.1H1450.02V38.95H1460.57V46.4H1450.02V66.7C1450.02 69.1 1450.43 70.8667 1451.27 72C1452.13 73.1333 1453.28 73.7 1454.72 73.7C1455.98 73.7 1456.97 73.4667 1457.67 73C1458.37 72.5333 1458.78 72.2167 1458.92 72.05L1462.37 78.45C1462.17 78.6167 1461.63 78.9333 1460.77 79.4C1459.9 79.8667 1458.78 80.2833 1457.42 80.65C1456.05 81.0167 1454.45 81.2 1452.62 81.2C1449.42 81.2 1446.73 80.2333 1444.57 78.3C1442.43 76.3333 1441.37 73.2333 1441.37 69V46.4H1433.32V38.95ZM1470.12 61V53.45H1495.87V61H1470.12ZM1527.9 101.95C1524.67 101.95 1521.73 101.617 1519.1 100.95C1516.5 100.283 1514.22 99.3333 1512.25 98.1C1510.32 96.9 1508.77 95.4833 1507.6 93.85L1513.3 88.4C1513.93 89.2667 1514.78 90.1833 1515.85 91.15C1516.95 92.15 1518.43 93 1520.3 93.7C1522.17 94.4 1524.6 94.75 1527.6 94.75C1530.53 94.75 1533.02 94.1167 1535.05 92.85C1537.08 91.6167 1538.63 89.9333 1539.7 87.8C1540.77 85.6667 1541.3 83.2667 1541.3 80.6V79.25H1549.8V81.15C1549.8 85.6833 1548.82 89.4833 1546.85 92.55C1544.92 95.65 1542.3 97.9833 1539 99.55C1535.7 101.15 1532 101.95 1527.9 101.95ZM1541.3 80V72C1541.03 72.8333 1540.25 73.9833 1538.95 75.45C1537.68 76.9167 1535.93 78.25 1533.7 79.45C1531.5 80.6167 1528.9 81.2 1525.9 81.2C1522.1 81.2 1518.65 80.3 1515.55 78.5C1512.48 76.7 1510.03 74.1833 1508.2 70.95C1506.4 67.6833 1505.5 63.8667 1505.5 59.5C1505.5 55.1333 1506.4 51.3333 1508.2 48.1C1510.03 44.8333 1512.48 42.3 1515.55 40.5C1518.65 38.6667 1522.1 37.75 1525.9 37.75C1528.87 37.75 1531.43 38.2833 1533.6 39.35C1535.8 40.4167 1537.55 41.65 1538.85 43.05C1540.18 44.45 1540.97 45.65 1541.2 46.65V38.95H1549.8V80H1541.3ZM1514.1 59.5C1514.1 62.4667 1514.75 65.0333 1516.05 67.2C1517.35 69.3667 1519.03 71.05 1521.1 72.25C1523.2 73.4167 1525.43 74 1527.8 74C1530.33 74 1532.6 73.4 1534.6 72.2C1536.6 71 1538.18 69.3167 1539.35 67.15C1540.52 64.95 1541.1 62.4 1541.1 59.5C1541.1 56.6 1540.52 54.0667 1539.35 51.9C1538.18 49.7 1536.6 48 1534.6 46.8C1532.6 45.5667 1530.33 44.95 1527.8 44.95C1525.43 44.95 1523.2 45.55 1521.1 46.75C1519.03 47.95 1517.35 49.6333 1516.05 51.8C1514.75 53.9667 1514.1 56.5333 1514.1 59.5ZM1567.27 61.25C1567.3 63.7167 1567.83 65.9667 1568.87 68C1569.9 70.0333 1571.43 71.65 1573.47 72.85C1575.53 74.05 1578.07 74.65 1581.07 74.65C1583.6 74.65 1585.75 74.2833 1587.52 73.55C1589.32 72.7833 1590.78 71.8833 1591.92 70.85C1593.05 69.7833 1593.87 68.8333 1594.37 68L1598.62 73.25C1597.52 74.85 1596.17 76.25 1594.57 77.45C1593 78.65 1591.08 79.5667 1588.82 80.2C1586.55 80.8667 1583.78 81.2 1580.52 81.2C1576.12 81.2 1572.3 80.2667 1569.07 78.4C1565.87 76.5 1563.4 73.8833 1561.67 70.55C1559.93 67.1833 1559.07 63.3333 1559.07 59C1559.07 55 1559.88 51.4 1561.52 48.2C1563.15 44.9667 1565.52 42.4167 1568.62 40.55C1571.75 38.6833 1575.52 37.75 1579.92 37.75C1583.95 37.75 1587.45 38.6 1590.42 40.3C1593.42 41.9667 1595.73 44.3333 1597.37 47.4C1599.03 50.4667 1599.87 54.1333 1599.87 58.4C1599.87 58.6667 1599.85 59.15 1599.82 59.85C1599.78 60.5167 1599.75 60.9833 1599.72 61.25H1567.27ZM1591.57 54.7C1591.53 53.3333 1591.13 51.8333 1590.37 50.2C1589.63 48.5667 1588.43 47.1667 1586.77 46C1585.1 44.8333 1582.85 44.25 1580.02 44.25C1577.08 44.25 1574.72 44.8167 1572.92 45.95C1571.15 47.0833 1569.85 48.4667 1569.02 50.1C1568.18 51.7 1567.7 53.2333 1567.57 54.7H1591.57ZM1632.42 37.75C1635.12 37.75 1637.74 38.3167 1640.27 39.45C1642.84 40.5833 1644.94 42.3833 1646.57 44.85C1648.24 47.2833 1649.07 50.4667 1649.07 54.4V80H1640.27V56.1C1640.27 52.0333 1639.32 49.0833 1637.42 47.25C1635.52 45.3833 1633.07 44.45 1630.07 44.45C1628.11 44.45 1626.21 45.0167 1624.37 46.15C1622.57 47.25 1621.09 48.7833 1619.92 50.75C1618.76 52.6833 1618.17 54.8833 1618.17 57.35V80H1609.47V38.95H1618.17V46.25C1618.47 45.1167 1619.29 43.8833 1620.62 42.55C1621.96 41.2167 1623.66 40.0833 1625.72 39.15C1627.79 38.2167 1630.02 37.75 1632.42 37.75Z" fill="white"/>
<path d="M1273.8 198H1292.5C1296.63 198 1300.35 198.683 1303.65 200.05C1306.98 201.383 1309.63 203.483 1311.6 206.35C1313.56 209.217 1314.55 212.95 1314.55 217.55C1314.55 222.117 1313.56 225.9 1311.6 228.9C1309.63 231.9 1306.98 234.15 1303.65 235.65C1300.35 237.117 1296.63 237.85 1292.5 237.85H1282.35V264H1273.8V198ZM1282.35 230.7H1290.15C1292.98 230.7 1295.55 230.283 1297.85 229.45C1300.18 228.617 1302.03 227.25 1303.4 225.35C1304.8 223.45 1305.5 220.9 1305.5 217.7C1305.5 214.467 1304.8 211.95 1303.4 210.15C1302.03 208.317 1300.18 207.033 1297.85 206.3C1295.55 205.533 1292.98 205.15 1290.15 205.15H1282.35V230.7ZM1333.95 264H1325.2V195.2H1333.95V264ZM1379.48 264V256C1379.22 256.833 1378.43 257.983 1377.13 259.45C1375.87 260.917 1374.12 262.25 1371.88 263.45C1369.68 264.617 1367.08 265.2 1364.08 265.2C1360.28 265.2 1356.83 264.3 1353.73 262.5C1350.67 260.7 1348.22 258.183 1346.38 254.95C1344.58 251.683 1343.68 247.867 1343.68 243.5C1343.68 239.133 1344.58 235.333 1346.38 232.1C1348.22 228.833 1350.67 226.3 1353.73 224.5C1356.83 222.667 1360.28 221.75 1364.08 221.75C1367.05 221.75 1369.62 222.283 1371.78 223.35C1373.98 224.417 1375.73 225.65 1377.03 227.05C1378.37 228.45 1379.15 229.65 1379.38 230.65V222.95H1387.98V264H1379.48ZM1352.28 243.5C1352.28 246.467 1352.93 249.033 1354.23 251.2C1355.53 253.367 1357.22 255.05 1359.28 256.25C1361.38 257.417 1363.62 258 1365.98 258C1368.52 258 1370.78 257.4 1372.78 256.2C1374.78 255 1376.37 253.317 1377.53 251.15C1378.7 248.95 1379.28 246.4 1379.28 243.5C1379.28 240.6 1378.7 238.067 1377.53 235.9C1376.37 233.7 1374.78 232 1372.78 230.8C1370.78 229.567 1368.52 228.95 1365.98 228.95C1363.62 228.95 1361.38 229.55 1359.28 230.75C1357.22 231.95 1355.53 233.633 1354.23 235.8C1352.93 237.967 1352.28 240.533 1352.28 243.5ZM1396.11 222.95H1404.16V206.1H1412.81V222.95H1423.36V230.4H1412.81V250.7C1412.81 253.1 1413.23 254.867 1414.06 256C1414.93 257.133 1416.08 257.7 1417.51 257.7C1418.78 257.7 1419.76 257.467 1420.46 257C1421.16 256.533 1421.58 256.217 1421.71 256.05L1425.16 262.45C1424.96 262.617 1424.43 262.933 1423.56 263.4C1422.69 263.867 1421.58 264.283 1420.21 264.65C1418.84 265.017 1417.24 265.2 1415.41 265.2C1412.21 265.2 1409.53 264.233 1407.36 262.3C1405.23 260.333 1404.16 257.233 1404.16 253V230.4H1396.11V222.95ZM1428.87 222.95H1437.27V211.3C1437.27 207.133 1437.98 203.783 1439.42 201.25C1440.88 198.717 1442.73 196.883 1444.97 195.75C1447.23 194.583 1449.55 194 1451.92 194C1454.78 194 1456.98 194.4 1458.52 195.2C1460.08 196 1461.02 196.533 1461.32 196.8L1457.82 203.45C1457.65 203.25 1457.13 202.883 1456.27 202.35C1455.4 201.817 1454.22 201.55 1452.72 201.55C1451.62 201.55 1450.55 201.817 1449.52 202.35C1448.48 202.883 1447.62 203.917 1446.92 205.45C1446.22 206.983 1445.87 209.267 1445.87 212.3V222.95H1457.57V230.4H1445.87V264H1437.27V230.4H1428.87V222.95ZM1484.43 265.2C1480.2 265.2 1476.43 264.25 1473.13 262.35C1469.86 260.45 1467.3 257.883 1465.43 254.65C1463.56 251.383 1462.63 247.7 1462.63 243.6C1462.63 239.5 1463.56 235.8 1465.43 232.5C1467.3 229.2 1469.86 226.583 1473.13 224.65C1476.43 222.717 1480.2 221.75 1484.43 221.75C1488.63 221.75 1492.35 222.717 1495.58 224.65C1498.85 226.583 1501.4 229.2 1503.23 232.5C1505.06 235.8 1505.98 239.5 1505.98 243.6C1505.98 247.7 1505.06 251.383 1503.23 254.65C1501.4 257.883 1498.85 260.45 1495.58 262.35C1492.35 264.25 1488.63 265.2 1484.43 265.2ZM1484.43 257.75C1487.1 257.75 1489.41 257.133 1491.38 255.9C1493.38 254.667 1494.93 252.983 1496.03 250.85C1497.13 248.683 1497.68 246.25 1497.68 243.55C1497.68 240.85 1497.13 238.417 1496.03 236.25C1494.93 234.083 1493.38 232.367 1491.38 231.1C1489.41 229.833 1487.1 229.2 1484.43 229.2C1481.73 229.2 1479.38 229.833 1477.38 231.1C1475.38 232.367 1473.81 234.083 1472.68 236.25C1471.58 238.417 1471.03 240.85 1471.03 243.55C1471.03 246.25 1471.58 248.683 1472.68 250.85C1473.81 252.983 1475.38 254.667 1477.38 255.9C1479.38 257.133 1481.73 257.75 1484.43 257.75ZM1524.18 264H1515.53V222.95H1524.18V230.05H1523.93C1524.09 229.183 1524.71 228.1 1525.78 226.8C1526.84 225.5 1528.31 224.333 1530.18 223.3C1532.04 222.267 1534.28 221.75 1536.88 221.75C1538.78 221.75 1540.44 222.017 1541.88 222.55C1543.34 223.05 1544.38 223.55 1544.98 224.05L1541.43 231.25C1540.96 230.783 1540.14 230.317 1538.98 229.85C1537.81 229.35 1536.36 229.1 1534.63 229.1C1532.43 229.1 1530.54 229.783 1528.98 231.15C1527.41 232.517 1526.21 234.167 1525.38 236.1C1524.58 238 1524.18 239.767 1524.18 241.4V264ZM1599.84 221.75C1602.87 221.75 1605.47 222.417 1607.64 223.75C1609.8 225.05 1611.45 227.05 1612.59 229.75C1613.75 232.45 1614.34 235.9 1614.34 240.1V264H1605.74V241.85C1605.74 237.417 1605.12 234.083 1603.89 231.85C1602.65 229.617 1600.4 228.5 1597.14 228.5C1595.4 228.5 1593.74 228.983 1592.14 229.95C1590.57 230.883 1589.27 232.333 1588.24 234.3C1587.24 236.267 1586.74 238.783 1586.74 241.85V264H1578.64V241.85C1578.64 237.417 1577.87 234.083 1576.34 231.85C1574.8 229.617 1572.65 228.5 1569.89 228.5C1568.12 228.5 1566.45 228.967 1564.89 229.9C1563.35 230.8 1562.1 232.233 1561.14 234.2C1560.17 236.167 1559.69 238.717 1559.69 241.85V264H1551.04V222.95H1559.69V229.25C1560.05 228.217 1560.84 227.117 1562.04 225.95C1563.27 224.783 1564.84 223.8 1566.74 223C1568.67 222.167 1570.82 221.75 1573.19 221.75C1575.65 221.75 1577.72 222.25 1579.39 223.25C1581.05 224.25 1582.37 225.483 1583.34 226.95C1584.3 228.383 1584.97 229.767 1585.34 231.1C1585.8 229.667 1586.7 228.233 1588.04 226.8C1589.37 225.333 1591.05 224.133 1593.09 223.2C1595.12 222.233 1597.37 221.75 1599.84 221.75Z" fill="white"/>
<path d="M1313.45 142.75H1281.8V172H1273.35V106H1281.8V135.05H1313.45V106H1321.9V172H1313.45V142.75ZM1352.11 164.05L1365.96 130.95H1374.66L1346.96 192.8H1338.16L1347.46 172L1330.56 130.95H1339.41L1352.11 164.05ZM1390.05 192.8H1381.4V130.95H1390.2V138.65C1390.5 137.617 1391.33 136.4 1392.7 135C1394.07 133.6 1395.9 132.383 1398.2 131.35C1400.53 130.283 1403.2 129.75 1406.2 129.75C1410 129.75 1413.37 130.667 1416.3 132.5C1419.27 134.3 1421.58 136.833 1423.25 140.1C1424.95 143.333 1425.8 147.133 1425.8 151.5C1425.8 155.867 1424.93 159.683 1423.2 162.95C1421.47 166.183 1419.1 168.7 1416.1 170.5C1413.13 172.3 1409.73 173.2 1405.9 173.2C1402.8 173.2 1400.08 172.617 1397.75 171.45C1395.45 170.283 1393.63 168.967 1392.3 167.5C1391 166.033 1390.25 164.867 1390.05 164V192.8ZM1417.2 151.5C1417.2 148.533 1416.58 145.967 1415.35 143.8C1414.15 141.633 1412.55 139.95 1410.55 138.75C1408.55 137.55 1406.38 136.95 1404.05 136.95C1401.48 136.95 1399.15 137.567 1397.05 138.8C1394.95 140 1393.28 141.7 1392.05 143.9C1390.82 146.067 1390.2 148.6 1390.2 151.5C1390.2 154.4 1390.82 156.95 1392.05 159.15C1393.28 161.317 1394.95 163 1397.05 164.2C1399.15 165.4 1401.48 166 1404.05 166C1406.38 166 1408.55 165.417 1410.55 164.25C1412.55 163.05 1414.15 161.367 1415.35 159.2C1416.58 157.033 1417.2 154.467 1417.2 151.5ZM1440.31 153.25C1440.35 155.717 1440.88 157.967 1441.91 160C1442.95 162.033 1444.48 163.65 1446.51 164.85C1448.58 166.05 1451.11 166.65 1454.11 166.65C1456.65 166.65 1458.8 166.283 1460.56 165.55C1462.36 164.783 1463.83 163.883 1464.96 162.85C1466.1 161.783 1466.91 160.833 1467.41 160L1471.66 165.25C1470.56 166.85 1469.21 168.25 1467.61 169.45C1466.05 170.65 1464.13 171.567 1461.86 172.2C1459.6 172.867 1456.83 173.2 1453.56 173.2C1449.16 173.2 1445.35 172.267 1442.11 170.4C1438.91 168.5 1436.45 165.883 1434.71 162.55C1432.98 159.183 1432.11 155.333 1432.11 151C1432.11 147 1432.93 143.4 1434.56 140.2C1436.2 136.967 1438.56 134.417 1441.66 132.55C1444.8 130.683 1448.56 129.75 1452.96 129.75C1457 129.75 1460.5 130.6 1463.46 132.3C1466.46 133.967 1468.78 136.333 1470.41 139.4C1472.08 142.467 1472.91 146.133 1472.91 150.4C1472.91 150.667 1472.9 151.15 1472.86 151.85C1472.83 152.517 1472.8 152.983 1472.76 153.25H1440.31ZM1464.61 146.7C1464.58 145.333 1464.18 143.833 1463.41 142.2C1462.68 140.567 1461.48 139.167 1459.81 138C1458.15 136.833 1455.9 136.25 1453.06 136.25C1450.13 136.25 1447.76 136.817 1445.96 137.95C1444.2 139.083 1442.9 140.467 1442.06 142.1C1441.23 143.7 1440.75 145.233 1440.61 146.7H1464.61ZM1491.07 172H1482.42V130.95H1491.07V138.05H1490.82C1490.99 137.183 1491.6 136.1 1492.67 134.8C1493.74 133.5 1495.2 132.333 1497.07 131.3C1498.94 130.267 1501.17 129.75 1503.77 129.75C1505.67 129.75 1507.34 130.017 1508.77 130.55C1510.24 131.05 1511.27 131.55 1511.87 132.05L1508.32 139.25C1507.85 138.783 1507.04 138.317 1505.87 137.85C1504.7 137.35 1503.25 137.1 1501.52 137.1C1499.32 137.1 1497.44 137.783 1495.87 139.15C1494.3 140.517 1493.1 142.167 1492.27 144.1C1491.47 146 1491.07 147.767 1491.07 149.4V172ZM1549.6 172V164C1549.34 164.833 1548.55 165.983 1547.25 167.45C1545.99 168.917 1544.24 170.25 1542 171.45C1539.8 172.617 1537.2 173.2 1534.2 173.2C1530.4 173.2 1526.95 172.3 1523.85 170.5C1520.79 168.7 1518.34 166.183 1516.5 162.95C1514.7 159.683 1513.8 155.867 1513.8 151.5C1513.8 147.133 1514.7 143.333 1516.5 140.1C1518.34 136.833 1520.79 134.3 1523.85 132.5C1526.95 130.667 1530.4 129.75 1534.2 129.75C1537.17 129.75 1539.74 130.283 1541.9 131.35C1544.1 132.417 1545.85 133.65 1547.15 135.05C1548.49 136.45 1549.27 137.65 1549.5 138.65V130.95H1558.1V172H1549.6ZM1522.4 151.5C1522.4 154.467 1523.05 157.033 1524.35 159.2C1525.65 161.367 1527.34 163.05 1529.4 164.25C1531.5 165.417 1533.74 166 1536.1 166C1538.64 166 1540.9 165.4 1542.9 164.2C1544.9 163 1546.49 161.317 1547.65 159.15C1548.82 156.95 1549.4 154.4 1549.4 151.5C1549.4 148.6 1548.82 146.067 1547.65 143.9C1546.49 141.7 1544.9 140 1542.9 138.8C1540.9 137.567 1538.64 136.95 1536.1 136.95C1533.74 136.95 1531.5 137.55 1529.4 138.75C1527.34 139.95 1525.65 141.633 1524.35 143.8C1523.05 145.967 1522.4 148.533 1522.4 151.5ZM1577.88 151.65C1577.88 155.95 1578.79 159.383 1580.63 161.95C1582.49 164.483 1585.34 165.75 1589.18 165.75C1593.04 165.75 1595.89 164.483 1597.73 161.95C1599.56 159.383 1600.48 155.95 1600.48 151.65V130.95H1609.08V152.85C1609.08 156.85 1608.29 160.383 1606.73 163.45C1605.19 166.517 1602.94 168.917 1599.98 170.65C1597.04 172.35 1593.44 173.2 1589.18 173.2C1584.94 173.2 1581.34 172.35 1578.38 170.65C1575.44 168.917 1573.19 166.517 1571.63 163.45C1570.09 160.383 1569.33 156.85 1569.33 152.85V130.95H1577.88V151.65ZM1617.01 130.95H1625.06V114.1H1633.71V130.95H1644.26V138.4H1633.71V158.7C1633.71 161.1 1634.12 162.867 1634.96 164C1635.82 165.133 1636.97 165.7 1638.41 165.7C1639.67 165.7 1640.66 165.467 1641.36 165C1642.06 164.533 1642.47 164.217 1642.61 164.05L1646.06 170.45C1645.86 170.617 1645.32 170.933 1644.46 171.4C1643.59 171.867 1642.47 172.283 1641.11 172.65C1639.74 173.017 1638.14 173.2 1636.31 173.2C1633.11 173.2 1630.42 172.233 1628.26 170.3C1626.12 168.333 1625.06 165.233 1625.06 161V138.4H1617.01V130.95ZM1672.61 173.2C1668.38 173.2 1664.61 172.25 1661.31 170.35C1658.05 168.45 1655.48 165.883 1653.61 162.65C1651.75 159.383 1650.81 155.7 1650.81 151.6C1650.81 147.5 1651.75 143.8 1653.61 140.5C1655.48 137.2 1658.05 134.583 1661.31 132.65C1664.61 130.717 1668.38 129.75 1672.61 129.75C1676.81 129.75 1680.53 130.717 1683.76 132.65C1687.03 134.583 1689.58 137.2 1691.41 140.5C1693.25 143.8 1694.16 147.5 1694.16 151.6C1694.16 155.7 1693.25 159.383 1691.41 162.65C1689.58 165.883 1687.03 168.45 1683.76 170.35C1680.53 172.25 1676.81 173.2 1672.61 173.2ZM1672.61 165.75C1675.28 165.75 1677.6 165.133 1679.56 163.9C1681.56 162.667 1683.11 160.983 1684.21 158.85C1685.31 156.683 1685.86 154.25 1685.86 151.55C1685.86 148.85 1685.31 146.417 1684.21 144.25C1683.11 142.083 1681.56 140.367 1679.56 139.1C1677.6 137.833 1675.28 137.2 1672.61 137.2C1669.91 137.2 1667.56 137.833 1665.56 139.1C1663.56 140.367 1662 142.083 1660.86 144.25C1659.76 146.417 1659.21 148.85 1659.21 151.55C1659.21 154.25 1659.76 156.683 1660.86 158.85C1662 160.983 1663.56 162.667 1665.56 163.9C1667.56 165.133 1669.91 165.75 1672.61 165.75ZM1753.06 129.75C1756.09 129.75 1758.69 130.417 1760.86 131.75C1763.03 133.05 1764.68 135.05 1765.81 137.75C1766.98 140.45 1767.56 143.9 1767.56 148.1V172H1758.96V149.85C1758.96 145.417 1758.34 142.083 1757.11 139.85C1755.88 137.617 1753.63 136.5 1750.36 136.5C1748.63 136.5 1746.96 136.983 1745.36 137.95C1743.79 138.883 1742.49 140.333 1741.46 142.3C1740.46 144.267 1739.96 146.783 1739.96 149.85V172H1731.86V149.85C1731.86 145.417 1731.09 142.083 1729.56 139.85C1728.03 137.617 1725.88 136.5 1723.11 136.5C1721.34 136.5 1719.68 136.967 1718.11 137.9C1716.58 138.8 1715.33 140.233 1714.36 142.2C1713.39 144.167 1712.91 146.717 1712.91 149.85V172H1704.26V130.95H1712.91V137.25C1713.28 136.217 1714.06 135.117 1715.26 133.95C1716.49 132.783 1718.06 131.8 1719.96 131C1721.89 130.167 1724.04 129.75 1726.41 129.75C1728.88 129.75 1730.94 130.25 1732.61 131.25C1734.28 132.25 1735.59 133.483 1736.56 134.95C1737.53 136.383 1738.19 137.767 1738.56 139.1C1739.03 137.667 1739.93 136.233 1741.26 134.8C1742.59 133.333 1744.28 132.133 1746.31 131.2C1748.34 130.233 1750.59 129.75 1753.06 129.75ZM1812.59 172V164C1812.32 164.833 1811.54 165.983 1810.24 167.45C1808.97 168.917 1807.22 170.25 1804.99 171.45C1802.79 172.617 1800.19 173.2 1797.19 173.2C1793.39 173.2 1789.94 172.3 1786.84 170.5C1783.77 168.7 1781.32 166.183 1779.49 162.95C1777.69 159.683 1776.79 155.867 1776.79 151.5C1776.79 147.133 1777.69 143.333 1779.49 140.1C1781.32 136.833 1783.77 134.3 1786.84 132.5C1789.94 130.667 1793.39 129.75 1797.19 129.75C1800.16 129.75 1802.72 130.283 1804.89 131.35C1807.09 132.417 1808.84 133.65 1810.14 135.05C1811.47 136.45 1812.26 137.65 1812.49 138.65V130.95H1821.09V172H1812.59ZM1785.39 151.5C1785.39 154.467 1786.04 157.033 1787.34 159.2C1788.64 161.367 1790.32 163.05 1792.39 164.25C1794.49 165.417 1796.72 166 1799.09 166C1801.62 166 1803.89 165.4 1805.89 164.2C1807.89 163 1809.47 161.317 1810.64 159.15C1811.81 156.95 1812.39 154.4 1812.39 151.5C1812.39 148.6 1811.81 146.067 1810.64 143.9C1809.47 141.7 1807.89 140 1805.89 138.8C1803.89 137.567 1801.62 136.95 1799.09 136.95C1796.72 136.95 1794.49 137.55 1792.39 138.75C1790.32 139.95 1788.64 141.633 1787.34 143.8C1786.04 145.967 1785.39 148.533 1785.39 151.5ZM1829.22 130.95H1837.27V114.1H1845.92V130.95H1856.47V138.4H1845.92V158.7C1845.92 161.1 1846.33 162.867 1847.17 164C1848.03 165.133 1849.18 165.7 1850.62 165.7C1851.88 165.7 1852.87 165.467 1853.57 165C1854.27 164.533 1854.68 164.217 1854.82 164.05L1858.27 170.45C1858.07 170.617 1857.53 170.933 1856.67 171.4C1855.8 171.867 1854.68 172.283 1853.32 172.65C1851.95 173.017 1850.35 173.2 1848.52 173.2C1845.32 173.2 1842.63 172.233 1840.47 170.3C1838.33 168.333 1837.27 165.233 1837.27 161V138.4H1829.22V130.95ZM1866.77 172V130.95H1875.47V172H1866.77ZM1871.22 116.9C1869.65 116.9 1868.3 116.35 1867.17 115.25C1866.07 114.117 1865.52 112.767 1865.52 111.2C1865.52 109.633 1866.07 108.283 1867.17 107.15C1868.3 106.017 1869.65 105.45 1871.22 105.45C1872.25 105.45 1873.2 105.717 1874.07 106.25C1874.97 106.783 1875.69 107.483 1876.22 108.35C1876.75 109.183 1877.02 110.133 1877.02 111.2C1877.02 112.767 1876.45 114.117 1875.32 115.25C1874.19 116.35 1872.82 116.9 1871.22 116.9ZM1907.77 173.2C1903.54 173.2 1899.77 172.25 1896.47 170.35C1893.2 168.45 1890.64 165.883 1888.77 162.65C1886.9 159.383 1885.97 155.7 1885.97 151.6C1885.97 147.5 1886.9 143.8 1888.77 140.5C1890.64 137.2 1893.2 134.583 1896.47 132.65C1899.77 130.717 1903.54 129.75 1907.77 129.75C1911.97 129.75 1915.69 130.717 1918.92 132.65C1922.19 134.583 1924.74 137.2 1926.57 140.5C1928.4 143.8 1929.32 147.5 1929.32 151.6C1929.32 155.7 1928.4 159.383 1926.57 162.65C1924.74 165.883 1922.19 168.45 1918.92 170.35C1915.69 172.25 1911.97 173.2 1907.77 173.2ZM1907.77 165.75C1910.44 165.75 1912.75 165.133 1914.72 163.9C1916.72 162.667 1918.27 160.983 1919.37 158.85C1920.47 156.683 1921.02 154.25 1921.02 151.55C1921.02 148.85 1920.47 146.417 1919.37 144.25C1918.27 142.083 1916.72 140.367 1914.72 139.1C1912.75 137.833 1910.44 137.2 1907.77 137.2C1905.07 137.2 1902.72 137.833 1900.72 139.1C1898.72 140.367 1897.15 142.083 1896.02 144.25C1894.92 146.417 1894.37 148.85 1894.37 151.55C1894.37 154.25 1894.92 156.683 1896.02 158.85C1897.15 160.983 1898.72 162.667 1900.72 163.9C1902.72 165.133 1905.07 165.75 1907.77 165.75ZM1961.92 129.75C1964.62 129.75 1967.23 130.317 1969.77 131.45C1972.33 132.583 1974.43 134.383 1976.07 136.85C1977.73 139.283 1978.57 142.467 1978.57 146.4V172H1969.77V148.1C1969.77 144.033 1968.82 141.083 1966.92 139.25C1965.02 137.383 1962.57 136.45 1959.57 136.45C1957.6 136.45 1955.7 137.017 1953.87 138.15C1952.07 139.25 1950.58 140.783 1949.42 142.75C1948.25 144.683 1947.67 146.883 1947.67 149.35V172H1938.97V130.95H1947.67V138.25C1947.97 137.117 1948.78 135.883 1950.12 134.55C1951.45 133.217 1953.15 132.083 1955.22 131.15C1957.28 130.217 1959.52 129.75 1961.92 129.75Z" fill="url(#paint3_linear_402_8681)"/>
<path d="M1706.25 12.8C1710.05 12.8 1713.32 13.2333 1716.05 14.1C1718.82 14.9667 1720.99 15.8833 1722.55 16.85C1724.15 17.8167 1725.1 18.45 1725.4 18.75L1721 25.8C1720.5 25.3667 1719.62 24.75 1718.35 23.95C1717.09 23.1167 1715.5 22.3833 1713.6 21.75C1711.7 21.0833 1709.54 20.75 1707.1 20.75C1703.34 20.75 1700.35 21.5167 1698.15 23.05C1695.99 24.55 1694.9 26.6833 1694.9 29.45C1694.9 31.3167 1695.47 32.9667 1696.6 34.4C1697.77 35.8 1699.4 37.0833 1701.5 38.25C1703.6 39.4167 1706.05 40.6167 1708.85 41.85C1711.15 42.8167 1713.4 43.9167 1715.6 45.15C1717.84 46.3833 1719.85 47.8333 1721.65 49.5C1723.49 51.1667 1724.94 53.1 1726 55.3C1727.1 57.5 1727.65 60.0333 1727.65 62.9C1727.65 65.7333 1727.07 68.2833 1725.9 70.55C1724.77 72.8167 1723.15 74.75 1721.05 76.35C1718.99 77.9167 1716.57 79.1167 1713.8 79.95C1711.04 80.7833 1708.05 81.2 1704.85 81.2C1700.82 81.2 1697.17 80.7 1693.9 79.7C1690.67 78.7 1688.05 77.65 1686.05 76.55C1684.09 75.45 1682.95 74.7667 1682.65 74.5L1687.3 67.15C1687.7 67.4833 1688.44 67.9833 1689.5 68.65C1690.57 69.2833 1691.89 69.95 1693.45 70.65C1695.02 71.35 1696.79 71.95 1698.75 72.45C1700.72 72.9167 1702.82 73.15 1705.05 73.15C1709.52 73.15 1712.9 72.15 1715.2 70.15C1717.5 68.15 1718.65 65.5833 1718.65 62.45C1718.65 60.05 1717.92 57.9833 1716.45 56.25C1714.99 54.5167 1713.04 52.9667 1710.6 51.6C1708.17 50.2333 1705.49 48.9167 1702.55 47.65C1699.55 46.2833 1696.8 44.7833 1694.3 43.15C1691.8 41.5167 1689.79 39.5667 1688.25 37.3C1686.75 35 1686 32.2333 1686 29C1686 25.8 1686.9 22.9833 1688.7 20.55C1690.54 18.1167 1692.99 16.2167 1696.05 14.85C1699.15 13.4833 1702.55 12.8 1706.25 12.8ZM1743.73 61.25C1743.77 63.7167 1744.3 65.9667 1745.33 68C1746.37 70.0333 1747.9 71.65 1749.93 72.85C1752 74.05 1754.53 74.65 1757.53 74.65C1760.07 74.65 1762.22 74.2833 1763.98 73.55C1765.78 72.7833 1767.25 71.8833 1768.38 70.85C1769.52 69.7833 1770.33 68.8333 1770.83 68L1775.08 73.25C1773.98 74.85 1772.63 76.25 1771.03 77.45C1769.47 78.65 1767.55 79.5667 1765.28 80.2C1763.02 80.8667 1760.25 81.2 1756.98 81.2C1752.58 81.2 1748.77 80.2667 1745.53 78.4C1742.33 76.5 1739.87 73.8833 1738.13 70.55C1736.4 67.1833 1735.53 63.3333 1735.53 59C1735.53 55 1736.35 51.4 1737.98 48.2C1739.62 44.9667 1741.98 42.4167 1745.08 40.55C1748.22 38.6833 1751.98 37.75 1756.38 37.75C1760.42 37.75 1763.92 38.6 1766.88 40.3C1769.88 41.9667 1772.2 44.3333 1773.83 47.4C1775.5 50.4667 1776.33 54.1333 1776.33 58.4C1776.33 58.6667 1776.32 59.15 1776.28 59.85C1776.25 60.5167 1776.22 60.9833 1776.18 61.25H1743.73ZM1768.03 54.7C1768 53.3333 1767.6 51.8333 1766.83 50.2C1766.1 48.5667 1764.9 47.1667 1763.23 46C1761.57 44.8333 1759.32 44.25 1756.48 44.25C1753.55 44.25 1751.18 44.8167 1749.38 45.95C1747.62 47.0833 1746.32 48.4667 1745.48 50.1C1744.65 51.7 1744.17 53.2333 1744.03 54.7H1768.03ZM1805.29 74C1807.89 74 1809.99 73.5833 1811.59 72.75C1813.19 71.9167 1814.19 71.3167 1814.59 70.95L1818.84 77.2C1818.51 77.5 1817.71 77.9833 1816.44 78.65C1815.21 79.2833 1813.61 79.8667 1811.64 80.4C1809.71 80.9333 1807.51 81.2 1805.04 81.2C1801.27 81.2 1797.77 80.3667 1794.54 78.7C1791.31 77 1788.69 74.5333 1786.69 71.3C1784.72 68.0667 1783.74 64.1167 1783.74 59.45C1783.74 54.75 1784.72 50.8 1786.69 47.6C1788.69 44.3667 1791.31 41.9167 1794.54 40.25C1797.77 38.5833 1801.27 37.75 1805.04 37.75C1807.47 37.75 1809.64 38.05 1811.54 38.65C1813.44 39.2167 1815.01 39.85 1816.24 40.55C1817.47 41.25 1818.29 41.7833 1818.69 42.15L1814.39 48.4C1814.12 48.1333 1813.61 47.7333 1812.84 47.2C1812.11 46.6333 1811.11 46.1167 1809.84 45.65C1808.57 45.1833 1807.06 44.95 1805.29 44.95C1803.16 44.95 1801.07 45.5333 1799.04 46.7C1797.04 47.8333 1795.39 49.4833 1794.09 51.65C1792.79 53.8167 1792.14 56.4167 1792.14 59.45C1792.14 62.4833 1792.79 65.1 1794.09 67.3C1795.39 69.4667 1797.04 71.1333 1799.04 72.3C1801.07 73.4333 1803.16 74 1805.29 74ZM1835.59 59.65C1835.59 63.95 1836.51 67.3833 1838.34 69.95C1840.21 72.4833 1843.06 73.75 1846.89 73.75C1850.76 73.75 1853.61 72.4833 1855.44 69.95C1857.28 67.3833 1858.19 63.95 1858.19 59.65V38.95H1866.79V60.85C1866.79 64.85 1866.01 68.3833 1864.44 71.45C1862.91 74.5167 1860.66 76.9167 1857.69 78.65C1854.76 80.35 1851.16 81.2 1846.89 81.2C1842.66 81.2 1839.06 80.35 1836.09 78.65C1833.16 76.9167 1830.91 74.5167 1829.34 71.45C1827.81 68.3833 1827.04 64.85 1827.04 60.85V38.95H1835.59V59.65ZM1887.17 80H1878.52V38.95H1887.17V46.05H1886.92C1887.08 45.1833 1887.7 44.1 1888.77 42.8C1889.83 41.5 1891.3 40.3333 1893.17 39.3C1895.03 38.2667 1897.27 37.75 1899.87 37.75C1901.77 37.75 1903.43 38.0167 1904.87 38.55C1906.33 39.05 1907.37 39.55 1907.97 40.05L1904.42 47.25C1903.95 46.7833 1903.13 46.3167 1901.97 45.85C1900.8 45.35 1899.35 45.1 1897.62 45.1C1895.42 45.1 1893.53 45.7833 1891.97 47.15C1890.4 48.5167 1889.2 50.1667 1888.37 52.1C1887.57 54 1887.17 55.7667 1887.17 57.4V80ZM1914.53 80V38.95H1923.23V80H1914.53ZM1918.98 24.9C1917.41 24.9 1916.06 24.35 1914.93 23.25C1913.83 22.1167 1913.28 20.7667 1913.28 19.2C1913.28 17.6333 1913.83 16.2833 1914.93 15.15C1916.06 14.0167 1917.41 13.45 1918.98 13.45C1920.01 13.45 1920.96 13.7167 1921.83 14.25C1922.73 14.7833 1923.44 15.4833 1923.98 16.35C1924.51 17.1833 1924.78 18.1333 1924.78 19.2C1924.78 20.7667 1924.21 22.1167 1923.08 23.25C1921.94 24.35 1920.58 24.9 1918.98 24.9ZM1933.03 38.95H1941.08V22.1H1949.73V38.95H1960.28V46.4H1949.73V66.7C1949.73 69.1 1950.14 70.8667 1950.98 72C1951.84 73.1333 1952.99 73.7 1954.43 73.7C1955.69 73.7 1956.68 73.4667 1957.38 73C1958.08 72.5333 1958.49 72.2167 1958.63 72.05L1962.08 78.45C1961.88 78.6167 1961.34 78.9333 1960.48 79.4C1959.61 79.8667 1958.49 80.2833 1957.13 80.65C1955.76 81.0167 1954.16 81.2 1952.33 81.2C1949.13 81.2 1946.44 80.2333 1944.28 78.3C1942.14 76.3333 1941.08 73.2333 1941.08 69V46.4H1933.03V38.95ZM1986.68 72.05L2000.53 38.95H2009.23L1981.53 100.8H1972.73L1982.03 80L1965.13 38.95H1973.98L1986.68 72.05Z" fill="url(#paint4_linear_402_8681)"/>
<defs>
<linearGradient id="paint0_linear_402_8681" x1="114.229" y1="190.839" x2="103.761" y2="42.4681" gradientUnits="userSpaceOnUse">
<stop stop-color="#BCBCBC"/>
<stop offset="1" stop-color="white"/>
</linearGradient>
<linearGradient id="paint1_linear_402_8681" x1="149.995" y1="203.66" x2="148.771" y2="151.814" gradientUnits="userSpaceOnUse">
<stop stop-color="#BCBCBC"/>
<stop offset="1" stop-color="white"/>
</linearGradient>
<linearGradient id="paint2_linear_402_8681" x1="621.615" y1="236.484" x2="620.446" y2="51.5826" gradientUnits="userSpaceOnUse">
<stop stop-color="#BCBCBC"/>
<stop offset="1" stop-color="white"/>
</linearGradient>
<linearGradient id="paint3_linear_402_8681" x1="1653.3" y1="172" x2="1653.3" y2="102" gradientUnits="userSpaceOnUse">
<stop stop-color="#7BA9FF"/>
<stop offset="1" stop-color="#FCFCFC"/>
</linearGradient>
<linearGradient id="paint4_linear_402_8681" x1="1865.94" y1="80" x2="1865.94" y2="10" gradientUnits="userSpaceOnUse">
<stop stop-color="#7BA9FF"/>
<stop offset="1" stop-color="#FCFCFC"/>
</linearGradient>
</defs>
</svg>
