<svg width="2232" height="278" viewBox="0 0 2232 278" fill="none" xmlns="http://www.w3.org/2000/svg">
<rect width="2232" height="278" rx="10" fill="#22272D"/>
<path d="M218.798 203.006L260.605 52.9118H303.696L345.503 203.006H319.985L310.755 168.258H253.504L244.063 203.006H218.756H218.798ZM259.53 145.543H304.771L283.973 68.3574H280.328L259.53 145.543Z" fill="url(#paint0_linear_653_27189)"/>
<path d="M354.901 151.759V148.535C354.901 114.231 376.984 94.0649 403.366 94.0649C423.531 94.0649 433.393 102.641 438.324 110.796H441.758V52.9118H465.338V203.006H442.18V188.635H438.745C433.393 197.422 423.51 205.998 403.366 205.998C377.195 205.998 354.901 186.064 354.901 151.738V151.759ZM442.18 151.127V148.978C442.18 126.895 428.673 114.673 410.235 114.673C391.797 114.673 378.501 126.895 378.501 148.978V151.127C378.501 173.21 392.008 185.432 410.235 185.432C428.462 185.432 442.18 173.21 442.18 151.127Z" fill="url(#paint1_linear_653_27189)"/>
<path d="M493.195 203.006V97.0781H516.142V109.3H519.787C523.433 102.009 532.009 95.3713 547.012 95.3713C562.015 95.3713 571.455 102.451 576.386 112.102H580.031C584.751 102.662 593.117 95.3713 610.059 95.3713C630.224 95.3713 645.649 108.246 645.649 132.689V203.027H622.28V134.417C622.28 122.196 614.989 115.115 602.978 115.115C589.471 115.115 581.106 123.902 581.106 139.98V203.027H557.737V134.417C557.737 122.196 550.447 115.115 538.436 115.115C524.929 115.115 516.563 123.902 516.563 139.98V203.027H493.195V203.006Z" fill="url(#paint2_linear_653_27189)"/>
<path d="M684.442 245.887V225.299H743.19C747.256 225.299 749.195 223.15 749.195 218.873V188.003H745.76C741.904 195.926 732.886 204.733 712.952 204.733C688.719 204.733 671.567 187.581 671.567 160.778V97.0992H694.935V158.86C694.935 176.666 704.165 184.8 720.032 184.8C737.606 184.8 748.984 172.789 748.984 150.706V97.0992H772.353V223.824C772.353 237.331 763.987 245.908 750.48 245.908H684.442V245.887Z" fill="url(#paint3_linear_653_27189)"/>
<path d="M800.209 203.006V97.0781H823.157V109.51H826.802C830.026 100.724 837.527 96.6356 848.464 96.6356H861.107V117.644H847.81C833.44 117.644 823.578 125.356 823.578 141.223V202.984H800.209V203.006Z" fill="url(#paint4_linear_653_27189)"/>
<path d="M872.317 172.346C872.317 150.685 889.469 139.538 912.838 139.538H944.361V133.111C944.361 121.521 937.281 113.388 922.489 113.388C907.696 113.388 900.616 121.1 898.256 132.036L876.384 124.956C881.525 108.225 895.475 94.086 922.699 94.086C949.924 94.086 967.076 108.668 967.076 134.607V177.066C967.076 181.365 969.226 183.493 973.082 183.493H982.08V203.006H965.138C955.066 203.006 947.986 197.422 947.986 188.635V188.213H944.34C941.559 194.64 934.057 206.019 911.953 206.019C889.849 206.019 872.275 194.008 872.275 172.346H872.317ZM944.361 159.703V157.554H914.334C903.187 157.554 895.896 162.485 895.896 171.714C895.896 180.944 903.187 186.717 915.83 186.717C932.561 186.717 944.34 176.434 944.34 159.703H944.361Z" fill="url(#paint5_linear_653_27189)"/>
<path d="M999.632 203.006V52.9118H1023V203.006H999.632Z" fill="url(#paint6_linear_653_27189)"/>
<rect x="85.1841" y="32.0924" width="59.6346" height="178.214" rx="28" transform="rotate(24.9531 85.1841 32.0924)" fill="url(#paint7_linear_653_27189)"/>
<circle cx="150.797" cy="178.476" r="31" fill="url(#paint8_linear_653_27189)"/>
<path d="M1175.55 109.75C1179.65 109.75 1183.2 109.183 1186.2 108.05C1189.23 106.917 1191.38 105.817 1192.65 104.75L1196.4 112.1C1194.9 113.433 1192.28 114.783 1188.55 116.15C1184.85 117.517 1180.4 118.2 1175.2 118.2C1170.33 118.2 1165.82 117.333 1161.65 115.6C1157.48 113.867 1153.83 111.45 1150.7 108.35C1147.6 105.25 1145.17 101.633 1143.4 97.5C1141.67 93.3667 1140.8 88.9 1140.8 84.1C1140.8 79.3 1141.67 74.8167 1143.4 70.65C1145.13 66.4833 1147.55 62.85 1150.65 59.75C1153.78 56.6167 1157.43 54.1833 1161.6 52.45C1165.8 50.6833 1170.33 49.8 1175.2 49.8C1180.4 49.8 1184.85 50.4833 1188.55 51.85C1192.28 53.2167 1194.9 54.5667 1196.4 55.9L1192.65 63.25C1191.38 62.15 1189.23 61.05 1186.2 59.95C1183.2 58.8167 1179.65 58.25 1175.55 58.25C1171.82 58.25 1168.4 58.8833 1165.3 60.15C1162.2 61.4167 1159.5 63.2167 1157.2 65.55C1154.93 67.85 1153.17 70.5667 1151.9 73.7C1150.67 76.8333 1150.05 80.25 1150.05 83.95C1150.05 87.6833 1150.67 91.1333 1151.9 94.3C1153.17 97.4333 1154.93 100.167 1157.2 102.5C1159.5 104.8 1162.2 106.583 1165.3 107.85C1168.4 109.117 1171.82 109.75 1175.55 109.75ZM1223.48 109.05L1237.33 75.95H1246.03L1218.33 137.8H1209.53L1218.83 117L1201.93 75.95H1210.78L1223.48 109.05ZM1252.43 117V48.2H1261.23V83.65C1261.43 82.6167 1262.21 81.4 1263.58 80C1264.94 78.6 1266.78 77.3833 1269.08 76.35C1271.38 75.2833 1274.03 74.75 1277.03 74.75C1280.86 74.75 1284.26 75.6667 1287.23 77.5C1290.19 79.3 1292.53 81.8333 1294.23 85.1C1295.96 88.3333 1296.83 92.1333 1296.83 96.5C1296.83 100.867 1295.96 104.683 1294.23 107.95C1292.53 111.183 1290.19 113.7 1287.23 115.5C1284.26 117.3 1280.86 118.2 1277.03 118.2C1274.19 118.2 1271.63 117.667 1269.33 116.6C1267.06 115.533 1265.21 114.283 1263.78 112.85C1262.34 111.417 1261.44 110.133 1261.08 109V117H1252.43ZM1288.18 96.5C1288.18 93.5333 1287.58 90.9667 1286.38 88.8C1285.18 86.6333 1283.58 84.95 1281.58 83.75C1279.61 82.55 1277.44 81.95 1275.08 81.95C1272.51 81.95 1270.18 82.5667 1268.08 83.8C1265.98 85 1264.31 86.7 1263.08 88.9C1261.84 91.0667 1261.23 93.6 1261.23 96.5C1261.23 99.4 1261.84 101.95 1263.08 104.15C1264.31 106.317 1265.98 108 1268.08 109.2C1270.18 110.4 1272.51 111 1275.08 111C1277.44 111 1279.61 110.417 1281.58 109.25C1283.58 108.05 1285.18 106.367 1286.38 104.2C1287.58 102.033 1288.18 99.4667 1288.18 96.5ZM1310.52 98.25C1310.55 100.717 1311.08 102.967 1312.12 105C1313.15 107.033 1314.68 108.65 1316.72 109.85C1318.78 111.05 1321.32 111.65 1324.32 111.65C1326.85 111.65 1329 111.283 1330.77 110.55C1332.57 109.783 1334.03 108.883 1335.17 107.85C1336.3 106.783 1337.12 105.833 1337.62 105L1341.87 110.25C1340.77 111.85 1339.42 113.25 1337.82 114.45C1336.25 115.65 1334.33 116.567 1332.07 117.2C1329.8 117.867 1327.03 118.2 1323.77 118.2C1319.37 118.2 1315.55 117.267 1312.32 115.4C1309.12 113.5 1306.65 110.883 1304.92 107.55C1303.18 104.183 1302.32 100.333 1302.32 96C1302.32 92 1303.13 88.4 1304.77 85.2C1306.4 81.9667 1308.77 79.4167 1311.87 77.55C1315 75.6833 1318.77 74.75 1323.17 74.75C1327.2 74.75 1330.7 75.6 1333.67 77.3C1336.67 78.9667 1338.98 81.3333 1340.62 84.4C1342.28 87.4667 1343.12 91.1333 1343.12 95.4C1343.12 95.6667 1343.1 96.15 1343.07 96.85C1343.03 97.5167 1343 97.9833 1342.97 98.25H1310.52ZM1334.82 91.7C1334.78 90.3333 1334.38 88.8333 1333.62 87.2C1332.88 85.5667 1331.68 84.1667 1330.02 83C1328.35 81.8333 1326.1 81.25 1323.27 81.25C1320.33 81.25 1317.97 81.8167 1316.17 82.95C1314.4 84.0833 1313.1 85.4667 1312.27 87.1C1311.43 88.7 1310.95 90.2333 1310.82 91.7H1334.82ZM1361.27 117H1352.62V75.95H1361.27V83.05H1361.02C1361.19 82.1833 1361.81 81.1 1362.87 79.8C1363.94 78.5 1365.41 77.3333 1367.27 76.3C1369.14 75.2667 1371.37 74.75 1373.97 74.75C1375.87 74.75 1377.54 75.0167 1378.97 75.55C1380.44 76.05 1381.47 76.55 1382.07 77.05L1378.52 84.25C1378.06 83.7833 1377.24 83.3167 1376.07 82.85C1374.91 82.35 1373.46 82.1 1371.72 82.1C1369.52 82.1 1367.64 82.7833 1366.07 84.15C1364.51 85.5167 1363.31 87.1667 1362.47 89.1C1361.67 91 1361.27 92.7667 1361.27 94.4V117ZM1402.4 74.75C1404.53 74.75 1406.52 74.9667 1408.35 75.4C1410.22 75.8333 1411.82 76.35 1413.15 76.95C1414.52 77.55 1415.48 78.0833 1416.05 78.55L1412.6 84.05C1411.93 83.45 1410.73 82.7833 1409 82.05C1407.27 81.2833 1405.33 80.9 1403.2 80.9C1400.87 80.9 1398.88 81.3667 1397.25 82.3C1395.62 83.2 1394.8 84.5167 1394.8 86.25C1394.8 87.9833 1395.63 89.3667 1397.3 90.4C1399 91.4 1401.27 92.2333 1404.1 92.9C1406.37 93.4333 1408.48 94.15 1410.45 95.05C1412.45 95.95 1414.07 97.2 1415.3 98.8C1416.53 100.367 1417.15 102.467 1417.15 105.1C1417.15 107.5 1416.65 109.55 1415.65 111.25C1414.65 112.917 1413.3 114.267 1411.6 115.3C1409.9 116.3 1408 117.033 1405.9 117.5C1403.8 117.967 1401.67 118.2 1399.5 118.2C1396.97 118.2 1394.68 117.933 1392.65 117.4C1390.62 116.9 1388.9 116.3 1387.5 115.6C1386.13 114.867 1385.13 114.233 1384.5 113.7L1387.95 107.5C1388.82 108.333 1390.23 109.217 1392.2 110.15C1394.2 111.083 1396.47 111.55 1399 111.55C1401.8 111.55 1404.07 110.967 1405.8 109.8C1407.53 108.6 1408.4 107.05 1408.4 105.15C1408.4 103.717 1407.98 102.567 1407.15 101.7C1406.32 100.833 1405.2 100.133 1403.8 99.6C1402.4 99.0667 1400.87 98.6 1399.2 98.2C1397.6 97.8333 1396.03 97.35 1394.5 96.75C1393 96.15 1391.62 95.3833 1390.35 94.45C1389.12 93.4833 1388.13 92.3167 1387.4 90.95C1386.67 89.55 1386.3 87.9167 1386.3 86.05C1386.3 83.6833 1387.05 81.6667 1388.55 80C1390.05 78.3 1392.02 77 1394.45 76.1C1396.88 75.2 1399.53 74.75 1402.4 74.75ZM1432.69 98.25C1432.72 100.717 1433.25 102.967 1434.29 105C1435.32 107.033 1436.85 108.65 1438.89 109.85C1440.95 111.05 1443.49 111.65 1446.49 111.65C1449.02 111.65 1451.17 111.283 1452.94 110.55C1454.74 109.783 1456.2 108.883 1457.34 107.85C1458.47 106.783 1459.29 105.833 1459.79 105L1464.04 110.25C1462.94 111.85 1461.59 113.25 1459.99 114.45C1458.42 115.65 1456.5 116.567 1454.24 117.2C1451.97 117.867 1449.2 118.2 1445.94 118.2C1441.54 118.2 1437.72 117.267 1434.49 115.4C1431.29 113.5 1428.82 110.883 1427.09 107.55C1425.35 104.183 1424.49 100.333 1424.49 96C1424.49 92 1425.3 88.4 1426.94 85.2C1428.57 81.9667 1430.94 79.4167 1434.04 77.55C1437.17 75.6833 1440.94 74.75 1445.34 74.75C1449.37 74.75 1452.87 75.6 1455.84 77.3C1458.84 78.9667 1461.15 81.3333 1462.79 84.4C1464.45 87.4667 1465.29 91.1333 1465.29 95.4C1465.29 95.6667 1465.27 96.15 1465.24 96.85C1465.2 97.5167 1465.17 97.9833 1465.14 98.25H1432.69ZM1456.99 91.7C1456.95 90.3333 1456.55 88.8333 1455.79 87.2C1455.05 85.5667 1453.85 84.1667 1452.19 83C1450.52 81.8333 1448.27 81.25 1445.44 81.25C1442.5 81.25 1440.14 81.8167 1438.34 82.95C1436.57 84.0833 1435.27 85.4667 1434.44 87.1C1433.6 88.7 1433.12 90.2333 1432.99 91.7H1456.99ZM1494.24 111C1496.84 111 1498.94 110.583 1500.54 109.75C1502.14 108.917 1503.14 108.317 1503.54 107.95L1507.79 114.2C1507.46 114.5 1506.66 114.983 1505.39 115.65C1504.16 116.283 1502.56 116.867 1500.59 117.4C1498.66 117.933 1496.46 118.2 1493.99 118.2C1490.22 118.2 1486.72 117.367 1483.49 115.7C1480.26 114 1477.64 111.533 1475.64 108.3C1473.67 105.067 1472.69 101.117 1472.69 96.45C1472.69 91.75 1473.67 87.8 1475.64 84.6C1477.64 81.3667 1480.26 78.9167 1483.49 77.25C1486.72 75.5833 1490.22 74.75 1493.99 74.75C1496.42 74.75 1498.59 75.05 1500.49 75.65C1502.39 76.2167 1503.96 76.85 1505.19 77.55C1506.42 78.25 1507.24 78.7833 1507.64 79.15L1503.34 85.4C1503.07 85.1333 1502.56 84.7333 1501.79 84.2C1501.06 83.6333 1500.06 83.1167 1498.79 82.65C1497.52 82.1833 1496.01 81.95 1494.24 81.95C1492.11 81.95 1490.02 82.5333 1487.99 83.7C1485.99 84.8333 1484.34 86.4833 1483.04 88.65C1481.74 90.8167 1481.09 93.4167 1481.09 96.45C1481.09 99.4833 1481.74 102.1 1483.04 104.3C1484.34 106.467 1485.99 108.133 1487.99 109.3C1490.02 110.433 1492.11 111 1494.24 111ZM1524.55 96.65C1524.55 100.95 1525.46 104.383 1527.3 106.95C1529.16 109.483 1532.01 110.75 1535.85 110.75C1539.71 110.75 1542.56 109.483 1544.4 106.95C1546.23 104.383 1547.15 100.95 1547.15 96.65V75.95H1555.75V97.85C1555.75 101.85 1554.96 105.383 1553.4 108.45C1551.86 111.517 1549.61 113.917 1546.65 115.65C1543.71 117.35 1540.11 118.2 1535.85 118.2C1531.61 118.2 1528.01 117.35 1525.05 115.65C1522.11 113.917 1519.86 111.517 1518.3 108.45C1516.76 105.383 1516 101.85 1516 97.85V75.95H1524.55V96.65ZM1576.12 117H1567.47V75.95H1576.12V83.05H1575.87C1576.03 82.1833 1576.65 81.1 1577.72 79.8C1578.78 78.5 1580.25 77.3333 1582.12 76.3C1583.98 75.2667 1586.22 74.75 1588.82 74.75C1590.72 74.75 1592.38 75.0167 1593.82 75.55C1595.28 76.05 1596.32 76.55 1596.92 77.05L1593.37 84.25C1592.9 83.7833 1592.08 83.3167 1590.92 82.85C1589.75 82.35 1588.3 82.1 1586.57 82.1C1584.37 82.1 1582.48 82.7833 1580.92 84.15C1579.35 85.5167 1578.15 87.1667 1577.32 89.1C1576.52 91 1576.12 92.7667 1576.12 94.4V117ZM1603.48 117V75.95H1612.18V117H1603.48ZM1607.93 61.9C1606.36 61.9 1605.01 61.35 1603.88 60.25C1602.78 59.1167 1602.23 57.7667 1602.23 56.2C1602.23 54.6333 1602.78 53.2833 1603.88 52.15C1605.01 51.0167 1606.36 50.45 1607.93 50.45C1608.96 50.45 1609.91 50.7167 1610.78 51.25C1611.68 51.7833 1612.39 52.4833 1612.93 53.35C1613.46 54.1833 1613.73 55.1333 1613.73 56.2C1613.73 57.7667 1613.16 59.1167 1612.03 60.25C1610.89 61.35 1609.53 61.9 1607.93 61.9ZM1621.98 75.95H1630.03V59.1H1638.68V75.95H1649.23V83.4H1638.68V103.7C1638.68 106.1 1639.09 107.867 1639.93 109C1640.79 110.133 1641.94 110.7 1643.38 110.7C1644.64 110.7 1645.63 110.467 1646.33 110C1647.03 109.533 1647.44 109.217 1647.58 109.05L1651.03 115.45C1650.83 115.617 1650.29 115.933 1649.43 116.4C1648.56 116.867 1647.44 117.283 1646.08 117.65C1644.71 118.017 1643.11 118.2 1641.28 118.2C1638.08 118.2 1635.39 117.233 1633.23 115.3C1631.09 113.333 1630.03 110.233 1630.03 106V83.4H1621.98V75.95ZM1675.63 109.05L1689.48 75.95H1698.18L1670.48 137.8H1661.68L1670.98 117L1654.08 75.95H1662.93L1675.63 109.05ZM1749.93 51H1758.83L1783.23 117H1774.08L1768.38 101.1H1740.38L1734.58 117H1725.43L1749.93 51ZM1743.13 93.4H1765.68L1754.48 61.5H1754.33L1743.13 93.4ZM1798.18 96.65C1798.18 100.95 1799.09 104.383 1800.93 106.95C1802.79 109.483 1805.64 110.75 1809.48 110.75C1813.34 110.75 1816.19 109.483 1818.03 106.95C1819.86 104.383 1820.78 100.95 1820.78 96.65V75.95H1829.38V97.85C1829.38 101.85 1828.59 105.383 1827.03 108.45C1825.49 111.517 1823.24 113.917 1820.28 115.65C1817.34 117.35 1813.74 118.2 1809.48 118.2C1805.24 118.2 1801.64 117.35 1798.68 115.65C1795.74 113.917 1793.49 111.517 1791.93 108.45C1790.39 105.383 1789.63 101.85 1789.63 97.85V75.95H1798.18V96.65ZM1837.31 75.95H1845.36V59.1H1854.01V75.95H1864.56V83.4H1854.01V103.7C1854.01 106.1 1854.43 107.867 1855.26 109C1856.13 110.133 1857.28 110.7 1858.71 110.7C1859.98 110.7 1860.96 110.467 1861.66 110C1862.36 109.533 1862.78 109.217 1862.91 109.05L1866.36 115.45C1866.16 115.617 1865.63 115.933 1864.76 116.4C1863.89 116.867 1862.78 117.283 1861.41 117.65C1860.04 118.017 1858.44 118.2 1856.61 118.2C1853.41 118.2 1850.73 117.233 1848.56 115.3C1846.43 113.333 1845.36 110.233 1845.36 106V83.4H1837.31V75.95ZM1892.92 118.2C1888.68 118.2 1884.92 117.25 1881.62 115.35C1878.35 113.45 1875.78 110.883 1873.92 107.65C1872.05 104.383 1871.12 100.7 1871.12 96.6C1871.12 92.5 1872.05 88.8 1873.92 85.5C1875.78 82.2 1878.35 79.5833 1881.62 77.65C1884.92 75.7167 1888.68 74.75 1892.92 74.75C1897.12 74.75 1900.83 75.7167 1904.07 77.65C1907.33 79.5833 1909.88 82.2 1911.72 85.5C1913.55 88.8 1914.47 92.5 1914.47 96.6C1914.47 100.7 1913.55 104.383 1911.72 107.65C1909.88 110.883 1907.33 113.45 1904.07 115.35C1900.83 117.25 1897.12 118.2 1892.92 118.2ZM1892.92 110.75C1895.58 110.75 1897.9 110.133 1899.87 108.9C1901.87 107.667 1903.42 105.983 1904.52 103.85C1905.62 101.683 1906.17 99.25 1906.17 96.55C1906.17 93.85 1905.62 91.4167 1904.52 89.25C1903.42 87.0833 1901.87 85.3667 1899.87 84.1C1897.9 82.8333 1895.58 82.2 1892.92 82.2C1890.22 82.2 1887.87 82.8333 1885.87 84.1C1883.87 85.3667 1882.3 87.0833 1881.17 89.25C1880.07 91.4167 1879.52 93.85 1879.52 96.55C1879.52 99.25 1880.07 101.683 1881.17 103.85C1882.3 105.983 1883.87 107.667 1885.87 108.9C1887.87 110.133 1890.22 110.75 1892.92 110.75ZM1973.36 74.75C1976.39 74.75 1978.99 75.4167 1981.16 76.75C1983.33 78.05 1984.98 80.05 1986.11 82.75C1987.28 85.45 1987.86 88.9 1987.86 93.1V117H1979.26V94.85C1979.26 90.4167 1978.64 87.0833 1977.41 84.85C1976.18 82.6167 1973.93 81.5 1970.66 81.5C1968.93 81.5 1967.26 81.9833 1965.66 82.95C1964.09 83.8833 1962.79 85.3333 1961.76 87.3C1960.76 89.2667 1960.26 91.7833 1960.26 94.85V117H1952.16V94.85C1952.16 90.4167 1951.39 87.0833 1949.86 84.85C1948.33 82.6167 1946.18 81.5 1943.41 81.5C1941.64 81.5 1939.98 81.9667 1938.41 82.9C1936.88 83.8 1935.63 85.2333 1934.66 87.2C1933.69 89.1667 1933.21 91.7167 1933.21 94.85V117H1924.56V75.95H1933.21V82.25C1933.58 81.2167 1934.36 80.1167 1935.56 78.95C1936.79 77.7833 1938.36 76.8 1940.26 76C1942.19 75.1667 1944.34 74.75 1946.71 74.75C1949.18 74.75 1951.24 75.25 1952.91 76.25C1954.58 77.25 1955.89 78.4833 1956.86 79.95C1957.83 81.3833 1958.49 82.7667 1958.86 84.1C1959.33 82.6667 1960.23 81.2333 1961.56 79.8C1962.89 78.3333 1964.58 77.1333 1966.61 76.2C1968.64 75.2333 1970.89 74.75 1973.36 74.75ZM2032.89 117V109C2032.62 109.833 2031.84 110.983 2030.54 112.45C2029.27 113.917 2027.52 115.25 2025.29 116.45C2023.09 117.617 2020.49 118.2 2017.49 118.2C2013.69 118.2 2010.24 117.3 2007.14 115.5C2004.07 113.7 2001.62 111.183 1999.79 107.95C1997.99 104.683 1997.09 100.867 1997.09 96.5C1997.09 92.1333 1997.99 88.3333 1999.79 85.1C2001.62 81.8333 2004.07 79.3 2007.14 77.5C2010.24 75.6667 2013.69 74.75 2017.49 74.75C2020.46 74.75 2023.02 75.2833 2025.19 76.35C2027.39 77.4167 2029.14 78.65 2030.44 80.05C2031.77 81.45 2032.56 82.65 2032.79 83.65V75.95H2041.39V117H2032.89ZM2005.69 96.5C2005.69 99.4667 2006.34 102.033 2007.64 104.2C2008.94 106.367 2010.62 108.05 2012.69 109.25C2014.79 110.417 2017.02 111 2019.39 111C2021.92 111 2024.19 110.4 2026.19 109.2C2028.19 108 2029.77 106.317 2030.94 104.15C2032.11 101.95 2032.69 99.4 2032.69 96.5C2032.69 93.6 2032.11 91.0667 2030.94 88.9C2029.77 86.7 2028.19 85 2026.19 83.8C2024.19 82.5667 2021.92 81.95 2019.39 81.95C2017.02 81.95 2014.79 82.55 2012.69 83.75C2010.62 84.95 2008.94 86.6333 2007.64 88.8C2006.34 90.9667 2005.69 93.5333 2005.69 96.5ZM2049.52 75.95H2057.57V59.1H2066.22V75.95H2076.77V83.4H2066.22V103.7C2066.22 106.1 2066.63 107.867 2067.47 109C2068.33 110.133 2069.48 110.7 2070.92 110.7C2072.18 110.7 2073.17 110.467 2073.87 110C2074.57 109.533 2074.98 109.217 2075.12 109.05L2078.57 115.45C2078.37 115.617 2077.83 115.933 2076.97 116.4C2076.1 116.867 2074.98 117.283 2073.62 117.65C2072.25 118.017 2070.65 118.2 2068.82 118.2C2065.62 118.2 2062.93 117.233 2060.77 115.3C2058.63 113.333 2057.57 110.233 2057.57 106V83.4H2049.52V75.95ZM2087.07 117V75.95H2095.77V117H2087.07ZM2091.52 61.9C2089.96 61.9 2088.61 61.35 2087.47 60.25C2086.37 59.1167 2085.82 57.7667 2085.82 56.2C2085.82 54.6333 2086.37 53.2833 2087.47 52.15C2088.61 51.0167 2089.96 50.45 2091.52 50.45C2092.56 50.45 2093.51 50.7167 2094.37 51.25C2095.27 51.7833 2095.99 52.4833 2096.52 53.35C2097.06 54.1833 2097.32 55.1333 2097.32 56.2C2097.32 57.7667 2096.76 59.1167 2095.62 60.25C2094.49 61.35 2093.12 61.9 2091.52 61.9ZM2128.07 118.2C2123.84 118.2 2120.07 117.25 2116.77 115.35C2113.5 113.45 2110.94 110.883 2109.07 107.65C2107.2 104.383 2106.27 100.7 2106.27 96.6C2106.27 92.5 2107.2 88.8 2109.07 85.5C2110.94 82.2 2113.5 79.5833 2116.77 77.65C2120.07 75.7167 2123.84 74.75 2128.07 74.75C2132.27 74.75 2135.99 75.7167 2139.22 77.65C2142.49 79.5833 2145.04 82.2 2146.87 85.5C2148.7 88.8 2149.62 92.5 2149.62 96.6C2149.62 100.7 2148.7 104.383 2146.87 107.65C2145.04 110.883 2142.49 113.45 2139.22 115.35C2135.99 117.25 2132.27 118.2 2128.07 118.2ZM2128.07 110.75C2130.74 110.75 2133.05 110.133 2135.02 108.9C2137.02 107.667 2138.57 105.983 2139.67 103.85C2140.77 101.683 2141.32 99.25 2141.32 96.55C2141.32 93.85 2140.77 91.4167 2139.67 89.25C2138.57 87.0833 2137.02 85.3667 2135.02 84.1C2133.05 82.8333 2130.74 82.2 2128.07 82.2C2125.37 82.2 2123.02 82.8333 2121.02 84.1C2119.02 85.3667 2117.45 87.0833 2116.32 89.25C2115.22 91.4167 2114.67 93.85 2114.67 96.55C2114.67 99.25 2115.22 101.683 2116.32 103.85C2117.45 105.983 2119.02 107.667 2121.02 108.9C2123.02 110.133 2125.37 110.75 2128.07 110.75ZM2182.22 74.75C2184.92 74.75 2187.53 75.3167 2190.07 76.45C2192.63 77.5833 2194.73 79.3833 2196.37 81.85C2198.03 84.2833 2198.87 87.4667 2198.87 91.4V117H2190.07V93.1C2190.07 89.0333 2189.12 86.0833 2187.22 84.25C2185.32 82.3833 2182.87 81.45 2179.87 81.45C2177.9 81.45 2176 82.0167 2174.17 83.15C2172.37 84.25 2170.88 85.7833 2169.72 87.75C2168.55 89.6833 2167.97 91.8833 2167.97 94.35V117H2159.27V75.95H2167.97V83.25C2168.27 82.1167 2169.08 80.8833 2170.42 79.55C2171.75 78.2167 2173.45 77.0833 2175.52 76.15C2177.58 75.2167 2179.82 74.75 2182.22 74.75ZM1141.05 192.5C1141.05 189.8 1141.57 187.417 1142.6 185.35C1143.63 183.283 1144.95 181.5 1146.55 180C1148.15 178.5 1149.83 177.25 1151.6 176.25C1153.37 175.217 1155 174.4 1156.5 173.8C1158.03 173.2 1159.2 172.767 1160 172.5C1159.4 172.067 1158.62 171.35 1157.65 170.35C1156.72 169.317 1155.78 168.083 1154.85 166.65C1153.92 165.217 1153.12 163.65 1152.45 161.95C1151.82 160.217 1151.5 158.433 1151.5 156.6C1151.5 153.867 1152.25 151.383 1153.75 149.15C1155.25 146.917 1157.35 145.133 1160.05 143.8C1162.75 142.467 1165.9 141.8 1169.5 141.8C1173.13 141.8 1176.22 142.45 1178.75 143.75C1181.28 145.05 1183.22 146.833 1184.55 149.1C1185.88 151.333 1186.55 153.867 1186.55 156.7C1186.55 159.433 1185.95 161.817 1184.75 163.85C1183.55 165.883 1182.08 167.617 1180.35 169.05C1178.65 170.45 1176.98 171.6 1175.35 172.5C1173.72 173.367 1172.47 174 1171.6 174.4L1185.75 189.85C1186.55 189.05 1187.63 187.783 1189 186.05C1190.37 184.283 1191.72 182.267 1193.05 180L1198.85 185C1198.42 185.8 1197.77 186.833 1196.9 188.1C1196.03 189.367 1195.08 190.65 1194.05 191.95C1193.02 193.217 1192.07 194.25 1191.2 195.05L1204.4 209H1193.45L1184.95 199.85C1183.22 201.517 1181.17 203.15 1178.8 204.75C1176.47 206.317 1173.82 207.617 1170.85 208.65C1167.92 209.683 1164.63 210.2 1161 210.2C1157.23 210.2 1153.83 209.483 1150.8 208.05C1147.8 206.583 1145.42 204.533 1143.65 201.9C1141.92 199.233 1141.05 196.1 1141.05 192.5ZM1164.4 177.85C1163.87 178.017 1163.03 178.317 1161.9 178.75C1160.8 179.183 1159.58 179.767 1158.25 180.5C1156.95 181.233 1155.7 182.15 1154.5 183.25C1153.33 184.317 1152.35 185.567 1151.55 187C1150.78 188.4 1150.4 190.017 1150.4 191.85C1150.4 194.15 1150.95 196.083 1152.05 197.65C1153.15 199.183 1154.6 200.333 1156.4 201.1C1158.2 201.867 1160.15 202.25 1162.25 202.25C1164.65 202.25 1166.97 201.817 1169.2 200.95C1171.47 200.083 1173.5 199.033 1175.3 197.8C1177.13 196.567 1178.58 195.367 1179.65 194.2L1164.4 177.85ZM1169.35 148.65C1167.35 148.65 1165.63 149.05 1164.2 149.85C1162.77 150.65 1161.68 151.667 1160.95 152.9C1160.22 154.133 1159.85 155.4 1159.85 156.7C1159.85 158.067 1160.18 159.483 1160.85 160.95C1161.55 162.383 1162.35 163.733 1163.25 165C1164.18 166.267 1165.02 167.317 1165.75 168.15C1166.52 168.95 1166.97 169.417 1167.1 169.55C1167.8 169.317 1168.78 168.9 1170.05 168.3C1171.35 167.7 1172.65 166.883 1173.95 165.85C1175.28 164.817 1176.42 163.55 1177.35 162.05C1178.28 160.517 1178.75 158.733 1178.75 156.7C1178.75 154.433 1177.88 152.533 1176.15 151C1174.42 149.433 1172.15 148.65 1169.35 148.65ZM1236.15 143H1244.75V209H1236.15V143ZM1281.44 166.75C1284.14 166.75 1286.75 167.317 1289.29 168.45C1291.85 169.583 1293.95 171.383 1295.59 173.85C1297.25 176.283 1298.09 179.467 1298.09 183.4V209H1289.29V185.1C1289.29 181.033 1288.34 178.083 1286.44 176.25C1284.54 174.383 1282.09 173.45 1279.09 173.45C1277.12 173.45 1275.22 174.017 1273.39 175.15C1271.59 176.25 1270.1 177.783 1268.94 179.75C1267.77 181.683 1267.19 183.883 1267.19 186.35V209H1258.49V167.95H1267.19V175.25C1267.49 174.117 1268.3 172.883 1269.64 171.55C1270.97 170.217 1272.67 169.083 1274.74 168.15C1276.8 167.217 1279.04 166.75 1281.44 166.75ZM1305.36 167.95H1314.71L1328.11 200.95L1341.51 167.95H1350.81L1333.26 209H1323.01L1305.36 167.95ZM1364.42 190.25C1364.46 192.717 1364.99 194.967 1366.02 197C1367.06 199.033 1368.59 200.65 1370.62 201.85C1372.69 203.05 1375.22 203.65 1378.22 203.65C1380.76 203.65 1382.91 203.283 1384.67 202.55C1386.47 201.783 1387.94 200.883 1389.07 199.85C1390.21 198.783 1391.02 197.833 1391.52 197L1395.77 202.25C1394.67 203.85 1393.32 205.25 1391.72 206.45C1390.16 207.65 1388.24 208.567 1385.97 209.2C1383.71 209.867 1380.94 210.2 1377.67 210.2C1373.27 210.2 1369.46 209.267 1366.22 207.4C1363.02 205.5 1360.56 202.883 1358.82 199.55C1357.09 196.183 1356.22 192.333 1356.22 188C1356.22 184 1357.04 180.4 1358.67 177.2C1360.31 173.967 1362.67 171.417 1365.77 169.55C1368.91 167.683 1372.67 166.75 1377.07 166.75C1381.11 166.75 1384.61 167.6 1387.57 169.3C1390.57 170.967 1392.89 173.333 1394.52 176.4C1396.19 179.467 1397.02 183.133 1397.02 187.4C1397.02 187.667 1397.01 188.15 1396.97 188.85C1396.94 189.517 1396.91 189.983 1396.87 190.25H1364.42ZM1388.72 183.7C1388.69 182.333 1388.29 180.833 1387.52 179.2C1386.79 177.567 1385.59 176.167 1383.92 175C1382.26 173.833 1380.01 173.25 1377.17 173.25C1374.24 173.25 1371.87 173.817 1370.07 174.95C1368.31 176.083 1367.01 177.467 1366.17 179.1C1365.34 180.7 1364.86 182.233 1364.72 183.7H1388.72ZM1422.03 166.75C1424.16 166.75 1426.15 166.967 1427.98 167.4C1429.85 167.833 1431.45 168.35 1432.78 168.95C1434.15 169.55 1435.11 170.083 1435.68 170.55L1432.23 176.05C1431.56 175.45 1430.36 174.783 1428.63 174.05C1426.9 173.283 1424.96 172.9 1422.83 172.9C1420.5 172.9 1418.51 173.367 1416.88 174.3C1415.25 175.2 1414.43 176.517 1414.43 178.25C1414.43 179.983 1415.26 181.367 1416.93 182.4C1418.63 183.4 1420.9 184.233 1423.73 184.9C1426 185.433 1428.11 186.15 1430.08 187.05C1432.08 187.95 1433.7 189.2 1434.93 190.8C1436.16 192.367 1436.78 194.467 1436.78 197.1C1436.78 199.5 1436.28 201.55 1435.28 203.25C1434.28 204.917 1432.93 206.267 1431.23 207.3C1429.53 208.3 1427.63 209.033 1425.53 209.5C1423.43 209.967 1421.3 210.2 1419.13 210.2C1416.6 210.2 1414.31 209.933 1412.28 209.4C1410.25 208.9 1408.53 208.3 1407.13 207.6C1405.76 206.867 1404.76 206.233 1404.13 205.7L1407.58 199.5C1408.45 200.333 1409.86 201.217 1411.83 202.15C1413.83 203.083 1416.1 203.55 1418.63 203.55C1421.43 203.55 1423.7 202.967 1425.43 201.8C1427.16 200.6 1428.03 199.05 1428.03 197.15C1428.03 195.717 1427.61 194.567 1426.78 193.7C1425.95 192.833 1424.83 192.133 1423.43 191.6C1422.03 191.067 1420.5 190.6 1418.83 190.2C1417.23 189.833 1415.66 189.35 1414.13 188.75C1412.63 188.15 1411.25 187.383 1409.98 186.45C1408.75 185.483 1407.76 184.317 1407.03 182.95C1406.3 181.55 1405.93 179.917 1405.93 178.05C1405.93 175.683 1406.68 173.667 1408.18 172C1409.68 170.3 1411.65 169 1414.08 168.1C1416.51 167.2 1419.16 166.75 1422.03 166.75ZM1442.68 167.95H1450.73V151.1H1459.38V167.95H1469.93V175.4H1459.38V195.7C1459.38 198.1 1459.8 199.867 1460.63 201C1461.5 202.133 1462.65 202.7 1464.08 202.7C1465.35 202.7 1466.33 202.467 1467.03 202C1467.73 201.533 1468.15 201.217 1468.28 201.05L1471.73 207.45C1471.53 207.617 1471 207.933 1470.13 208.4C1469.26 208.867 1468.15 209.283 1466.78 209.65C1465.41 210.017 1463.81 210.2 1461.98 210.2C1458.78 210.2 1456.1 209.233 1453.93 207.3C1451.8 205.333 1450.73 202.233 1450.73 198V175.4H1442.68V167.95ZM1480.24 209V167.95H1488.94V209H1480.24ZM1484.69 153.9C1483.12 153.9 1481.77 153.35 1480.64 152.25C1479.54 151.117 1478.99 149.767 1478.99 148.2C1478.99 146.633 1479.54 145.283 1480.64 144.15C1481.77 143.017 1483.12 142.45 1484.69 142.45C1485.72 142.45 1486.67 142.717 1487.54 143.25C1488.44 143.783 1489.15 144.483 1489.69 145.35C1490.22 146.183 1490.49 147.133 1490.49 148.2C1490.49 149.767 1489.92 151.117 1488.79 152.25C1487.65 153.35 1486.29 153.9 1484.69 153.9ZM1521.84 230.95C1518.6 230.95 1515.67 230.617 1513.04 229.95C1510.44 229.283 1508.15 228.333 1506.19 227.1C1504.25 225.9 1502.7 224.483 1501.54 222.85L1507.24 217.4C1507.87 218.267 1508.72 219.183 1509.79 220.15C1510.89 221.15 1512.37 222 1514.24 222.7C1516.1 223.4 1518.54 223.75 1521.54 223.75C1524.47 223.75 1526.95 223.117 1528.99 221.85C1531.02 220.617 1532.57 218.933 1533.64 216.8C1534.7 214.667 1535.24 212.267 1535.24 209.6V208.25H1543.74V210.15C1543.74 214.683 1542.75 218.483 1540.79 221.55C1538.85 224.65 1536.24 226.983 1532.94 228.55C1529.64 230.15 1525.94 230.95 1521.84 230.95ZM1535.24 209V201C1534.97 201.833 1534.19 202.983 1532.89 204.45C1531.62 205.917 1529.87 207.25 1527.64 208.45C1525.44 209.617 1522.84 210.2 1519.84 210.2C1516.04 210.2 1512.59 209.3 1509.49 207.5C1506.42 205.7 1503.97 203.183 1502.14 199.95C1500.34 196.683 1499.44 192.867 1499.44 188.5C1499.44 184.133 1500.34 180.333 1502.14 177.1C1503.97 173.833 1506.42 171.3 1509.49 169.5C1512.59 167.667 1516.04 166.75 1519.84 166.75C1522.8 166.75 1525.37 167.283 1527.54 168.35C1529.74 169.417 1531.49 170.65 1532.79 172.05C1534.12 173.45 1534.9 174.65 1535.14 175.65V167.95H1543.74V209H1535.24ZM1508.04 188.5C1508.04 191.467 1508.69 194.033 1509.99 196.2C1511.29 198.367 1512.97 200.05 1515.04 201.25C1517.14 202.417 1519.37 203 1521.74 203C1524.27 203 1526.54 202.4 1528.54 201.2C1530.54 200 1532.12 198.317 1533.29 196.15C1534.45 193.95 1535.04 191.4 1535.04 188.5C1535.04 185.6 1534.45 183.067 1533.29 180.9C1532.12 178.7 1530.54 177 1528.54 175.8C1526.54 174.567 1524.27 173.95 1521.74 173.95C1519.37 173.95 1517.14 174.55 1515.04 175.75C1512.97 176.95 1511.29 178.633 1509.99 180.8C1508.69 182.967 1508.04 185.533 1508.04 188.5ZM1588.75 209V201C1588.48 201.833 1587.7 202.983 1586.4 204.45C1585.13 205.917 1583.38 207.25 1581.15 208.45C1578.95 209.617 1576.35 210.2 1573.35 210.2C1569.55 210.2 1566.1 209.3 1563 207.5C1559.93 205.7 1557.48 203.183 1555.65 199.95C1553.85 196.683 1552.95 192.867 1552.95 188.5C1552.95 184.133 1553.85 180.333 1555.65 177.1C1557.48 173.833 1559.93 171.3 1563 169.5C1566.1 167.667 1569.55 166.75 1573.35 166.75C1576.32 166.75 1578.88 167.283 1581.05 168.35C1583.25 169.417 1585 170.65 1586.3 172.05C1587.63 173.45 1588.42 174.65 1588.65 175.65V167.95H1597.25V209H1588.75ZM1561.55 188.5C1561.55 191.467 1562.2 194.033 1563.5 196.2C1564.8 198.367 1566.48 200.05 1568.55 201.25C1570.65 202.417 1572.88 203 1575.25 203C1577.78 203 1580.05 202.4 1582.05 201.2C1584.05 200 1585.63 198.317 1586.8 196.15C1587.97 193.95 1588.55 191.4 1588.55 188.5C1588.55 185.6 1587.97 183.067 1586.8 180.9C1585.63 178.7 1584.05 177 1582.05 175.8C1580.05 174.567 1577.78 173.95 1575.25 173.95C1572.88 173.95 1570.65 174.55 1568.55 175.75C1566.48 176.95 1564.8 178.633 1563.5 180.8C1562.2 182.967 1561.55 185.533 1561.55 188.5ZM1605.38 167.95H1613.43V151.1H1622.08V167.95H1632.63V175.4H1622.08V195.7C1622.08 198.1 1622.49 199.867 1623.33 201C1624.19 202.133 1625.34 202.7 1626.78 202.7C1628.04 202.7 1629.03 202.467 1629.73 202C1630.43 201.533 1630.84 201.217 1630.98 201.05L1634.43 207.45C1634.23 207.617 1633.69 207.933 1632.83 208.4C1631.96 208.867 1630.84 209.283 1629.48 209.65C1628.11 210.017 1626.51 210.2 1624.68 210.2C1621.48 210.2 1618.79 209.233 1616.63 207.3C1614.49 205.333 1613.43 202.233 1613.43 198V175.4H1605.38V167.95ZM1642.93 209V167.95H1651.63V209H1642.93ZM1647.38 153.9C1645.81 153.9 1644.46 153.35 1643.33 152.25C1642.23 151.117 1641.68 149.767 1641.68 148.2C1641.68 146.633 1642.23 145.283 1643.33 144.15C1644.46 143.017 1645.81 142.45 1647.38 142.45C1648.41 142.45 1649.36 142.717 1650.23 143.25C1651.13 143.783 1651.85 144.483 1652.38 145.35C1652.91 146.183 1653.18 147.133 1653.18 148.2C1653.18 149.767 1652.61 151.117 1651.48 152.25C1650.35 153.35 1648.98 153.9 1647.38 153.9ZM1683.93 210.2C1679.7 210.2 1675.93 209.25 1672.63 207.35C1669.36 205.45 1666.8 202.883 1664.93 199.65C1663.06 196.383 1662.13 192.7 1662.13 188.6C1662.13 184.5 1663.06 180.8 1664.93 177.5C1666.8 174.2 1669.36 171.583 1672.63 169.65C1675.93 167.717 1679.7 166.75 1683.93 166.75C1688.13 166.75 1691.85 167.717 1695.08 169.65C1698.35 171.583 1700.9 174.2 1702.73 177.5C1704.56 180.8 1705.48 184.5 1705.48 188.6C1705.48 192.7 1704.56 196.383 1702.73 199.65C1700.9 202.883 1698.35 205.45 1695.08 207.35C1691.85 209.25 1688.13 210.2 1683.93 210.2ZM1683.93 202.75C1686.6 202.75 1688.91 202.133 1690.88 200.9C1692.88 199.667 1694.43 197.983 1695.53 195.85C1696.63 193.683 1697.18 191.25 1697.18 188.55C1697.18 185.85 1696.63 183.417 1695.53 181.25C1694.43 179.083 1692.88 177.367 1690.88 176.1C1688.91 174.833 1686.6 174.2 1683.93 174.2C1681.23 174.2 1678.88 174.833 1676.88 176.1C1674.88 177.367 1673.31 179.083 1672.18 181.25C1671.08 183.417 1670.53 185.85 1670.53 188.55C1670.53 191.25 1671.08 193.683 1672.18 195.85C1673.31 197.983 1674.88 199.667 1676.88 200.9C1678.88 202.133 1681.23 202.75 1683.93 202.75ZM1738.08 166.75C1740.78 166.75 1743.39 167.317 1745.93 168.45C1748.49 169.583 1750.59 171.383 1752.23 173.85C1753.89 176.283 1754.73 179.467 1754.73 183.4V209H1745.93V185.1C1745.93 181.033 1744.98 178.083 1743.08 176.25C1741.18 174.383 1738.73 173.45 1735.73 173.45C1733.76 173.45 1731.86 174.017 1730.03 175.15C1728.23 176.25 1726.74 177.783 1725.58 179.75C1724.41 181.683 1723.83 183.883 1723.83 186.35V209H1715.13V167.95H1723.83V175.25C1724.13 174.117 1724.94 172.883 1726.28 171.55C1727.61 170.217 1729.31 169.083 1731.38 168.15C1733.44 167.217 1735.68 166.75 1738.08 166.75ZM1811.25 143H1820.15L1844.55 209H1835.4L1829.7 193.1H1801.7L1795.9 209H1786.75L1811.25 143ZM1804.45 185.4H1827L1815.8 153.5H1815.65L1804.45 185.4ZM1866.76 166.75C1868.89 166.75 1870.87 166.967 1872.71 167.4C1874.57 167.833 1876.17 168.35 1877.51 168.95C1878.87 169.55 1879.84 170.083 1880.41 170.55L1876.96 176.05C1876.29 175.45 1875.09 174.783 1873.36 174.05C1871.62 173.283 1869.69 172.9 1867.56 172.9C1865.22 172.9 1863.24 173.367 1861.61 174.3C1859.97 175.2 1859.16 176.517 1859.16 178.25C1859.16 179.983 1859.99 181.367 1861.66 182.4C1863.36 183.4 1865.62 184.233 1868.46 184.9C1870.72 185.433 1872.84 186.15 1874.81 187.05C1876.81 187.95 1878.42 189.2 1879.66 190.8C1880.89 192.367 1881.51 194.467 1881.51 197.1C1881.51 199.5 1881.01 201.55 1880.01 203.25C1879.01 204.917 1877.66 206.267 1875.96 207.3C1874.26 208.3 1872.36 209.033 1870.26 209.5C1868.16 209.967 1866.02 210.2 1863.86 210.2C1861.32 210.2 1859.04 209.933 1857.01 209.4C1854.97 208.9 1853.26 208.3 1851.86 207.6C1850.49 206.867 1849.49 206.233 1848.86 205.7L1852.31 199.5C1853.17 200.333 1854.59 201.217 1856.56 202.15C1858.56 203.083 1860.82 203.55 1863.36 203.55C1866.16 203.55 1868.42 202.967 1870.16 201.8C1871.89 200.6 1872.76 199.05 1872.76 197.15C1872.76 195.717 1872.34 194.567 1871.51 193.7C1870.67 192.833 1869.56 192.133 1868.16 191.6C1866.76 191.067 1865.22 190.6 1863.56 190.2C1861.96 189.833 1860.39 189.35 1858.86 188.75C1857.36 188.15 1855.97 187.383 1854.71 186.45C1853.47 185.483 1852.49 184.317 1851.76 182.95C1851.02 181.55 1850.66 179.917 1850.66 178.05C1850.66 175.683 1851.41 173.667 1852.91 172C1854.41 170.3 1856.37 169 1858.81 168.1C1861.24 167.2 1863.89 166.75 1866.76 166.75ZM1906.99 166.75C1909.12 166.75 1911.11 166.967 1912.94 167.4C1914.81 167.833 1916.41 168.35 1917.74 168.95C1919.11 169.55 1920.07 170.083 1920.64 170.55L1917.19 176.05C1916.52 175.45 1915.32 174.783 1913.59 174.05C1911.86 173.283 1909.92 172.9 1907.79 172.9C1905.46 172.9 1903.47 173.367 1901.84 174.3C1900.21 175.2 1899.39 176.517 1899.39 178.25C1899.39 179.983 1900.22 181.367 1901.89 182.4C1903.59 183.4 1905.86 184.233 1908.69 184.9C1910.96 185.433 1913.07 186.15 1915.04 187.05C1917.04 187.95 1918.66 189.2 1919.89 190.8C1921.12 192.367 1921.74 194.467 1921.74 197.1C1921.74 199.5 1921.24 201.55 1920.24 203.25C1919.24 204.917 1917.89 206.267 1916.19 207.3C1914.49 208.3 1912.59 209.033 1910.49 209.5C1908.39 209.967 1906.26 210.2 1904.09 210.2C1901.56 210.2 1899.27 209.933 1897.24 209.4C1895.21 208.9 1893.49 208.3 1892.09 207.6C1890.72 206.867 1889.72 206.233 1889.09 205.7L1892.54 199.5C1893.41 200.333 1894.82 201.217 1896.79 202.15C1898.79 203.083 1901.06 203.55 1903.59 203.55C1906.39 203.55 1908.66 202.967 1910.39 201.8C1912.12 200.6 1912.99 199.05 1912.99 197.15C1912.99 195.717 1912.57 194.567 1911.74 193.7C1910.91 192.833 1909.79 192.133 1908.39 191.6C1906.99 191.067 1905.46 190.6 1903.79 190.2C1902.19 189.833 1900.62 189.35 1899.09 188.75C1897.59 188.15 1896.21 187.383 1894.94 186.45C1893.71 185.483 1892.72 184.317 1891.99 182.95C1891.26 181.55 1890.89 179.917 1890.89 178.05C1890.89 175.683 1891.64 173.667 1893.14 172C1894.64 170.3 1896.61 169 1899.04 168.1C1901.47 167.2 1904.12 166.75 1906.99 166.75ZM1932.78 209V167.95H1941.48V209H1932.78ZM1937.23 153.9C1935.66 153.9 1934.31 153.35 1933.18 152.25C1932.08 151.117 1931.53 149.767 1931.53 148.2C1931.53 146.633 1932.08 145.283 1933.18 144.15C1934.31 143.017 1935.66 142.45 1937.23 142.45C1938.26 142.45 1939.21 142.717 1940.08 143.25C1940.98 143.783 1941.69 144.483 1942.23 145.35C1942.76 146.183 1943.03 147.133 1943.03 148.2C1943.03 149.767 1942.46 151.117 1941.33 152.25C1940.19 153.35 1938.83 153.9 1937.23 153.9ZM1970.17 166.75C1972.31 166.75 1974.29 166.967 1976.12 167.4C1977.99 167.833 1979.59 168.35 1980.92 168.95C1982.29 169.55 1983.26 170.083 1983.82 170.55L1980.37 176.05C1979.71 175.45 1978.51 174.783 1976.77 174.05C1975.04 173.283 1973.11 172.9 1970.97 172.9C1968.64 172.9 1966.66 173.367 1965.02 174.3C1963.39 175.2 1962.57 176.517 1962.57 178.25C1962.57 179.983 1963.41 181.367 1965.07 182.4C1966.77 183.4 1969.04 184.233 1971.87 184.9C1974.14 185.433 1976.26 186.15 1978.22 187.05C1980.22 187.95 1981.84 189.2 1983.07 190.8C1984.31 192.367 1984.92 194.467 1984.92 197.1C1984.92 199.5 1984.42 201.55 1983.42 203.25C1982.42 204.917 1981.07 206.267 1979.37 207.3C1977.67 208.3 1975.77 209.033 1973.67 209.5C1971.57 209.967 1969.44 210.2 1967.27 210.2C1964.74 210.2 1962.46 209.933 1960.42 209.4C1958.39 208.9 1956.67 208.3 1955.27 207.6C1953.91 206.867 1952.91 206.233 1952.27 205.7L1955.72 199.5C1956.59 200.333 1958.01 201.217 1959.97 202.15C1961.97 203.083 1964.24 203.55 1966.77 203.55C1969.57 203.55 1971.84 202.967 1973.57 201.8C1975.31 200.6 1976.17 199.05 1976.17 197.15C1976.17 195.717 1975.76 194.567 1974.92 193.7C1974.09 192.833 1972.97 192.133 1971.57 191.6C1970.17 191.067 1968.64 190.6 1966.97 190.2C1965.37 189.833 1963.81 189.35 1962.27 188.75C1960.77 188.15 1959.39 187.383 1958.12 186.45C1956.89 185.483 1955.91 184.317 1955.17 182.95C1954.44 181.55 1954.07 179.917 1954.07 178.05C1954.07 175.683 1954.82 173.667 1956.32 172C1957.82 170.3 1959.79 169 1962.22 168.1C1964.66 167.2 1967.31 166.75 1970.17 166.75ZM1990.83 167.95H1998.88V151.1H2007.53V167.95H2018.08V175.4H2007.53V195.7C2007.53 198.1 2007.94 199.867 2008.78 201C2009.64 202.133 2010.79 202.7 2012.23 202.7C2013.49 202.7 2014.48 202.467 2015.18 202C2015.88 201.533 2016.29 201.217 2016.43 201.05L2019.88 207.45C2019.68 207.617 2019.14 207.933 2018.28 208.4C2017.41 208.867 2016.29 209.283 2014.93 209.65C2013.56 210.017 2011.96 210.2 2010.13 210.2C2006.93 210.2 2004.24 209.233 2002.08 207.3C1999.94 205.333 1998.88 202.233 1998.88 198V175.4H1990.83V167.95ZM2060.43 209V201C2060.16 201.833 2059.38 202.983 2058.08 204.45C2056.81 205.917 2055.06 207.25 2052.83 208.45C2050.63 209.617 2048.03 210.2 2045.03 210.2C2041.23 210.2 2037.78 209.3 2034.68 207.5C2031.61 205.7 2029.16 203.183 2027.33 199.95C2025.53 196.683 2024.63 192.867 2024.63 188.5C2024.63 184.133 2025.53 180.333 2027.33 177.1C2029.16 173.833 2031.61 171.3 2034.68 169.5C2037.78 167.667 2041.23 166.75 2045.03 166.75C2048 166.75 2050.56 167.283 2052.73 168.35C2054.93 169.417 2056.68 170.65 2057.98 172.05C2059.31 173.45 2060.1 174.65 2060.33 175.65V167.95H2068.93V209H2060.43ZM2033.23 188.5C2033.23 191.467 2033.88 194.033 2035.18 196.2C2036.48 198.367 2038.16 200.05 2040.23 201.25C2042.33 202.417 2044.56 203 2046.93 203C2049.46 203 2051.73 202.4 2053.73 201.2C2055.73 200 2057.31 198.317 2058.48 196.15C2059.65 193.95 2060.23 191.4 2060.23 188.5C2060.23 185.6 2059.65 183.067 2058.48 180.9C2057.31 178.7 2055.73 177 2053.73 175.8C2051.73 174.567 2049.46 173.95 2046.93 173.95C2044.56 173.95 2042.33 174.55 2040.23 175.75C2038.16 176.95 2036.48 178.633 2035.18 180.8C2033.88 182.967 2033.23 185.533 2033.23 188.5ZM2103.51 166.75C2106.21 166.75 2108.82 167.317 2111.36 168.45C2113.92 169.583 2116.02 171.383 2117.66 173.85C2119.32 176.283 2120.16 179.467 2120.16 183.4V209H2111.36V185.1C2111.36 181.033 2110.41 178.083 2108.51 176.25C2106.61 174.383 2104.16 173.45 2101.16 173.45C2099.19 173.45 2097.29 174.017 2095.46 175.15C2093.66 176.25 2092.17 177.783 2091.01 179.75C2089.84 181.683 2089.26 183.883 2089.26 186.35V209H2080.56V167.95H2089.26V175.25C2089.56 174.117 2090.37 172.883 2091.71 171.55C2093.04 170.217 2094.74 169.083 2096.81 168.15C2098.87 167.217 2101.11 166.75 2103.51 166.75ZM2128.03 167.95H2136.08V151.1H2144.73V167.95H2155.28V175.4H2144.73V195.7C2144.73 198.1 2145.15 199.867 2145.98 201C2146.85 202.133 2148 202.7 2149.43 202.7C2150.7 202.7 2151.68 202.467 2152.38 202C2153.08 201.533 2153.5 201.217 2153.63 201.05L2157.08 207.45C2156.88 207.617 2156.35 207.933 2155.48 208.4C2154.62 208.867 2153.5 209.283 2152.13 209.65C2150.77 210.017 2149.17 210.2 2147.33 210.2C2144.13 210.2 2141.45 209.233 2139.28 207.3C2137.15 205.333 2136.08 202.233 2136.08 198V175.4H2128.03V167.95Z" fill="white"/>
<defs>
<linearGradient id="paint0_linear_653_27189" x1="279.864" y1="192.261" x2="279.864" y2="39.0536" gradientUnits="userSpaceOnUse">
<stop stop-color="#BCBCBC"/>
<stop offset="1" stop-color="white"/>
</linearGradient>
<linearGradient id="paint1_linear_653_27189" x1="408.145" y1="195.039" x2="408.145" y2="38.7773" gradientUnits="userSpaceOnUse">
<stop stop-color="#BCBCBC"/>
<stop offset="1" stop-color="white"/>
</linearGradient>
<linearGradient id="paint2_linear_653_27189" x1="566.696" y1="195.32" x2="566.696" y2="85.4314" gradientUnits="userSpaceOnUse">
<stop stop-color="#BCBCBC"/>
<stop offset="1" stop-color="white"/>
</linearGradient>
<linearGradient id="paint3_linear_653_27189" x1="720.158" y1="235.255" x2="720.158" y2="83.3596" gradientUnits="userSpaceOnUse">
<stop stop-color="#BCBCBC"/>
<stop offset="1" stop-color="white"/>
</linearGradient>
<linearGradient id="paint4_linear_653_27189" x1="829.569" y1="195.391" x2="829.569" y2="86.8144" gradientUnits="userSpaceOnUse">
<stop stop-color="#BCBCBC"/>
<stop offset="1" stop-color="white"/>
</linearGradient>
<linearGradient id="paint5_linear_653_27189" x1="925.214" y1="198.006" x2="925.214" y2="83.7512" gradientUnits="userSpaceOnUse">
<stop stop-color="#BCBCBC"/>
<stop offset="1" stop-color="white"/>
</linearGradient>
<linearGradient id="paint6_linear_653_27189" x1="1010.9" y1="192.261" x2="1010.9" y2="39.0536" gradientUnits="userSpaceOnUse">
<stop stop-color="#BCBCBC"/>
<stop offset="1" stop-color="white"/>
</linearGradient>
<linearGradient id="paint7_linear_653_27189" x1="114.229" y1="189.374" x2="103.761" y2="41.0024" gradientUnits="userSpaceOnUse">
<stop stop-color="#BCBCBC"/>
<stop offset="1" stop-color="white"/>
</linearGradient>
<linearGradient id="paint8_linear_653_27189" x1="149.995" y1="202.194" x2="148.771" y2="150.348" gradientUnits="userSpaceOnUse">
<stop stop-color="#BCBCBC"/>
<stop offset="1" stop-color="white"/>
</linearGradient>
</defs>
</svg>
