<svg width="2579" height="635" viewBox="0 0 2579 635" fill="none" xmlns="http://www.w3.org/2000/svg">
<mask id="path-1-inside-1_1155_16978" fill="white">
<path d="M0 10C0 4.47715 4.47715 0 10 0H2569C2574.52 0 2579 4.47715 2579 10V625C2579 630.523 2574.52 635 2569 635H9.99997C4.47712 635 0 630.523 0 625V10Z"/>
</mask>
<path d="M0 10C0 4.47715 4.47715 0 10 0H2569C2574.52 0 2579 4.47715 2579 10V625C2579 630.523 2574.52 635 2569 635H9.99997C4.47712 635 0 630.523 0 625V10Z" fill="url(#paint0_linear_1155_16978)"/>
<path d="M0 10C0 -1.04569 8.95431 -10 20 -10H2559C2570.05 -10 2579 -1.04569 2579 10C2579 10 2574.52 10 2569 10H10C4.47715 10 0 10 0 10ZM2579 625C2579 636.046 2570.05 645 2559 645H20C8.95431 645 0 636.046 0 625C0 625 4.47715 625 10 625H2569C2574.52 625 2579 625 2579 625ZM0 635V0V635ZM2579 0V635V0Z" fill="#B1B1FF" mask="url(#path-1-inside-1_1155_16978)"/>
<path d="M353.798 381.506L395.604 231.412H438.696L480.502 381.506H454.984L445.755 346.758H388.503L379.063 381.506H353.756H353.798ZM394.53 324.043H439.771L418.973 246.857H415.327L394.53 324.043Z" fill="url(#paint1_linear_1155_16978)"/>
<path d="M489.9 330.259V327.035C489.9 292.731 511.984 272.565 538.365 272.565C558.531 272.565 568.393 281.141 573.323 289.296H576.758V231.412H600.337V381.506H577.179V367.135H573.745C568.393 375.922 558.51 384.498 538.365 384.498C512.194 384.498 489.9 364.564 489.9 330.238V330.259ZM577.179 329.627V327.478C577.179 305.395 563.672 293.173 545.235 293.173C526.797 293.173 513.501 305.395 513.501 327.478V329.627C513.501 351.71 527.008 363.932 545.235 363.932C563.462 363.932 577.179 351.71 577.179 329.627Z" fill="url(#paint2_linear_1155_16978)"/>
<path d="M628.194 381.506V275.578H651.141V287.8H654.787C658.432 280.509 667.008 273.871 682.011 273.871C697.015 273.871 706.455 280.951 711.385 290.602H715.031C719.751 281.162 728.116 273.871 745.058 273.871C765.224 273.871 780.648 286.746 780.648 311.189V381.527H757.28V312.917C757.28 300.696 749.989 293.616 737.978 293.616C724.471 293.616 716.105 302.402 716.105 318.48V381.527H692.737V312.917C692.737 300.696 685.446 293.616 673.435 293.616C659.928 293.616 651.563 302.402 651.563 318.48V381.527H628.194V381.506Z" fill="url(#paint3_linear_1155_16978)"/>
<path d="M819.441 424.387V403.8H878.189C882.256 403.8 884.195 401.65 884.195 397.373V366.503H880.76C876.904 374.426 867.885 383.234 847.951 383.234C823.719 383.234 806.566 366.081 806.566 339.278V275.599H829.935V337.36C829.935 355.166 839.164 363.3 855.031 363.3C872.605 363.3 883.984 351.289 883.984 329.206V275.599H907.352V402.324C907.352 415.831 898.987 424.408 885.48 424.408H819.441V424.387Z" fill="url(#paint4_linear_1155_16978)"/>
<path d="M935.209 381.506V275.578H958.156V288.01H961.801C965.025 279.224 972.527 275.136 983.463 275.136H996.106V296.144H982.81C968.439 296.144 958.577 303.856 958.577 319.723V381.485H935.209V381.506Z" fill="url(#paint5_linear_1155_16978)"/>
<path d="M1007.32 350.846C1007.32 329.185 1024.47 318.038 1047.84 318.038H1079.36V311.611C1079.36 300.021 1072.28 291.888 1057.49 291.888C1042.7 291.888 1035.62 299.6 1033.26 310.536L1011.38 303.456C1016.52 286.725 1030.47 272.586 1057.7 272.586C1084.92 272.586 1102.08 287.168 1102.08 313.107V355.566C1102.08 359.865 1104.23 361.993 1108.08 361.993H1117.08V381.506H1100.14C1090.07 381.506 1082.99 375.922 1082.99 367.135V366.713H1079.34C1076.56 373.14 1069.06 384.519 1046.95 384.519C1024.85 384.519 1007.27 372.508 1007.27 350.846H1007.32ZM1079.36 338.203V336.054H1049.33C1038.19 336.054 1030.9 340.985 1030.9 350.214C1030.9 359.444 1038.19 365.217 1050.83 365.217C1067.56 365.217 1079.34 354.934 1079.34 338.203H1079.36Z" fill="url(#paint6_linear_1155_16978)"/>
<path d="M1134.63 381.506V231.412H1158V381.506H1134.63Z" fill="url(#paint7_linear_1155_16978)"/>
<rect x="220.184" y="210.592" width="59.6346" height="178.214" rx="28" transform="rotate(24.9531 220.184 210.592)" fill="url(#paint8_linear_1155_16978)"/>
<circle cx="285.797" cy="356.976" r="31" fill="url(#paint9_linear_1155_16978)"/>
<path d="M1551.5 137.5H1560.4L1584.8 203.5H1575.65L1569.95 187.6H1541.95L1536.15 203.5H1527L1551.5 137.5ZM1544.7 179.9H1567.25L1556.05 148H1555.9L1544.7 179.9ZM1609.7 204.7C1605.93 204.7 1602.55 203.8 1599.55 202C1596.58 200.2 1594.23 197.683 1592.5 194.45C1590.8 191.183 1589.95 187.367 1589.95 183C1589.95 178.633 1590.8 174.833 1592.5 171.6C1594.23 168.333 1596.58 165.8 1599.55 164C1602.55 162.167 1605.93 161.25 1609.7 161.25C1612.73 161.25 1615.4 161.783 1617.7 162.85C1620 163.883 1621.83 165.1 1623.2 166.5C1624.57 167.9 1625.35 169.117 1625.55 170.15V134.7H1634.3V203.5H1625.7V195.5C1625.33 196.633 1624.42 197.917 1622.95 199.35C1621.52 200.783 1619.67 202.033 1617.4 203.1C1615.13 204.167 1612.57 204.7 1609.7 204.7ZM1611.7 197.5C1614.23 197.5 1616.55 196.9 1618.65 195.7C1620.75 194.5 1622.42 192.817 1623.65 190.65C1624.92 188.45 1625.55 185.9 1625.55 183C1625.55 180.1 1624.92 177.567 1623.65 175.4C1622.42 173.2 1620.75 171.5 1618.65 170.3C1616.55 169.067 1614.23 168.45 1611.7 168.45C1609.37 168.45 1607.2 169.05 1605.2 170.25C1603.2 171.45 1601.58 173.133 1600.35 175.3C1599.15 177.467 1598.55 180.033 1598.55 183C1598.55 185.967 1599.15 188.533 1600.35 190.7C1601.58 192.867 1603.2 194.55 1605.2 195.75C1607.2 196.917 1609.37 197.5 1611.7 197.5ZM1693.29 161.25C1696.33 161.25 1698.93 161.917 1701.09 163.25C1703.26 164.55 1704.91 166.55 1706.04 169.25C1707.21 171.95 1707.79 175.4 1707.79 179.6V203.5H1699.19V181.35C1699.19 176.917 1698.58 173.583 1697.34 171.35C1696.11 169.117 1693.86 168 1690.59 168C1688.86 168 1687.19 168.483 1685.59 169.45C1684.03 170.383 1682.73 171.833 1681.69 173.8C1680.69 175.767 1680.19 178.283 1680.19 181.35V203.5H1672.09V181.35C1672.09 176.917 1671.33 173.583 1669.79 171.35C1668.26 169.117 1666.11 168 1663.34 168C1661.58 168 1659.91 168.467 1658.34 169.4C1656.81 170.3 1655.56 171.733 1654.59 173.7C1653.63 175.667 1653.14 178.217 1653.14 181.35V203.5H1644.49V162.45H1653.14V168.75C1653.51 167.717 1654.29 166.617 1655.49 165.45C1656.73 164.283 1658.29 163.3 1660.19 162.5C1662.13 161.667 1664.28 161.25 1666.64 161.25C1669.11 161.25 1671.18 161.75 1672.84 162.75C1674.51 163.75 1675.83 164.983 1676.79 166.45C1677.76 167.883 1678.43 169.267 1678.79 170.6C1679.26 169.167 1680.16 167.733 1681.49 166.3C1682.83 164.833 1684.51 163.633 1686.54 162.7C1688.58 161.733 1690.83 161.25 1693.29 161.25ZM1736.87 195.55L1750.72 162.45H1759.42L1731.72 224.3H1722.92L1732.22 203.5L1715.32 162.45H1724.17L1736.87 195.55ZM1774.57 203.5H1765.92V162.45H1774.57V169.55H1774.32C1774.48 168.683 1775.1 167.6 1776.17 166.3C1777.23 165 1778.7 163.833 1780.57 162.8C1782.43 161.767 1784.67 161.25 1787.27 161.25C1789.17 161.25 1790.83 161.517 1792.27 162.05C1793.73 162.55 1794.77 163.05 1795.37 163.55L1791.82 170.75C1791.35 170.283 1790.53 169.817 1789.37 169.35C1788.2 168.85 1786.75 168.6 1785.02 168.6C1782.82 168.6 1780.93 169.283 1779.37 170.65C1777.8 172.017 1776.6 173.667 1775.77 175.6C1774.97 177.5 1774.57 179.267 1774.57 180.9V203.5ZM1833.1 203.5V195.5C1832.83 196.333 1832.05 197.483 1830.75 198.95C1829.48 200.417 1827.73 201.75 1825.5 202.95C1823.3 204.117 1820.7 204.7 1817.7 204.7C1813.9 204.7 1810.45 203.8 1807.35 202C1804.28 200.2 1801.83 197.683 1800 194.45C1798.2 191.183 1797.3 187.367 1797.3 183C1797.3 178.633 1798.2 174.833 1800 171.6C1801.83 168.333 1804.28 165.8 1807.35 164C1810.45 162.167 1813.9 161.25 1817.7 161.25C1820.66 161.25 1823.23 161.783 1825.4 162.85C1827.6 163.917 1829.35 165.15 1830.65 166.55C1831.98 167.95 1832.76 169.15 1833 170.15V162.45H1841.6V203.5H1833.1ZM1805.9 183C1805.9 185.967 1806.55 188.533 1807.85 190.7C1809.15 192.867 1810.83 194.55 1812.9 195.75C1815 196.917 1817.23 197.5 1819.6 197.5C1822.13 197.5 1824.4 196.9 1826.4 195.7C1828.4 194.5 1829.98 192.817 1831.15 190.65C1832.31 188.45 1832.9 185.9 1832.9 183C1832.9 180.1 1832.31 177.567 1831.15 175.4C1829.98 173.2 1828.4 171.5 1826.4 170.3C1824.4 169.067 1822.13 168.45 1819.6 168.45C1817.23 168.45 1815 169.05 1812.9 170.25C1810.83 171.45 1809.15 173.133 1807.85 175.3C1806.55 177.467 1805.9 180.033 1805.9 183ZM1862.27 203.5H1853.52V134.7H1862.27V203.5ZM1877.05 161.95L1874.4 158.95C1875.24 158.617 1876.17 158 1877.2 157.1C1878.27 156.167 1879.19 155.117 1879.95 153.95C1880.75 152.75 1881.17 151.567 1881.2 150.4C1880.94 150.767 1880.42 151.1 1879.65 151.4C1878.92 151.667 1878.15 151.8 1877.35 151.8C1875.85 151.8 1874.5 151.25 1873.3 150.15C1872.14 149.05 1871.55 147.517 1871.55 145.55C1871.55 143.217 1872.27 141.367 1873.7 140C1875.17 138.633 1877 137.95 1879.2 137.95C1881.37 137.95 1883.19 138.717 1884.65 140.25C1886.12 141.75 1886.85 143.917 1886.85 146.75C1886.85 149.35 1886.35 151.65 1885.35 153.65C1884.35 155.65 1883.1 157.35 1881.6 158.75C1880.1 160.117 1878.59 161.183 1877.05 161.95ZM1912.76 161.25C1914.9 161.25 1916.88 161.467 1918.71 161.9C1920.58 162.333 1922.18 162.85 1923.51 163.45C1924.88 164.05 1925.85 164.583 1926.41 165.05L1922.96 170.55C1922.3 169.95 1921.1 169.283 1919.36 168.55C1917.63 167.783 1915.7 167.4 1913.56 167.4C1911.23 167.4 1909.25 167.867 1907.61 168.8C1905.98 169.7 1905.16 171.017 1905.16 172.75C1905.16 174.483 1906 175.867 1907.66 176.9C1909.36 177.9 1911.63 178.733 1914.46 179.4C1916.73 179.933 1918.85 180.65 1920.81 181.55C1922.81 182.45 1924.43 183.7 1925.66 185.3C1926.9 186.867 1927.51 188.967 1927.51 191.6C1927.51 194 1927.01 196.05 1926.01 197.75C1925.01 199.417 1923.66 200.767 1921.96 201.8C1920.26 202.8 1918.36 203.533 1916.26 204C1914.16 204.467 1912.03 204.7 1909.86 204.7C1907.33 204.7 1905.05 204.433 1903.01 203.9C1900.98 203.4 1899.26 202.8 1897.86 202.1C1896.5 201.367 1895.5 200.733 1894.86 200.2L1898.31 194C1899.18 194.833 1900.6 195.717 1902.56 196.65C1904.56 197.583 1906.83 198.05 1909.36 198.05C1912.16 198.05 1914.43 197.467 1916.16 196.3C1917.9 195.1 1918.76 193.55 1918.76 191.65C1918.76 190.217 1918.35 189.067 1917.51 188.2C1916.68 187.333 1915.56 186.633 1914.16 186.1C1912.76 185.567 1911.23 185.1 1909.56 184.7C1907.96 184.333 1906.4 183.85 1904.86 183.25C1903.36 182.65 1901.98 181.883 1900.71 180.95C1899.48 179.983 1898.5 178.817 1897.76 177.45C1897.03 176.05 1896.66 174.417 1896.66 172.55C1896.66 170.183 1897.41 168.167 1898.91 166.5C1900.41 164.8 1902.38 163.5 1904.81 162.6C1907.25 161.7 1909.9 161.25 1912.76 161.25ZM1963.25 137.5H1981.95C1986.08 137.5 1989.8 138.183 1993.1 139.55C1996.43 140.883 1999.08 142.983 2001.05 145.85C2003.02 148.717 2004 152.45 2004 157.05C2004 161.617 2003.02 165.4 2001.05 168.4C1999.08 171.4 1996.43 173.65 1993.1 175.15C1989.8 176.617 1986.08 177.35 1981.95 177.35H1971.8V203.5H1963.25V137.5ZM1971.8 170.2H1979.6C1982.43 170.2 1985 169.783 1987.3 168.95C1989.63 168.117 1991.48 166.75 1992.85 164.85C1994.25 162.95 1994.95 160.4 1994.95 157.2C1994.95 153.967 1994.25 151.45 1992.85 149.65C1991.48 147.817 1989.63 146.533 1987.3 145.8C1985 145.033 1982.43 144.65 1979.6 144.65H1971.8V170.2ZM2031.41 195.55L2045.26 162.45H2053.96L2026.26 224.3H2017.46L2026.76 203.5L2009.86 162.45H2018.71L2031.41 195.55ZM2057.05 162.45H2065.1V145.6H2073.75V162.45H2084.3V169.9H2073.75V190.2C2073.75 192.6 2074.16 194.367 2075 195.5C2075.86 196.633 2077.01 197.2 2078.45 197.2C2079.71 197.2 2080.7 196.967 2081.4 196.5C2082.1 196.033 2082.51 195.717 2082.65 195.55L2086.1 201.95C2085.9 202.117 2085.36 202.433 2084.5 202.9C2083.63 203.367 2082.51 203.783 2081.15 204.15C2079.78 204.517 2078.18 204.7 2076.35 204.7C2073.15 204.7 2070.46 203.733 2068.3 201.8C2066.16 199.833 2065.1 196.733 2065.1 192.5V169.9H2057.05V162.45ZM2116.9 161.25C2119.6 161.25 2122.22 161.817 2124.75 162.95C2127.32 164.083 2129.42 165.883 2131.05 168.35C2132.72 170.783 2133.55 173.967 2133.55 177.9V203.5H2124.75V179.6C2124.75 175.533 2123.82 172.583 2121.95 170.75C2120.12 168.883 2117.7 167.95 2114.7 167.95C2112.7 167.95 2110.79 168.517 2108.95 169.65C2107.12 170.75 2105.6 172.283 2104.4 174.25C2103.24 176.183 2102.65 178.383 2102.65 180.85V203.5H2093.85V134.7H2102.65V169.75C2102.95 168.617 2103.75 167.383 2105.05 166.05C2106.39 164.717 2108.09 163.583 2110.15 162.65C2112.22 161.717 2114.47 161.25 2116.9 161.25ZM2164.31 204.7C2160.08 204.7 2156.31 203.75 2153.01 201.85C2149.75 199.95 2147.18 197.383 2145.31 194.15C2143.45 190.883 2142.51 187.2 2142.51 183.1C2142.51 179 2143.45 175.3 2145.31 172C2147.18 168.7 2149.75 166.083 2153.01 164.15C2156.31 162.217 2160.08 161.25 2164.31 161.25C2168.51 161.25 2172.23 162.217 2175.46 164.15C2178.73 166.083 2181.28 168.7 2183.11 172C2184.95 175.3 2185.86 179 2185.86 183.1C2185.86 187.2 2184.95 190.883 2183.11 194.15C2181.28 197.383 2178.73 199.95 2175.46 201.85C2172.23 203.75 2168.51 204.7 2164.31 204.7ZM2164.31 197.25C2166.98 197.25 2169.3 196.633 2171.26 195.4C2173.26 194.167 2174.81 192.483 2175.91 190.35C2177.01 188.183 2177.56 185.75 2177.56 183.05C2177.56 180.35 2177.01 177.917 2175.91 175.75C2174.81 173.583 2173.26 171.867 2171.26 170.6C2169.3 169.333 2166.98 168.7 2164.31 168.7C2161.61 168.7 2159.26 169.333 2157.26 170.6C2155.26 171.867 2153.7 173.583 2152.56 175.75C2151.46 177.917 2150.91 180.35 2150.91 183.05C2150.91 185.75 2151.46 188.183 2152.56 190.35C2153.7 192.483 2155.26 194.167 2157.26 195.4C2159.26 196.633 2161.61 197.25 2164.31 197.25ZM2218.46 161.25C2221.16 161.25 2223.77 161.817 2226.31 162.95C2228.87 164.083 2230.97 165.883 2232.61 168.35C2234.27 170.783 2235.11 173.967 2235.11 177.9V203.5H2226.31V179.6C2226.31 175.533 2225.36 172.583 2223.46 170.75C2221.56 168.883 2219.11 167.95 2216.11 167.95C2214.14 167.95 2212.24 168.517 2210.41 169.65C2208.61 170.75 2207.12 172.283 2205.96 174.25C2204.79 176.183 2204.21 178.383 2204.21 180.85V203.5H2195.51V162.45H2204.21V169.75C2204.51 168.617 2205.32 167.383 2206.66 166.05C2207.99 164.717 2209.69 163.583 2211.76 162.65C2213.82 161.717 2216.06 161.25 2218.46 161.25ZM2292.19 136.3C2295.99 136.3 2299.25 136.733 2301.99 137.6C2304.75 138.467 2306.92 139.383 2308.49 140.35C2310.09 141.317 2311.04 141.95 2311.34 142.25L2306.94 149.3C2306.44 148.867 2305.55 148.25 2304.29 147.45C2303.02 146.617 2301.44 145.883 2299.54 145.25C2297.64 144.583 2295.47 144.25 2293.04 144.25C2289.27 144.25 2286.29 145.017 2284.09 146.55C2281.92 148.05 2280.84 150.183 2280.84 152.95C2280.84 154.817 2281.4 156.467 2282.54 157.9C2283.7 159.3 2285.34 160.583 2287.44 161.75C2289.54 162.917 2291.99 164.117 2294.79 165.35C2297.09 166.317 2299.34 167.417 2301.54 168.65C2303.77 169.883 2305.79 171.333 2307.59 173C2309.42 174.667 2310.87 176.6 2311.94 178.8C2313.04 181 2313.59 183.533 2313.59 186.4C2313.59 189.233 2313 191.783 2311.84 194.05C2310.7 196.317 2309.09 198.25 2306.99 199.85C2304.92 201.417 2302.5 202.617 2299.74 203.45C2296.97 204.283 2293.99 204.7 2290.79 204.7C2286.75 204.7 2283.1 204.2 2279.84 203.2C2276.6 202.2 2273.99 201.15 2271.99 200.05C2270.02 198.95 2268.89 198.267 2268.59 198L2273.24 190.65C2273.64 190.983 2274.37 191.483 2275.44 192.15C2276.5 192.783 2277.82 193.45 2279.39 194.15C2280.95 194.85 2282.72 195.45 2284.69 195.95C2286.65 196.417 2288.75 196.65 2290.99 196.65C2295.45 196.65 2298.84 195.65 2301.14 193.65C2303.44 191.65 2304.59 189.083 2304.59 185.95C2304.59 183.55 2303.85 181.483 2302.39 179.75C2300.92 178.017 2298.97 176.467 2296.54 175.1C2294.1 173.733 2291.42 172.417 2288.49 171.15C2285.49 169.783 2282.74 168.283 2280.24 166.65C2277.74 165.017 2275.72 163.067 2274.19 160.8C2272.69 158.5 2271.94 155.733 2271.94 152.5C2271.94 149.3 2272.84 146.483 2274.64 144.05C2276.47 141.617 2278.92 139.717 2281.99 138.35C2285.09 136.983 2288.49 136.3 2292.19 136.3ZM2324.27 137.5H2339.82C2346.85 137.5 2352.64 138.917 2357.17 141.75C2361.74 144.55 2365.12 148.433 2367.32 153.4C2369.52 158.367 2370.62 164.05 2370.62 170.45C2370.62 176.883 2369.52 182.583 2367.32 187.55C2365.12 192.517 2361.75 196.417 2357.22 199.25C2352.69 202.083 2346.89 203.5 2339.82 203.5H2324.27V137.5ZM2332.77 145.3V195.7H2339.12C2344.32 195.7 2348.57 194.617 2351.87 192.45C2355.17 190.283 2357.6 187.317 2359.17 183.55C2360.77 179.75 2361.59 175.417 2361.62 170.55C2361.62 165.65 2360.84 161.317 2359.27 157.55C2357.7 153.75 2355.25 150.767 2351.92 148.6C2348.59 146.4 2344.32 145.3 2339.12 145.3H2332.77ZM2398 170.15L2424.95 203.5H2414.65L2390.05 173V203.5H2381.5V137.5H2390.05V167.75L2413.05 137.5H2422.9L2398 170.15ZM1546.65 253.25C1548.78 253.25 1550.77 253.467 1552.6 253.9C1554.47 254.333 1556.07 254.85 1557.4 255.45C1558.77 256.05 1559.73 256.583 1560.3 257.05L1556.85 262.55C1556.18 261.95 1554.98 261.283 1553.25 260.55C1551.52 259.783 1549.58 259.4 1547.45 259.4C1545.12 259.4 1543.13 259.867 1541.5 260.8C1539.87 261.7 1539.05 263.017 1539.05 264.75C1539.05 266.483 1539.88 267.867 1541.55 268.9C1543.25 269.9 1545.52 270.733 1548.35 271.4C1550.62 271.933 1552.73 272.65 1554.7 273.55C1556.7 274.45 1558.32 275.7 1559.55 277.3C1560.78 278.867 1561.4 280.967 1561.4 283.6C1561.4 286 1560.9 288.05 1559.9 289.75C1558.9 291.417 1557.55 292.767 1555.85 293.8C1554.15 294.8 1552.25 295.533 1550.15 296C1548.05 296.467 1545.92 296.7 1543.75 296.7C1541.22 296.7 1538.93 296.433 1536.9 295.9C1534.87 295.4 1533.15 294.8 1531.75 294.1C1530.38 293.367 1529.38 292.733 1528.75 292.2L1532.2 286C1533.07 286.833 1534.48 287.717 1536.45 288.65C1538.45 289.583 1540.72 290.05 1543.25 290.05C1546.05 290.05 1548.32 289.467 1550.05 288.3C1551.78 287.1 1552.65 285.55 1552.65 283.65C1552.65 282.217 1552.23 281.067 1551.4 280.2C1550.57 279.333 1549.45 278.633 1548.05 278.1C1546.65 277.567 1545.12 277.1 1543.45 276.7C1541.85 276.333 1540.28 275.85 1538.75 275.25C1537.25 274.65 1535.87 273.883 1534.6 272.95C1533.37 271.983 1532.38 270.817 1531.65 269.45C1530.92 268.05 1530.55 266.417 1530.55 264.55C1530.55 262.183 1531.3 260.167 1532.8 258.5C1534.3 256.8 1536.27 255.5 1538.7 254.6C1541.13 253.7 1543.78 253.25 1546.65 253.25ZM1572.43 295.5V254.45H1581.13V295.5H1572.43ZM1576.88 240.4C1575.32 240.4 1573.97 239.85 1572.83 238.75C1571.73 237.617 1571.18 236.267 1571.18 234.7C1571.18 233.133 1571.73 231.783 1572.83 230.65C1573.97 229.517 1575.32 228.95 1576.88 228.95C1577.92 228.95 1578.87 229.217 1579.73 229.75C1580.63 230.283 1581.35 230.983 1581.88 231.85C1582.42 232.683 1582.68 233.633 1582.68 234.7C1582.68 236.267 1582.12 237.617 1580.98 238.75C1579.85 239.85 1578.48 240.4 1576.88 240.4ZM1643.68 253.25C1646.72 253.25 1649.32 253.917 1651.48 255.25C1653.65 256.55 1655.3 258.55 1656.43 261.25C1657.6 263.95 1658.18 267.4 1658.18 271.6V295.5H1649.58V273.35C1649.58 268.917 1648.97 265.583 1647.73 263.35C1646.5 261.117 1644.25 260 1640.98 260C1639.25 260 1637.58 260.483 1635.98 261.45C1634.42 262.383 1633.12 263.833 1632.08 265.8C1631.08 267.767 1630.58 270.283 1630.58 273.35V295.5H1622.48V273.35C1622.48 268.917 1621.72 265.583 1620.18 263.35C1618.65 261.117 1616.5 260 1613.73 260C1611.97 260 1610.3 260.467 1608.73 261.4C1607.2 262.3 1605.95 263.733 1604.98 265.7C1604.02 267.667 1603.53 270.217 1603.53 273.35V295.5H1594.88V254.45H1603.53V260.75C1603.9 259.717 1604.68 258.617 1605.88 257.45C1607.12 256.283 1608.68 255.3 1610.58 254.5C1612.52 253.667 1614.67 253.25 1617.03 253.25C1619.5 253.25 1621.57 253.75 1623.23 254.75C1624.9 255.75 1626.22 256.983 1627.18 258.45C1628.15 259.883 1628.82 261.267 1629.18 262.6C1629.65 261.167 1630.55 259.733 1631.88 258.3C1633.22 256.833 1634.9 255.633 1636.93 254.7C1638.97 253.733 1641.22 253.25 1643.68 253.25ZM1679.01 316.3H1670.36V254.45H1679.16V262.15C1679.46 261.117 1680.3 259.9 1681.66 258.5C1683.03 257.1 1684.86 255.883 1687.16 254.85C1689.5 253.783 1692.16 253.25 1695.16 253.25C1698.96 253.25 1702.33 254.167 1705.26 256C1708.23 257.8 1710.55 260.333 1712.21 263.6C1713.91 266.833 1714.76 270.633 1714.76 275C1714.76 279.367 1713.9 283.183 1712.16 286.45C1710.43 289.683 1708.06 292.2 1705.06 294C1702.1 295.8 1698.7 296.7 1694.86 296.7C1691.76 296.7 1689.05 296.117 1686.71 294.95C1684.41 293.783 1682.6 292.467 1681.26 291C1679.96 289.533 1679.21 288.367 1679.01 287.5V316.3ZM1706.16 275C1706.16 272.033 1705.55 269.467 1704.31 267.3C1703.11 265.133 1701.51 263.45 1699.51 262.25C1697.51 261.05 1695.35 260.45 1693.01 260.45C1690.45 260.45 1688.11 261.067 1686.01 262.3C1683.91 263.5 1682.25 265.2 1681.01 267.4C1679.78 269.567 1679.16 272.1 1679.16 275C1679.16 277.9 1679.78 280.45 1681.01 282.65C1682.25 284.817 1683.91 286.5 1686.01 287.7C1688.11 288.9 1690.45 289.5 1693.01 289.5C1695.35 289.5 1697.51 288.917 1699.51 287.75C1701.51 286.55 1703.11 284.867 1704.31 282.7C1705.55 280.533 1706.16 277.967 1706.16 275ZM1732.88 295.5H1724.13V226.7H1732.88V295.5ZM1746.36 295.5V254.45H1755.06V295.5H1746.36ZM1750.81 240.4C1749.24 240.4 1747.89 239.85 1746.76 238.75C1745.66 237.617 1745.11 236.267 1745.11 234.7C1745.11 233.133 1745.66 231.783 1746.76 230.65C1747.89 229.517 1749.24 228.95 1750.81 228.95C1751.84 228.95 1752.79 229.217 1753.66 229.75C1754.56 230.283 1755.28 230.983 1755.81 231.85C1756.34 232.683 1756.61 233.633 1756.61 234.7C1756.61 236.267 1756.04 237.617 1754.91 238.75C1753.78 239.85 1752.41 240.4 1750.81 240.4ZM1764.51 254.45H1772.91V242.8C1772.91 238.633 1773.63 235.283 1775.06 232.75C1776.53 230.217 1778.38 228.383 1780.61 227.25C1782.88 226.083 1785.19 225.5 1787.56 225.5C1790.43 225.5 1792.63 225.9 1794.16 226.7C1795.73 227.5 1796.66 228.033 1796.96 228.3L1793.46 234.95C1793.29 234.75 1792.78 234.383 1791.91 233.85C1791.04 233.317 1789.86 233.05 1788.36 233.05C1787.26 233.05 1786.19 233.317 1785.16 233.85C1784.13 234.383 1783.26 235.417 1782.56 236.95C1781.86 238.483 1781.51 240.767 1781.51 243.8V254.45H1793.21V261.9H1781.51V295.5H1772.91V261.9H1764.51V254.45ZM1802.01 295.5V254.45H1810.71V295.5H1802.01ZM1806.46 240.4C1804.89 240.4 1803.54 239.85 1802.41 238.75C1801.31 237.617 1800.76 236.267 1800.76 234.7C1800.76 233.133 1801.31 231.783 1802.41 230.65C1803.54 229.517 1804.89 228.95 1806.46 228.95C1807.49 228.95 1808.44 229.217 1809.31 229.75C1810.21 230.283 1810.93 230.983 1811.46 231.85C1811.99 232.683 1812.26 233.633 1812.26 234.7C1812.26 236.267 1811.69 237.617 1810.56 238.75C1809.43 239.85 1808.06 240.4 1806.46 240.4ZM1829.47 276.75C1829.51 279.217 1830.04 281.467 1831.07 283.5C1832.11 285.533 1833.64 287.15 1835.67 288.35C1837.74 289.55 1840.27 290.15 1843.27 290.15C1845.81 290.15 1847.96 289.783 1849.72 289.05C1851.52 288.283 1852.99 287.383 1854.12 286.35C1855.26 285.283 1856.07 284.333 1856.57 283.5L1860.82 288.75C1859.72 290.35 1858.37 291.75 1856.77 292.95C1855.21 294.15 1853.29 295.067 1851.02 295.7C1848.76 296.367 1845.99 296.7 1842.72 296.7C1838.32 296.7 1834.51 295.767 1831.27 293.9C1828.07 292 1825.61 289.383 1823.87 286.05C1822.14 282.683 1821.27 278.833 1821.27 274.5C1821.27 270.5 1822.09 266.9 1823.72 263.7C1825.36 260.467 1827.72 257.917 1830.82 256.05C1833.96 254.183 1837.72 253.25 1842.12 253.25C1846.16 253.25 1849.66 254.1 1852.62 255.8C1855.62 257.467 1857.94 259.833 1859.57 262.9C1861.24 265.967 1862.07 269.633 1862.07 273.9C1862.07 274.167 1862.06 274.65 1862.02 275.35C1861.99 276.017 1861.96 276.483 1861.92 276.75H1829.47ZM1853.77 270.2C1853.74 268.833 1853.34 267.333 1852.57 265.7C1851.84 264.067 1850.64 262.667 1848.97 261.5C1847.31 260.333 1845.06 259.75 1842.22 259.75C1839.29 259.75 1836.92 260.317 1835.12 261.45C1833.36 262.583 1832.06 263.967 1831.22 265.6C1830.39 267.2 1829.91 268.733 1829.77 270.2H1853.77ZM1887.08 253.25C1889.21 253.25 1891.2 253.467 1893.03 253.9C1894.9 254.333 1896.5 254.85 1897.83 255.45C1899.2 256.05 1900.16 256.583 1900.73 257.05L1897.28 262.55C1896.61 261.95 1895.41 261.283 1893.68 260.55C1891.95 259.783 1890.01 259.4 1887.88 259.4C1885.55 259.4 1883.56 259.867 1881.93 260.8C1880.3 261.7 1879.48 263.017 1879.48 264.75C1879.48 266.483 1880.31 267.867 1881.98 268.9C1883.68 269.9 1885.95 270.733 1888.78 271.4C1891.05 271.933 1893.16 272.65 1895.13 273.55C1897.13 274.45 1898.75 275.7 1899.98 277.3C1901.21 278.867 1901.83 280.967 1901.83 283.6C1901.83 286 1901.33 288.05 1900.33 289.75C1899.33 291.417 1897.98 292.767 1896.28 293.8C1894.58 294.8 1892.68 295.533 1890.58 296C1888.48 296.467 1886.35 296.7 1884.18 296.7C1881.65 296.7 1879.36 296.433 1877.33 295.9C1875.3 295.4 1873.58 294.8 1872.18 294.1C1870.81 293.367 1869.81 292.733 1869.18 292.2L1872.63 286C1873.5 286.833 1874.91 287.717 1876.88 288.65C1878.88 289.583 1881.15 290.05 1883.68 290.05C1886.48 290.05 1888.75 289.467 1890.48 288.3C1892.21 287.1 1893.08 285.55 1893.08 283.65C1893.08 282.217 1892.66 281.067 1891.83 280.2C1891 279.333 1889.88 278.633 1888.48 278.1C1887.08 277.567 1885.55 277.1 1883.88 276.7C1882.28 276.333 1880.71 275.85 1879.18 275.25C1877.68 274.65 1876.3 273.883 1875.03 272.95C1873.8 271.983 1872.81 270.817 1872.08 269.45C1871.35 268.05 1870.98 266.417 1870.98 264.55C1870.98 262.183 1871.73 260.167 1873.23 258.5C1874.73 256.8 1876.7 255.5 1879.13 254.6C1881.56 253.7 1884.21 253.25 1887.08 253.25ZM1963.87 264.75L1953.42 295.5H1944.42L1933.27 254.45H1942.52L1949.97 286L1960.27 255.25H1967.47L1977.67 286L1985.17 254.45H1994.47L1983.32 295.5H1974.32L1963.87 264.75ZM2011.58 295.5H2002.93V254.45H2011.58V261.55H2011.33C2011.49 260.683 2012.11 259.6 2013.18 258.3C2014.24 257 2015.71 255.833 2017.58 254.8C2019.44 253.767 2021.68 253.25 2024.28 253.25C2026.18 253.25 2027.84 253.517 2029.28 254.05C2030.74 254.55 2031.78 255.05 2032.38 255.55L2028.83 262.75C2028.36 262.283 2027.54 261.817 2026.38 261.35C2025.21 260.85 2023.76 260.6 2022.03 260.6C2019.83 260.6 2017.94 261.283 2016.38 262.65C2014.81 264.017 2013.61 265.667 2012.78 267.6C2011.98 269.5 2011.58 271.267 2011.58 272.9V295.5ZM2038.94 295.5V254.45H2047.64V295.5H2038.94ZM2043.39 240.4C2041.82 240.4 2040.47 239.85 2039.34 238.75C2038.24 237.617 2037.69 236.267 2037.69 234.7C2037.69 233.133 2038.24 231.783 2039.34 230.65C2040.47 229.517 2041.82 228.95 2043.39 228.95C2044.42 228.95 2045.37 229.217 2046.24 229.75C2047.14 230.283 2047.85 230.983 2048.39 231.85C2048.92 232.683 2049.19 233.633 2049.19 234.7C2049.19 236.267 2048.62 237.617 2047.49 238.75C2046.35 239.85 2044.99 240.4 2043.39 240.4ZM2057.44 254.45H2065.49V237.6H2074.14V254.45H2084.69V261.9H2074.14V282.2C2074.14 284.6 2074.55 286.367 2075.39 287.5C2076.25 288.633 2077.4 289.2 2078.84 289.2C2080.1 289.2 2081.09 288.967 2081.79 288.5C2082.49 288.033 2082.9 287.717 2083.04 287.55L2086.49 293.95C2086.29 294.117 2085.75 294.433 2084.89 294.9C2084.02 295.367 2082.9 295.783 2081.54 296.15C2080.17 296.517 2078.57 296.7 2076.74 296.7C2073.54 296.7 2070.85 295.733 2068.69 293.8C2066.55 291.833 2065.49 288.733 2065.49 284.5V261.9H2057.44V254.45ZM2094.99 295.5V254.45H2103.69V295.5H2094.99ZM2099.44 240.4C2097.88 240.4 2096.53 239.85 2095.39 238.75C2094.29 237.617 2093.74 236.267 2093.74 234.7C2093.74 233.133 2094.29 231.783 2095.39 230.65C2096.53 229.517 2097.88 228.95 2099.44 228.95C2100.48 228.95 2101.43 229.217 2102.29 229.75C2103.19 230.283 2103.91 230.983 2104.44 231.85C2104.98 232.683 2105.24 233.633 2105.24 234.7C2105.24 236.267 2104.68 237.617 2103.54 238.75C2102.41 239.85 2101.04 240.4 2099.44 240.4ZM2139.94 253.25C2142.64 253.25 2145.26 253.817 2147.79 254.95C2150.36 256.083 2152.46 257.883 2154.09 260.35C2155.76 262.783 2156.59 265.967 2156.59 269.9V295.5H2147.79V271.6C2147.79 267.533 2146.84 264.583 2144.94 262.75C2143.04 260.883 2140.59 259.95 2137.59 259.95C2135.63 259.95 2133.73 260.517 2131.89 261.65C2130.09 262.75 2128.61 264.283 2127.44 266.25C2126.28 268.183 2125.69 270.383 2125.69 272.85V295.5H2116.99V254.45H2125.69V261.75C2125.99 260.617 2126.81 259.383 2128.14 258.05C2129.48 256.717 2131.18 255.583 2133.24 254.65C2135.31 253.717 2137.54 253.25 2139.94 253.25ZM2187.57 317.45C2184.34 317.45 2181.4 317.117 2178.77 316.45C2176.17 315.783 2173.89 314.833 2171.92 313.6C2169.99 312.4 2168.44 310.983 2167.27 309.35L2172.97 303.9C2173.6 304.767 2174.45 305.683 2175.52 306.65C2176.62 307.65 2178.1 308.5 2179.97 309.2C2181.84 309.9 2184.27 310.25 2187.27 310.25C2190.2 310.25 2192.69 309.617 2194.72 308.35C2196.75 307.117 2198.3 305.433 2199.37 303.3C2200.44 301.167 2200.97 298.767 2200.97 296.1V294.75H2209.47V296.65C2209.47 301.183 2208.49 304.983 2206.52 308.05C2204.59 311.15 2201.97 313.483 2198.67 315.05C2195.37 316.65 2191.67 317.45 2187.57 317.45ZM2200.97 295.5V287.5C2200.7 288.333 2199.92 289.483 2198.62 290.95C2197.35 292.417 2195.6 293.75 2193.37 294.95C2191.17 296.117 2188.57 296.7 2185.57 296.7C2181.77 296.7 2178.32 295.8 2175.22 294C2172.15 292.2 2169.7 289.683 2167.87 286.45C2166.07 283.183 2165.17 279.367 2165.17 275C2165.17 270.633 2166.07 266.833 2167.87 263.6C2169.7 260.333 2172.15 257.8 2175.22 256C2178.32 254.167 2181.77 253.25 2185.57 253.25C2188.54 253.25 2191.1 253.783 2193.27 254.85C2195.47 255.917 2197.22 257.15 2198.52 258.55C2199.85 259.95 2200.64 261.15 2200.87 262.15V254.45H2209.47V295.5H2200.97ZM2173.77 275C2173.77 277.967 2174.42 280.533 2175.72 282.7C2177.02 284.867 2178.7 286.55 2180.77 287.75C2182.87 288.917 2185.1 289.5 2187.47 289.5C2190 289.5 2192.27 288.9 2194.27 287.7C2196.27 286.5 2197.85 284.817 2199.02 282.65C2200.19 280.45 2200.77 277.9 2200.77 275C2200.77 272.1 2200.19 269.567 2199.02 267.4C2197.85 265.2 2196.27 263.5 2194.27 262.3C2192.27 261.067 2190 260.45 2187.47 260.45C2185.1 260.45 2182.87 261.05 2180.77 262.25C2178.7 263.45 2177.02 265.133 2175.72 267.3C2174.42 269.467 2173.77 272.033 2173.77 275ZM1558.3 356.75L1547.85 387.5H1538.85L1527.7 346.45H1536.95L1544.4 378L1554.7 347.25H1561.9L1572.1 378L1579.6 346.45H1588.9L1577.75 387.5H1568.75L1558.3 356.75ZM1616.46 388.7C1612.23 388.7 1608.46 387.75 1605.16 385.85C1601.89 383.95 1599.33 381.383 1597.46 378.15C1595.59 374.883 1594.66 371.2 1594.66 367.1C1594.66 363 1595.59 359.3 1597.46 356C1599.33 352.7 1601.89 350.083 1605.16 348.15C1608.46 346.217 1612.23 345.25 1616.46 345.25C1620.66 345.25 1624.38 346.217 1627.61 348.15C1630.88 350.083 1633.43 352.7 1635.26 356C1637.09 359.3 1638.01 363 1638.01 367.1C1638.01 371.2 1637.09 374.883 1635.26 378.15C1633.43 381.383 1630.88 383.95 1627.61 385.85C1624.38 387.75 1620.66 388.7 1616.46 388.7ZM1616.46 381.25C1619.13 381.25 1621.44 380.633 1623.41 379.4C1625.41 378.167 1626.96 376.483 1628.06 374.35C1629.16 372.183 1629.71 369.75 1629.71 367.05C1629.71 364.35 1629.16 361.917 1628.06 359.75C1626.96 357.583 1625.41 355.867 1623.41 354.6C1621.44 353.333 1619.13 352.7 1616.46 352.7C1613.76 352.7 1611.41 353.333 1609.41 354.6C1607.41 355.867 1605.84 357.583 1604.71 359.75C1603.61 361.917 1603.06 364.35 1603.06 367.05C1603.06 369.75 1603.61 372.183 1604.71 374.35C1605.84 376.483 1607.41 378.167 1609.41 379.4C1611.41 380.633 1613.76 381.25 1616.46 381.25ZM1656.21 387.5H1647.56V346.45H1656.21V353.55H1655.96C1656.12 352.683 1656.74 351.6 1657.81 350.3C1658.87 349 1660.34 347.833 1662.21 346.8C1664.07 345.767 1666.31 345.25 1668.91 345.25C1670.81 345.25 1672.47 345.517 1673.91 346.05C1675.37 346.55 1676.41 347.05 1677.01 347.55L1673.46 354.75C1672.99 354.283 1672.17 353.817 1671.01 353.35C1669.84 352.85 1668.39 352.6 1666.66 352.6C1664.46 352.6 1662.57 353.283 1661.01 354.65C1659.44 356.017 1658.24 357.667 1657.41 359.6C1656.61 361.5 1656.21 363.267 1656.21 364.9V387.5ZM1707.72 346.45H1718.22L1697.02 366L1719.62 387.5H1708.97L1689.92 369.3V387.5H1681.22V318.7H1689.92V362.7L1707.72 346.45ZM1721.83 346.45H1730.23V334.8C1730.23 330.633 1730.95 327.283 1732.38 324.75C1733.85 322.217 1735.7 320.383 1737.93 319.25C1740.2 318.083 1742.52 317.5 1744.88 317.5C1747.75 317.5 1749.95 317.9 1751.48 318.7C1753.05 319.5 1753.98 320.033 1754.28 320.3L1750.78 326.95C1750.62 326.75 1750.1 326.383 1749.23 325.85C1748.37 325.317 1747.18 325.05 1745.68 325.05C1744.58 325.05 1743.52 325.317 1742.48 325.85C1741.45 326.383 1740.58 327.417 1739.88 328.95C1739.18 330.483 1738.83 332.767 1738.83 335.8V346.45H1750.53V353.9H1738.83V387.5H1730.23V353.9H1721.83V346.45ZM1767.43 387.5H1758.68V318.7H1767.43V387.5ZM1798.98 388.7C1794.75 388.7 1790.98 387.75 1787.68 385.85C1784.41 383.95 1781.85 381.383 1779.98 378.15C1778.11 374.883 1777.18 371.2 1777.18 367.1C1777.18 363 1778.11 359.3 1779.98 356C1781.85 352.7 1784.41 350.083 1787.68 348.15C1790.98 346.217 1794.75 345.25 1798.98 345.25C1803.18 345.25 1806.9 346.217 1810.13 348.15C1813.4 350.083 1815.95 352.7 1817.78 356C1819.61 359.3 1820.53 363 1820.53 367.1C1820.53 371.2 1819.61 374.883 1817.78 378.15C1815.95 381.383 1813.4 383.95 1810.13 385.85C1806.9 387.75 1803.18 388.7 1798.98 388.7ZM1798.98 381.25C1801.65 381.25 1803.96 380.633 1805.93 379.4C1807.93 378.167 1809.48 376.483 1810.58 374.35C1811.68 372.183 1812.23 369.75 1812.23 367.05C1812.23 364.35 1811.68 361.917 1810.58 359.75C1809.48 357.583 1807.93 355.867 1805.93 354.6C1803.96 353.333 1801.65 352.7 1798.98 352.7C1796.28 352.7 1793.93 353.333 1791.93 354.6C1789.93 355.867 1788.36 357.583 1787.23 359.75C1786.13 361.917 1785.58 364.35 1785.58 367.05C1785.58 369.75 1786.13 372.183 1787.23 374.35C1788.36 376.483 1789.93 378.167 1791.93 379.4C1793.93 380.633 1796.28 381.25 1798.98 381.25ZM1857.23 356.75L1846.78 387.5H1837.78L1826.63 346.45H1835.88L1843.33 378L1853.63 347.25H1860.83L1871.03 378L1878.53 346.45H1887.83L1876.68 387.5H1867.68L1857.23 356.75ZM1954.29 387.5V379.5C1954.02 380.333 1953.24 381.483 1951.94 382.95C1950.67 384.417 1948.92 385.75 1946.69 386.95C1944.49 388.117 1941.89 388.7 1938.89 388.7C1935.09 388.7 1931.64 387.8 1928.54 386C1925.47 384.2 1923.02 381.683 1921.19 378.45C1919.39 375.183 1918.49 371.367 1918.49 367C1918.49 362.633 1919.39 358.833 1921.19 355.6C1923.02 352.333 1925.47 349.8 1928.54 348C1931.64 346.167 1935.09 345.25 1938.89 345.25C1941.86 345.25 1944.42 345.783 1946.59 346.85C1948.79 347.917 1950.54 349.15 1951.84 350.55C1953.17 351.95 1953.96 353.15 1954.19 354.15V346.45H1962.79V387.5H1954.29ZM1927.09 367C1927.09 369.967 1927.74 372.533 1929.04 374.7C1930.34 376.867 1932.02 378.55 1934.09 379.75C1936.19 380.917 1938.42 381.5 1940.79 381.5C1943.32 381.5 1945.59 380.9 1947.59 379.7C1949.59 378.5 1951.17 376.817 1952.34 374.65C1953.51 372.45 1954.09 369.9 1954.09 367C1954.09 364.1 1953.51 361.567 1952.34 359.4C1951.17 357.2 1949.59 355.5 1947.59 354.3C1945.59 353.067 1943.32 352.45 1940.79 352.45C1938.42 352.45 1936.19 353.05 1934.09 354.25C1932.02 355.45 1930.34 357.133 1929.04 359.3C1927.74 361.467 1927.09 364.033 1927.09 367ZM1982.56 367.15C1982.56 371.45 1983.48 374.883 1985.31 377.45C1987.18 379.983 1990.03 381.25 1993.86 381.25C1997.73 381.25 2000.58 379.983 2002.41 377.45C2004.25 374.883 2005.16 371.45 2005.16 367.15V346.45H2013.76V368.35C2013.76 372.35 2012.98 375.883 2011.41 378.95C2009.88 382.017 2007.63 384.417 2004.66 386.15C2001.73 387.85 1998.13 388.7 1993.86 388.7C1989.63 388.7 1986.03 387.85 1983.06 386.15C1980.13 384.417 1977.88 382.017 1976.31 378.95C1974.78 375.883 1974.01 372.35 1974.01 368.35V346.45H1982.56V367.15ZM2021.7 346.45H2029.75V329.6H2038.4V346.45H2048.95V353.9H2038.4V374.2C2038.4 376.6 2038.81 378.367 2039.65 379.5C2040.51 380.633 2041.66 381.2 2043.1 381.2C2044.36 381.2 2045.35 380.967 2046.05 380.5C2046.75 380.033 2047.16 379.717 2047.3 379.55L2050.75 385.95C2050.55 386.117 2050.01 386.433 2049.15 386.9C2048.28 387.367 2047.16 387.783 2045.8 388.15C2044.43 388.517 2042.83 388.7 2041 388.7C2037.8 388.7 2035.11 387.733 2032.95 385.8C2030.81 383.833 2029.75 380.733 2029.75 376.5V353.9H2021.7V346.45ZM2077.3 388.7C2073.07 388.7 2069.3 387.75 2066 385.85C2062.73 383.95 2060.17 381.383 2058.3 378.15C2056.43 374.883 2055.5 371.2 2055.5 367.1C2055.5 363 2056.43 359.3 2058.3 356C2060.17 352.7 2062.73 350.083 2066 348.15C2069.3 346.217 2073.07 345.25 2077.3 345.25C2081.5 345.25 2085.22 346.217 2088.45 348.15C2091.72 350.083 2094.27 352.7 2096.1 356C2097.93 359.3 2098.85 363 2098.85 367.1C2098.85 371.2 2097.93 374.883 2096.1 378.15C2094.27 381.383 2091.72 383.95 2088.45 385.85C2085.22 387.75 2081.5 388.7 2077.3 388.7ZM2077.3 381.25C2079.97 381.25 2082.28 380.633 2084.25 379.4C2086.25 378.167 2087.8 376.483 2088.9 374.35C2090 372.183 2090.55 369.75 2090.55 367.05C2090.55 364.35 2090 361.917 2088.9 359.75C2087.8 357.583 2086.25 355.867 2084.25 354.6C2082.28 353.333 2079.97 352.7 2077.3 352.7C2074.6 352.7 2072.25 353.333 2070.25 354.6C2068.25 355.867 2066.68 357.583 2065.55 359.75C2064.45 361.917 2063.9 364.35 2063.9 367.05C2063.9 369.75 2064.45 372.183 2065.55 374.35C2066.68 376.483 2068.25 378.167 2070.25 379.4C2072.25 380.633 2074.6 381.25 2077.3 381.25ZM2157.75 345.25C2160.78 345.25 2163.38 345.917 2165.55 347.25C2167.71 348.55 2169.36 350.55 2170.5 353.25C2171.66 355.95 2172.25 359.4 2172.25 363.6V387.5H2163.65V365.35C2163.65 360.917 2163.03 357.583 2161.8 355.35C2160.56 353.117 2158.31 352 2155.05 352C2153.31 352 2151.65 352.483 2150.05 353.45C2148.48 354.383 2147.18 355.833 2146.15 357.8C2145.15 359.767 2144.65 362.283 2144.65 365.35V387.5H2136.55V365.35C2136.55 360.917 2135.78 357.583 2134.25 355.35C2132.71 353.117 2130.56 352 2127.8 352C2126.03 352 2124.36 352.467 2122.8 353.4C2121.26 354.3 2120.01 355.733 2119.05 357.7C2118.08 359.667 2117.6 362.217 2117.6 365.35V387.5H2108.95V346.45H2117.6V352.75C2117.96 351.717 2118.75 350.617 2119.95 349.45C2121.18 348.283 2122.75 347.3 2124.65 346.5C2126.58 345.667 2128.73 345.25 2131.1 345.25C2133.56 345.25 2135.63 345.75 2137.3 346.75C2138.96 347.75 2140.28 348.983 2141.25 350.45C2142.21 351.883 2142.88 353.267 2143.25 354.6C2143.71 353.167 2144.61 351.733 2145.95 350.3C2147.28 348.833 2148.96 347.633 2151 346.7C2153.03 345.733 2155.28 345.25 2157.75 345.25ZM2217.28 387.5V379.5C2217.01 380.333 2216.23 381.483 2214.93 382.95C2213.66 384.417 2211.91 385.75 2209.68 386.95C2207.48 388.117 2204.88 388.7 2201.88 388.7C2198.08 388.7 2194.63 387.8 2191.53 386C2188.46 384.2 2186.01 381.683 2184.18 378.45C2182.38 375.183 2181.48 371.367 2181.48 367C2181.48 362.633 2182.38 358.833 2184.18 355.6C2186.01 352.333 2188.46 349.8 2191.53 348C2194.63 346.167 2198.08 345.25 2201.88 345.25C2204.84 345.25 2207.41 345.783 2209.58 346.85C2211.78 347.917 2213.53 349.15 2214.83 350.55C2216.16 351.95 2216.94 353.15 2217.18 354.15V346.45H2225.78V387.5H2217.28ZM2190.08 367C2190.08 369.967 2190.73 372.533 2192.03 374.7C2193.33 376.867 2195.01 378.55 2197.08 379.75C2199.18 380.917 2201.41 381.5 2203.78 381.5C2206.31 381.5 2208.58 380.9 2210.58 379.7C2212.58 378.5 2214.16 376.817 2215.33 374.65C2216.49 372.45 2217.08 369.9 2217.08 367C2217.08 364.1 2216.49 361.567 2215.33 359.4C2214.16 357.2 2212.58 355.5 2210.58 354.3C2208.58 353.067 2206.31 352.45 2203.78 352.45C2201.41 352.45 2199.18 353.05 2197.08 354.25C2195.01 355.45 2193.33 357.133 2192.03 359.3C2190.73 361.467 2190.08 364.033 2190.08 367ZM2233.9 346.45H2241.95V329.6H2250.6V346.45H2261.15V353.9H2250.6V374.2C2250.6 376.6 2251.02 378.367 2251.85 379.5C2252.72 380.633 2253.87 381.2 2255.3 381.2C2256.57 381.2 2257.55 380.967 2258.25 380.5C2258.95 380.033 2259.37 379.717 2259.5 379.55L2262.95 385.95C2262.75 386.117 2262.22 386.433 2261.35 386.9C2260.49 387.367 2259.37 387.783 2258 388.15C2256.64 388.517 2255.04 388.7 2253.2 388.7C2250 388.7 2247.32 387.733 2245.15 385.8C2243.02 383.833 2241.95 380.733 2241.95 376.5V353.9H2233.9V346.45ZM2271.46 387.5V346.45H2280.16V387.5H2271.46ZM2275.91 332.4C2274.34 332.4 2272.99 331.85 2271.86 330.75C2270.76 329.617 2270.21 328.267 2270.21 326.7C2270.21 325.133 2270.76 323.783 2271.86 322.65C2272.99 321.517 2274.34 320.95 2275.91 320.95C2276.94 320.95 2277.89 321.217 2278.76 321.75C2279.66 322.283 2280.37 322.983 2280.91 323.85C2281.44 324.683 2281.71 325.633 2281.71 326.7C2281.71 328.267 2281.14 329.617 2280.01 330.75C2278.87 331.85 2277.51 332.4 2275.91 332.4ZM2312.46 388.7C2308.22 388.7 2304.46 387.75 2301.16 385.85C2297.89 383.95 2295.32 381.383 2293.46 378.15C2291.59 374.883 2290.66 371.2 2290.66 367.1C2290.66 363 2291.59 359.3 2293.46 356C2295.32 352.7 2297.89 350.083 2301.16 348.15C2304.46 346.217 2308.22 345.25 2312.46 345.25C2316.66 345.25 2320.37 346.217 2323.61 348.15C2326.87 350.083 2329.42 352.7 2331.26 356C2333.09 359.3 2334.01 363 2334.01 367.1C2334.01 371.2 2333.09 374.883 2331.26 378.15C2329.42 381.383 2326.87 383.95 2323.61 385.85C2320.37 387.75 2316.66 388.7 2312.46 388.7ZM2312.46 381.25C2315.12 381.25 2317.44 380.633 2319.41 379.4C2321.41 378.167 2322.96 376.483 2324.06 374.35C2325.16 372.183 2325.71 369.75 2325.71 367.05C2325.71 364.35 2325.16 361.917 2324.06 359.75C2322.96 357.583 2321.41 355.867 2319.41 354.6C2317.44 353.333 2315.12 352.7 2312.46 352.7C2309.76 352.7 2307.41 353.333 2305.41 354.6C2303.41 355.867 2301.84 357.583 2300.71 359.75C2299.61 361.917 2299.06 364.35 2299.06 367.05C2299.06 369.75 2299.61 372.183 2300.71 374.35C2301.84 376.483 2303.41 378.167 2305.41 379.4C2307.41 380.633 2309.76 381.25 2312.46 381.25ZM2366.6 345.25C2369.3 345.25 2371.92 345.817 2374.45 346.95C2377.02 348.083 2379.12 349.883 2380.75 352.35C2382.42 354.783 2383.25 357.967 2383.25 361.9V387.5H2374.45V363.6C2374.45 359.533 2373.5 356.583 2371.6 354.75C2369.7 352.883 2367.25 351.95 2364.25 351.95C2362.29 351.95 2360.39 352.517 2358.55 353.65C2356.75 354.75 2355.27 356.283 2354.1 358.25C2352.94 360.183 2352.35 362.383 2352.35 364.85V387.5H2343.65V346.45H2352.35V353.75C2352.65 352.617 2353.47 351.383 2354.8 350.05C2356.14 348.717 2357.84 347.583 2359.9 346.65C2361.97 345.717 2364.2 345.25 2366.6 345.25ZM2410.03 345.25C2412.16 345.25 2414.15 345.467 2415.98 345.9C2417.85 346.333 2419.45 346.85 2420.78 347.45C2422.15 348.05 2423.11 348.583 2423.68 349.05L2420.23 354.55C2419.56 353.95 2418.36 353.283 2416.63 352.55C2414.9 351.783 2412.96 351.4 2410.83 351.4C2408.5 351.4 2406.51 351.867 2404.88 352.8C2403.25 353.7 2402.43 355.017 2402.43 356.75C2402.43 358.483 2403.26 359.867 2404.93 360.9C2406.63 361.9 2408.9 362.733 2411.73 363.4C2414 363.933 2416.11 364.65 2418.08 365.55C2420.08 366.45 2421.7 367.7 2422.93 369.3C2424.16 370.867 2424.78 372.967 2424.78 375.6C2424.78 378 2424.28 380.05 2423.28 381.75C2422.28 383.417 2420.93 384.767 2419.23 385.8C2417.53 386.8 2415.63 387.533 2413.53 388C2411.43 388.467 2409.3 388.7 2407.13 388.7C2404.6 388.7 2402.31 388.433 2400.28 387.9C2398.25 387.4 2396.53 386.8 2395.13 386.1C2393.76 385.367 2392.76 384.733 2392.13 384.2L2395.58 378C2396.45 378.833 2397.86 379.717 2399.83 380.65C2401.83 381.583 2404.1 382.05 2406.63 382.05C2409.43 382.05 2411.7 381.467 2413.43 380.3C2415.16 379.1 2416.03 377.55 2416.03 375.65C2416.03 374.217 2415.61 373.067 2414.78 372.2C2413.95 371.333 2412.83 370.633 2411.43 370.1C2410.03 369.567 2408.5 369.1 2406.83 368.7C2405.23 368.333 2403.66 367.85 2402.13 367.25C2400.63 366.65 2399.25 365.883 2397.98 364.95C2396.75 363.983 2395.76 362.817 2395.03 361.45C2394.3 360.05 2393.93 358.417 2393.93 356.55C2393.93 354.183 2394.68 352.167 2396.18 350.5C2397.68 348.8 2399.65 347.5 2402.08 346.6C2404.51 345.7 2407.16 345.25 2410.03 345.25ZM1527.4 438.45H1535.8V426.8C1535.8 422.633 1536.52 419.283 1537.95 416.75C1539.42 414.217 1541.27 412.383 1543.5 411.25C1545.77 410.083 1548.08 409.5 1550.45 409.5C1553.32 409.5 1555.52 409.9 1557.05 410.7C1558.62 411.5 1559.55 412.033 1559.85 412.3L1556.35 418.95C1556.18 418.75 1555.67 418.383 1554.8 417.85C1553.93 417.317 1552.75 417.05 1551.25 417.05C1550.15 417.05 1549.08 417.317 1548.05 417.85C1547.02 418.383 1546.15 419.417 1545.45 420.95C1544.75 422.483 1544.4 424.767 1544.4 427.8V438.45H1556.1V445.9H1544.4V479.5H1535.8V445.9H1527.4V438.45ZM1582.96 480.7C1578.73 480.7 1574.96 479.75 1571.66 477.85C1568.4 475.95 1565.83 473.383 1563.96 470.15C1562.1 466.883 1561.16 463.2 1561.16 459.1C1561.16 455 1562.1 451.3 1563.96 448C1565.83 444.7 1568.4 442.083 1571.66 440.15C1574.96 438.217 1578.73 437.25 1582.96 437.25C1587.16 437.25 1590.88 438.217 1594.11 440.15C1597.38 442.083 1599.93 444.7 1601.76 448C1603.6 451.3 1604.51 455 1604.51 459.1C1604.51 463.2 1603.6 466.883 1601.76 470.15C1599.93 473.383 1597.38 475.95 1594.11 477.85C1590.88 479.75 1587.16 480.7 1582.96 480.7ZM1582.96 473.25C1585.63 473.25 1587.95 472.633 1589.91 471.4C1591.91 470.167 1593.46 468.483 1594.56 466.35C1595.66 464.183 1596.21 461.75 1596.21 459.05C1596.21 456.35 1595.66 453.917 1594.56 451.75C1593.46 449.583 1591.91 447.867 1589.91 446.6C1587.95 445.333 1585.63 444.7 1582.96 444.7C1580.26 444.7 1577.91 445.333 1575.91 446.6C1573.91 447.867 1572.35 449.583 1571.21 451.75C1570.11 453.917 1569.56 456.35 1569.56 459.05C1569.56 461.75 1570.11 464.183 1571.21 466.35C1572.35 468.483 1573.91 470.167 1575.91 471.4C1577.91 472.633 1580.26 473.25 1582.96 473.25ZM1622.71 479.5H1614.06V438.45H1622.71V445.55H1622.46C1622.63 444.683 1623.24 443.6 1624.31 442.3C1625.38 441 1626.84 439.833 1628.71 438.8C1630.58 437.767 1632.81 437.25 1635.41 437.25C1637.31 437.25 1638.98 437.517 1640.41 438.05C1641.88 438.55 1642.91 439.05 1643.51 439.55L1639.96 446.75C1639.49 446.283 1638.68 445.817 1637.51 445.35C1636.34 444.85 1634.89 444.6 1633.16 444.6C1630.96 444.6 1629.08 445.283 1627.51 446.65C1625.94 448.017 1624.74 449.667 1623.91 451.6C1623.11 453.5 1622.71 455.267 1622.71 456.9V479.5Z" fill="white"/>
<path d="M1694.82 412.3C1698.62 412.3 1701.89 412.733 1704.62 413.6C1707.39 414.467 1709.56 415.383 1711.12 416.35C1712.72 417.317 1713.67 417.95 1713.97 418.25L1709.57 425.3C1709.07 424.867 1708.19 424.25 1706.92 423.45C1705.66 422.617 1704.07 421.883 1702.17 421.25C1700.27 420.583 1698.11 420.25 1695.67 420.25C1691.91 420.25 1688.92 421.017 1686.72 422.55C1684.56 424.05 1683.47 426.183 1683.47 428.95C1683.47 430.817 1684.04 432.467 1685.17 433.9C1686.34 435.3 1687.97 436.583 1690.07 437.75C1692.17 438.917 1694.62 440.117 1697.42 441.35C1699.72 442.317 1701.97 443.417 1704.17 444.65C1706.41 445.883 1708.42 447.333 1710.22 449C1712.06 450.667 1713.51 452.6 1714.57 454.8C1715.67 457 1716.22 459.533 1716.22 462.4C1716.22 465.233 1715.64 467.783 1714.47 470.05C1713.34 472.317 1711.72 474.25 1709.62 475.85C1707.56 477.417 1705.14 478.617 1702.37 479.45C1699.61 480.283 1696.62 480.7 1693.42 480.7C1689.39 480.7 1685.74 480.2 1682.47 479.2C1679.24 478.2 1676.62 477.15 1674.62 476.05C1672.66 474.95 1671.52 474.267 1671.22 474L1675.87 466.65C1676.27 466.983 1677.01 467.483 1678.07 468.15C1679.14 468.783 1680.46 469.45 1682.02 470.15C1683.59 470.85 1685.36 471.45 1687.32 471.95C1689.29 472.417 1691.39 472.65 1693.62 472.65C1698.09 472.65 1701.47 471.65 1703.77 469.65C1706.07 467.65 1707.22 465.083 1707.22 461.95C1707.22 459.55 1706.49 457.483 1705.02 455.75C1703.56 454.017 1701.61 452.467 1699.17 451.1C1696.74 449.733 1694.06 448.417 1691.12 447.15C1688.12 445.783 1685.37 444.283 1682.87 442.65C1680.37 441.017 1678.36 439.067 1676.82 436.8C1675.32 434.5 1674.57 431.733 1674.57 428.5C1674.57 425.3 1675.47 422.483 1677.27 420.05C1679.11 417.617 1681.56 415.717 1684.62 414.35C1687.72 412.983 1691.12 412.3 1694.82 412.3ZM1732.31 460.75C1732.34 463.217 1732.87 465.467 1733.91 467.5C1734.94 469.533 1736.47 471.15 1738.51 472.35C1740.57 473.55 1743.11 474.15 1746.11 474.15C1748.64 474.15 1750.79 473.783 1752.56 473.05C1754.36 472.283 1755.82 471.383 1756.96 470.35C1758.09 469.283 1758.91 468.333 1759.41 467.5L1763.66 472.75C1762.56 474.35 1761.21 475.75 1759.61 476.95C1758.04 478.15 1756.12 479.067 1753.86 479.7C1751.59 480.367 1748.82 480.7 1745.56 480.7C1741.16 480.7 1737.34 479.767 1734.11 477.9C1730.91 476 1728.44 473.383 1726.71 470.05C1724.97 466.683 1724.11 462.833 1724.11 458.5C1724.11 454.5 1724.92 450.9 1726.56 447.7C1728.19 444.467 1730.56 441.917 1733.66 440.05C1736.79 438.183 1740.56 437.25 1744.96 437.25C1748.99 437.25 1752.49 438.1 1755.46 439.8C1758.46 441.467 1760.77 443.833 1762.41 446.9C1764.07 449.967 1764.91 453.633 1764.91 457.9C1764.91 458.167 1764.89 458.65 1764.86 459.35C1764.82 460.017 1764.79 460.483 1764.76 460.75H1732.31ZM1756.61 454.2C1756.57 452.833 1756.17 451.333 1755.41 449.7C1754.67 448.067 1753.47 446.667 1751.81 445.5C1750.14 444.333 1747.89 443.75 1745.06 443.75C1742.12 443.75 1739.76 444.317 1737.96 445.45C1736.19 446.583 1734.89 447.967 1734.06 449.6C1733.22 451.2 1732.74 452.733 1732.61 454.2H1756.61ZM1793.86 473.5C1796.46 473.5 1798.56 473.083 1800.16 472.25C1801.76 471.417 1802.76 470.817 1803.16 470.45L1807.41 476.7C1807.08 477 1806.28 477.483 1805.01 478.15C1803.78 478.783 1802.18 479.367 1800.21 479.9C1798.28 480.433 1796.08 480.7 1793.61 480.7C1789.85 480.7 1786.35 479.867 1783.11 478.2C1779.88 476.5 1777.26 474.033 1775.26 470.8C1773.3 467.567 1772.31 463.617 1772.31 458.95C1772.31 454.25 1773.3 450.3 1775.26 447.1C1777.26 443.867 1779.88 441.417 1783.11 439.75C1786.35 438.083 1789.85 437.25 1793.61 437.25C1796.05 437.25 1798.21 437.55 1800.11 438.15C1802.01 438.717 1803.58 439.35 1804.81 440.05C1806.05 440.75 1806.86 441.283 1807.26 441.65L1802.96 447.9C1802.7 447.633 1802.18 447.233 1801.41 446.7C1800.68 446.133 1799.68 445.617 1798.41 445.15C1797.15 444.683 1795.63 444.45 1793.86 444.45C1791.73 444.45 1789.65 445.033 1787.61 446.2C1785.61 447.333 1783.96 448.983 1782.66 451.15C1781.36 453.317 1780.71 455.917 1780.71 458.95C1780.71 461.983 1781.36 464.6 1782.66 466.8C1783.96 468.967 1785.61 470.633 1787.61 471.8C1789.65 472.933 1791.73 473.5 1793.86 473.5ZM1824.17 459.15C1824.17 463.45 1825.08 466.883 1826.92 469.45C1828.78 471.983 1831.63 473.25 1835.47 473.25C1839.33 473.25 1842.18 471.983 1844.02 469.45C1845.85 466.883 1846.77 463.45 1846.77 459.15V438.45H1855.37V460.35C1855.37 464.35 1854.58 467.883 1853.02 470.95C1851.48 474.017 1849.23 476.417 1846.27 478.15C1843.33 479.85 1839.73 480.7 1835.47 480.7C1831.23 480.7 1827.63 479.85 1824.67 478.15C1821.73 476.417 1819.48 474.017 1817.92 470.95C1816.38 467.883 1815.62 464.35 1815.62 460.35V438.45H1824.17V459.15ZM1875.74 479.5H1867.09V438.45H1875.74V445.55H1875.49C1875.65 444.683 1876.27 443.6 1877.34 442.3C1878.4 441 1879.87 439.833 1881.74 438.8C1883.6 437.767 1885.84 437.25 1888.44 437.25C1890.34 437.25 1892 437.517 1893.44 438.05C1894.9 438.55 1895.94 439.05 1896.54 439.55L1892.99 446.75C1892.52 446.283 1891.7 445.817 1890.54 445.35C1889.37 444.85 1887.92 444.6 1886.19 444.6C1883.99 444.6 1882.1 445.283 1880.54 446.65C1878.97 448.017 1877.77 449.667 1876.94 451.6C1876.14 453.5 1875.74 455.267 1875.74 456.9V479.5ZM1903.1 479.5V438.45H1911.8V479.5H1903.1ZM1907.55 424.4C1905.98 424.4 1904.63 423.85 1903.5 422.75C1902.4 421.617 1901.85 420.267 1901.85 418.7C1901.85 417.133 1902.4 415.783 1903.5 414.65C1904.63 413.517 1905.98 412.95 1907.55 412.95C1908.58 412.95 1909.53 413.217 1910.4 413.75C1911.3 414.283 1912.02 414.983 1912.55 415.85C1913.08 416.683 1913.35 417.633 1913.35 418.7C1913.35 420.267 1912.78 421.617 1911.65 422.75C1910.52 423.85 1909.15 424.4 1907.55 424.4ZM1921.6 438.45H1929.65V421.6H1938.3V438.45H1948.85V445.9H1938.3V466.2C1938.3 468.6 1938.71 470.367 1939.55 471.5C1940.41 472.633 1941.56 473.2 1943 473.2C1944.26 473.2 1945.25 472.967 1945.95 472.5C1946.65 472.033 1947.06 471.717 1947.2 471.55L1950.65 477.95C1950.45 478.117 1949.91 478.433 1949.05 478.9C1948.18 479.367 1947.06 479.783 1945.7 480.15C1944.33 480.517 1942.73 480.7 1940.9 480.7C1937.7 480.7 1935.01 479.733 1932.85 477.8C1930.71 475.833 1929.65 472.733 1929.65 468.5V445.9H1921.6V438.45ZM1975.25 471.55L1989.1 438.45H1997.8L1970.1 500.3H1961.3L1970.6 479.5L1953.7 438.45H1962.55L1975.25 471.55ZM2029.6 413.5H2068.6V421.25H2038.05V442.65H2068V450.2H2038.05V471.75H2068.6V479.5H2029.6V413.5ZM2104.79 437.25C2107.49 437.25 2110.1 437.817 2112.64 438.95C2115.2 440.083 2117.3 441.883 2118.94 444.35C2120.6 446.783 2121.44 449.967 2121.44 453.9V479.5H2112.64V455.6C2112.64 451.533 2111.69 448.583 2109.79 446.75C2107.89 444.883 2105.44 443.95 2102.44 443.95C2100.47 443.95 2098.57 444.517 2096.74 445.65C2094.94 446.75 2093.45 448.283 2092.29 450.25C2091.12 452.183 2090.54 454.383 2090.54 456.85V479.5H2081.84V438.45H2090.54V445.75C2090.84 444.617 2091.65 443.383 2092.99 442.05C2094.32 440.717 2096.02 439.583 2098.09 438.65C2100.15 437.717 2102.39 437.25 2104.79 437.25ZM2152.41 501.45C2149.18 501.45 2146.25 501.117 2143.61 500.45C2141.01 499.783 2138.73 498.833 2136.76 497.6C2134.83 496.4 2133.28 494.983 2132.11 493.35L2137.81 487.9C2138.45 488.767 2139.3 489.683 2140.36 490.65C2141.46 491.65 2142.95 492.5 2144.81 493.2C2146.68 493.9 2149.11 494.25 2152.11 494.25C2155.05 494.25 2157.53 493.617 2159.56 492.35C2161.6 491.117 2163.15 489.433 2164.21 487.3C2165.28 485.167 2165.81 482.767 2165.81 480.1V478.75H2174.31V480.65C2174.31 485.183 2173.33 488.983 2171.36 492.05C2169.43 495.15 2166.81 497.483 2163.51 499.05C2160.21 500.65 2156.51 501.45 2152.41 501.45ZM2165.81 479.5V471.5C2165.55 472.333 2164.76 473.483 2163.46 474.95C2162.2 476.417 2160.45 477.75 2158.21 478.95C2156.01 480.117 2153.41 480.7 2150.41 480.7C2146.61 480.7 2143.16 479.8 2140.06 478C2137 476.2 2134.55 473.683 2132.71 470.45C2130.91 467.183 2130.01 463.367 2130.01 459C2130.01 454.633 2130.91 450.833 2132.71 447.6C2134.55 444.333 2137 441.8 2140.06 440C2143.16 438.167 2146.61 437.25 2150.41 437.25C2153.38 437.25 2155.95 437.783 2158.11 438.85C2160.31 439.917 2162.06 441.15 2163.36 442.55C2164.7 443.95 2165.48 445.15 2165.71 446.15V438.45H2174.31V479.5H2165.81ZM2138.61 459C2138.61 461.967 2139.26 464.533 2140.56 466.7C2141.86 468.867 2143.55 470.55 2145.61 471.75C2147.71 472.917 2149.95 473.5 2152.31 473.5C2154.85 473.5 2157.11 472.9 2159.11 471.7C2161.11 470.5 2162.7 468.817 2163.86 466.65C2165.03 464.45 2165.61 461.9 2165.61 459C2165.61 456.1 2165.03 453.567 2163.86 451.4C2162.7 449.2 2161.11 447.5 2159.11 446.3C2157.11 445.067 2154.85 444.45 2152.31 444.45C2149.95 444.45 2147.71 445.05 2145.61 446.25C2143.55 447.45 2141.86 449.133 2140.56 451.3C2139.26 453.467 2138.61 456.033 2138.61 459ZM2187.28 479.5V438.45H2195.98V479.5H2187.28ZM2191.73 424.4C2190.16 424.4 2188.81 423.85 2187.68 422.75C2186.58 421.617 2186.03 420.267 2186.03 418.7C2186.03 417.133 2186.58 415.783 2187.68 414.65C2188.81 413.517 2190.16 412.95 2191.73 412.95C2192.76 412.95 2193.71 413.217 2194.58 413.75C2195.48 414.283 2196.19 414.983 2196.73 415.85C2197.26 416.683 2197.53 417.633 2197.53 418.7C2197.53 420.267 2196.96 421.617 2195.83 422.75C2194.69 423.85 2193.33 424.4 2191.73 424.4ZM2232.23 437.25C2234.93 437.25 2237.54 437.817 2240.08 438.95C2242.64 440.083 2244.74 441.883 2246.38 444.35C2248.04 446.783 2248.88 449.967 2248.88 453.9V479.5H2240.08V455.6C2240.08 451.533 2239.13 448.583 2237.23 446.75C2235.33 444.883 2232.88 443.95 2229.88 443.95C2227.91 443.95 2226.01 444.517 2224.18 445.65C2222.38 446.75 2220.89 448.283 2219.73 450.25C2218.56 452.183 2217.98 454.383 2217.98 456.85V479.5H2209.28V438.45H2217.98V445.75C2218.28 444.617 2219.09 443.383 2220.43 442.05C2221.76 440.717 2223.46 439.583 2225.53 438.65C2227.59 437.717 2229.83 437.25 2232.23 437.25ZM2265.7 460.75C2265.74 463.217 2266.27 465.467 2267.3 467.5C2268.34 469.533 2269.87 471.15 2271.9 472.35C2273.97 473.55 2276.5 474.15 2279.5 474.15C2282.04 474.15 2284.19 473.783 2285.95 473.05C2287.75 472.283 2289.22 471.383 2290.35 470.35C2291.49 469.283 2292.3 468.333 2292.8 467.5L2297.05 472.75C2295.95 474.35 2294.6 475.75 2293 476.95C2291.44 478.15 2289.52 479.067 2287.25 479.7C2284.99 480.367 2282.22 480.7 2278.95 480.7C2274.55 480.7 2270.74 479.767 2267.5 477.9C2264.3 476 2261.84 473.383 2260.1 470.05C2258.37 466.683 2257.5 462.833 2257.5 458.5C2257.5 454.5 2258.32 450.9 2259.95 447.7C2261.59 444.467 2263.95 441.917 2267.05 440.05C2270.19 438.183 2273.95 437.25 2278.35 437.25C2282.39 437.25 2285.89 438.1 2288.85 439.8C2291.85 441.467 2294.17 443.833 2295.8 446.9C2297.47 449.967 2298.3 453.633 2298.3 457.9C2298.3 458.167 2298.29 458.65 2298.25 459.35C2298.22 460.017 2298.19 460.483 2298.15 460.75H2265.7ZM2290 454.2C2289.97 452.833 2289.57 451.333 2288.8 449.7C2288.07 448.067 2286.87 446.667 2285.2 445.5C2283.54 444.333 2281.29 443.75 2278.45 443.75C2275.52 443.75 2273.15 444.317 2271.35 445.45C2269.59 446.583 2268.29 447.967 2267.45 449.6C2266.62 451.2 2266.14 452.733 2266 454.2H2290ZM2313.36 460.75C2313.39 463.217 2313.93 465.467 2314.96 467.5C2315.99 469.533 2317.53 471.15 2319.56 472.35C2321.63 473.55 2324.16 474.15 2327.16 474.15C2329.69 474.15 2331.84 473.783 2333.61 473.05C2335.41 472.283 2336.88 471.383 2338.01 470.35C2339.14 469.283 2339.96 468.333 2340.46 467.5L2344.71 472.75C2343.61 474.35 2342.26 475.75 2340.66 476.95C2339.09 478.15 2337.18 479.067 2334.91 479.7C2332.64 480.367 2329.88 480.7 2326.61 480.7C2322.21 480.7 2318.39 479.767 2315.16 477.9C2311.96 476 2309.49 473.383 2307.76 470.05C2306.03 466.683 2305.16 462.833 2305.16 458.5C2305.16 454.5 2305.98 450.9 2307.61 447.7C2309.24 444.467 2311.61 441.917 2314.71 440.05C2317.84 438.183 2321.61 437.25 2326.01 437.25C2330.04 437.25 2333.54 438.1 2336.51 439.8C2339.51 441.467 2341.83 443.833 2343.46 446.9C2345.13 449.967 2345.96 453.633 2345.96 457.9C2345.96 458.167 2345.94 458.65 2345.91 459.35C2345.88 460.017 2345.84 460.483 2345.81 460.75H2313.36ZM2337.66 454.2C2337.63 452.833 2337.23 451.333 2336.46 449.7C2335.73 448.067 2334.53 446.667 2332.86 445.5C2331.19 444.333 2328.94 443.75 2326.11 443.75C2323.18 443.75 2320.81 444.317 2319.01 445.45C2317.24 446.583 2315.94 447.967 2315.11 449.6C2314.28 451.2 2313.79 452.733 2313.66 454.2H2337.66ZM2364.12 479.5H2355.47V438.45H2364.12V445.55H2363.87C2364.03 444.683 2364.65 443.6 2365.72 442.3C2366.78 441 2368.25 439.833 2370.12 438.8C2371.98 437.767 2374.22 437.25 2376.82 437.25C2378.72 437.25 2380.38 437.517 2381.82 438.05C2383.28 438.55 2384.32 439.05 2384.92 439.55L2381.37 446.75C2380.9 446.283 2380.08 445.817 2378.92 445.35C2377.75 444.85 2376.3 444.6 2374.57 444.6C2372.37 444.6 2370.48 445.283 2368.92 446.65C2367.35 448.017 2366.15 449.667 2365.32 451.6C2364.52 453.5 2364.12 455.267 2364.12 456.9V479.5ZM2405.24 437.25C2407.38 437.25 2409.36 437.467 2411.19 437.9C2413.06 438.333 2414.66 438.85 2415.99 439.45C2417.36 440.05 2418.33 440.583 2418.89 441.05L2415.44 446.55C2414.78 445.95 2413.58 445.283 2411.84 444.55C2410.11 443.783 2408.18 443.4 2406.04 443.4C2403.71 443.4 2401.73 443.867 2400.09 444.8C2398.46 445.7 2397.64 447.017 2397.64 448.75C2397.64 450.483 2398.48 451.867 2400.14 452.9C2401.84 453.9 2404.11 454.733 2406.94 455.4C2409.21 455.933 2411.33 456.65 2413.29 457.55C2415.29 458.45 2416.91 459.7 2418.14 461.3C2419.38 462.867 2419.99 464.967 2419.99 467.6C2419.99 470 2419.49 472.05 2418.49 473.75C2417.49 475.417 2416.14 476.767 2414.44 477.8C2412.74 478.8 2410.84 479.533 2408.74 480C2406.64 480.467 2404.51 480.7 2402.34 480.7C2399.81 480.7 2397.53 480.433 2395.49 479.9C2393.46 479.4 2391.74 478.8 2390.34 478.1C2388.98 477.367 2387.98 476.733 2387.34 476.2L2390.79 470C2391.66 470.833 2393.08 471.717 2395.04 472.65C2397.04 473.583 2399.31 474.05 2401.84 474.05C2404.64 474.05 2406.91 473.467 2408.64 472.3C2410.38 471.1 2411.24 469.55 2411.24 467.65C2411.24 466.217 2410.83 465.067 2409.99 464.2C2409.16 463.333 2408.04 462.633 2406.64 462.1C2405.24 461.567 2403.71 461.1 2402.04 460.7C2400.44 460.333 2398.88 459.85 2397.34 459.25C2395.84 458.65 2394.46 457.883 2393.19 456.95C2391.96 455.983 2390.98 454.817 2390.24 453.45C2389.51 452.05 2389.14 450.417 2389.14 448.55C2389.14 446.183 2389.89 444.167 2391.39 442.5C2392.89 440.8 2394.86 439.5 2397.29 438.6C2399.73 437.7 2402.38 437.25 2405.24 437.25Z" fill="#B1B1FF"/>
<defs>
<linearGradient id="paint0_linear_1155_16978" x1="373.5" y1="-63.5" x2="2545" y2="760" gradientUnits="userSpaceOnUse">
<stop stop-color="#07090A"/>
<stop offset="1" stop-color="#2B3167" stop-opacity="0.6"/>
</linearGradient>
<linearGradient id="paint1_linear_1155_16978" x1="414.863" y1="370.761" x2="414.863" y2="217.554" gradientUnits="userSpaceOnUse">
<stop stop-color="#BCBCBC"/>
<stop offset="1" stop-color="white"/>
</linearGradient>
<linearGradient id="paint2_linear_1155_16978" x1="543.144" y1="373.539" x2="543.144" y2="217.277" gradientUnits="userSpaceOnUse">
<stop stop-color="#BCBCBC"/>
<stop offset="1" stop-color="white"/>
</linearGradient>
<linearGradient id="paint3_linear_1155_16978" x1="701.696" y1="373.82" x2="701.696" y2="263.931" gradientUnits="userSpaceOnUse">
<stop stop-color="#BCBCBC"/>
<stop offset="1" stop-color="white"/>
</linearGradient>
<linearGradient id="paint4_linear_1155_16978" x1="855.158" y1="413.755" x2="855.158" y2="261.86" gradientUnits="userSpaceOnUse">
<stop stop-color="#BCBCBC"/>
<stop offset="1" stop-color="white"/>
</linearGradient>
<linearGradient id="paint5_linear_1155_16978" x1="964.569" y1="373.891" x2="964.569" y2="265.314" gradientUnits="userSpaceOnUse">
<stop stop-color="#BCBCBC"/>
<stop offset="1" stop-color="white"/>
</linearGradient>
<linearGradient id="paint6_linear_1155_16978" x1="1060.21" y1="376.506" x2="1060.21" y2="262.251" gradientUnits="userSpaceOnUse">
<stop stop-color="#BCBCBC"/>
<stop offset="1" stop-color="white"/>
</linearGradient>
<linearGradient id="paint7_linear_1155_16978" x1="1145.9" y1="370.761" x2="1145.9" y2="217.554" gradientUnits="userSpaceOnUse">
<stop stop-color="#BCBCBC"/>
<stop offset="1" stop-color="white"/>
</linearGradient>
<linearGradient id="paint8_linear_1155_16978" x1="249.229" y1="367.874" x2="238.76" y2="219.502" gradientUnits="userSpaceOnUse">
<stop stop-color="#BCBCBC"/>
<stop offset="1" stop-color="white"/>
</linearGradient>
<linearGradient id="paint9_linear_1155_16978" x1="284.994" y1="380.694" x2="283.77" y2="328.848" gradientUnits="userSpaceOnUse">
<stop stop-color="#BCBCBC"/>
<stop offset="1" stop-color="white"/>
</linearGradient>
</defs>
</svg>
