<svg width="2579" height="635" viewBox="0 0 2579 635" fill="none" xmlns="http://www.w3.org/2000/svg">
<mask id="path-1-inside-1_1413_18549" fill="white">
<path d="M0 10C0 4.47715 4.47715 0 10 0H2569C2574.52 0 2579 4.47715 2579 10V625C2579 630.523 2574.52 635 2569 635H9.99997C4.47712 635 0 630.523 0 625V10Z"/>
</mask>
<path d="M0 10C0 4.47715 4.47715 0 10 0H2569C2574.52 0 2579 4.47715 2579 10V625C2579 630.523 2574.52 635 2569 635H9.99997C4.47712 635 0 630.523 0 625V10Z" fill="url(#paint0_linear_1413_18549)"/>
<path d="M0 10C0 -1.04569 8.95431 -10 20 -10H2559C2570.05 -10 2579 -1.04569 2579 10C2579 10 2574.52 10 2569 10H10C4.47715 10 0 10 0 10ZM2579 625C2579 636.046 2570.05 645 2559 645H20C8.95431 645 0 636.046 0 625C0 625 4.47715 625 10 625H2569C2574.52 625 2579 625 2579 625ZM0 635V0V635ZM2579 0V635V0Z" fill="#B1B1FF" mask="url(#path-1-inside-1_1413_18549)"/>
<path d="M328.298 381.505L370.104 231.412H413.196L455.002 381.505H429.484L420.255 346.758H363.003L353.563 381.505H328.256H328.298ZM369.03 324.043H414.271L393.473 246.857H389.827L369.03 324.043Z" fill="url(#paint1_linear_1413_18549)"/>
<path d="M464.4 330.259V327.035C464.4 292.73 486.484 272.565 512.865 272.565C533.031 272.565 542.893 281.141 547.823 289.296H551.258V231.412H574.837V381.505H551.679V367.134H548.245C542.893 375.921 533.01 384.498 512.865 384.498C486.694 384.498 464.4 364.564 464.4 330.238V330.259ZM551.679 329.627V327.478C551.679 305.394 538.172 293.173 519.735 293.173C501.297 293.173 488.001 305.394 488.001 327.478V329.627C488.001 351.71 501.508 363.932 519.735 363.932C537.962 363.932 551.679 351.71 551.679 329.627Z" fill="url(#paint2_linear_1413_18549)"/>
<path d="M602.694 381.505V275.578H625.641V287.799H629.287C632.932 280.509 641.508 273.871 656.511 273.871C671.515 273.871 680.955 280.951 685.885 290.602H689.531C694.251 281.162 702.616 273.871 719.558 273.871C739.724 273.871 755.148 286.746 755.148 311.189V381.526H731.78V312.917C731.78 300.695 724.489 293.615 712.478 293.615C698.971 293.615 690.605 302.402 690.605 318.48V381.526H667.237V312.917C667.237 300.695 659.946 293.615 647.935 293.615C634.428 293.615 626.063 302.402 626.063 318.48V381.526H602.694V381.505Z" fill="url(#paint3_linear_1413_18549)"/>
<path d="M793.941 424.386V403.799H852.689C856.756 403.799 858.695 401.65 858.695 397.373V366.502H855.26C851.404 374.425 842.385 383.233 822.451 383.233C798.219 383.233 781.066 366.081 781.066 339.278V275.599H804.435V337.36C804.435 355.166 813.664 363.3 829.531 363.3C847.105 363.3 858.484 351.289 858.484 329.206V275.599H881.852V402.324C881.852 415.831 873.487 424.408 859.98 424.408H793.941V424.386Z" fill="url(#paint4_linear_1413_18549)"/>
<path d="M909.709 381.505V275.578H932.656V288.01H936.301C939.525 279.223 947.027 275.135 957.963 275.135H970.606V296.144H957.31C942.939 296.144 933.077 303.856 933.077 319.723V381.484H909.709V381.505Z" fill="url(#paint5_linear_1413_18549)"/>
<path d="M981.817 350.846C981.817 329.185 998.969 318.038 1022.34 318.038H1053.86V311.611C1053.86 300.021 1046.78 291.888 1031.99 291.888C1017.2 291.888 1010.12 299.6 1007.76 310.536L985.883 303.456C991.025 286.725 1004.97 272.586 1032.2 272.586C1059.42 272.586 1076.58 287.168 1076.58 313.107V355.566C1076.58 359.865 1078.73 361.993 1082.58 361.993H1091.58V381.506H1074.64C1064.57 381.506 1057.49 375.922 1057.49 367.135V366.713H1053.84C1051.06 373.14 1043.56 384.519 1021.45 384.519C999.348 384.519 981.774 372.508 981.774 350.846H981.817ZM1053.86 338.203V336.054H1023.83C1012.69 336.054 1005.4 340.985 1005.4 350.214C1005.4 359.443 1012.69 365.217 1025.33 365.217C1042.06 365.217 1053.84 354.934 1053.84 338.203H1053.86Z" fill="url(#paint6_linear_1413_18549)"/>
<path d="M1109.13 381.505V231.412H1132.5V381.505H1109.13Z" fill="url(#paint7_linear_1413_18549)"/>
<rect x="194.684" y="210.592" width="59.6346" height="178.214" rx="28" transform="rotate(24.9531 194.684 210.592)" fill="url(#paint8_linear_1413_18549)"/>
<circle cx="260.297" cy="356.976" r="31" fill="url(#paint9_linear_1413_18549)"/>
<path d="M1577 137.5H1585.9L1610.3 203.5H1601.15L1595.45 187.6H1567.45L1561.65 203.5H1552.5L1577 137.5ZM1570.2 179.9H1592.75L1581.55 148H1581.4L1570.2 179.9ZM1635.2 204.7C1631.43 204.7 1628.05 203.8 1625.05 202C1622.08 200.2 1619.73 197.683 1618 194.45C1616.3 191.183 1615.45 187.367 1615.45 183C1615.45 178.633 1616.3 174.833 1618 171.6C1619.73 168.333 1622.08 165.8 1625.05 164C1628.05 162.167 1631.43 161.25 1635.2 161.25C1638.23 161.25 1640.9 161.783 1643.2 162.85C1645.5 163.883 1647.33 165.1 1648.7 166.5C1650.07 167.9 1650.85 169.117 1651.05 170.15V134.7H1659.8V203.5H1651.2V195.5C1650.83 196.633 1649.92 197.917 1648.45 199.35C1647.02 200.783 1645.17 202.033 1642.9 203.1C1640.63 204.167 1638.07 204.7 1635.2 204.7ZM1637.2 197.5C1639.73 197.5 1642.05 196.9 1644.15 195.7C1646.25 194.5 1647.92 192.817 1649.15 190.65C1650.42 188.45 1651.05 185.9 1651.05 183C1651.05 180.1 1650.42 177.567 1649.15 175.4C1647.92 173.2 1646.25 171.5 1644.15 170.3C1642.05 169.067 1639.73 168.45 1637.2 168.45C1634.87 168.45 1632.7 169.05 1630.7 170.25C1628.7 171.45 1627.08 173.133 1625.85 175.3C1624.65 177.467 1624.05 180.033 1624.05 183C1624.05 185.967 1624.65 188.533 1625.85 190.7C1627.08 192.867 1628.7 194.55 1630.7 195.75C1632.7 196.917 1634.87 197.5 1637.2 197.5ZM1718.79 161.25C1721.83 161.25 1724.43 161.917 1726.59 163.25C1728.76 164.55 1730.41 166.55 1731.54 169.25C1732.71 171.95 1733.29 175.4 1733.29 179.6V203.5H1724.69V181.35C1724.69 176.917 1724.08 173.583 1722.84 171.35C1721.61 169.117 1719.36 168 1716.09 168C1714.36 168 1712.69 168.483 1711.09 169.45C1709.53 170.383 1708.23 171.833 1707.19 173.8C1706.19 175.767 1705.69 178.283 1705.69 181.35V203.5H1697.59V181.35C1697.59 176.917 1696.83 173.583 1695.29 171.35C1693.76 169.117 1691.61 168 1688.84 168C1687.08 168 1685.41 168.467 1683.84 169.4C1682.31 170.3 1681.06 171.733 1680.09 173.7C1679.13 175.667 1678.64 178.217 1678.64 181.35V203.5H1669.99V162.45H1678.64V168.75C1679.01 167.717 1679.79 166.617 1680.99 165.45C1682.23 164.283 1683.79 163.3 1685.69 162.5C1687.63 161.667 1689.78 161.25 1692.14 161.25C1694.61 161.25 1696.68 161.75 1698.34 162.75C1700.01 163.75 1701.33 164.983 1702.29 166.45C1703.26 167.883 1703.93 169.267 1704.29 170.6C1704.76 169.167 1705.66 167.733 1706.99 166.3C1708.33 164.833 1710.01 163.633 1712.04 162.7C1714.08 161.733 1716.33 161.25 1718.79 161.25ZM1762.37 195.55L1776.22 162.45H1784.92L1757.22 224.3H1748.42L1757.72 203.5L1740.82 162.45H1749.67L1762.37 195.55ZM1800.07 203.5H1791.42V162.45H1800.07V169.55H1799.82C1799.98 168.683 1800.6 167.6 1801.67 166.3C1802.73 165 1804.2 163.833 1806.07 162.8C1807.93 161.767 1810.17 161.25 1812.77 161.25C1814.67 161.25 1816.33 161.517 1817.77 162.05C1819.23 162.55 1820.27 163.05 1820.87 163.55L1817.32 170.75C1816.85 170.283 1816.03 169.817 1814.87 169.35C1813.7 168.85 1812.25 168.6 1810.52 168.6C1808.32 168.6 1806.43 169.283 1804.87 170.65C1803.3 172.017 1802.1 173.667 1801.27 175.6C1800.47 177.5 1800.07 179.267 1800.07 180.9V203.5ZM1858.6 203.5V195.5C1858.33 196.333 1857.55 197.483 1856.25 198.95C1854.98 200.417 1853.23 201.75 1851 202.95C1848.8 204.117 1846.2 204.7 1843.2 204.7C1839.4 204.7 1835.95 203.8 1832.85 202C1829.78 200.2 1827.33 197.683 1825.5 194.45C1823.7 191.183 1822.8 187.367 1822.8 183C1822.8 178.633 1823.7 174.833 1825.5 171.6C1827.33 168.333 1829.78 165.8 1832.85 164C1835.95 162.167 1839.4 161.25 1843.2 161.25C1846.16 161.25 1848.73 161.783 1850.9 162.85C1853.1 163.917 1854.85 165.15 1856.15 166.55C1857.48 167.95 1858.26 169.15 1858.5 170.15V162.45H1867.1V203.5H1858.6ZM1831.4 183C1831.4 185.967 1832.05 188.533 1833.35 190.7C1834.65 192.867 1836.33 194.55 1838.4 195.75C1840.5 196.917 1842.73 197.5 1845.1 197.5C1847.63 197.5 1849.9 196.9 1851.9 195.7C1853.9 194.5 1855.48 192.817 1856.65 190.65C1857.81 188.45 1858.4 185.9 1858.4 183C1858.4 180.1 1857.81 177.567 1856.65 175.4C1855.48 173.2 1853.9 171.5 1851.9 170.3C1849.9 169.067 1847.63 168.45 1845.1 168.45C1842.73 168.45 1840.5 169.05 1838.4 170.25C1836.33 171.45 1834.65 173.133 1833.35 175.3C1832.05 177.467 1831.4 180.033 1831.4 183ZM1887.77 203.5H1879.02V134.7H1887.77V203.5ZM1930.66 184.75C1930.69 187.217 1931.22 189.467 1932.26 191.5C1933.29 193.533 1934.82 195.15 1936.86 196.35C1938.92 197.55 1941.46 198.15 1944.46 198.15C1946.99 198.15 1949.14 197.783 1950.91 197.05C1952.71 196.283 1954.17 195.383 1955.31 194.35C1956.44 193.283 1957.26 192.333 1957.76 191.5L1962.01 196.75C1960.91 198.35 1959.56 199.75 1957.96 200.95C1956.39 202.15 1954.47 203.067 1952.21 203.7C1949.94 204.367 1947.17 204.7 1943.91 204.7C1939.51 204.7 1935.69 203.767 1932.46 201.9C1929.26 200 1926.79 197.383 1925.06 194.05C1923.32 190.683 1922.46 186.833 1922.46 182.5C1922.46 178.5 1923.27 174.9 1924.91 171.7C1926.54 168.467 1928.91 165.917 1932.01 164.05C1935.14 162.183 1938.91 161.25 1943.31 161.25C1947.34 161.25 1950.84 162.1 1953.81 163.8C1956.81 165.467 1959.12 167.833 1960.76 170.9C1962.42 173.967 1963.26 177.633 1963.26 181.9C1963.26 182.167 1963.24 182.65 1963.21 183.35C1963.17 184.017 1963.14 184.483 1963.11 184.75H1930.66ZM1954.96 178.2C1954.92 176.833 1954.52 175.333 1953.76 173.7C1953.02 172.067 1951.82 170.667 1950.16 169.5C1948.49 168.333 1946.24 167.75 1943.41 167.75C1940.47 167.75 1938.11 168.317 1936.31 169.45C1934.54 170.583 1933.24 171.967 1932.41 173.6C1931.57 175.2 1931.09 176.733 1930.96 178.2H1954.96ZM1995.81 161.25C1998.51 161.25 2001.13 161.817 2003.66 162.95C2006.23 164.083 2008.33 165.883 2009.96 168.35C2011.63 170.783 2012.46 173.967 2012.46 177.9V203.5H2003.66V179.6C2003.66 175.533 2002.71 172.583 2000.81 170.75C1998.91 168.883 1996.46 167.95 1993.46 167.95C1991.5 167.95 1989.6 168.517 1987.76 169.65C1985.96 170.75 1984.48 172.283 1983.31 174.25C1982.15 176.183 1981.56 178.383 1981.56 180.85V203.5H1972.86V162.45H1981.56V169.75C1981.86 168.617 1982.68 167.383 1984.01 166.05C1985.35 164.717 1987.05 163.583 1989.11 162.65C1991.18 161.717 1993.41 161.25 1995.81 161.25ZM2056.84 203.5V195.5C2056.57 196.333 2055.79 197.483 2054.49 198.95C2053.22 200.417 2051.47 201.75 2049.24 202.95C2047.04 204.117 2044.44 204.7 2041.44 204.7C2037.64 204.7 2034.19 203.8 2031.09 202C2028.02 200.2 2025.57 197.683 2023.74 194.45C2021.94 191.183 2021.04 187.367 2021.04 183C2021.04 178.633 2021.94 174.833 2023.74 171.6C2025.57 168.333 2028.02 165.8 2031.09 164C2034.19 162.167 2037.64 161.25 2041.44 161.25C2044.41 161.25 2046.97 161.783 2049.14 162.85C2051.34 163.917 2053.09 165.15 2054.39 166.55C2055.72 167.95 2056.51 169.15 2056.74 170.15V162.45H2065.34V203.5H2056.84ZM2029.64 183C2029.64 185.967 2030.29 188.533 2031.59 190.7C2032.89 192.867 2034.57 194.55 2036.64 195.75C2038.74 196.917 2040.97 197.5 2043.34 197.5C2045.87 197.5 2048.14 196.9 2050.14 195.7C2052.14 194.5 2053.72 192.817 2054.89 190.65C2056.06 188.45 2056.64 185.9 2056.64 183C2056.64 180.1 2056.06 177.567 2054.89 175.4C2053.72 173.2 2052.14 171.5 2050.14 170.3C2048.14 169.067 2045.87 168.45 2043.34 168.45C2040.97 168.45 2038.74 169.05 2036.64 170.25C2034.57 171.45 2032.89 173.133 2031.59 175.3C2030.29 177.467 2029.64 180.033 2029.64 183ZM2076.76 203.5V134.7H2085.56V170.15C2085.76 169.117 2086.55 167.9 2087.91 166.5C2089.28 165.1 2091.11 163.883 2093.41 162.85C2095.71 161.783 2098.36 161.25 2101.36 161.25C2105.2 161.25 2108.6 162.167 2111.56 164C2114.53 165.8 2116.86 168.333 2118.56 171.6C2120.3 174.833 2121.16 178.633 2121.16 183C2121.16 187.367 2120.3 191.183 2118.56 194.45C2116.86 197.683 2114.53 200.2 2111.56 202C2108.6 203.8 2105.2 204.7 2101.36 204.7C2098.53 204.7 2095.96 204.167 2093.66 203.1C2091.4 202.033 2089.55 200.783 2088.11 199.35C2086.68 197.917 2085.78 196.633 2085.41 195.5V203.5H2076.76ZM2112.51 183C2112.51 180.033 2111.91 177.467 2110.71 175.3C2109.51 173.133 2107.91 171.45 2105.91 170.25C2103.95 169.05 2101.78 168.45 2099.41 168.45C2096.85 168.45 2094.51 169.067 2092.41 170.3C2090.31 171.5 2088.65 173.2 2087.41 175.4C2086.18 177.567 2085.56 180.1 2085.56 183C2085.56 185.9 2086.18 188.45 2087.41 190.65C2088.65 192.817 2090.31 194.5 2092.41 195.7C2094.51 196.9 2096.85 197.5 2099.41 197.5C2101.78 197.5 2103.95 196.917 2105.91 195.75C2107.91 194.55 2109.51 192.867 2110.71 190.7C2111.91 188.533 2112.51 185.967 2112.51 183ZM2138.46 203.5H2129.71V134.7H2138.46V203.5ZM2156.44 184.75C2156.47 187.217 2157 189.467 2158.04 191.5C2159.07 193.533 2160.6 195.15 2162.64 196.35C2164.7 197.55 2167.24 198.15 2170.24 198.15C2172.77 198.15 2174.92 197.783 2176.69 197.05C2178.49 196.283 2179.95 195.383 2181.09 194.35C2182.22 193.283 2183.04 192.333 2183.54 191.5L2187.79 196.75C2186.69 198.35 2185.34 199.75 2183.74 200.95C2182.17 202.15 2180.25 203.067 2177.99 203.7C2175.72 204.367 2172.95 204.7 2169.69 204.7C2165.29 204.7 2161.47 203.767 2158.24 201.9C2155.04 200 2152.57 197.383 2150.84 194.05C2149.1 190.683 2148.24 186.833 2148.24 182.5C2148.24 178.5 2149.05 174.9 2150.69 171.7C2152.32 168.467 2154.69 165.917 2157.79 164.05C2160.92 162.183 2164.69 161.25 2169.09 161.25C2173.12 161.25 2176.62 162.1 2179.59 163.8C2182.59 165.467 2184.9 167.833 2186.54 170.9C2188.2 173.967 2189.04 177.633 2189.04 181.9C2189.04 182.167 2189.02 182.65 2188.99 183.35C2188.95 184.017 2188.92 184.483 2188.89 184.75H2156.44ZM2180.74 178.2C2180.7 176.833 2180.3 175.333 2179.54 173.7C2178.8 172.067 2177.6 170.667 2175.94 169.5C2174.27 168.333 2172.02 167.75 2169.19 167.75C2166.25 167.75 2163.89 168.317 2162.09 169.45C2160.32 170.583 2159.02 171.967 2158.19 173.6C2157.35 175.2 2156.87 176.733 2156.74 178.2H2180.74ZM2214.04 161.25C2216.18 161.25 2218.16 161.467 2219.99 161.9C2221.86 162.333 2223.46 162.85 2224.79 163.45C2226.16 164.05 2227.13 164.583 2227.69 165.05L2224.24 170.55C2223.58 169.95 2222.38 169.283 2220.64 168.55C2218.91 167.783 2216.98 167.4 2214.84 167.4C2212.51 167.4 2210.53 167.867 2208.89 168.8C2207.26 169.7 2206.44 171.017 2206.44 172.75C2206.44 174.483 2207.28 175.867 2208.94 176.9C2210.64 177.9 2212.91 178.733 2215.74 179.4C2218.01 179.933 2220.13 180.65 2222.09 181.55C2224.09 182.45 2225.71 183.7 2226.94 185.3C2228.18 186.867 2228.79 188.967 2228.79 191.6C2228.79 194 2228.29 196.05 2227.29 197.75C2226.29 199.417 2224.94 200.767 2223.24 201.8C2221.54 202.8 2219.64 203.533 2217.54 204C2215.44 204.467 2213.31 204.7 2211.14 204.7C2208.61 204.7 2206.33 204.433 2204.29 203.9C2202.26 203.4 2200.54 202.8 2199.14 202.1C2197.78 201.367 2196.78 200.733 2196.14 200.2L2199.59 194C2200.46 194.833 2201.88 195.717 2203.84 196.65C2205.84 197.583 2208.11 198.05 2210.64 198.05C2213.44 198.05 2215.71 197.467 2217.44 196.3C2219.18 195.1 2220.04 193.55 2220.04 191.65C2220.04 190.217 2219.63 189.067 2218.79 188.2C2217.96 187.333 2216.84 186.633 2215.44 186.1C2214.04 185.567 2212.51 185.1 2210.84 184.7C2209.24 184.333 2207.68 183.85 2206.14 183.25C2204.64 182.65 2203.26 181.883 2201.99 180.95C2200.76 179.983 2199.78 178.817 2199.04 177.45C2198.31 176.05 2197.94 174.417 2197.94 172.55C2197.94 170.183 2198.69 168.167 2200.19 166.5C2201.69 164.8 2203.66 163.5 2206.09 162.6C2208.53 161.7 2211.18 161.25 2214.04 161.25ZM1576.1 289.5C1578.7 289.5 1580.8 289.083 1582.4 288.25C1584 287.417 1585 286.817 1585.4 286.45L1589.65 292.7C1589.32 293 1588.52 293.483 1587.25 294.15C1586.02 294.783 1584.42 295.367 1582.45 295.9C1580.52 296.433 1578.32 296.7 1575.85 296.7C1572.08 296.7 1568.58 295.867 1565.35 294.2C1562.12 292.5 1559.5 290.033 1557.5 286.8C1555.53 283.567 1554.55 279.617 1554.55 274.95C1554.55 270.25 1555.53 266.3 1557.5 263.1C1559.5 259.867 1562.12 257.417 1565.35 255.75C1568.58 254.083 1572.08 253.25 1575.85 253.25C1578.28 253.25 1580.45 253.55 1582.35 254.15C1584.25 254.717 1585.82 255.35 1587.05 256.05C1588.28 256.75 1589.1 257.283 1589.5 257.65L1585.2 263.9C1584.93 263.633 1584.42 263.233 1583.65 262.7C1582.92 262.133 1581.92 261.617 1580.65 261.15C1579.38 260.683 1577.87 260.45 1576.1 260.45C1573.97 260.45 1571.88 261.033 1569.85 262.2C1567.85 263.333 1566.2 264.983 1564.9 267.15C1563.6 269.317 1562.95 271.917 1562.95 274.95C1562.95 277.983 1563.6 280.6 1564.9 282.8C1566.2 284.967 1567.85 286.633 1569.85 287.8C1571.88 288.933 1573.97 289.5 1576.1 289.5ZM1617.25 296.7C1613.02 296.7 1609.25 295.75 1605.95 293.85C1602.69 291.95 1600.12 289.383 1598.25 286.15C1596.39 282.883 1595.45 279.2 1595.45 275.1C1595.45 271 1596.39 267.3 1598.25 264C1600.12 260.7 1602.69 258.083 1605.95 256.15C1609.25 254.217 1613.02 253.25 1617.25 253.25C1621.45 253.25 1625.17 254.217 1628.4 256.15C1631.67 258.083 1634.22 260.7 1636.05 264C1637.89 267.3 1638.8 271 1638.8 275.1C1638.8 279.2 1637.89 282.883 1636.05 286.15C1634.22 289.383 1631.67 291.95 1628.4 293.85C1625.17 295.75 1621.45 296.7 1617.25 296.7ZM1617.25 289.25C1619.92 289.25 1622.24 288.633 1624.2 287.4C1626.2 286.167 1627.75 284.483 1628.85 282.35C1629.95 280.183 1630.5 277.75 1630.5 275.05C1630.5 272.35 1629.95 269.917 1628.85 267.75C1627.75 265.583 1626.2 263.867 1624.2 262.6C1622.24 261.333 1619.92 260.7 1617.25 260.7C1614.55 260.7 1612.2 261.333 1610.2 262.6C1608.2 263.867 1606.64 265.583 1605.5 267.75C1604.4 269.917 1603.85 272.35 1603.85 275.05C1603.85 277.75 1604.4 280.183 1605.5 282.35C1606.64 284.483 1608.2 286.167 1610.2 287.4C1612.2 288.633 1614.55 289.25 1617.25 289.25ZM1671.4 253.25C1674.1 253.25 1676.72 253.817 1679.25 254.95C1681.82 256.083 1683.92 257.883 1685.55 260.35C1687.22 262.783 1688.05 265.967 1688.05 269.9V295.5H1679.25V271.6C1679.25 267.533 1678.3 264.583 1676.4 262.75C1674.5 260.883 1672.05 259.95 1669.05 259.95C1667.08 259.95 1665.18 260.517 1663.35 261.65C1661.55 262.75 1660.07 264.283 1658.9 266.25C1657.73 268.183 1657.15 270.383 1657.15 272.85V295.5H1648.45V254.45H1657.15V261.75C1657.45 260.617 1658.27 259.383 1659.6 258.05C1660.93 256.717 1662.63 255.583 1664.7 254.65C1666.77 253.717 1669 253.25 1671.4 253.25ZM1695.93 254.45H1703.98V237.6H1712.63V254.45H1723.18V261.9H1712.63V282.2C1712.63 284.6 1713.04 286.367 1713.88 287.5C1714.74 288.633 1715.89 289.2 1717.33 289.2C1718.59 289.2 1719.58 288.967 1720.28 288.5C1720.98 288.033 1721.39 287.717 1721.53 287.55L1724.98 293.95C1724.78 294.117 1724.24 294.433 1723.38 294.9C1722.51 295.367 1721.39 295.783 1720.03 296.15C1718.66 296.517 1717.06 296.7 1715.23 296.7C1712.03 296.7 1709.34 295.733 1707.18 293.8C1705.04 291.833 1703.98 288.733 1703.98 284.5V261.9H1695.93V254.45ZM1733.48 295.5V254.45H1742.18V295.5H1733.48ZM1737.93 240.4C1736.36 240.4 1735.01 239.85 1733.88 238.75C1732.78 237.617 1732.23 236.267 1732.23 234.7C1732.23 233.133 1732.78 231.783 1733.88 230.65C1735.01 229.517 1736.36 228.95 1737.93 228.95C1738.96 228.95 1739.91 229.217 1740.78 229.75C1741.68 230.283 1742.4 230.983 1742.93 231.85C1743.46 232.683 1743.73 233.633 1743.73 234.7C1743.73 236.267 1743.16 237.617 1742.03 238.75C1740.9 239.85 1739.53 240.4 1737.93 240.4ZM1778.43 253.25C1781.13 253.25 1783.75 253.817 1786.28 254.95C1788.85 256.083 1790.95 257.883 1792.58 260.35C1794.25 262.783 1795.08 265.967 1795.08 269.9V295.5H1786.28V271.6C1786.28 267.533 1785.33 264.583 1783.43 262.75C1781.53 260.883 1779.08 259.95 1776.08 259.95C1774.11 259.95 1772.21 260.517 1770.38 261.65C1768.58 262.75 1767.1 264.283 1765.93 266.25C1764.76 268.183 1764.18 270.383 1764.18 272.85V295.5H1755.48V254.45H1764.18V261.75C1764.48 260.617 1765.3 259.383 1766.63 258.05C1767.96 256.717 1769.66 255.583 1771.73 254.65C1773.8 253.717 1776.03 253.25 1778.43 253.25ZM1814.61 275.15C1814.61 279.45 1815.52 282.883 1817.36 285.45C1819.22 287.983 1822.07 289.25 1825.91 289.25C1829.77 289.25 1832.62 287.983 1834.46 285.45C1836.29 282.883 1837.21 279.45 1837.21 275.15V254.45H1845.81V276.35C1845.81 280.35 1845.02 283.883 1843.46 286.95C1841.92 290.017 1839.67 292.417 1836.71 294.15C1833.77 295.85 1830.17 296.7 1825.91 296.7C1821.67 296.7 1818.07 295.85 1815.11 294.15C1812.17 292.417 1809.92 290.017 1808.36 286.95C1806.82 283.883 1806.06 280.35 1806.06 276.35V254.45H1814.61V275.15ZM1876.63 296.7C1872.4 296.7 1868.63 295.75 1865.33 293.85C1862.06 291.95 1859.5 289.383 1857.63 286.15C1855.76 282.883 1854.83 279.2 1854.83 275.1C1854.83 271 1855.76 267.3 1857.63 264C1859.5 260.7 1862.06 258.083 1865.33 256.15C1868.63 254.217 1872.4 253.25 1876.63 253.25C1880.83 253.25 1884.55 254.217 1887.78 256.15C1891.05 258.083 1893.6 260.7 1895.43 264C1897.26 267.3 1898.18 271 1898.18 275.1C1898.18 279.2 1897.26 282.883 1895.43 286.15C1893.6 289.383 1891.05 291.95 1887.78 293.85C1884.55 295.75 1880.83 296.7 1876.63 296.7ZM1876.63 289.25C1879.3 289.25 1881.61 288.633 1883.58 287.4C1885.58 286.167 1887.13 284.483 1888.23 282.35C1889.33 280.183 1889.88 277.75 1889.88 275.05C1889.88 272.35 1889.33 269.917 1888.23 267.75C1887.13 265.583 1885.58 263.867 1883.58 262.6C1881.61 261.333 1879.3 260.7 1876.63 260.7C1873.93 260.7 1871.58 261.333 1869.58 262.6C1867.58 263.867 1866.01 265.583 1864.88 267.75C1863.78 269.917 1863.23 272.35 1863.23 275.05C1863.23 277.75 1863.78 280.183 1864.88 282.35C1866.01 284.483 1867.58 286.167 1869.58 287.4C1871.58 288.633 1873.93 289.25 1876.63 289.25ZM1915.97 275.15C1915.97 279.45 1916.89 282.883 1918.72 285.45C1920.59 287.983 1923.44 289.25 1927.27 289.25C1931.14 289.25 1933.99 287.983 1935.82 285.45C1937.66 282.883 1938.57 279.45 1938.57 275.15V254.45H1947.17V276.35C1947.17 280.35 1946.39 283.883 1944.82 286.95C1943.29 290.017 1941.04 292.417 1938.07 294.15C1935.14 295.85 1931.54 296.7 1927.27 296.7C1923.04 296.7 1919.44 295.85 1916.47 294.15C1913.54 292.417 1911.29 290.017 1909.72 286.95C1908.19 283.883 1907.42 280.35 1907.42 276.35V254.45H1915.97V275.15ZM1974.1 253.25C1976.24 253.25 1978.22 253.467 1980.05 253.9C1981.92 254.333 1983.52 254.85 1984.85 255.45C1986.22 256.05 1987.19 256.583 1987.75 257.05L1984.3 262.55C1983.64 261.95 1982.44 261.283 1980.7 260.55C1978.97 259.783 1977.04 259.4 1974.9 259.4C1972.57 259.4 1970.59 259.867 1968.95 260.8C1967.32 261.7 1966.5 263.017 1966.5 264.75C1966.5 266.483 1967.34 267.867 1969 268.9C1970.7 269.9 1972.97 270.733 1975.8 271.4C1978.07 271.933 1980.19 272.65 1982.15 273.55C1984.15 274.45 1985.77 275.7 1987 277.3C1988.24 278.867 1988.85 280.967 1988.85 283.6C1988.85 286 1988.35 288.05 1987.35 289.75C1986.35 291.417 1985 292.767 1983.3 293.8C1981.6 294.8 1979.7 295.533 1977.6 296C1975.5 296.467 1973.37 296.7 1971.2 296.7C1968.67 296.7 1966.39 296.433 1964.35 295.9C1962.32 295.4 1960.6 294.8 1959.2 294.1C1957.84 293.367 1956.84 292.733 1956.2 292.2L1959.65 286C1960.52 286.833 1961.94 287.717 1963.9 288.65C1965.9 289.583 1968.17 290.05 1970.7 290.05C1973.5 290.05 1975.77 289.467 1977.5 288.3C1979.24 287.1 1980.1 285.55 1980.1 283.65C1980.1 282.217 1979.69 281.067 1978.85 280.2C1978.02 279.333 1976.9 278.633 1975.5 278.1C1974.1 277.567 1972.57 277.1 1970.9 276.7C1969.3 276.333 1967.74 275.85 1966.2 275.25C1964.7 274.65 1963.32 273.883 1962.05 272.95C1960.82 271.983 1959.84 270.817 1959.1 269.45C1958.37 268.05 1958 266.417 1958 264.55C1958 262.183 1958.75 260.167 1960.25 258.5C1961.75 256.8 1963.72 255.5 1966.15 254.6C1968.59 253.7 1971.24 253.25 1974.1 253.25ZM2043.19 289.5C2045.79 289.5 2047.89 289.083 2049.49 288.25C2051.09 287.417 2052.09 286.817 2052.49 286.45L2056.74 292.7C2056.41 293 2055.61 293.483 2054.34 294.15C2053.11 294.783 2051.51 295.367 2049.54 295.9C2047.61 296.433 2045.41 296.7 2042.94 296.7C2039.17 296.7 2035.67 295.867 2032.44 294.2C2029.21 292.5 2026.59 290.033 2024.59 286.8C2022.62 283.567 2021.64 279.617 2021.64 274.95C2021.64 270.25 2022.62 266.3 2024.59 263.1C2026.59 259.867 2029.21 257.417 2032.44 255.75C2035.67 254.083 2039.17 253.25 2042.94 253.25C2045.37 253.25 2047.54 253.55 2049.44 254.15C2051.34 254.717 2052.91 255.35 2054.14 256.05C2055.37 256.75 2056.19 257.283 2056.59 257.65L2052.29 263.9C2052.02 263.633 2051.51 263.233 2050.74 262.7C2050.01 262.133 2049.01 261.617 2047.74 261.15C2046.47 260.683 2044.96 260.45 2043.19 260.45C2041.06 260.45 2038.97 261.033 2036.94 262.2C2034.94 263.333 2033.29 264.983 2031.99 267.15C2030.69 269.317 2030.04 271.917 2030.04 274.95C2030.04 277.983 2030.69 280.6 2031.99 282.8C2033.29 284.967 2034.94 286.633 2036.94 287.8C2038.97 288.933 2041.06 289.5 2043.19 289.5ZM2084.34 296.7C2080.11 296.7 2076.34 295.75 2073.04 293.85C2069.78 291.95 2067.21 289.383 2065.34 286.15C2063.48 282.883 2062.54 279.2 2062.54 275.1C2062.54 271 2063.48 267.3 2065.34 264C2067.21 260.7 2069.78 258.083 2073.04 256.15C2076.34 254.217 2080.11 253.25 2084.34 253.25C2088.54 253.25 2092.26 254.217 2095.49 256.15C2098.76 258.083 2101.31 260.7 2103.14 264C2104.98 267.3 2105.89 271 2105.89 275.1C2105.89 279.2 2104.98 282.883 2103.14 286.15C2101.31 289.383 2098.76 291.95 2095.49 293.85C2092.26 295.75 2088.54 296.7 2084.34 296.7ZM2084.34 289.25C2087.01 289.25 2089.33 288.633 2091.29 287.4C2093.29 286.167 2094.84 284.483 2095.94 282.35C2097.04 280.183 2097.59 277.75 2097.59 275.05C2097.59 272.35 2097.04 269.917 2095.94 267.75C2094.84 265.583 2093.29 263.867 2091.29 262.6C2089.33 261.333 2087.01 260.7 2084.34 260.7C2081.64 260.7 2079.29 261.333 2077.29 262.6C2075.29 263.867 2073.73 265.583 2072.59 267.75C2071.49 269.917 2070.94 272.35 2070.94 275.05C2070.94 277.75 2071.49 280.183 2072.59 282.35C2073.73 284.483 2075.29 286.167 2077.29 287.4C2079.29 288.633 2081.64 289.25 2084.34 289.25ZM2138.49 253.25C2141.19 253.25 2143.81 253.817 2146.34 254.95C2148.91 256.083 2151.01 257.883 2152.64 260.35C2154.31 262.783 2155.14 265.967 2155.14 269.9V295.5H2146.34V271.6C2146.34 267.533 2145.39 264.583 2143.49 262.75C2141.59 260.883 2139.14 259.95 2136.14 259.95C2134.17 259.95 2132.27 260.517 2130.44 261.65C2128.64 262.75 2127.16 264.283 2125.99 266.25C2124.82 268.183 2124.24 270.383 2124.24 272.85V295.5H2115.54V254.45H2124.24V261.75C2124.54 260.617 2125.36 259.383 2126.69 258.05C2128.02 256.717 2129.72 255.583 2131.79 254.65C2133.86 253.717 2136.09 253.25 2138.49 253.25ZM2163.02 254.45H2171.07V237.6H2179.72V254.45H2190.27V261.9H2179.72V282.2C2179.72 284.6 2180.13 286.367 2180.97 287.5C2181.83 288.633 2182.98 289.2 2184.42 289.2C2185.68 289.2 2186.67 288.967 2187.37 288.5C2188.07 288.033 2188.48 287.717 2188.62 287.55L2192.07 293.95C2191.87 294.117 2191.33 294.433 2190.47 294.9C2189.6 295.367 2188.48 295.783 2187.12 296.15C2185.75 296.517 2184.15 296.7 2182.32 296.7C2179.12 296.7 2176.43 295.733 2174.27 293.8C2172.13 291.833 2171.07 288.733 2171.07 284.5V261.9H2163.02V254.45ZM2208.17 295.5H2199.52V254.45H2208.17V261.55H2207.92C2208.09 260.683 2208.7 259.6 2209.77 258.3C2210.84 257 2212.3 255.833 2214.17 254.8C2216.04 253.767 2218.27 253.25 2220.87 253.25C2222.77 253.25 2224.44 253.517 2225.87 254.05C2227.34 254.55 2228.37 255.05 2228.97 255.55L2225.42 262.75C2224.95 262.283 2224.14 261.817 2222.97 261.35C2221.8 260.85 2220.35 260.6 2218.62 260.6C2216.42 260.6 2214.54 261.283 2212.97 262.65C2211.4 264.017 2210.2 265.667 2209.37 267.6C2208.57 269.5 2208.17 271.267 2208.17 272.9V295.5ZM2252.7 296.7C2248.47 296.7 2244.7 295.75 2241.4 293.85C2238.14 291.95 2235.57 289.383 2233.7 286.15C2231.84 282.883 2230.9 279.2 2230.9 275.1C2230.9 271 2231.84 267.3 2233.7 264C2235.57 260.7 2238.14 258.083 2241.4 256.15C2244.7 254.217 2248.47 253.25 2252.7 253.25C2256.9 253.25 2260.62 254.217 2263.85 256.15C2267.12 258.083 2269.67 260.7 2271.5 264C2273.34 267.3 2274.25 271 2274.25 275.1C2274.25 279.2 2273.34 282.883 2271.5 286.15C2269.67 289.383 2267.12 291.95 2263.85 293.85C2260.62 295.75 2256.9 296.7 2252.7 296.7ZM2252.7 289.25C2255.37 289.25 2257.69 288.633 2259.65 287.4C2261.65 286.167 2263.2 284.483 2264.3 282.35C2265.4 280.183 2265.95 277.75 2265.95 275.05C2265.95 272.35 2265.4 269.917 2264.3 267.75C2263.2 265.583 2261.65 263.867 2259.65 262.6C2257.69 261.333 2255.37 260.7 2252.7 260.7C2250 260.7 2247.65 261.333 2245.65 262.6C2243.65 263.867 2242.09 265.583 2240.95 267.75C2239.85 269.917 2239.3 272.35 2239.3 275.05C2239.3 277.75 2239.85 280.183 2240.95 282.35C2242.09 284.483 2243.65 286.167 2245.65 287.4C2247.65 288.633 2250 289.25 2252.7 289.25ZM2292.95 295.5H2284.2V226.7H2292.95V295.5ZM1606 345.25C1609.03 345.25 1611.63 345.917 1613.8 347.25C1615.97 348.55 1617.62 350.55 1618.75 353.25C1619.92 355.95 1620.5 359.4 1620.5 363.6V387.5H1611.9V365.35C1611.9 360.917 1611.28 357.583 1610.05 355.35C1608.82 353.117 1606.57 352 1603.3 352C1601.57 352 1599.9 352.483 1598.3 353.45C1596.73 354.383 1595.43 355.833 1594.4 357.8C1593.4 359.767 1592.9 362.283 1592.9 365.35V387.5H1584.8V365.35C1584.8 360.917 1584.03 357.583 1582.5 355.35C1580.97 353.117 1578.82 352 1576.05 352C1574.28 352 1572.62 352.467 1571.05 353.4C1569.52 354.3 1568.27 355.733 1567.3 357.7C1566.33 359.667 1565.85 362.217 1565.85 365.35V387.5H1557.2V346.45H1565.85V352.75C1566.22 351.717 1567 350.617 1568.2 349.45C1569.43 348.283 1571 347.3 1572.9 346.5C1574.83 345.667 1576.98 345.25 1579.35 345.25C1581.82 345.25 1583.88 345.75 1585.55 346.75C1587.22 347.75 1588.53 348.983 1589.5 350.45C1590.47 351.883 1591.13 353.267 1591.5 354.6C1591.97 353.167 1592.87 351.733 1594.2 350.3C1595.53 348.833 1597.22 347.633 1599.25 346.7C1601.28 345.733 1603.53 345.25 1606 345.25ZM1651.53 388.7C1647.3 388.7 1643.53 387.75 1640.23 385.85C1636.96 383.95 1634.4 381.383 1632.53 378.15C1630.66 374.883 1629.73 371.2 1629.73 367.1C1629.73 363 1630.66 359.3 1632.53 356C1634.4 352.7 1636.96 350.083 1640.23 348.15C1643.53 346.217 1647.3 345.25 1651.53 345.25C1655.73 345.25 1659.45 346.217 1662.68 348.15C1665.95 350.083 1668.5 352.7 1670.33 356C1672.16 359.3 1673.08 363 1673.08 367.1C1673.08 371.2 1672.16 374.883 1670.33 378.15C1668.5 381.383 1665.95 383.95 1662.68 385.85C1659.45 387.75 1655.73 388.7 1651.53 388.7ZM1651.53 381.25C1654.2 381.25 1656.51 380.633 1658.48 379.4C1660.48 378.167 1662.03 376.483 1663.13 374.35C1664.23 372.183 1664.78 369.75 1664.78 367.05C1664.78 364.35 1664.23 361.917 1663.13 359.75C1662.03 357.583 1660.48 355.867 1658.48 354.6C1656.51 353.333 1654.2 352.7 1651.53 352.7C1648.83 352.7 1646.48 353.333 1644.48 354.6C1642.48 355.867 1640.91 357.583 1639.78 359.75C1638.68 361.917 1638.13 364.35 1638.13 367.05C1638.13 369.75 1638.68 372.183 1639.78 374.35C1640.91 376.483 1642.48 378.167 1644.48 379.4C1646.48 380.633 1648.83 381.25 1651.53 381.25ZM1705.68 345.25C1708.38 345.25 1710.99 345.817 1713.53 346.95C1716.09 348.083 1718.19 349.883 1719.83 352.35C1721.49 354.783 1722.33 357.967 1722.33 361.9V387.5H1713.53V363.6C1713.53 359.533 1712.58 356.583 1710.68 354.75C1708.78 352.883 1706.33 351.95 1703.33 351.95C1701.36 351.95 1699.46 352.517 1697.63 353.65C1695.83 354.75 1694.34 356.283 1693.18 358.25C1692.01 360.183 1691.43 362.383 1691.43 364.85V387.5H1682.73V346.45H1691.43V353.75C1691.73 352.617 1692.54 351.383 1693.88 350.05C1695.21 348.717 1696.91 347.583 1698.98 346.65C1701.04 345.717 1703.28 345.25 1705.68 345.25ZM1734.65 387.5V346.45H1743.35V387.5H1734.65ZM1739.1 332.4C1737.54 332.4 1736.19 331.85 1735.05 330.75C1733.95 329.617 1733.4 328.267 1733.4 326.7C1733.4 325.133 1733.95 323.783 1735.05 322.65C1736.19 321.517 1737.54 320.95 1739.1 320.95C1740.14 320.95 1741.09 321.217 1741.95 321.75C1742.85 322.283 1743.57 322.983 1744.1 323.85C1744.64 324.683 1744.9 325.633 1744.9 326.7C1744.9 328.267 1744.34 329.617 1743.2 330.75C1742.07 331.85 1740.7 332.4 1739.1 332.4ZM1753.15 346.45H1761.2V329.6H1769.85V346.45H1780.4V353.9H1769.85V374.2C1769.85 376.6 1770.27 378.367 1771.1 379.5C1771.97 380.633 1773.12 381.2 1774.55 381.2C1775.82 381.2 1776.8 380.967 1777.5 380.5C1778.2 380.033 1778.62 379.717 1778.75 379.55L1782.2 385.95C1782 386.117 1781.47 386.433 1780.6 386.9C1779.74 387.367 1778.62 387.783 1777.25 388.15C1775.89 388.517 1774.29 388.7 1772.45 388.7C1769.25 388.7 1766.57 387.733 1764.4 385.8C1762.27 383.833 1761.2 380.733 1761.2 376.5V353.9H1753.15V346.45ZM1808.76 388.7C1804.52 388.7 1800.76 387.75 1797.46 385.85C1794.19 383.95 1791.62 381.383 1789.76 378.15C1787.89 374.883 1786.96 371.2 1786.96 367.1C1786.96 363 1787.89 359.3 1789.76 356C1791.62 352.7 1794.19 350.083 1797.46 348.15C1800.76 346.217 1804.52 345.25 1808.76 345.25C1812.96 345.25 1816.67 346.217 1819.91 348.15C1823.17 350.083 1825.72 352.7 1827.56 356C1829.39 359.3 1830.31 363 1830.31 367.1C1830.31 371.2 1829.39 374.883 1827.56 378.15C1825.72 381.383 1823.17 383.95 1819.91 385.85C1816.67 387.75 1812.96 388.7 1808.76 388.7ZM1808.76 381.25C1811.42 381.25 1813.74 380.633 1815.71 379.4C1817.71 378.167 1819.26 376.483 1820.36 374.35C1821.46 372.183 1822.01 369.75 1822.01 367.05C1822.01 364.35 1821.46 361.917 1820.36 359.75C1819.26 357.583 1817.71 355.867 1815.71 354.6C1813.74 353.333 1811.42 352.7 1808.76 352.7C1806.06 352.7 1803.71 353.333 1801.71 354.6C1799.71 355.867 1798.14 357.583 1797.01 359.75C1795.91 361.917 1795.36 364.35 1795.36 367.05C1795.36 369.75 1795.91 372.183 1797.01 374.35C1798.14 376.483 1799.71 378.167 1801.71 379.4C1803.71 380.633 1806.06 381.25 1808.76 381.25ZM1848.5 387.5H1839.85V346.45H1848.5V353.55H1848.25C1848.42 352.683 1849.04 351.6 1850.1 350.3C1851.17 349 1852.64 347.833 1854.5 346.8C1856.37 345.767 1858.6 345.25 1861.2 345.25C1863.1 345.25 1864.77 345.517 1866.2 346.05C1867.67 346.55 1868.7 347.05 1869.3 347.55L1865.75 354.75C1865.29 354.283 1864.47 353.817 1863.3 353.35C1862.14 352.85 1860.69 352.6 1858.95 352.6C1856.75 352.6 1854.87 353.283 1853.3 354.65C1851.74 356.017 1850.54 357.667 1849.7 359.6C1848.9 361.5 1848.5 363.267 1848.5 364.9V387.5ZM1875.86 387.5V346.45H1884.56V387.5H1875.86ZM1880.31 332.4C1878.75 332.4 1877.4 331.85 1876.26 330.75C1875.16 329.617 1874.61 328.267 1874.61 326.7C1874.61 325.133 1875.16 323.783 1876.26 322.65C1877.4 321.517 1878.75 320.95 1880.31 320.95C1881.35 320.95 1882.3 321.217 1883.16 321.75C1884.06 322.283 1884.78 322.983 1885.31 323.85C1885.85 324.683 1886.11 325.633 1886.11 326.7C1886.11 328.267 1885.55 329.617 1884.41 330.75C1883.28 331.85 1881.91 332.4 1880.31 332.4ZM1920.81 345.25C1923.51 345.25 1926.13 345.817 1928.66 346.95C1931.23 348.083 1933.33 349.883 1934.96 352.35C1936.63 354.783 1937.46 357.967 1937.46 361.9V387.5H1928.66V363.6C1928.66 359.533 1927.71 356.583 1925.81 354.75C1923.91 352.883 1921.46 351.95 1918.46 351.95C1916.5 351.95 1914.6 352.517 1912.76 353.65C1910.96 354.75 1909.48 356.283 1908.31 358.25C1907.15 360.183 1906.56 362.383 1906.56 364.85V387.5H1897.86V346.45H1906.56V353.75C1906.86 352.617 1907.68 351.383 1909.01 350.05C1910.35 348.717 1912.05 347.583 1914.11 346.65C1916.18 345.717 1918.41 345.25 1920.81 345.25ZM1968.44 409.45C1965.21 409.45 1962.27 409.117 1959.64 408.45C1957.04 407.783 1954.76 406.833 1952.79 405.6C1950.86 404.4 1949.31 402.983 1948.14 401.35L1953.84 395.9C1954.47 396.767 1955.32 397.683 1956.39 398.65C1957.49 399.65 1958.97 400.5 1960.84 401.2C1962.71 401.9 1965.14 402.25 1968.14 402.25C1971.07 402.25 1973.56 401.617 1975.59 400.35C1977.62 399.117 1979.17 397.433 1980.24 395.3C1981.31 393.167 1981.84 390.767 1981.84 388.1V386.75H1990.34V388.65C1990.34 393.183 1989.36 396.983 1987.39 400.05C1985.46 403.15 1982.84 405.483 1979.54 407.05C1976.24 408.65 1972.54 409.45 1968.44 409.45ZM1981.84 387.5V379.5C1981.57 380.333 1980.79 381.483 1979.49 382.95C1978.22 384.417 1976.47 385.75 1974.24 386.95C1972.04 388.117 1969.44 388.7 1966.44 388.7C1962.64 388.7 1959.19 387.8 1956.09 386C1953.02 384.2 1950.57 381.683 1948.74 378.45C1946.94 375.183 1946.04 371.367 1946.04 367C1946.04 362.633 1946.94 358.833 1948.74 355.6C1950.57 352.333 1953.02 349.8 1956.09 348C1959.19 346.167 1962.64 345.25 1966.44 345.25C1969.41 345.25 1971.97 345.783 1974.14 346.85C1976.34 347.917 1978.09 349.15 1979.39 350.55C1980.72 351.95 1981.51 353.15 1981.74 354.15V346.45H1990.34V387.5H1981.84ZM1954.64 367C1954.64 369.967 1955.29 372.533 1956.59 374.7C1957.89 376.867 1959.57 378.55 1961.64 379.75C1963.74 380.917 1965.97 381.5 1968.34 381.5C1970.87 381.5 1973.14 380.9 1975.14 379.7C1977.14 378.5 1978.72 376.817 1979.89 374.65C1981.06 372.45 1981.64 369.9 1981.64 367C1981.64 364.1 1981.06 361.567 1979.89 359.4C1978.72 357.2 1977.14 355.5 1975.14 354.3C1973.14 353.067 1970.87 352.45 1968.34 352.45C1965.97 352.45 1963.74 353.05 1961.64 354.25C1959.57 355.45 1957.89 357.133 1956.59 359.3C1955.29 361.467 1954.64 364.033 1954.64 367ZM2023.41 346.45H2031.81V334.8C2031.81 330.633 2032.52 327.283 2033.96 324.75C2035.42 322.217 2037.27 320.383 2039.51 319.25C2041.77 318.083 2044.09 317.5 2046.46 317.5C2049.32 317.5 2051.52 317.9 2053.06 318.7C2054.62 319.5 2055.56 320.033 2055.86 320.3L2052.36 326.95C2052.19 326.75 2051.67 326.383 2050.81 325.85C2049.94 325.317 2048.76 325.05 2047.26 325.05C2046.16 325.05 2045.09 325.317 2044.06 325.85C2043.02 326.383 2042.16 327.417 2041.46 328.95C2040.76 330.483 2040.41 332.767 2040.41 335.8V346.45H2052.11V353.9H2040.41V387.5H2031.81V353.9H2023.41V346.45ZM2078.97 388.7C2074.74 388.7 2070.97 387.75 2067.67 385.85C2064.41 383.95 2061.84 381.383 2059.97 378.15C2058.11 374.883 2057.17 371.2 2057.17 367.1C2057.17 363 2058.11 359.3 2059.97 356C2061.84 352.7 2064.41 350.083 2067.67 348.15C2070.97 346.217 2074.74 345.25 2078.97 345.25C2083.17 345.25 2086.89 346.217 2090.12 348.15C2093.39 350.083 2095.94 352.7 2097.77 356C2099.61 359.3 2100.52 363 2100.52 367.1C2100.52 371.2 2099.61 374.883 2097.77 378.15C2095.94 381.383 2093.39 383.95 2090.12 385.85C2086.89 387.75 2083.17 388.7 2078.97 388.7ZM2078.97 381.25C2081.64 381.25 2083.96 380.633 2085.92 379.4C2087.92 378.167 2089.47 376.483 2090.57 374.35C2091.67 372.183 2092.22 369.75 2092.22 367.05C2092.22 364.35 2091.67 361.917 2090.57 359.75C2089.47 357.583 2087.92 355.867 2085.92 354.6C2083.96 353.333 2081.64 352.7 2078.97 352.7C2076.27 352.7 2073.92 353.333 2071.92 354.6C2069.92 355.867 2068.36 357.583 2067.22 359.75C2066.12 361.917 2065.57 364.35 2065.57 367.05C2065.57 369.75 2066.12 372.183 2067.22 374.35C2068.36 376.483 2069.92 378.167 2071.92 379.4C2073.92 380.633 2076.27 381.25 2078.97 381.25ZM2118.72 387.5H2110.07V346.45H2118.72V353.55H2118.47C2118.63 352.683 2119.25 351.6 2120.32 350.3C2121.38 349 2122.85 347.833 2124.72 346.8C2126.58 345.767 2128.82 345.25 2131.42 345.25C2133.32 345.25 2134.98 345.517 2136.42 346.05C2137.88 346.55 2138.92 347.05 2139.52 347.55L2135.97 354.75C2135.5 354.283 2134.68 353.817 2133.52 353.35C2132.35 352.85 2130.9 352.6 2129.17 352.6C2126.97 352.6 2125.08 353.283 2123.52 354.65C2121.95 356.017 2120.75 357.667 2119.92 359.6C2119.12 361.5 2118.72 363.267 2118.72 364.9V387.5Z" fill="white"/>
<path d="M1589.75 479.5V471.5C1589.48 472.333 1588.7 473.483 1587.4 474.95C1586.13 476.417 1584.38 477.75 1582.15 478.95C1579.95 480.117 1577.35 480.7 1574.35 480.7C1570.55 480.7 1567.1 479.8 1564 478C1560.93 476.2 1558.48 473.683 1556.65 470.45C1554.85 467.183 1553.95 463.367 1553.95 459C1553.95 454.633 1554.85 450.833 1556.65 447.6C1558.48 444.333 1560.93 441.8 1564 440C1567.1 438.167 1570.55 437.25 1574.35 437.25C1577.32 437.25 1579.88 437.783 1582.05 438.85C1584.25 439.917 1586 441.15 1587.3 442.55C1588.63 443.95 1589.42 445.15 1589.65 446.15V438.45H1598.25V479.5H1589.75ZM1562.55 459C1562.55 461.967 1563.2 464.533 1564.5 466.7C1565.8 468.867 1567.48 470.55 1569.55 471.75C1571.65 472.917 1573.88 473.5 1576.25 473.5C1578.78 473.5 1581.05 472.9 1583.05 471.7C1585.05 470.5 1586.63 468.817 1587.8 466.65C1588.97 464.45 1589.55 461.9 1589.55 459C1589.55 456.1 1588.97 453.567 1587.8 451.4C1586.63 449.2 1585.05 447.5 1583.05 446.3C1581.05 445.067 1578.78 444.45 1576.25 444.45C1573.88 444.45 1571.65 445.05 1569.55 446.25C1567.48 447.45 1565.8 449.133 1564.5 451.3C1563.2 453.467 1562.55 456.033 1562.55 459ZM1632.83 437.25C1635.53 437.25 1638.14 437.817 1640.68 438.95C1643.24 440.083 1645.34 441.883 1646.98 444.35C1648.64 446.783 1649.48 449.967 1649.48 453.9V479.5H1640.68V455.6C1640.68 451.533 1639.73 448.583 1637.83 446.75C1635.93 444.883 1633.48 443.95 1630.48 443.95C1628.51 443.95 1626.61 444.517 1624.78 445.65C1622.98 446.75 1621.49 448.283 1620.33 450.25C1619.16 452.183 1618.58 454.383 1618.58 456.85V479.5H1609.88V438.45H1618.58V445.75C1618.88 444.617 1619.69 443.383 1621.03 442.05C1622.36 440.717 1624.06 439.583 1626.13 438.65C1628.19 437.717 1630.43 437.25 1632.83 437.25ZM1677.9 471.55L1691.75 438.45H1700.45L1672.75 500.3H1663.95L1673.25 479.5L1656.35 438.45H1665.2L1677.9 471.55ZM1751.3 473.5C1753.9 473.5 1756 473.083 1757.6 472.25C1759.2 471.417 1760.2 470.817 1760.6 470.45L1764.85 476.7C1764.51 477 1763.71 477.483 1762.45 478.15C1761.21 478.783 1759.61 479.367 1757.65 479.9C1755.71 480.433 1753.51 480.7 1751.05 480.7C1747.28 480.7 1743.78 479.867 1740.55 478.2C1737.31 476.5 1734.7 474.033 1732.7 470.8C1730.73 467.567 1729.75 463.617 1729.75 458.95C1729.75 454.25 1730.73 450.3 1732.7 447.1C1734.7 443.867 1737.31 441.417 1740.55 439.75C1743.78 438.083 1747.28 437.25 1751.05 437.25C1753.48 437.25 1755.65 437.55 1757.55 438.15C1759.45 438.717 1761.01 439.35 1762.25 440.05C1763.48 440.75 1764.3 441.283 1764.7 441.65L1760.4 447.9C1760.13 447.633 1759.61 447.233 1758.85 446.7C1758.11 446.133 1757.11 445.617 1755.85 445.15C1754.58 444.683 1753.06 444.45 1751.3 444.45C1749.16 444.45 1747.08 445.033 1745.05 446.2C1743.05 447.333 1741.4 448.983 1740.1 451.15C1738.8 453.317 1738.15 455.917 1738.15 458.95C1738.15 461.983 1738.8 464.6 1740.1 466.8C1741.4 468.967 1743.05 470.633 1745.05 471.8C1747.08 472.933 1749.16 473.5 1751.3 473.5ZM1781.6 459.15C1781.6 463.45 1782.52 466.883 1784.35 469.45C1786.22 471.983 1789.07 473.25 1792.9 473.25C1796.77 473.25 1799.62 471.983 1801.45 469.45C1803.28 466.883 1804.2 463.45 1804.2 459.15V438.45H1812.8V460.35C1812.8 464.35 1812.02 467.883 1810.45 470.95C1808.92 474.017 1806.67 476.417 1803.7 478.15C1800.77 479.85 1797.17 480.7 1792.9 480.7C1788.67 480.7 1785.07 479.85 1782.1 478.15C1779.17 476.417 1776.92 474.017 1775.35 470.95C1773.82 467.883 1773.05 464.35 1773.05 460.35V438.45H1781.6V459.15ZM1839.73 437.25C1841.86 437.25 1843.84 437.467 1845.68 437.9C1847.54 438.333 1849.14 438.85 1850.48 439.45C1851.84 440.05 1852.81 440.583 1853.38 441.05L1849.93 446.55C1849.26 445.95 1848.06 445.283 1846.33 444.55C1844.59 443.783 1842.66 443.4 1840.53 443.4C1838.19 443.4 1836.21 443.867 1834.58 444.8C1832.94 445.7 1832.13 447.017 1832.13 448.75C1832.13 450.483 1832.96 451.867 1834.63 452.9C1836.33 453.9 1838.59 454.733 1841.43 455.4C1843.69 455.933 1845.81 456.65 1847.78 457.55C1849.78 458.45 1851.39 459.7 1852.63 461.3C1853.86 462.867 1854.48 464.967 1854.48 467.6C1854.48 470 1853.98 472.05 1852.98 473.75C1851.98 475.417 1850.63 476.767 1848.93 477.8C1847.23 478.8 1845.33 479.533 1843.23 480C1841.13 480.467 1838.99 480.7 1836.83 480.7C1834.29 480.7 1832.01 480.433 1829.98 479.9C1827.94 479.4 1826.23 478.8 1824.83 478.1C1823.46 477.367 1822.46 476.733 1821.83 476.2L1825.28 470C1826.14 470.833 1827.56 471.717 1829.53 472.65C1831.53 473.583 1833.79 474.05 1836.33 474.05C1839.13 474.05 1841.39 473.467 1843.13 472.3C1844.86 471.1 1845.73 469.55 1845.73 467.65C1845.73 466.217 1845.31 465.067 1844.48 464.2C1843.64 463.333 1842.53 462.633 1841.13 462.1C1839.73 461.567 1838.19 461.1 1836.53 460.7C1834.93 460.333 1833.36 459.85 1831.83 459.25C1830.33 458.65 1828.94 457.883 1827.68 456.95C1826.44 455.983 1825.46 454.817 1824.73 453.45C1823.99 452.05 1823.63 450.417 1823.63 448.55C1823.63 446.183 1824.38 444.167 1825.88 442.5C1827.38 440.8 1829.34 439.5 1831.78 438.6C1834.21 437.7 1836.86 437.25 1839.73 437.25ZM1860.38 438.45H1868.43V421.6H1877.08V438.45H1887.63V445.9H1877.08V466.2C1877.08 468.6 1877.5 470.367 1878.33 471.5C1879.2 472.633 1880.35 473.2 1881.78 473.2C1883.05 473.2 1884.03 472.967 1884.73 472.5C1885.43 472.033 1885.85 471.717 1885.98 471.55L1889.43 477.95C1889.23 478.117 1888.7 478.433 1887.83 478.9C1886.96 479.367 1885.85 479.783 1884.48 480.15C1883.11 480.517 1881.51 480.7 1879.68 480.7C1876.48 480.7 1873.8 479.733 1871.63 477.8C1869.5 475.833 1868.43 472.733 1868.43 468.5V445.9H1860.38V438.45ZM1915.98 480.7C1911.75 480.7 1907.98 479.75 1904.68 477.85C1901.42 475.95 1898.85 473.383 1896.98 470.15C1895.12 466.883 1894.18 463.2 1894.18 459.1C1894.18 455 1895.12 451.3 1896.98 448C1898.85 444.7 1901.42 442.083 1904.68 440.15C1907.98 438.217 1911.75 437.25 1915.98 437.25C1920.18 437.25 1923.9 438.217 1927.13 440.15C1930.4 442.083 1932.95 444.7 1934.78 448C1936.62 451.3 1937.53 455 1937.53 459.1C1937.53 463.2 1936.62 466.883 1934.78 470.15C1932.95 473.383 1930.4 475.95 1927.13 477.85C1923.9 479.75 1920.18 480.7 1915.98 480.7ZM1915.98 473.25C1918.65 473.25 1920.97 472.633 1922.93 471.4C1924.93 470.167 1926.48 468.483 1927.58 466.35C1928.68 464.183 1929.23 461.75 1929.23 459.05C1929.23 456.35 1928.68 453.917 1927.58 451.75C1926.48 449.583 1924.93 447.867 1922.93 446.6C1920.97 445.333 1918.65 444.7 1915.98 444.7C1913.28 444.7 1910.93 445.333 1908.93 446.6C1906.93 447.867 1905.37 449.583 1904.23 451.75C1903.13 453.917 1902.58 456.35 1902.58 459.05C1902.58 461.75 1903.13 464.183 1904.23 466.35C1905.37 468.483 1906.93 470.167 1908.93 471.4C1910.93 472.633 1913.28 473.25 1915.98 473.25ZM1996.43 437.25C1999.46 437.25 2002.06 437.917 2004.23 439.25C2006.4 440.55 2008.05 442.55 2009.18 445.25C2010.35 447.95 2010.93 451.4 2010.93 455.6V479.5H2002.33V457.35C2002.33 452.917 2001.71 449.583 2000.48 447.35C1999.25 445.117 1997 444 1993.73 444C1992 444 1990.33 444.483 1988.73 445.45C1987.16 446.383 1985.86 447.833 1984.83 449.8C1983.83 451.767 1983.33 454.283 1983.33 457.35V479.5H1975.23V457.35C1975.23 452.917 1974.46 449.583 1972.93 447.35C1971.4 445.117 1969.25 444 1966.48 444C1964.71 444 1963.05 444.467 1961.48 445.4C1959.95 446.3 1958.7 447.733 1957.73 449.7C1956.76 451.667 1956.28 454.217 1956.28 457.35V479.5H1947.63V438.45H1956.28V444.75C1956.65 443.717 1957.43 442.617 1958.63 441.45C1959.86 440.283 1961.43 439.3 1963.33 438.5C1965.26 437.667 1967.41 437.25 1969.78 437.25C1972.25 437.25 1974.31 437.75 1975.98 438.75C1977.65 439.75 1978.96 440.983 1979.93 442.45C1980.9 443.883 1981.56 445.267 1981.93 446.6C1982.4 445.167 1983.3 443.733 1984.63 442.3C1985.96 440.833 1987.65 439.633 1989.68 438.7C1991.71 437.733 1993.96 437.25 1996.43 437.25ZM2067.21 473.5C2069.81 473.5 2071.91 473.083 2073.51 472.25C2075.11 471.417 2076.11 470.817 2076.51 470.45L2080.76 476.7C2080.43 477 2079.63 477.483 2078.36 478.15C2077.13 478.783 2075.53 479.367 2073.56 479.9C2071.63 480.433 2069.43 480.7 2066.96 480.7C2063.2 480.7 2059.7 479.867 2056.46 478.2C2053.23 476.5 2050.61 474.033 2048.61 470.8C2046.65 467.567 2045.66 463.617 2045.66 458.95C2045.66 454.25 2046.65 450.3 2048.61 447.1C2050.61 443.867 2053.23 441.417 2056.46 439.75C2059.7 438.083 2063.2 437.25 2066.96 437.25C2069.4 437.25 2071.56 437.55 2073.46 438.15C2075.36 438.717 2076.93 439.35 2078.16 440.05C2079.4 440.75 2080.21 441.283 2080.61 441.65L2076.31 447.9C2076.05 447.633 2075.53 447.233 2074.76 446.7C2074.03 446.133 2073.03 445.617 2071.76 445.15C2070.5 444.683 2068.98 444.45 2067.21 444.45C2065.08 444.45 2063 445.033 2060.96 446.2C2058.96 447.333 2057.31 448.983 2056.01 451.15C2054.71 453.317 2054.06 455.917 2054.06 458.95C2054.06 461.983 2054.71 464.6 2056.01 466.8C2057.31 468.967 2058.96 470.633 2060.96 471.8C2063 472.933 2065.08 473.5 2067.21 473.5ZM2108.37 480.7C2104.13 480.7 2100.37 479.75 2097.07 477.85C2093.8 475.95 2091.23 473.383 2089.37 470.15C2087.5 466.883 2086.57 463.2 2086.57 459.1C2086.57 455 2087.5 451.3 2089.37 448C2091.23 444.7 2093.8 442.083 2097.07 440.15C2100.37 438.217 2104.13 437.25 2108.37 437.25C2112.57 437.25 2116.28 438.217 2119.52 440.15C2122.78 442.083 2125.33 444.7 2127.17 448C2129 451.3 2129.92 455 2129.92 459.1C2129.92 463.2 2129 466.883 2127.17 470.15C2125.33 473.383 2122.78 475.95 2119.52 477.85C2116.28 479.75 2112.57 480.7 2108.37 480.7ZM2108.37 473.25C2111.03 473.25 2113.35 472.633 2115.32 471.4C2117.32 470.167 2118.87 468.483 2119.97 466.35C2121.07 464.183 2121.62 461.75 2121.62 459.05C2121.62 456.35 2121.07 453.917 2119.97 451.75C2118.87 449.583 2117.32 447.867 2115.32 446.6C2113.35 445.333 2111.03 444.7 2108.37 444.7C2105.67 444.7 2103.32 445.333 2101.32 446.6C2099.32 447.867 2097.75 449.583 2096.62 451.75C2095.52 453.917 2094.97 456.35 2094.97 459.05C2094.97 461.75 2095.52 464.183 2096.62 466.35C2097.75 468.483 2099.32 470.167 2101.32 471.4C2103.32 472.633 2105.67 473.25 2108.37 473.25ZM2162.51 437.25C2165.21 437.25 2167.83 437.817 2170.36 438.95C2172.93 440.083 2175.03 441.883 2176.66 444.35C2178.33 446.783 2179.16 449.967 2179.16 453.9V479.5H2170.36V455.6C2170.36 451.533 2169.41 448.583 2167.51 446.75C2165.61 444.883 2163.16 443.95 2160.16 443.95C2158.2 443.95 2156.3 444.517 2154.46 445.65C2152.66 446.75 2151.18 448.283 2150.01 450.25C2148.85 452.183 2148.26 454.383 2148.26 456.85V479.5H2139.56V438.45H2148.26V445.75C2148.56 444.617 2149.38 443.383 2150.71 442.05C2152.05 440.717 2153.75 439.583 2155.81 438.65C2157.88 437.717 2160.11 437.25 2162.51 437.25ZM2187.04 438.45H2195.09V421.6H2203.74V438.45H2214.29V445.9H2203.74V466.2C2203.74 468.6 2204.16 470.367 2204.99 471.5C2205.86 472.633 2207.01 473.2 2208.44 473.2C2209.71 473.2 2210.69 472.967 2211.39 472.5C2212.09 472.033 2212.51 471.717 2212.64 471.55L2216.09 477.95C2215.89 478.117 2215.36 478.433 2214.49 478.9C2213.62 479.367 2212.51 479.783 2211.14 480.15C2209.77 480.517 2208.17 480.7 2206.34 480.7C2203.14 480.7 2200.46 479.733 2198.29 477.8C2196.16 475.833 2195.09 472.733 2195.09 468.5V445.9H2187.04V438.45ZM2232.19 479.5H2223.54V438.45H2232.19V445.55H2231.94C2232.11 444.683 2232.73 443.6 2233.79 442.3C2234.86 441 2236.33 439.833 2238.19 438.8C2240.06 437.767 2242.29 437.25 2244.89 437.25C2246.79 437.25 2248.46 437.517 2249.89 438.05C2251.36 438.55 2252.39 439.05 2252.99 439.55L2249.44 446.75C2248.98 446.283 2248.16 445.817 2246.99 445.35C2245.83 444.85 2244.38 444.6 2242.64 444.6C2240.44 444.6 2238.56 445.283 2236.99 446.65C2235.43 448.017 2234.23 449.667 2233.39 451.6C2232.59 453.5 2232.19 455.267 2232.19 456.9V479.5ZM2276.73 480.7C2272.49 480.7 2268.73 479.75 2265.43 477.85C2262.16 475.95 2259.59 473.383 2257.73 470.15C2255.86 466.883 2254.93 463.2 2254.93 459.1C2254.93 455 2255.86 451.3 2257.73 448C2259.59 444.7 2262.16 442.083 2265.43 440.15C2268.73 438.217 2272.49 437.25 2276.73 437.25C2280.93 437.25 2284.64 438.217 2287.88 440.15C2291.14 442.083 2293.69 444.7 2295.53 448C2297.36 451.3 2298.28 455 2298.28 459.1C2298.28 463.2 2297.36 466.883 2295.53 470.15C2293.69 473.383 2291.14 475.95 2287.88 477.85C2284.64 479.75 2280.93 480.7 2276.73 480.7ZM2276.73 473.25C2279.39 473.25 2281.71 472.633 2283.68 471.4C2285.68 470.167 2287.23 468.483 2288.33 466.35C2289.43 464.183 2289.98 461.75 2289.98 459.05C2289.98 456.35 2289.43 453.917 2288.33 451.75C2287.23 449.583 2285.68 447.867 2283.68 446.6C2281.71 445.333 2279.39 444.7 2276.73 444.7C2274.03 444.7 2271.68 445.333 2269.68 446.6C2267.68 447.867 2266.11 449.583 2264.98 451.75C2263.88 453.917 2263.33 456.35 2263.33 459.05C2263.33 461.75 2263.88 464.183 2264.98 466.35C2266.11 468.483 2267.68 470.167 2269.68 471.4C2271.68 472.633 2274.03 473.25 2276.73 473.25ZM2316.97 479.5H2308.22V410.7H2316.97V479.5Z" fill="#B1B1FF"/>
<defs>
<linearGradient id="paint0_linear_1413_18549" x1="373.5" y1="-63.5" x2="2545" y2="760" gradientUnits="userSpaceOnUse">
<stop stop-color="#07090A"/>
<stop offset="1" stop-color="#2B3167" stop-opacity="0.6"/>
</linearGradient>
<linearGradient id="paint1_linear_1413_18549" x1="389.363" y1="370.761" x2="389.363" y2="217.553" gradientUnits="userSpaceOnUse">
<stop stop-color="#BCBCBC"/>
<stop offset="1" stop-color="white"/>
</linearGradient>
<linearGradient id="paint2_linear_1413_18549" x1="517.644" y1="373.539" x2="517.644" y2="217.277" gradientUnits="userSpaceOnUse">
<stop stop-color="#BCBCBC"/>
<stop offset="1" stop-color="white"/>
</linearGradient>
<linearGradient id="paint3_linear_1413_18549" x1="676.196" y1="373.82" x2="676.196" y2="263.931" gradientUnits="userSpaceOnUse">
<stop stop-color="#BCBCBC"/>
<stop offset="1" stop-color="white"/>
</linearGradient>
<linearGradient id="paint4_linear_1413_18549" x1="829.658" y1="413.755" x2="829.658" y2="261.86" gradientUnits="userSpaceOnUse">
<stop stop-color="#BCBCBC"/>
<stop offset="1" stop-color="white"/>
</linearGradient>
<linearGradient id="paint5_linear_1413_18549" x1="939.069" y1="373.891" x2="939.069" y2="265.314" gradientUnits="userSpaceOnUse">
<stop stop-color="#BCBCBC"/>
<stop offset="1" stop-color="white"/>
</linearGradient>
<linearGradient id="paint6_linear_1413_18549" x1="1034.71" y1="376.506" x2="1034.71" y2="262.251" gradientUnits="userSpaceOnUse">
<stop stop-color="#BCBCBC"/>
<stop offset="1" stop-color="white"/>
</linearGradient>
<linearGradient id="paint7_linear_1413_18549" x1="1120.4" y1="370.761" x2="1120.4" y2="217.553" gradientUnits="userSpaceOnUse">
<stop stop-color="#BCBCBC"/>
<stop offset="1" stop-color="white"/>
</linearGradient>
<linearGradient id="paint8_linear_1413_18549" x1="223.729" y1="367.874" x2="213.26" y2="219.502" gradientUnits="userSpaceOnUse">
<stop stop-color="#BCBCBC"/>
<stop offset="1" stop-color="white"/>
</linearGradient>
<linearGradient id="paint9_linear_1413_18549" x1="259.494" y1="380.694" x2="258.27" y2="328.848" gradientUnits="userSpaceOnUse">
<stop stop-color="#BCBCBC"/>
<stop offset="1" stop-color="white"/>
</linearGradient>
</defs>
</svg>
